<?xml version="1.0" encoding="UTF-8" standalone="no"?>
<!-- Created with Inkscape (http://www.inkscape.org/) -->

<svg
   xmlns:dc="http://purl.org/dc/elements/1.1/"
   xmlns:cc="http://creativecommons.org/ns#"
   xmlns:rdf="http://www.w3.org/1999/02/22-rdf-syntax-ns#"
   xmlns:svg="http://www.w3.org/2000/svg"
   xmlns="http://www.w3.org/2000/svg"
   xmlns:sodipodi="http://sodipodi.sourceforge.net/DTD/sodipodi-0.dtd"
   xmlns:inkscape="http://www.inkscape.org/namespaces/inkscape"
   width="436.28937"
   height="261.50986"
   id="svg6907"
   version="1.1"
   inkscape:version="0.48.5 r10040"
   sodipodi:docname="im3122.svg">
  <sodipodi:namedview
     id="base"
     pagecolor="#ffffff"
     bordercolor="#666666"
     borderopacity="1.0"
     inkscape:pageopacity="0.0"
     inkscape:pageshadow="2"
     inkscape:zoom="0.98994949"
     inkscape:cx="297.44953"
     inkscape:cy="101.75174"
     inkscape:document-units="px"
     inkscape:current-layer="layer1"
     showgrid="false"
     inkscape:window-width="1212"
     inkscape:window-height="661"
     inkscape:window-x="20"
     inkscape:window-y="20"
     inkscape:window-maximized="0"
     fit-margin-top="0"
     fit-margin-left="0"
     fit-margin-right="0"
     fit-margin-bottom="0" />
  <defs
     id="defs6909">
    <marker
       style="overflow:visible"
       id="Arrow1Mend"
       refX="0"
       refY="0"
       orient="auto"
       inkscape:stockid="Arrow1Mend">
      <path
         transform="matrix(-0.4,0,0,-0.4,-4,0)"
         style="fill-rule:evenodd;stroke:#000000;stroke-width:1pt"
         d="M 0,0 5,-5 -12.5,0 5,5 0,0 z"
         id="path4582"
         inkscape:connector-curvature="0" />
    </marker>
  </defs>
  <metadata
     id="metadata6912">
    <rdf:RDF>
      <cc:Work
         rdf:about="">
        <dc:format>image/svg+xml</dc:format>
        <dc:type
           rdf:resource="http://purl.org/dc/dcmitype/StillImage" />
        <dc:title />
      </cc:Work>
    </rdf:RDF>
  </metadata>
  <g
     inkscape:label="Ebene 1"
     inkscape:groupmode="layer"
     id="layer1"
     transform="translate(-71.73098,-86.370599)">
    <rect
       y="164.4381"
       x="72.73098"
       height="103.03556"
       width="128.28937"
       id="rect6957"
       style="fill:none;stroke:#000000;stroke-width:1;stroke-miterlimit:4;stroke-opacity:1;stroke-dasharray:none;stroke-dashoffset:0" />
    <rect
       style="fill:none;stroke:#000000;stroke-width:1;stroke-miterlimit:4;stroke-opacity:1;stroke-dasharray:none;stroke-dashoffset:0"
       id="rect6959"
       width="128.28937"
       height="103.03556"
       x="378.73099"
       y="164.4381" />
    <path
       sodipodi:nodetypes="cc"
       inkscape:connector-curvature="0"
       id="path6961"
       d="m 170.71578,267.47365 c 86.62487,74.6377 171.63497,65.30711 255.56859,0"
       style="fill:none;stroke:#000000;stroke-width:1px;stroke-linecap:butt;stroke-linejoin:miter;stroke-opacity:1;marker-end:url(#Arrow1Mend)" />
    <path
       style="fill:none;stroke:#000000;stroke-width:1px;stroke-linecap:butt;stroke-linejoin:miter;stroke-opacity:1;marker-end:url(#Arrow1Mend)"
       d="m 426.82361,163.64706 c -86.62487,-74.6377 -171.63497,-65.30711 -255.56859,0"
       id="path7655"
       inkscape:connector-curvature="0"
       sodipodi:nodetypes="cc" />
    <g
       transform="matrix(0.36870262,0,0,0.36870262,156.08623,-31.881915)"
       id="g7668">
      <g
         style="font-style:normal;font-variant:normal;font-weight:normal;font-stretch:normal;letter-spacing:normal;word-spacing:normal;text-anchor:start;fill:none;stroke:#000000;stroke-linecap:butt;stroke-linejoin:miter;stroke-miterlimit:10.43299961;stroke-opacity:1;stroke-dasharray:none;stroke-dashoffset:0"
         word-spacing="normal"
         letter-spacing="normal"
         font-size-adjust="none"
         font-stretch="normal"
         font-weight="normal"
         font-variant="normal"
         font-style="normal"
         stroke-miterlimit="10.433"
         xml:space="preserve"
         transform="matrix(1.0629921,0,0,-1.0629921,-186.02362,789.27165)"
         id="content"><path
           style="fill:#000000;stroke-width:0"
           inkscape:connector-curvature="0"
           id="path7671"
           d="m 466.83,421.95 -0.15,1.28 v 13.45 c 0,1.66 0.11,2 2.43,2 h 4.44 c 7.92,0 7.92,-5.28 7.92,-7.72 0,-2.34 0,-7.73 -7.92,-7.73 h -6.87 l 0.15,-1.28 h 8.42 c 5.97,0 11.36,4.03 11.36,9.01 0,4.88 -4.93,9.27 -11.76,9.27 h -17.58 v -1.55 h 1.19 c 3.84,0 3.93,-0.54 3.93,-2.34 v -26.25 c 0,-1.8 -0.09,-2.34 -3.93,-2.34 h -1.19 v -1.55 c 1.73,0.16 5.42,0.16 7.31,0.16 1.89,0 5.64,0 7.38,-0.16 v 1.55 h -1.19 c -3.84,0 -3.94,0.54 -3.94,2.34 z" /><path
           style="fill:#000000;stroke-width:0"
           inkscape:connector-curvature="0"
           id="path7673"
           d="m 508.96,410.14 v -4.49 l 7.17,0.55 v 1.55 c -3.48,0 -3.89,0.34 -3.89,2.78 v 17.68 l -7.33,-0.54 v -1.55 c 3.5,0 3.89,-0.34 3.89,-2.78 v -8.88 c 0,-4.32 -2.39,-7.71 -6.03,-7.71 -4.17,0 -4.37,2.34 -4.37,4.93 v 16.53 l -7.33,-0.54 v -1.55 c 3.89,0 3.89,-0.14 3.89,-4.58 v -7.47 c 0,-3.89 0,-8.42 7.56,-8.42 2.8,0 4.99,1.39 6.44,4.49 z" /><path
           style="fill:#000000;stroke-width:0"
           inkscape:connector-curvature="0"
           id="path7675"
           d="m 526.01,440.78 -7.17,-0.55 v -1.55 c 3.48,0 3.89,-0.34 3.89,-2.79 v -25.91 c 0,-2.23 -0.55,-2.23 -3.89,-2.23 v -1.55 c 1.64,0.05 4.28,0.16 5.53,0.16 1.25,0 3.68,-0.11 5.53,-0.16 v 1.55 c -3.35,0 -3.89,0 -3.89,2.23 z" /><path
           style="fill:#000000;stroke-width:0"
           inkscape:connector-curvature="0"
           id="path7677"
           d="m 539.8,440.78 -7.17,-0.55 v -1.55 c 3.49,0 3.89,-0.34 3.89,-2.79 v -25.91 c 0,-2.23 -0.54,-2.23 -3.89,-2.23 v -1.55 c 1.64,0.05 4.28,0.16 5.53,0.16 1.25,0 3.69,-0.11 5.54,-0.16 v 1.55 c -3.35,0 -3.9,0 -3.9,2.23 z" /><polygon
           style="fill:#000000;stroke-width:0"
           id="polygon7679"
           points="558.54,415.51 558.54,418.4 545.34,418.4 545.34,415.51 " /><path
           style="fill:#000000;stroke-width:0"
           inkscape:connector-curvature="0"
           id="path7681"
           d="m 584.16,423.98 0.45,0.1 0.44,0.1 0.43,0.13 0.43,0.13 0.41,0.14 0.4,0.16 0.4,0.17 0.38,0.18 0.37,0.19 0.36,0.2 0.34,0.21 0.34,0.21 0.32,0.23 0.31,0.24 0.3,0.25 0.28,0.25 0.26,0.26 0.26,0.27 0.24,0.28 0.22,0.28 0.21,0.29 0.19,0.3 0.17,0.3 0.16,0.31 0.14,0.32 0.12,0.32 0.11,0.32 0.08,0.33 0.07,0.34 0.05,0.33 0.03,0.34 0.01,0.35 c 0,4.33 -4.59,8.42 -11.06,8.42 l -0.36,-1.55 c 4.84,0 6.58,-4.23 6.58,-6.87 0,-3.19 -2.44,-7.38 -7.97,-7.38 h -7.22 v -1.09 h 9.36 c 4.94,0 7.03,-4.64 7.03,-7.97 0,-3.55 -2.59,-7.62 -7.72,-7.62 h 0 -6.23 c -2.35,0 -2.44,0.34 -2.44,1.98 v 13.61 1.09 12.25 c 0,1.66 0.09,2 2.44,2 h 6.17 l 0.36,1.55 h -18.23 v -1.55 h 1.18 c 3.85,0 3.94,-0.54 3.94,-2.34 v -26.25 c 0,-1.8 -0.09,-2.34 -3.94,-2.34 h -1.18 v -1.55 h 19.53 c 6.62,0 11.1,4.44 11.1,9.12 0,4.33 -4.09,8.07 -9.62,8.66 z" /><path
           style="fill:#000000;stroke-width:0"
           inkscape:connector-curvature="0"
           id="path7683"
           d="m 613.22,409.98 0.02,-0.19 0.03,-0.18 0.04,-0.19 0.04,-0.18 0.05,-0.19 0.05,-0.18 0.06,-0.18 0.07,-0.18 0.08,-0.18 0.08,-0.17 0.09,-0.18 0.09,-0.16 0.1,-0.16 0.11,-0.16 0.11,-0.16 0.12,-0.14 0.13,-0.14 0.13,-0.14 0.14,-0.13 0.14,-0.12 0.15,-0.12 0.16,-0.1 0.16,-0.1 0.17,-0.09 0.18,-0.08 0.18,-0.07 0.18,-0.06 0.2,-0.05 0.2,-0.04 0.2,-0.03 0.21,-0.02 0.22,-0.01 c 1.03,0 4.08,0.71 4.08,4.74 v 2.78 h -1.25 v -2.78 c 0,-2.89 -1.24,-3.19 -1.8,-3.19 -1.64,0 -1.84,2.23 -1.84,2.48 v 9.97 c 0,2.1 0,4.03 -1.78,5.88 -1.96,1.93 -4.44,2.73 -6.83,2.73 -4.1,0 -7.53,-2.33 -7.53,-5.62 0,-1.49 1,-2.35 2.29,-2.35 1.39,0 2.3,1 2.3,2.3 0,0.59 -0.25,2.23 -2.55,2.3 1.35,1.73 3.78,2.28 5.38,2.28 2.45,0 5.28,-1.94 5.28,-6.38 v -1.84 -1.05 -4.98 c 0,-4.74 -3.58,-6.42 -5.83,-6.42 -2.44,0 -4.48,1.75 -4.48,4.23 0,2.73 2.09,6.88 10.31,7.17 h 0 v 1.05 c -2.53,-0.14 -6.02,-0.3 -9.16,-1.8 -3.73,-1.69 -4.98,-4.28 -4.98,-6.47 0,-4.03 4.83,-5.28 7.97,-5.28 3.29,0 5.58,1.99 6.53,4.33 z" /><path
           style="fill:#000000;stroke-width:0"
           inkscape:connector-curvature="0"
           id="path7685"
           d="m 627.41,417.06 0,0.38 0.01,0.36 0.02,0.36 0.02,0.35 0.02,0.34 0.03,0.34 0.04,0.32 0.04,0.32 0.05,0.31 0.05,0.3 0.05,0.29 0.07,0.29 0.13,0.55 0.15,0.51 0.17,0.49 0.18,0.46 0.2,0.43 0.2,0.4 0.23,0.38 0.23,0.35 0.24,0.32 0.25,0.3 0.25,0.28 0.27,0.26 0.27,0.23 0.27,0.21 0.28,0.19 0.28,0.16 0.29,0.15 0.28,0.13 0.28,0.12 0.28,0.09 0.28,0.08 0.28,0.06 0.27,0.05 0.26,0.03 0.26,0.02 0.26,0.01 c 0.43,0 3.57,-0.05 5.32,-1.85 -2.04,-0.15 -2.34,-1.64 -2.34,-2.29 0,-1.3 0.89,-2.3 2.3,-2.3 1.28,0 2.28,0.86 2.28,2.34 0,3.39 -3.78,5.33 -7.63,5.33 -6.22,0 -10.81,-5.37 -10.81,-11.55 0,-6.37 4.94,-11.31 10.72,-11.31 6.67,0 8.26,5.99 8.26,6.47 0,0.5 -0.5,0.5 -0.64,0.5 -0.45,0 -0.54,-0.19 -0.65,-0.5 -1.44,-4.62 -4.68,-5.22 -6.52,-5.22 -2.64,0 -7.03,2.14 -7.03,10.16 z" /><path
           style="fill:#000000;stroke-width:0"
           inkscape:connector-curvature="0"
           id="path7687"
           d="m 647.5,409.98 0,-0.1 0,-0.1 -0.01,-0.19 -0.01,-0.18 -0.01,-0.17 -0.02,-0.15 -0.02,-0.15 -0.03,-0.13 -0.04,-0.12 -0.04,-0.11 -0.05,-0.11 -0.06,-0.09 -0.06,-0.09 -0.07,-0.08 -0.08,-0.07 -0.09,-0.06 -0.1,-0.05 -0.11,-0.05 -0.12,-0.05 -0.13,-0.03 -0.14,-0.04 -0.15,-0.02 -0.17,-0.03 -0.17,-0.01 -0.1,-0.01 -0.09,-0.01 -0.1,-0.01 -0.1,0 -0.11,-0.01 -0.11,0 -0.11,0 -0.12,-0.01 -0.12,0 -0.12,0 -0.13,0 -0.13,0 -0.14,0 -0.14,0 -0.14,0 -0.15,0 -0.15,0 -0.15,0 v -1.55 c 1.66,0.05 3.98,0.16 5.44,0.16 1.48,0 3.48,-0.07 5.48,-0.16 v 1.55 c -3.34,0 -3.89,0 -3.89,2.23 v 5.14 l 3.19,2.74 c 3.83,-5.29 5.92,-8.07 5.92,-8.97 0,-0.94 -0.84,-1.14 -1.78,-1.14 v -1.55 c 1.39,0.05 4.33,0.16 5.37,0.16 1.44,0 2.89,-0.07 4.33,-0.16 v 1.55 c -1.84,0 -2.94,0 -4.83,2.64 l -6.32,8.92 c -0.05,0.09 -0.3,0.39 -0.3,0.55 0,0.18 3.53,3.18 4.03,3.57 3.14,2.55 5.23,2.64 6.28,2.69 v 1.55 c -1.44,-0.14 -2.09,-0.14 -3.48,-0.14 -1.8,0 -4.89,0.09 -5.58,0.14 v -1.55 c 0.94,-0.05 1.44,-0.59 1.44,-1.23 0,-1 -0.69,-1.6 -1.1,-1.96 l -7.03,-6.07 v 23.92 l -7.17,-0.55 v -1.55 c 3.48,0 3.89,-0.34 3.89,-2.79 z" /></g>    </g>
    <g
       transform="matrix(0.40488423,0,0,0.40488423,164.44312,195.89955)"
       id="g7731">
      <g
         style="font-style:normal;font-variant:normal;font-weight:normal;font-stretch:normal;letter-spacing:normal;word-spacing:normal;text-anchor:start;fill:none;stroke:#000000;stroke-linecap:butt;stroke-linejoin:miter;stroke-miterlimit:10.43299961;stroke-opacity:1;stroke-dasharray:none;stroke-dashoffset:0"
         id="g7733"
         transform="matrix(1.0629921,0,0,-1.0629921,-186.02362,789.27165)"
         xml:space="preserve"
         stroke-miterlimit="10.433"
         font-style="normal"
         font-variant="normal"
         font-weight="normal"
         font-stretch="normal"
         font-size-adjust="none"
         letter-spacing="normal"
         word-spacing="normal"><path
           style="fill:#000000;stroke-width:0"
           inkscape:connector-curvature="0"
           d="m 466.83,421.95 -0.15,1.28 v 13.45 c 0,1.66 0.11,2 2.43,2 h 4.44 c 7.92,0 7.92,-5.28 7.92,-7.72 0,-2.34 0,-7.73 -7.92,-7.73 h -6.87 l 0.15,-1.28 h 8.42 c 5.97,0 11.36,4.03 11.36,9.01 0,4.88 -4.93,9.27 -11.76,9.27 h -17.58 v -1.55 h 1.19 c 3.84,0 3.93,-0.54 3.93,-2.34 v -26.25 c 0,-1.8 -0.09,-2.34 -3.93,-2.34 h -1.19 v -1.55 c 1.73,0.16 5.42,0.16 7.31,0.16 1.89,0 5.64,0 7.38,-0.16 v 1.55 h -1.19 c -3.84,0 -3.94,0.54 -3.94,2.34 z"
           id="path7735" /><path
           style="fill:#000000;stroke-width:0"
           inkscape:connector-curvature="0"
           d="m 508.96,410.14 v -4.49 l 7.17,0.55 v 1.55 c -3.48,0 -3.89,0.34 -3.89,2.78 v 17.68 l -7.33,-0.54 v -1.55 c 3.5,0 3.89,-0.34 3.89,-2.78 v -8.88 c 0,-4.32 -2.39,-7.71 -6.03,-7.71 -4.17,0 -4.37,2.34 -4.37,4.93 v 16.53 l -7.33,-0.54 v -1.55 c 3.89,0 3.89,-0.14 3.89,-4.58 v -7.47 c 0,-3.89 0,-8.42 7.56,-8.42 2.8,0 4.99,1.39 6.44,4.49 z"
           id="path7737" /><path
           style="fill:#000000;stroke-width:0"
           inkscape:connector-curvature="0"
           d="m 527.55,415.87 0.12,-0.02 0.12,-0.02 0.15,-0.03 0.15,-0.04 0.17,-0.04 0.18,-0.04 0.19,-0.05 0.2,-0.06 0.2,-0.06 0.21,-0.07 0.22,-0.08 0.22,-0.08 0.22,-0.1 0.22,-0.1 0.22,-0.11 0.22,-0.12 0.21,-0.14 0.22,-0.14 0.2,-0.15 0.2,-0.16 0.19,-0.18 0.18,-0.19 0.17,-0.2 0.16,-0.21 0.14,-0.22 0.06,-0.12 0.07,-0.12 0.06,-0.13 0.05,-0.12 0.05,-0.14 0.04,-0.13 0.04,-0.14 0.04,-0.14 0.03,-0.15 0.03,-0.15 0.02,-0.16 0.01,-0.15 0.01,-0.17 0,-0.16 c 0,-2.53 -1.75,-4.53 -5.62,-4.53 -4.19,0 -5.99,2.84 -6.94,7.07 -0.14,0.64 -0.19,0.85 -0.69,0.85 -0.65,0 -0.65,-0.35 -0.65,-1.25 v -6.58 c 0,-0.84 0,-1.19 0.54,-1.19 0.25,0 0.3,0.05 1.25,1 0.1,0.1 0.1,0.19 1,1.14 2.19,-2.09 4.44,-2.14 5.49,-2.14 5.72,0 8.01,3.35 8.01,6.92 0,2.64 -1.5,4.14 -2.09,4.74 -1.64,1.59 -3.59,2 -5.69,2.39 -2.78,0.55 -6.12,1.2 -6.12,4.09 0,1.74 1.29,3.78 5.57,3.78 5.49,0 5.74,-4.48 5.83,-6.03 0.07,-0.45 0.5,-0.45 0.61,-0.45 0.64,0 0.64,0.25 0.64,1.2 v 5.03 c 0,0.85 0,1.19 -0.54,1.19 -0.25,0 -0.35,0 -1,-0.59 -0.14,-0.21 -0.64,-0.64 -0.85,-0.8 -1.89,1.39 -3.94,1.39 -4.69,1.39 -6.07,0 -7.96,-3.33 -7.96,-6.12 0,-1.74 0.79,-3.14 2.14,-4.24 1.59,-1.29 3,-1.59 6.57,-2.28 z"
           id="path7739" /><path
           style="fill:#000000;stroke-width:0"
           inkscape:connector-curvature="0"
           d="m 542.36,409.98 0,-0.1 0,-0.1 -0.01,-0.19 -0.01,-0.18 -0.01,-0.17 -0.02,-0.15 -0.02,-0.15 -0.03,-0.13 -0.04,-0.12 -0.04,-0.11 -0.05,-0.11 -0.06,-0.09 -0.06,-0.09 -0.07,-0.08 -0.08,-0.07 -0.09,-0.06 -0.1,-0.05 -0.11,-0.05 -0.12,-0.05 -0.13,-0.03 -0.14,-0.04 -0.15,-0.02 -0.17,-0.03 -0.17,-0.01 -0.1,-0.01 -0.09,-0.01 -0.1,-0.01 -0.1,0 -0.11,-0.01 -0.11,0 -0.11,0 -0.12,-0.01 -0.12,0 -0.12,0 -0.13,0 -0.13,0 -0.14,0 -0.14,0 -0.14,0 -0.15,0 -0.15,0 -0.15,0 v -1.55 c 1.75,0.05 4.28,0.16 5.62,0.16 1.3,0 3.89,-0.11 5.58,-0.16 v 1.55 c -3.33,0 -3.87,0 -3.87,2.23 v 9.17 c 0,5.19 3.53,7.97 6.72,7.97 3.14,0 3.68,-2.69 3.68,-5.53 v -11.61 c 0,-2.23 -0.54,-2.23 -3.89,-2.23 v -1.55 c 1.75,0.05 4.3,0.16 5.64,0.16 1.3,0 3.88,-0.11 5.58,-0.16 v 1.55 c -2.59,0 -3.84,0 -3.89,1.5 v 9.51 c 0,4.28 0,5.83 -1.55,7.61 -0.68,0.86 -2.34,1.84 -5.21,1.84 -4.19,0 -6.4,-2.98 -7.24,-4.87 v 17.44 l -7.17,-0.55 v -1.55 c 3.48,0 3.89,-0.34 3.89,-2.79 z"
           id="path7741" /><polygon
           style="fill:#000000;stroke-width:0"
           points="565.14,415.51 578.34,415.51 578.34,418.4 565.14,418.4 "
           id="polygon7743" /><path
           style="fill:#000000;stroke-width:0"
           inkscape:connector-curvature="0"
           d="m 610.15,440.07 h -27.36 v -1.54 H 584 c 3.82,0 3.93,-0.55 3.93,-2.33 v -26.11 c 0,-1.8 -0.11,-2.34 -3.93,-2.34 h -1.21 v -1.55 c 1.75,0.16 5.64,0.16 7.58,0.16 2.05,0 6.58,0 8.38,-0.16 v 1.55 h -1.66 c -4.74,0 -4.74,0.64 -4.74,2.39 v 12.25 h 4.3 c 4.78,0 5.28,-1.6 5.28,-5.83 h 1.24 v 13.2 h -1.24 c 0,-4.19 -0.5,-5.83 -5.28,-5.83 h -4.3 v 12.61 c 0,1.64 0.12,1.99 2.46,1.99 h 5.97 c 7.48,0 8.72,-2.78 9.51,-9.66 h 1.25 z"
           id="path7745" /><path
           style="fill:#000000;stroke-width:0"
           inkscape:connector-curvature="0"
           d="m 632.94,416.86 -0.01,0.59 -0.05,0.59 -0.07,0.58 -0.09,0.57 -0.13,0.56 -0.15,0.55 -0.17,0.54 -0.2,0.53 -0.22,0.51 -0.25,0.5 -0.27,0.49 -0.28,0.47 -0.31,0.46 -0.33,0.44 -0.35,0.43 -0.36,0.4 -0.39,0.39 -0.4,0.37 -0.42,0.35 -0.43,0.32 -0.45,0.31 -0.46,0.28 -0.47,0.26 -0.49,0.24 -0.5,0.21 -0.51,0.18 -0.52,0.16 -0.53,0.13 -0.54,0.11 -0.55,0.07 -0.55,0.05 -0.56,0.01 -0.05,-1.09 c 2.19,0 4.33,-1.1 5.62,-3.24 1.3,-2.14 1.3,-5.03 1.3,-6.92 0,-1.8 0,-4.48 -1.09,-6.67 -1.1,-2.25 -3.28,-3.69 -5.78,-3.69 h 0 c -2.15,0 -4.33,1.05 -5.68,3.33 -1.25,2.2 -1.25,5.23 -1.25,7.03 0,1.94 0,4.63 1.19,6.83 1.36,2.28 3.69,3.33 5.69,3.33 l 0.05,1.09 c -6.22,0 -11.07,-5.42 -11.07,-11.65 0,-6.43 5.19,-11.21 11.02,-11.21 6.03,0 11.06,4.88 11.06,11.21 z"
           id="path7747" /><path
           style="fill:#000000;stroke-width:0"
           inkscape:connector-curvature="0"
           d="m 642.74,422.75 v 5.46 l -6.92,-0.54 v -1.55 c 3.48,0 3.89,-0.34 3.89,-2.78 v -13.36 c 0,-2.23 -0.55,-2.23 -3.89,-2.23 v -1.55 c 1.95,0.05 4.28,0.16 5.69,0.16 1.98,0 4.33,0 6.33,-0.16 v 1.55 h -1.05 c -3.69,0 -3.8,0.54 -3.8,2.34 v 7.67 c 0,4.92 2.1,9.36 5.89,9.36 0.35,0 0.44,0 0.55,-0.05 -0.16,-0.04 -1.16,-0.64 -1.16,-1.93 0,-1.41 1.05,-2.14 2.16,-2.14 0.89,0 2.14,0.59 2.14,2.18 0,1.6 -1.55,3.03 -3.69,3.03 -3.64,0 -5.43,-3.32 -6.14,-5.46 z"
           id="path7749" /><path
           style="fill:#000000;stroke-width:0"
           inkscape:connector-curvature="0"
           d="m 684.83,422.93 0.09,0.23 0.09,0.22 0.09,0.21 0.1,0.2 0.1,0.18 0.1,0.18 0.11,0.17 0.11,0.16 0.11,0.15 0.12,0.14 0.11,0.13 0.13,0.13 0.12,0.11 0.13,0.11 0.13,0.1 0.13,0.1 0.14,0.08 0.14,0.08 0.14,0.08 0.14,0.06 0.15,0.06 0.14,0.05 0.15,0.05 0.15,0.04 0.16,0.04 0.15,0.03 0.16,0.03 0.15,0.02 0.16,0.02 0.16,0.01 0.17,0.01 0.16,0.01 v 1.55 c -1.11,-0.1 -2.55,-0.14 -3.64,-0.14 -1.45,0 -3.69,0.09 -4.64,0.14 v -1.55 c 1.79,-0.05 2.89,-0.94 2.89,-2.39 0,-0.3 0,-0.39 -0.25,-1.05 l -4.53,-12.75 -4.94,13.91 c -0.19,0.59 -0.25,0.69 -0.25,0.94 0,1.34 1.95,1.34 2.95,1.34 v 1.55 c -1.45,-0.05 -3.98,-0.14 -5.18,-0.14 -1.5,0 -2.94,0.04 -4.44,0.14 v -1.55 c 1.84,0 2.64,-0.09 3.14,-0.73 0.25,-0.32 0.8,-1.8 1.14,-2.75 l -4.28,-12.05 -4.74,13.3 c -0.25,0.59 -0.25,0.7 -0.25,0.89 0,1.34 1.96,1.34 2.94,1.34 v 1.55 c -1.48,-0.05 -4.28,-0.14 -5.42,-0.14 -0.2,0 -2.84,0.04 -4.64,0.14 v -1.55 c 2.5,0 3.09,-0.14 3.69,-1.73 l 6.28,-17.64 c 0.25,-0.71 0.4,-1.1 1.05,-1.1 0.65,0 0.75,0.3 1,1 l 5.03,14.1 5.07,-14.14 c 0.21,-0.57 0.35,-0.96 1,-0.96 0.65,0 0.8,0.46 1,0.96 z"
           id="path7751" /><path
           style="fill:#000000;stroke-width:0"
           inkscape:connector-curvature="0"
           d="m 705.14,409.98 0.02,-0.19 0.03,-0.18 0.04,-0.19 0.04,-0.18 0.05,-0.19 0.05,-0.18 0.07,-0.18 0.06,-0.18 0.08,-0.18 0.08,-0.17 0.09,-0.18 0.09,-0.16 0.1,-0.16 0.11,-0.16 0.11,-0.16 0.12,-0.14 0.13,-0.14 0.13,-0.14 0.14,-0.13 0.14,-0.12 0.15,-0.12 0.16,-0.1 0.16,-0.1 0.17,-0.09 0.18,-0.08 0.18,-0.07 0.19,-0.06 0.19,-0.05 0.2,-0.04 0.2,-0.03 0.21,-0.02 0.22,-0.01 c 1.03,0 4.08,0.71 4.08,4.74 v 2.78 h -1.25 v -2.78 c 0,-2.89 -1.24,-3.19 -1.8,-3.19 -1.64,0 -1.84,2.23 -1.84,2.48 v 9.97 c 0,2.1 0,4.03 -1.78,5.88 -1.96,1.93 -4.44,2.73 -6.83,2.73 -4.09,0 -7.53,-2.33 -7.53,-5.62 0,-1.49 1,-2.35 2.3,-2.35 1.39,0 2.29,1 2.29,2.3 0,0.59 -0.25,2.23 -2.55,2.3 1.35,1.73 3.79,2.28 5.38,2.28 2.45,0 5.28,-1.94 5.28,-6.38 v -1.84 -1.05 -4.98 c 0,-4.74 -3.58,-6.42 -5.83,-6.42 -2.43,0 -4.48,1.75 -4.48,4.23 0,2.73 2.09,6.88 10.31,7.17 h 0 v 1.05 c -2.53,-0.14 -6.01,-0.3 -9.16,-1.8 -3.73,-1.69 -4.98,-4.28 -4.98,-6.47 0,-4.03 4.83,-5.28 7.97,-5.28 3.3,0 5.58,1.99 6.53,4.33 z"
           id="path7753" /><path
           style="fill:#000000;stroke-width:0"
           inkscape:connector-curvature="0"
           d="m 721.82,422.75 v 5.46 l -6.92,-0.54 v -1.55 c 3.48,0 3.88,-0.34 3.88,-2.78 v -13.36 c 0,-2.23 -0.54,-2.23 -3.88,-2.23 v -1.55 c 1.95,0.05 4.28,0.16 5.68,0.16 1.99,0 4.33,0 6.33,-0.16 v 1.55 h -1.05 c -3.68,0 -3.79,0.54 -3.79,2.34 v 7.67 c 0,4.92 2.09,9.36 5.89,9.36 0.34,0 0.44,0 0.54,-0.05 -0.15,-0.04 -1.15,-0.64 -1.15,-1.93 0,-1.41 1.05,-2.14 2.15,-2.14 0.9,0 2.15,0.59 2.15,2.18 0,1.6 -1.55,3.03 -3.69,3.03 -3.64,0 -5.44,-3.32 -6.14,-5.46 z"
           id="path7755" /><path
           style="fill:#000000;stroke-width:0"
           inkscape:connector-curvature="0"
           d="m 752,408.93 v -3.28 l 7.31,0.55 v 1.55 c -3.48,0 -3.87,0.34 -3.87,2.78 v 30.25 l -7.17,-0.55 v -1.55 c 3.48,0 3.87,-0.34 3.87,-2.79 v -10.75 c -1.44,1.78 -3.58,3.07 -6.28,3.07 l 0.2,-1.09 c 1.75,0 3.85,-0.75 5.39,-2.98 0.55,-0.85 0.55,-0.96 0.55,-1.85 h 0 v -10.22 c 0,-0.89 0,-1 -0.55,-1.84 -1.5,-2.39 -3.75,-3.48 -5.89,-3.48 -2.23,0 -4.03,1.29 -5.22,3.18 -1.29,2.05 -1.45,4.89 -1.45,6.93 0,1.84 0.09,4.84 1.55,7.07 1.04,1.55 2.94,3.19 5.62,3.19 l -0.2,1.09 c -5.88,0 -11.11,-4.87 -11.11,-11.29 0,-6.33 4.89,-11.27 10.56,-11.27 3.19,0 5.44,1.69 6.69,3.28 z"
           id="path7757" /></g>    </g>
    <path
       sodipodi:nodetypes="cc"
       inkscape:connector-curvature="0"
       id="path7793"
       d="M 82.066017,238.17923 C 132.32567,153.64881 414.41659,273.28629 489.15749,186.66145"
       style="fill:none;stroke:#000000;stroke-width:1px;stroke-linecap:butt;stroke-linejoin:miter;stroke-opacity:1;marker-end:url(#Arrow1Mend)" />
    <g
       transform="translate(0,85.862966)"
       id="g8179">
      <g
         style="font-style:normal;font-variant:normal;font-weight:normal;font-stretch:normal;letter-spacing:normal;word-spacing:normal;text-anchor:start;fill:none;stroke:#000000;stroke-linecap:butt;stroke-linejoin:miter;stroke-miterlimit:10.43299961;stroke-opacity:1;stroke-dasharray:none;stroke-dashoffset:0"
         word-spacing="normal"
         letter-spacing="normal"
         font-size-adjust="none"
         font-stretch="normal"
         font-weight="normal"
         font-variant="normal"
         font-style="normal"
         stroke-miterlimit="10.433"
         xml:space="preserve"
         transform="matrix(0.44009111,0,0,-0.44009111,-77.015945,327.21703)"
         id="g8181"><path
           style="fill:#000000;stroke-width:0"
           inkscape:connector-curvature="0"
           id="path8183"
           d="m 472.16,421.25 0.03,0.13 0.04,0.15 0.04,0.16 0.04,0.18 0.06,0.19 0.06,0.21 0.06,0.22 0.07,0.22 0.08,0.23 0.09,0.24 0.1,0.25 0.1,0.24 0.11,0.25 0.12,0.25 0.13,0.25 0.14,0.25 0.15,0.24 0.15,0.24 0.17,0.23 0.18,0.22 0.18,0.22 0.2,0.2 0.21,0.19 0.22,0.18 0.23,0.16 0.25,0.14 0.12,0.07 0.13,0.06 0.14,0.05 0.13,0.05 0.14,0.05 0.14,0.04 0.15,0.03 0.15,0.03 0.15,0.02 0.16,0.02 0.16,0.01 0.16,0 c 0.25,0 1.44,0 2.48,-0.64 -1.39,-0.25 -2.39,-1.5 -2.39,-2.69 0,-0.79 0.55,-1.75 1.89,-1.75 1.1,0 2.69,0.89 2.69,2.89 0,2.6 -2.94,3.28 -4.63,3.28 -2.89,0 -4.64,-2.64 -5.23,-3.78 -1.25,3.28 -3.94,3.78 -5.37,3.78 -5.19,0 -8.04,-6.42 -8.04,-7.67 0,-0.5 0.5,-0.5 0.61,-0.5 0.39,0 0.55,0.11 0.64,0.55 1.69,5.28 4.99,6.53 6.68,6.53 0.95,0 2.68,-0.44 2.68,-3.33 0,-1.54 -0.84,-4.89 -2.68,-11.86 -0.8,-3.09 -2.54,-5.18 -4.74,-5.18 -0.3,0 -1.44,0 -2.48,0.65 1.25,0.24 2.34,1.28 2.34,2.69 0,1.34 -1.09,1.73 -1.84,1.73 -1.5,0 -2.75,-1.29 -2.75,-2.89 0,-2.28 2.5,-3.28 4.68,-3.28 3.3,0 5.08,3.49 5.24,3.78 0.59,-1.84 2.39,-3.78 5.37,-3.78 5.14,0 7.99,6.42 7.99,7.67 0,0.5 -0.45,0.5 -0.61,0.5 -0.44,0 -0.55,-0.2 -0.64,-0.54 -1.64,-5.33 -5.03,-6.53 -6.63,-6.53 -1.95,0 -2.75,1.59 -2.75,3.29 0,1.1 0.3,2.19 0.86,4.38 z" /></g>    </g>
    <g
       transform="translate(310.11683,95.964492)"
       id="g8269">
      <g
         style="font-style:normal;font-variant:normal;font-weight:normal;font-stretch:normal;letter-spacing:normal;word-spacing:normal;text-anchor:start;fill:none;stroke:#000000;stroke-linecap:butt;stroke-linejoin:miter;stroke-miterlimit:10.43299961;stroke-opacity:1;stroke-dasharray:none;stroke-dashoffset:0"
         id="g8271"
         transform="matrix(0.44009111,0,0,-0.44009111,-77.015945,327.21703)"
         xml:space="preserve"
         stroke-miterlimit="10.433"
         font-style="normal"
         font-variant="normal"
         font-weight="normal"
         font-stretch="normal"
         font-size-adjust="none"
         letter-spacing="normal"
         word-spacing="normal"><path
           style="fill:#000000;stroke-width:0"
           inkscape:connector-curvature="0"
           d="m 463.99,397.73 -0.01,-0.03 -0.01,-0.03 -0.01,-0.03 -0.01,-0.03 -0.01,-0.02 -0.01,-0.03 -0.01,-0.05 -0.02,-0.05 -0.01,-0.04 -0.01,-0.05 -0.02,-0.04 -0.01,-0.04 -0.01,-0.03 -0.01,-0.04 -0.01,-0.03 -0.01,-0.03 -0.01,-0.03 -0.01,-0.03 0,-0.02 -0.01,-0.03 -0.01,-0.02 0,-0.02 -0.01,-0.03 0,-0.02 0,-0.02 -0.01,-0.04 -0.01,-0.04 0,-0.04 0,-0.04 0,-0.03 0,-0.02 c 0,-1.09 0.95,-1.39 1.45,-1.39 0.25,0 1.35,0.14 1.85,1.3 0.14,0.39 0.39,2.04 1.73,9.11 0.45,-0.05 0.8,-0.1 1.64,-0.1 8.28,0 15.95,7.83 15.95,15.69 l -1.4,-1.09 c 0,-5.63 -6.42,-11.71 -14.1,-11.71 h 0 c -0.39,0 -0.5,0 -0.89,0.05 -0.61,0 -0.65,0.05 -0.65,0.2 0,0.1 0.84,4.63 1,5.38 1.54,6.37 5.43,11.15 9.86,11.15 3.43,0 4.78,-2.68 4.78,-5.07 l 1.4,1.09 c 0,3.89 -1.95,6.87 -5.68,6.87 -7.22,0 -10.21,-9.65 -13.21,-19.37 -5.37,1 -8.17,3.78 -8.17,7.37 0,1.4 1.16,6.88 4.14,10.32 0.39,0.45 0.39,0.54 0.39,0.64 0,0.2 -0.09,0.5 -0.59,0.5 -1.39,0 -5.24,-7.22 -5.24,-12 0,-4.69 3.3,-8.33 8.63,-9.56 z"
           id="path8273" /><path
           style="fill:#000000;stroke-width:0"
           inkscape:connector-curvature="0"
           d="m 496.74,412.53 h 3.55 c 0.65,0 1.1,0 1.1,0.76 0,0.49 -0.45,0.49 -1.03,0.49 h -3.31 l 1.28,5.15 c 0.03,0.18 0.11,0.35 0.11,0.49 0,0.64 -0.48,1.12 -1.19,1.12 -0.87,0 -1.39,-0.59 -1.64,-1.5 -0.23,-0.87 0.22,0.8 -1.32,-5.26 h -3.55 c -0.66,0 -1.11,0 -1.11,-0.77 0,-0.48 0.41,-0.48 1.05,-0.48 h 3.29 l -2.04,-8.22 c -0.22,-0.88 -0.54,-2.13 -0.54,-2.58 0,-2.06 1.75,-3.31 3.74,-3.31 3.87,0 6.06,4.87 6.06,5.33 0,0.45 -0.45,0.45 -0.56,0.45 -0.41,0 -0.45,-0.08 -0.72,-0.66 -0.98,-2.2 -2.77,-4.15 -4.67,-4.15 -0.74,0 -1.22,0.45 -1.22,1.7 0,0.36 0.14,1.09 0.2,1.44 z"
           id="path8275" /><path
           style="fill:#000000;stroke-width:0"
           inkscape:connector-curvature="0"
           d="m 522.16,394.25 0,0.02 0,0.03 0,0.01 0,0.02 0,0.01 -0.01,0.02 0,0.01 -0.01,0.02 -0.01,0.02 -0.01,0.02 -0.01,0.02 -0.02,0.03 -0.01,0.02 -0.02,0.03 -0.02,0.03 -0.03,0.03 -0.02,0.03 -0.03,0.04 -0.02,0.02 -0.01,0.02 -0.02,0.02 -0.02,0.02 -0.02,0.02 -0.02,0.03 -0.02,0.02 -0.02,0.02 -0.02,0.03 -0.03,0.02 -0.02,0.03 -0.03,0.03 -0.03,0.03 -0.02,0.03 -0.03,0.03 -0.03,0.03 -0.03,0.03 -0.03,0.03 -0.04,0.04 -0.03,0.03 -0.04,0.04 -0.03,0.03 -0.04,0.04 -0.04,0.04 c -6.22,6.28 -7.81,15.69 -7.81,23.31 0,8.67 1.89,17.35 8.01,23.56 0.64,0.61 0.64,0.71 0.64,0.86 0,0.35 -0.18,0.49 -0.48,0.49 -0.5,0 -4.98,-3.38 -7.92,-9.7 -2.55,-5.49 -3.14,-11.02 -3.14,-15.21 0,-3.89 0.54,-9.9 3.28,-15.54 2.98,-6.13 7.28,-9.36 7.78,-9.36 0.3,0 0.48,0.14 0.48,0.5 z"
           id="path8277" /><path
           style="fill:#000000;stroke-width:0"
           inkscape:connector-curvature="0"
           d="m 541.64,421.25 0.03,0.13 0.03,0.15 0.04,0.16 0.05,0.18 0.05,0.19 0.06,0.21 0.07,0.22 0.07,0.22 0.08,0.23 0.09,0.24 0.09,0.25 0.11,0.24 0.11,0.25 0.12,0.25 0.13,0.25 0.13,0.25 0.15,0.24 0.16,0.24 0.17,0.23 0.17,0.22 0.19,0.22 0.2,0.2 0.21,0.19 0.22,0.18 0.23,0.16 0.24,0.14 0.13,0.07 0.13,0.06 0.13,0.05 0.14,0.05 0.14,0.05 0.14,0.04 0.15,0.03 0.15,0.03 0.15,0.02 0.15,0.02 0.16,0.01 0.16,0 c 0.25,0 1.44,0 2.49,-0.64 -1.39,-0.25 -2.39,-1.5 -2.39,-2.69 0,-0.79 0.55,-1.75 1.89,-1.75 1.09,0 2.69,0.89 2.69,2.89 0,2.6 -2.94,3.28 -4.63,3.28 -2.89,0 -4.64,-2.64 -5.23,-3.78 -1.25,3.28 -3.94,3.78 -5.38,3.78 -5.19,0 -8.03,-6.42 -8.03,-7.67 0,-0.5 0.5,-0.5 0.61,-0.5 0.39,0 0.55,0.11 0.64,0.55 1.69,5.28 4.99,6.53 6.67,6.53 0.95,0 2.69,-0.44 2.69,-3.33 0,-1.54 -0.84,-4.89 -2.69,-11.86 -0.8,-3.09 -2.53,-5.18 -4.73,-5.18 -0.3,0 -1.44,0 -2.49,0.65 1.25,0.24 2.35,1.28 2.35,2.69 0,1.34 -1.1,1.73 -1.85,1.73 -1.5,0 -2.75,-1.29 -2.75,-2.89 0,-2.28 2.5,-3.28 4.69,-3.28 3.3,0 5.08,3.49 5.23,3.78 0.6,-1.84 2.4,-3.78 5.38,-3.78 5.14,0 7.99,6.42 7.99,7.67 0,0.5 -0.46,0.5 -0.62,0.5 -0.43,0 -0.54,-0.2 -0.63,-0.54 -1.65,-5.33 -5.04,-6.53 -6.63,-6.53 -1.95,0 -2.75,1.59 -2.75,3.29 0,1.1 0.3,2.19 0.86,4.38 z"
           id="path8279" /><path
           style="fill:#000000;stroke-width:0"
           inkscape:connector-curvature="0"
           d="m 567.82,418.65 0,0.37 0,0.39 -0.01,0.39 -0.01,0.41 -0.04,0.84 -0.06,0.88 -0.09,0.92 -0.1,0.95 -0.14,0.97 -0.16,1.01 -0.2,1.02 -0.23,1.03 -0.26,1.05 -0.31,1.06 -0.35,1.07 -0.39,1.07 -0.21,0.53 -0.23,0.53 -0.24,0.53 -0.25,0.53 c -2.98,6.12 -7.26,9.36 -7.76,9.36 -0.3,0 -0.5,-0.19 -0.5,-0.49 0,-0.15 0,-0.25 0.94,-1.15 4.88,-4.92 7.73,-12.85 7.73,-23.27 0,-8.51 -1.85,-17.28 -8.03,-23.56 -0.64,-0.59 -0.64,-0.7 -0.64,-0.84 0,-0.3 0.2,-0.5 0.5,-0.5 0.5,0 4.97,3.39 7.92,9.71 2.53,5.47 3.12,11 3.12,15.19 z"
           id="path8281" /></g>    </g>
    <g
       transform="translate(97.984797,8.08122)"
       id="g8877">
      <g
         style="font-style:normal;font-variant:normal;font-weight:normal;font-stretch:normal;letter-spacing:normal;word-spacing:normal;text-anchor:start;fill:none;stroke:#000000;stroke-linecap:butt;stroke-linejoin:miter;stroke-miterlimit:10.43299961;stroke-opacity:1;stroke-dasharray:none;stroke-dashoffset:0"
         id="g8879"
         transform="matrix(0.44009111,0,0,-0.44009111,-77.015945,327.21703)"
         xml:space="preserve"
         stroke-miterlimit="10.433"
         font-style="normal"
         font-variant="normal"
         font-weight="normal"
         font-stretch="normal"
         font-size-adjust="none"
         letter-spacing="normal"
         word-spacing="normal"><path
           style="fill:#000000;stroke-width:0"
           inkscape:connector-curvature="0"
           d="m 472,394.25 0,0.02 0,0.03 0,0.01 0,0.02 0,0.01 -0.01,0.02 0,0.01 -0.01,0.02 -0.01,0.02 -0.01,0.02 -0.01,0.02 -0.02,0.03 -0.01,0.02 -0.02,0.03 -0.02,0.03 -0.03,0.03 -0.02,0.03 -0.03,0.04 -0.02,0.02 -0.01,0.02 -0.02,0.02 -0.02,0.02 -0.02,0.02 -0.02,0.03 -0.02,0.02 -0.02,0.02 -0.02,0.03 -0.03,0.02 -0.02,0.03 -0.03,0.03 -0.03,0.03 -0.02,0.03 -0.03,0.03 -0.03,0.03 -0.03,0.03 -0.03,0.03 -0.04,0.04 -0.03,0.03 -0.04,0.04 -0.03,0.03 -0.04,0.04 -0.04,0.04 c -6.22,6.28 -7.81,15.69 -7.81,23.31 0,8.67 1.89,17.35 8.01,23.56 0.64,0.61 0.64,0.71 0.64,0.86 0,0.35 -0.18,0.49 -0.48,0.49 -0.5,0 -4.98,-3.38 -7.92,-9.7 -2.55,-5.49 -3.14,-11.02 -3.14,-15.21 0,-3.89 0.54,-9.9 3.28,-15.54 2.98,-6.13 7.28,-9.36 7.78,-9.36 0.3,0 0.48,0.14 0.48,0.5 z"
           id="path8881" /><path
           style="fill:#000000;stroke-width:0"
           inkscape:connector-curvature="0"
           d="m 483.3,397.73 0,-0.03 -0.01,-0.03 -0.01,-0.03 -0.01,-0.03 -0.01,-0.02 -0.01,-0.03 -0.01,-0.05 -0.02,-0.05 -0.01,-0.04 -0.02,-0.05 -0.01,-0.04 -0.01,-0.04 -0.01,-0.03 -0.01,-0.04 -0.01,-0.03 -0.01,-0.03 -0.01,-0.03 -0.01,-0.03 -0.01,-0.02 0,-0.03 -0.01,-0.02 0,-0.02 -0.01,-0.03 0,-0.02 -0.01,-0.02 0,-0.04 -0.01,-0.04 0,-0.04 0,-0.04 0,-0.03 -0.01,-0.02 c 0,-1.09 0.96,-1.39 1.46,-1.39 0.25,0 1.34,0.14 1.84,1.3 0.14,0.39 0.39,2.04 1.74,9.11 0.45,-0.05 0.79,-0.1 1.64,-0.1 8.28,0 15.95,7.83 15.95,15.69 l -1.41,-1.09 c 0,-5.63 -6.42,-11.71 -14.09,-11.71 h 0 c -0.39,0 -0.5,0 -0.89,0.05 -0.61,0 -0.66,0.05 -0.66,0.2 0,0.1 0.85,4.63 1,5.38 1.55,6.37 5.44,11.15 9.86,11.15 3.44,0 4.78,-2.68 4.78,-5.07 l 1.41,1.09 c 0,3.89 -1.95,6.87 -5.69,6.87 -7.22,0 -10.2,-9.65 -13.2,-19.37 -5.38,1 -8.17,3.78 -8.17,7.37 0,1.4 1.15,6.88 4.14,10.32 0.39,0.45 0.39,0.54 0.39,0.64 0,0.2 -0.1,0.5 -0.6,0.5 -1.39,0 -5.23,-7.22 -5.23,-12 0,-4.69 3.3,-8.33 8.63,-9.56 z"
           id="path8883" /><path
           style="fill:#000000;stroke-width:0"
           inkscape:connector-curvature="0"
           d="m 533.4,435.32 0.06,0 0.05,0 0.11,0 0.12,0 0.06,0 0.06,0.01 0.06,0 0.05,0.01 0.06,0.01 0.06,0.01 0.06,0.01 0.05,0.02 0.06,0.01 0.05,0.02 0.05,0.02 0.05,0.03 0.05,0.02 0.04,0.03 0.04,0.03 0.04,0.04 0.04,0.04 0.02,0.02 0.01,0.02 0.02,0.02 0.02,0.03 0.01,0.02 0.01,0.03 0.02,0.03 0.01,0.02 0.01,0.03 0.01,0.03 0,0.03 0.01,0.03 0.01,0.04 0,0.03 0.01,0.04 0,0.03 0,0.04 0,0.04 c 0,0.86 -0.79,0.86 -1.39,0.86 h -20.76 c -0.57,0 -1.39,0 -1.39,-0.83 0,-0.87 0.79,-0.87 1.39,-0.87 z"
           id="path8885" /><path
           style="fill:#000000;stroke-width:0"
           inkscape:connector-curvature="0"
           d="m 550.23,449.6 0,0.04 0,0.04 0,0.05 0,0.04 0,0.03 0,0.04 0,0.04 0,0.03 -0.01,0.04 0,0.03 0,0.03 0,0.03 0,0.03 -0.01,0.03 0,0.03 -0.01,0.02 0,0.03 0,0.02 -0.01,0.03 0,0.02 -0.02,0.04 -0.01,0.04 -0.02,0.03 -0.02,0.03 -0.02,0.03 -0.02,0.03 -0.03,0.02 -0.03,0.02 -0.04,0.02 -0.03,0.01 -0.04,0.01 -0.05,0.02 -0.02,0 -0.03,0 -0.02,0.01 -0.03,0 -0.02,0.01 -0.03,0 -0.03,0 -0.03,0 -0.04,0 -0.03,0.01 -0.03,0 -0.04,0 -0.04,0 -0.03,0 -0.04,0 -0.04,0 -0.04,0 -0.05,0 -0.04,0 -0.05,0 c -2.23,-2.2 -5.39,-2.23 -6.83,-2.23 v -1.25 c 0.85,0 3.15,0 5.05,0.97 V 430.3 c 0,-1.16 0,-1.61 -3.48,-1.61 h -1.32 v -1.25 c 0.63,0.03 4.91,0.14 6.21,0.14 1.08,0 5.47,-0.11 6.23,-0.14 v 1.25 h -1.32 c -3.49,0 -3.49,0.45 -3.49,1.61 z"
           id="path8887" /><path
           style="fill:#000000;stroke-width:0"
           inkscape:connector-curvature="0"
           d="m 516.06,407.73 h 3.54 c 0.66,0 1.12,0 1.12,0.76 0,0.49 -0.46,0.49 -1.04,0.49 h -3.31 l 1.28,5.15 c 0.03,0.17 0.11,0.35 0.11,0.49 0,0.64 -0.48,1.12 -1.19,1.12 -0.87,0 -1.39,-0.59 -1.64,-1.5 -0.23,-0.87 0.22,0.8 -1.33,-5.26 h -3.54 c -0.66,0 -1.11,0 -1.11,-0.77 0,-0.48 0.41,-0.48 1.05,-0.48 h 3.29 l -2.04,-8.22 c -0.22,-0.88 -0.54,-2.13 -0.54,-2.58 0,-2.06 1.76,-3.31 3.74,-3.31 3.87,0 6.06,4.87 6.06,5.33 0,0.45 -0.45,0.45 -0.56,0.45 -0.41,0 -0.45,-0.08 -0.72,-0.66 -0.98,-2.2 -2.76,-4.15 -4.67,-4.15 -0.74,0 -1.22,0.45 -1.22,1.7 0,0.36 0.14,1.09 0.2,1.44 z"
           id="path8889" /><path
           style="fill:#000000;stroke-width:0"
           inkscape:connector-curvature="0"
           d="m 575.39,418.65 0,0.37 -0.01,0.39 0,0.39 -0.02,0.41 -0.04,0.84 -0.06,0.88 -0.08,0.92 -0.11,0.95 -0.13,0.97 -0.16,1.01 -0.2,1.02 -0.23,1.03 -0.27,1.05 -0.3,1.06 -0.35,1.07 -0.39,1.07 -0.22,0.53 -0.22,0.53 -0.24,0.53 -0.25,0.53 c -2.99,6.12 -7.27,9.36 -7.77,9.36 -0.29,0 -0.5,-0.19 -0.5,-0.49 0,-0.15 0,-0.25 0.94,-1.15 4.89,-4.92 7.74,-12.85 7.74,-23.27 0,-8.51 -1.85,-17.28 -8.04,-23.56 -0.64,-0.59 -0.64,-0.7 -0.64,-0.84 0,-0.3 0.21,-0.5 0.5,-0.5 0.5,0 4.97,3.39 7.93,9.71 2.53,5.47 3.12,11 3.12,15.19 z"
           id="path8891" /><path
           style="fill:#000000;stroke-width:0"
           inkscape:connector-curvature="0"
           d="m 598.62,408.76 0.03,0.02 0.02,0.01 0.03,0.01 0.03,0.01 0.02,0.02 0.03,0.01 0.02,0.01 0.02,0.01 0.03,0.02 0.02,0.01 0.02,0.01 0.02,0.01 0.02,0.01 0.01,0.02 0.02,0.01 0.02,0.01 0.01,0.01 0.02,0.01 0.01,0.01 0.02,0.01 0.03,0.02 0.02,0.03 0.02,0.02 0.02,0.02 0.02,0.02 0.01,0.02 0.02,0.02 0.01,0.01 0.01,0.02 0.01,0.02 0.01,0.02 0,0.02 0.01,0.01 0,0.02 0.01,0.02 0,0.01 0,0.02 0,0.01 0,0.03 0,0.03 c 0,0.31 -0.31,0.45 -0.48,0.45 -0.17,0 -5.97,-1.11 -6.91,-1.33 l -0.8,6.45 c -0.07,0.49 -0.14,0.91 -0.56,0.91 -0.34,0 -0.48,-0.31 -0.56,-0.87 l -0.77,-6.49 -6.4,1.27 c -0.42,0.06 -0.49,0.06 -0.52,0.06 -0.17,0 -0.5,-0.14 -0.5,-0.45 0,-0.14 0.08,-0.24 0.19,-0.38 0.14,-0.11 5.64,-2.65 6.41,-3 l -3.18,-5.78 c -0.25,-0.42 -0.25,-0.5 -0.25,-0.56 0,-0.25 0.22,-0.49 0.46,-0.49 0.31,0 1.04,0.83 2.4,2.36 0.88,0.99 1.82,1.92 2.72,2.86 1.71,-1.73 4.19,-4.48 4.61,-4.87 0.27,-0.28 0.31,-0.35 0.52,-0.35 0.25,0 0.45,0.24 0.45,0.49 0,0.14 -0.42,0.9 -0.66,1.36 l -2.76,4.95 z"
           id="path8893" /><path
           style="fill:#000000;stroke-width:0"
           inkscape:connector-curvature="0"
           d="m 651.4,422.5 0.13,0 0.15,0 0.14,0 0.08,0.01 0.07,0 0.07,0.01 0.07,0.01 0.07,0.01 0.07,0.01 0.07,0.01 0.07,0.02 0.06,0.02 0.06,0.02 0.06,0.02 0.06,0.03 0.06,0.03 0.05,0.04 0.05,0.03 0.05,0.05 0.04,0.04 0.04,0.05 0.02,0.03 0.02,0.03 0.01,0.02 0.02,0.03 0.01,0.03 0.02,0.04 0.01,0.03 0.01,0.04 0.01,0.03 0.01,0.04 0.01,0.04 0,0.04 0.01,0.04 0,0.04 0,0.04 0,0.05 c 0,1 -0.95,1 -1.64,1 H 621.6 c -0.7,0 -1.64,0 -1.64,-1 0,-0.98 0.94,-0.98 1.69,-0.98 z"
           id="path8895" /><path
           style="fill:#000000;stroke-width:0"
           inkscape:connector-curvature="0"
           d="m 651.44,412.82 0.07,0 0.06,0 0.14,0.01 0.14,0 0.07,0 0.07,0.01 0.07,0.01 0.07,0 0.06,0.01 0.07,0.02 0.07,0.01 0.06,0.02 0.07,0.02 0.06,0.02 0.06,0.02 0.06,0.03 0.05,0.03 0.05,0.04 0.05,0.04 0.05,0.04 0.04,0.05 0.02,0.02 0.02,0.03 0.02,0.02 0.02,0.03 0.01,0.03 0.02,0.03 0.01,0.03 0.02,0.03 0.01,0.04 0.01,0.03 0.01,0.04 0.01,0.04 0.01,0.04 0,0.04 0.01,0.04 0,0.04 0,0.05 0,0.04 c 0,1 -0.95,1 -1.68,1 h -29.75 c -0.75,0 -1.69,0 -1.69,-1 0,-1 0.94,-1 1.64,-1 z"
           id="path8897" /><path
           style="fill:#000000;stroke-width:0"
           inkscape:connector-curvature="0"
           d="m 686.2,394.25 0,0.02 0,0.03 0,0.01 0,0.02 -0.01,0.01 0,0.02 -0.01,0.01 0,0.02 -0.01,0.02 -0.01,0.02 -0.01,0.02 -0.02,0.03 -0.01,0.02 -0.02,0.03 -0.02,0.03 -0.03,0.03 -0.02,0.03 -0.03,0.04 -0.02,0.02 -0.02,0.02 -0.01,0.02 -0.02,0.02 -0.02,0.02 -0.02,0.03 -0.02,0.02 -0.02,0.02 -0.03,0.03 -0.02,0.02 -0.02,0.03 -0.03,0.03 -0.03,0.03 -0.02,0.03 -0.03,0.03 -0.03,0.03 -0.03,0.03 -0.04,0.03 -0.03,0.04 -0.03,0.03 -0.04,0.04 -0.03,0.03 -0.04,0.04 -0.04,0.04 c -6.22,6.28 -7.81,15.69 -7.81,23.31 0,8.67 1.89,17.35 8.01,23.56 0.64,0.61 0.64,0.71 0.64,0.86 0,0.35 -0.18,0.49 -0.48,0.49 -0.5,0 -4.99,-3.38 -7.92,-9.7 -2.55,-5.49 -3.14,-11.02 -3.14,-15.21 0,-3.89 0.54,-9.9 3.28,-15.54 2.98,-6.13 7.28,-9.36 7.78,-9.36 0.3,0 0.48,0.14 0.48,0.5 z"
           id="path8899" /><path
           style="fill:#000000;stroke-width:0"
           inkscape:connector-curvature="0"
           d="m 697.5,397.73 -0.01,-0.03 0,-0.03 -0.01,-0.03 -0.01,-0.03 -0.01,-0.02 -0.01,-0.03 -0.01,-0.05 -0.02,-0.05 -0.01,-0.04 -0.02,-0.05 -0.01,-0.04 -0.01,-0.04 -0.01,-0.03 -0.01,-0.04 -0.01,-0.03 -0.01,-0.03 -0.01,-0.03 -0.01,-0.03 -0.01,-0.02 0,-0.03 -0.01,-0.02 -0.01,-0.02 0,-0.03 0,-0.02 -0.01,-0.02 -0.01,-0.04 0,-0.04 0,-0.04 -0.01,-0.04 0,-0.03 0,-0.02 c 0,-1.09 0.96,-1.39 1.46,-1.39 0.25,0 1.34,0.14 1.84,1.3 0.14,0.39 0.39,2.04 1.73,9.11 0.46,-0.05 0.8,-0.1 1.65,-0.1 8.28,0 15.95,7.83 15.95,15.69 l -1.41,-1.09 c 0,-5.63 -6.42,-11.71 -14.09,-11.71 h 0 c -0.39,0 -0.5,0 -0.89,0.05 -0.61,0 -0.66,0.05 -0.66,0.2 0,0.1 0.85,4.63 1,5.38 1.55,6.37 5.44,11.15 9.86,11.15 3.44,0 4.78,-2.68 4.78,-5.07 l 1.41,1.09 c 0,3.89 -1.95,6.87 -5.69,6.87 -7.22,0 -10.2,-9.65 -13.2,-19.37 -5.38,1 -8.17,3.78 -8.17,7.37 0,1.4 1.15,6.88 4.14,10.32 0.39,0.45 0.39,0.54 0.39,0.64 0,0.2 -0.1,0.5 -0.6,0.5 -1.39,0 -5.23,-7.22 -5.23,-12 0,-4.69 3.3,-8.33 8.63,-9.56 z"
           id="path8901" /><path
           style="fill:#000000;stroke-width:0"
           inkscape:connector-curvature="0"
           d="m 747.6,435.32 0.06,0 0.05,0 0.11,0 0.12,0 0.06,0 0.06,0.01 0.05,0 0.06,0.01 0.06,0.01 0.06,0.01 0.06,0.01 0.05,0.02 0.05,0.01 0.06,0.02 0.05,0.02 0.05,0.03 0.05,0.02 0.04,0.03 0.04,0.03 0.04,0.04 0.04,0.04 0.02,0.02 0.01,0.02 0.02,0.02 0.01,0.03 0.02,0.02 0.01,0.03 0.01,0.03 0.02,0.02 0.01,0.03 0.01,0.03 0,0.03 0.01,0.03 0.01,0.04 0,0.03 0.01,0.04 0,0.03 0,0.04 0,0.04 c 0,0.86 -0.79,0.86 -1.39,0.86 h -20.76 c -0.57,0 -1.39,0 -1.39,-0.83 0,-0.87 0.79,-0.87 1.39,-0.87 z"
           id="path8903" /><path
           style="fill:#000000;stroke-width:0"
           inkscape:connector-curvature="0"
           d="m 764.43,449.6 0,0.04 0,0.04 0,0.05 0,0.04 0,0.03 0,0.04 0,0.04 0,0.03 -0.01,0.04 0,0.03 0,0.03 0,0.03 0,0.03 -0.01,0.03 0,0.03 -0.01,0.02 0,0.03 0,0.02 -0.01,0.03 0,0.02 -0.02,0.04 -0.01,0.04 -0.02,0.03 -0.02,0.03 -0.02,0.03 -0.02,0.03 -0.03,0.02 -0.03,0.02 -0.04,0.02 -0.03,0.01 -0.04,0.01 -0.05,0.02 -0.02,0 -0.03,0 -0.02,0.01 -0.03,0 -0.03,0.01 -0.02,0 -0.03,0 -0.03,0 -0.04,0 -0.03,0.01 -0.03,0 -0.04,0 -0.04,0 -0.03,0 -0.04,0 -0.04,0 -0.04,0 -0.05,0 -0.04,0 -0.05,0 c -2.23,-2.2 -5.39,-2.23 -6.83,-2.23 v -1.25 c 0.85,0 3.15,0 5.05,0.97 V 430.3 c 0,-1.16 0,-1.61 -3.48,-1.61 h -1.32 v -1.25 c 0.63,0.03 4.91,0.14 6.21,0.14 1.08,0 5.47,-0.11 6.23,-0.14 v 1.25 h -1.33 c -3.48,0 -3.48,0.45 -3.48,1.61 z"
           id="path8905" /><path
           style="fill:#000000;stroke-width:0"
           inkscape:connector-curvature="0"
           d="m 747.6,401.59 0.06,0 0.05,0 0.11,0.01 0.12,0 0.06,0 0.06,0.01 0.05,0 0.06,0.01 0.06,0.01 0.06,0.01 0.06,0.01 0.05,0.01 0.05,0.02 0.06,0.02 0.05,0.02 0.05,0.02 0.05,0.03 0.04,0.03 0.04,0.03 0.04,0.04 0.04,0.04 0.02,0.02 0.01,0.02 0.02,0.02 0.01,0.03 0.02,0.02 0.01,0.03 0.01,0.02 0.02,0.03 0.01,0.03 0.01,0.03 0,0.03 0.01,0.03 0.01,0.04 0,0.03 0.01,0.03 0,0.04 0,0.04 0,0.04 c 0,0.86 -0.79,0.86 -1.39,0.86 h -20.76 c -0.57,0 -1.39,0 -1.39,-0.83 0,-0.88 0.79,-0.88 1.39,-0.88 z"
           id="path8907" /><path
           style="fill:#000000;stroke-width:0"
           inkscape:connector-curvature="0"
           d="m 761.34,407.48 h 3.54 c 0.66,0 1.11,0 1.11,0.77 0,0.48 -0.45,0.48 -1.03,0.48 h -3.31 l 1.28,5.16 c 0.03,0.17 0.11,0.34 0.11,0.49 0,0.64 -0.49,1.12 -1.19,1.12 -0.87,0 -1.39,-0.59 -1.64,-1.5 -0.23,-0.88 0.22,0.8 -1.33,-5.27 h -3.54 c -0.66,0 -1.11,0 -1.11,-0.76 0,-0.49 0.4,-0.49 1.04,-0.49 h 3.3 l -2.05,-8.21 c -0.22,-0.88 -0.53,-2.13 -0.53,-2.58 0,-2.07 1.75,-3.31 3.74,-3.31 3.87,0 6.06,4.87 6.06,5.32 0,0.46 -0.45,0.46 -0.56,0.46 -0.41,0 -0.46,-0.08 -0.72,-0.66 -0.99,-2.2 -2.77,-4.16 -4.67,-4.16 -0.74,0 -1.22,0.46 -1.22,1.71 0,0.36 0.14,1.09 0.2,1.43 z"
           id="path8909" /><path
           style="fill:#000000;stroke-width:0"
           inkscape:connector-curvature="0"
           d="m 789.47,418.65 0,0.37 -0.01,0.39 -0.01,0.39 -0.01,0.41 -0.04,0.84 -0.06,0.88 -0.08,0.92 -0.11,0.95 -0.13,0.97 -0.17,1.01 -0.19,1.02 -0.23,1.03 -0.27,1.05 -0.31,1.06 -0.34,1.07 -0.4,1.07 -0.21,0.53 -0.22,0.53 -0.24,0.53 -0.25,0.53 c -2.99,6.12 -7.27,9.36 -7.77,9.36 -0.3,0 -0.5,-0.19 -0.5,-0.49 0,-0.15 0,-0.25 0.94,-1.15 4.89,-4.92 7.73,-12.85 7.73,-23.27 0,-8.51 -1.84,-17.28 -8.03,-23.56 -0.64,-0.59 -0.64,-0.7 -0.64,-0.84 0,-0.3 0.2,-0.5 0.5,-0.5 0.5,0 4.97,3.39 7.92,9.71 2.54,5.47 3.13,11 3.13,15.19 z"
           id="path8911" /><path
           style="fill:#000000;stroke-width:0"
           inkscape:connector-curvature="0"
           d="m 812.7,408.76 0.02,0.02 0.03,0.01 0.03,0.01 0.03,0.01 0.02,0.02 0.02,0.01 0.03,0.01 0.02,0.01 0.02,0.02 0.02,0.01 0.03,0.01 0.01,0.01 0.02,0.01 0.02,0.02 0.02,0.01 0.02,0.01 0.01,0.01 0.02,0.01 0.01,0.01 0.02,0.01 0.02,0.02 0.03,0.03 0.02,0.02 0.02,0.02 0.02,0.02 0.01,0.02 0.02,0.02 0.01,0.01 0.01,0.02 0.01,0.02 0,0.02 0.01,0.02 0.01,0.01 0,0.02 0,0.02 0.01,0.01 0,0.02 0,0.01 0,0.03 0,0.03 c 0,0.31 -0.31,0.45 -0.48,0.45 -0.18,0 -5.97,-1.11 -6.91,-1.33 l -0.8,6.45 c -0.08,0.49 -0.14,0.91 -0.56,0.91 -0.34,0 -0.48,-0.31 -0.56,-0.87 l -0.77,-6.49 -6.4,1.27 c -0.43,0.06 -0.49,0.06 -0.52,0.06 -0.17,0 -0.5,-0.14 -0.5,-0.45 0,-0.14 0.08,-0.24 0.19,-0.38 0.14,-0.11 5.64,-2.65 6.4,-3 l -3.17,-5.78 c -0.25,-0.42 -0.25,-0.5 -0.25,-0.56 0,-0.25 0.22,-0.49 0.46,-0.49 0.31,0 1.04,0.83 2.4,2.36 0.88,0.99 1.81,1.92 2.72,2.86 1.7,-1.73 4.19,-4.48 4.61,-4.87 0.27,-0.28 0.31,-0.35 0.52,-0.35 0.25,0 0.45,0.24 0.45,0.49 0,0.14 -0.42,0.9 -0.66,1.36 l -2.76,4.95 z"
           id="path8913" /></g>    </g>
    <g
       id="g9085"
       transform="translate(75.761441,193.94929)">
      <g
         word-spacing="normal"
         letter-spacing="normal"
         font-size-adjust="none"
         font-stretch="normal"
         font-weight="normal"
         font-variant="normal"
         font-style="normal"
         stroke-miterlimit="10.433"
         xml:space="preserve"
         transform="matrix(0.44009111,0,0,-0.44009111,-77.015945,327.21703)"
         id="g9087"
         style="font-style:normal;font-variant:normal;font-weight:normal;font-stretch:normal;letter-spacing:normal;word-spacing:normal;text-anchor:start;fill:none;stroke:#000000;stroke-linecap:butt;stroke-linejoin:miter;stroke-miterlimit:10.43299961;stroke-opacity:1;stroke-dasharray:none;stroke-dashoffset:0"><path
           id="path9089"
           d="m 463.99,397.73 -0.01,-0.03 -0.01,-0.03 -0.01,-0.03 -0.01,-0.03 -0.01,-0.02 -0.01,-0.03 -0.01,-0.05 -0.02,-0.05 -0.01,-0.04 -0.01,-0.05 -0.02,-0.04 -0.01,-0.04 -0.01,-0.03 -0.01,-0.04 -0.01,-0.03 -0.01,-0.03 -0.01,-0.03 -0.01,-0.03 0,-0.02 -0.01,-0.03 -0.01,-0.02 0,-0.02 -0.01,-0.03 0,-0.02 0,-0.02 -0.01,-0.04 -0.01,-0.04 0,-0.04 0,-0.04 0,-0.03 0,-0.02 c 0,-1.09 0.95,-1.39 1.45,-1.39 0.25,0 1.35,0.14 1.85,1.3 0.14,0.39 0.39,2.04 1.73,9.11 0.45,-0.05 0.8,-0.1 1.64,-0.1 8.28,0 15.95,7.83 15.95,15.69 l -1.4,-1.09 c 0,-5.63 -6.42,-11.71 -14.1,-11.71 h 0 c -0.39,0 -0.5,0 -0.89,0.05 -0.61,0 -0.65,0.05 -0.65,0.2 0,0.1 0.84,4.63 1,5.38 1.54,6.37 5.43,11.15 9.86,11.15 3.43,0 4.78,-2.68 4.78,-5.07 l 1.4,1.09 c 0,3.89 -1.95,6.87 -5.68,6.87 -7.22,0 -10.21,-9.65 -13.21,-19.37 -5.37,1 -8.17,3.78 -8.17,7.37 0,1.4 1.16,6.88 4.14,10.32 0.39,0.45 0.39,0.54 0.39,0.64 0,0.2 -0.09,0.5 -0.59,0.5 -1.39,0 -5.24,-7.22 -5.24,-12 0,-4.69 3.3,-8.33 8.63,-9.56 z"
           inkscape:connector-curvature="0"
           style="fill:#000000;stroke-width:0" /><path
           id="path9091"
           d="m 496.74,412.53 h 3.55 c 0.65,0 1.1,0 1.1,0.76 0,0.49 -0.45,0.49 -1.03,0.49 h -3.31 l 1.28,5.15 c 0.03,0.18 0.11,0.35 0.11,0.49 0,0.64 -0.48,1.12 -1.19,1.12 -0.87,0 -1.39,-0.59 -1.64,-1.5 -0.23,-0.87 0.22,0.8 -1.32,-5.26 h -3.55 c -0.66,0 -1.11,0 -1.11,-0.77 0,-0.48 0.41,-0.48 1.05,-0.48 h 3.29 l -2.04,-8.22 c -0.22,-0.88 -0.54,-2.13 -0.54,-2.58 0,-2.06 1.75,-3.31 3.74,-3.31 3.87,0 6.06,4.87 6.06,5.33 0,0.45 -0.45,0.45 -0.56,0.45 -0.41,0 -0.45,-0.08 -0.72,-0.66 -0.98,-2.2 -2.77,-4.15 -4.67,-4.15 -0.74,0 -1.22,0.45 -1.22,1.7 0,0.36 0.14,1.09 0.2,1.44 z"
           inkscape:connector-curvature="0"
           style="fill:#000000;stroke-width:0" /><path
           id="path9093"
           d="m 522.16,394.25 0,0.02 0,0.03 0,0.01 0,0.02 0,0.01 -0.01,0.02 0,0.01 -0.01,0.02 -0.01,0.02 -0.01,0.02 -0.01,0.02 -0.02,0.03 -0.01,0.02 -0.02,0.03 -0.02,0.03 -0.03,0.03 -0.02,0.03 -0.03,0.04 -0.02,0.02 -0.01,0.02 -0.02,0.02 -0.02,0.02 -0.02,0.02 -0.02,0.03 -0.02,0.02 -0.02,0.02 -0.02,0.03 -0.03,0.02 -0.02,0.03 -0.03,0.03 -0.03,0.03 -0.02,0.03 -0.03,0.03 -0.03,0.03 -0.03,0.03 -0.03,0.03 -0.04,0.04 -0.03,0.03 -0.04,0.04 -0.03,0.03 -0.04,0.04 -0.04,0.04 c -6.22,6.28 -7.81,15.69 -7.81,23.31 0,8.67 1.89,17.35 8.01,23.56 0.64,0.61 0.64,0.71 0.64,0.86 0,0.35 -0.18,0.49 -0.48,0.49 -0.5,0 -4.98,-3.38 -7.92,-9.7 -2.55,-5.49 -3.14,-11.02 -3.14,-15.21 0,-3.89 0.54,-9.9 3.28,-15.54 2.98,-6.13 7.28,-9.36 7.78,-9.36 0.3,0 0.48,0.14 0.48,0.5 z"
           inkscape:connector-curvature="0"
           style="fill:#000000;stroke-width:0" /><path
           id="path9095"
           d="m 541.64,421.25 0.03,0.13 0.03,0.15 0.04,0.16 0.05,0.18 0.05,0.19 0.06,0.21 0.07,0.22 0.07,0.22 0.08,0.23 0.09,0.24 0.09,0.25 0.11,0.24 0.11,0.25 0.12,0.25 0.13,0.25 0.13,0.25 0.15,0.24 0.16,0.24 0.17,0.23 0.17,0.22 0.19,0.22 0.2,0.2 0.21,0.19 0.22,0.18 0.23,0.16 0.24,0.14 0.13,0.07 0.13,0.06 0.13,0.05 0.14,0.05 0.14,0.05 0.14,0.04 0.15,0.03 0.15,0.03 0.15,0.02 0.15,0.02 0.16,0.01 0.16,0 c 0.25,0 1.44,0 2.49,-0.64 -1.39,-0.25 -2.39,-1.5 -2.39,-2.69 0,-0.79 0.55,-1.75 1.89,-1.75 1.09,0 2.69,0.89 2.69,2.89 0,2.6 -2.94,3.28 -4.63,3.28 -2.89,0 -4.64,-2.64 -5.23,-3.78 -1.25,3.28 -3.94,3.78 -5.38,3.78 -5.19,0 -8.03,-6.42 -8.03,-7.67 0,-0.5 0.5,-0.5 0.61,-0.5 0.39,0 0.55,0.11 0.64,0.55 1.69,5.28 4.99,6.53 6.67,6.53 0.95,0 2.69,-0.44 2.69,-3.33 0,-1.54 -0.84,-4.89 -2.69,-11.86 -0.8,-3.09 -2.53,-5.18 -4.73,-5.18 -0.3,0 -1.44,0 -2.49,0.65 1.25,0.24 2.35,1.28 2.35,2.69 0,1.34 -1.1,1.73 -1.85,1.73 -1.5,0 -2.75,-1.29 -2.75,-2.89 0,-2.28 2.5,-3.28 4.69,-3.28 3.3,0 5.08,3.49 5.23,3.78 0.6,-1.84 2.4,-3.78 5.38,-3.78 5.14,0 7.99,6.42 7.99,7.67 0,0.5 -0.46,0.5 -0.62,0.5 -0.43,0 -0.54,-0.2 -0.63,-0.54 -1.65,-5.33 -5.04,-6.53 -6.63,-6.53 -1.95,0 -2.75,1.59 -2.75,3.29 0,1.1 0.3,2.19 0.86,4.38 z"
           inkscape:connector-curvature="0"
           style="fill:#000000;stroke-width:0" /><path
           id="path9097"
           d="m 567.82,418.65 0,0.37 0,0.39 -0.01,0.39 -0.01,0.41 -0.04,0.84 -0.06,0.88 -0.09,0.92 -0.1,0.95 -0.14,0.97 -0.16,1.01 -0.2,1.02 -0.23,1.03 -0.26,1.05 -0.31,1.06 -0.35,1.07 -0.39,1.07 -0.21,0.53 -0.23,0.53 -0.24,0.53 -0.25,0.53 c -2.98,6.12 -7.26,9.36 -7.76,9.36 -0.3,0 -0.5,-0.19 -0.5,-0.49 0,-0.15 0,-0.25 0.94,-1.15 4.88,-4.92 7.73,-12.85 7.73,-23.27 0,-8.51 -1.85,-17.28 -8.03,-23.56 -0.64,-0.59 -0.64,-0.7 -0.64,-0.84 0,-0.3 0.2,-0.5 0.5,-0.5 0.5,0 4.97,3.39 7.92,9.71 2.53,5.47 3.12,11 3.12,15.19 z"
           inkscape:connector-curvature="0"
           style="fill:#000000;stroke-width:0" /><path
           id="path9099"
           d="m 590.59,408.84 0,0.13 -0.01,0.14 -0.02,0.13 -0.02,0.13 -0.03,0.12 -0.04,0.13 -0.04,0.12 -0.04,0.12 -0.06,0.12 -0.06,0.11 -0.06,0.11 -0.07,0.11 -0.07,0.1 -0.08,0.1 -0.08,0.1 -0.09,0.09 -0.09,0.09 -0.1,0.08 -0.1,0.08 -0.1,0.07 -0.11,0.07 -0.11,0.07 -0.11,0.06 -0.12,0.05 -0.12,0.05 -0.12,0.04 -0.13,0.04 -0.13,0.03 -0.13,0.02 -0.13,0.02 -0.13,0.01 -0.14,0 c -1.43,0 -2.64,-1.2 -2.64,-2.64 0,-1.44 1.21,-2.64 2.64,-2.64 1.46,0 2.64,1.2 2.64,2.64 z"
           inkscape:connector-curvature="0"
           style="fill:#000000;stroke-width:0" /><path
           id="path9101"
           d="m 612.67,408.84 -0.01,0.13 -0.01,0.14 -0.01,0.13 -0.03,0.13 -0.03,0.12 -0.03,0.13 -0.04,0.12 -0.05,0.12 -0.05,0.12 -0.06,0.11 -0.07,0.11 -0.06,0.11 -0.08,0.1 -0.08,0.1 -0.08,0.1 -0.09,0.09 -0.09,0.09 -0.1,0.08 -0.1,0.08 -0.1,0.07 -0.11,0.07 -0.11,0.07 -0.11,0.06 -0.12,0.05 -0.12,0.05 -0.12,0.04 -0.12,0.04 -0.13,0.03 -0.13,0.02 -0.13,0.02 -0.14,0.01 -0.13,0 c -1.44,0 -2.64,-1.2 -2.64,-2.64 0,-1.44 1.2,-2.64 2.64,-2.64 1.45,0 2.64,1.2 2.64,2.64 z"
           inkscape:connector-curvature="0"
           style="fill:#000000;stroke-width:0" /><path
           id="path9103"
           d="m 634.75,408.84 -0.01,0.13 -0.01,0.14 -0.01,0.13 -0.03,0.13 -0.03,0.12 -0.03,0.13 -0.04,0.12 -0.05,0.12 -0.06,0.12 -0.05,0.11 -0.07,0.11 -0.07,0.11 -0.07,0.1 -0.08,0.1 -0.08,0.1 -0.09,0.09 -0.09,0.09 -0.1,0.08 -0.1,0.08 -0.1,0.07 -0.11,0.07 -0.11,0.07 -0.11,0.06 -0.12,0.05 -0.12,0.05 -0.12,0.04 -0.13,0.04 -0.12,0.03 -0.13,0.02 -0.14,0.02 -0.13,0.01 -0.14,0 c -1.43,0 -2.63,-1.2 -2.63,-2.64 0,-1.44 1.2,-2.64 2.63,-2.64 1.46,0 2.65,1.2 2.65,2.64 z"
           inkscape:connector-curvature="0"
           style="fill:#000000;stroke-width:0" /></g>    </g>
  </g>
</svg>
