<?xml version="1.0" encoding="UTF-8" standalone="no"?>
<!-- Created with Inkscape (http://www.inkscape.org/) -->

<svg
   xmlns:dc="http://purl.org/dc/elements/1.1/"
   xmlns:cc="http://creativecommons.org/ns#"
   xmlns:rdf="http://www.w3.org/1999/02/22-rdf-syntax-ns#"
   xmlns:svg="http://www.w3.org/2000/svg"
   xmlns="http://www.w3.org/2000/svg"
   xmlns:sodipodi="http://sodipodi.sourceforge.net/DTD/sodipodi-0.dtd"
   xmlns:inkscape="http://www.inkscape.org/namespaces/inkscape"
   width="708.67822"
   height="871.95117"
   id="svg5044"
   version="1.1"
   inkscape:version="0.48.5 r10040"
   sodipodi:docname="Neues Dokument 5">
  <sodipodi:namedview
     id="base"
     pagecolor="#ffffff"
     bordercolor="#666666"
     borderopacity="1.0"
     inkscape:pageopacity="0.0"
     inkscape:pageshadow="2"
     inkscape:zoom="0.49497475"
     inkscape:cx="350.2157"
     inkscape:cy="391.37467"
     inkscape:document-units="px"
     inkscape:current-layer="layer1"
     showgrid="false"
     inkscape:window-width="932"
     inkscape:window-height="631"
     inkscape:window-x="40"
     inkscape:window-y="40"
     inkscape:window-maximized="0"
     fit-margin-top="0"
     fit-margin-left="0"
     fit-margin-right="0"
     fit-margin-bottom="0" />
  <defs
     id="defs5046" />
  <metadata
     id="metadata5049">
    <rdf:RDF>
      <cc:Work
         rdf:about="">
        <dc:format>image/svg+xml</dc:format>
        <dc:type
           rdf:resource="http://purl.org/dc/dcmitype/StillImage" />
        <dc:title></dc:title>
      </cc:Work>
    </rdf:RDF>
  </metadata>
  <g
     id="layer1"
     inkscape:groupmode="layer"
     inkscape:label="Ebene 1"
     transform="translate(-12.622758,-41.578075)">
    <g
       id="g5057"
       transform="translate(-822.85714,-374.28571)">
      <g
         word-spacing="normal"
         letter-spacing="normal"
         font-size-adjust="none"
         font-stretch="normal"
         font-weight="normal"
         font-variant="normal"
         font-style="normal"
         stroke-miterlimit="10.433"
         xml:space="preserve"
         transform="matrix(1.0629921,0,0,-1.0629921,-186.02362,789.27165)"
         id="content"
         style="font-style:normal;font-variant:normal;font-weight:normal;font-stretch:normal;letter-spacing:normal;word-spacing:normal;text-anchor:start;fill:none;stroke:#000000;stroke-linecap:butt;stroke-linejoin:miter;stroke-miterlimit:10.43299961;stroke-opacity:1;stroke-dasharray:none;stroke-dashoffset:0"><path
           id="path5060"
           d="m 981.04,-41.164 0.02,0.065 0.01,0.064 0.04,0.122 0.03,0.116 0.03,0.11 0.03,0.104 0.03,0.099 0.02,0.094 0.03,0.088 0.03,0.082 0.03,0.078 0.03,0.074 0.03,0.068 0.03,0.064 0.03,0.06 0.03,0.056 0.03,0.052 0.03,0.049 0.03,0.045 0.04,0.041 0.03,0.038 0.04,0.036 0.04,0.032 0.03,0.03 0.04,0.027 0.04,0.025 0.05,0.023 0.04,0.021 0.05,0.019 0.05,0.017 0.05,0.016 0.05,0.015 0.05,0.014 c 0.46,0.109 2.1,0.109 3.14,0.109 5.03,0 7.27,-0.203 7.27,-4.094 0,-0.734 -0.19,-2.687 -0.39,-3.984 -0.05,-0.188 -0.16,-0.797 -0.16,-0.938 0,-0.296 0.16,-0.656 0.6,-0.656 0.56,0 0.65,0.406 0.75,1.156 l 1.34,8.657 c 0.06,0.203 0.11,0.703 0.11,0.859 0,0.547 -0.5,0.547 -1.34,0.547 h -27.66 c -1.2,0 -1.25,-0.063 -1.59,-1 l -2.99,-8.766 c -0.06,-0.109 -0.29,-0.797 -0.29,-0.906 0,-0.297 0.23,-0.547 0.59,-0.547 0.5,0 0.54,0.25 0.84,1.047 2.69,7.719 3.99,8.625 11.36,8.625 h 1.94 c 1.4,0 1.4,-0.203 1.4,-0.594 0,-0.312 -0.15,-0.906 -0.2,-1.047 l -6.67,-26.609 c -0.45,-1.844 -0.61,-2.391 -5.94,-2.391 -1.79,0 -2.09,0 -2.09,-0.953 0,-0.593 0.55,-0.593 0.84,-0.593 1.36,0 2.75,0.093 4.1,0.093 1.39,0 2.84,0.063 4.23,0.063 1.39,0 2.78,-0.063 4.14,-0.063 1.44,0 2.94,-0.093 4.33,-0.093 0.5,0 1.09,0 1.09,1 0,0.546 -0.39,0.546 -1.68,0.546 -1.25,0 -1.9,0 -3.19,0.094 -1.46,0.156 -1.84,0.297 -1.84,1.094 0,0.062 0,0.312 0.18,1.047 z"
           inkscape:connector-curvature="0"
           style="fill:#000000;stroke-width:0" /><path
           id="path5062"
           d="m 1003.8,-67.508 0,-0.178 0,-0.17 -0.1,-0.161 0,-0.152 -0.1,-0.144 0,-0.136 -0.1,-0.128 0,-0.121 -0.1,-0.113 0,-0.106 -0.1,-0.099 -0.1,-0.092 -0.1,-0.085 0,-0.079 -0.1,-0.073 -0.1,-0.067 -0.1,-0.061 -0.2,-0.056 -0.1,-0.051 -0.2,-0.045 -0.1,-0.041 -0.1,-0.018 -0.1,-0.017 -0.1,-0.017 -0.1,-0.015 -0.1,-0.014 -0.1,-0.013 -0.1,-0.012 -0.1,-0.011 -0.1,-0.01 -0.2,-0.01 -0.1,-0.008 -0.1,-0.008 -0.1,-0.006 -0.2,-0.006 -0.1,-0.005 -0.2,-0.004 -0.1,-0.004 -0.2,-0.003 -0.16,-0.002 -0.17,-10e-4 -0.18,-0.001 -0.18,-0.001 c -0.84,0 -1.34,0 -1.34,-1 0,-0.546 0.45,-0.546 1.34,-0.546 h 17.79 c 7.9,0 13.7,5.875 13.7,10.765 0,3.578 -2.9,6.469 -7.7,7.016 5.2,0.953 10.5,4.64 10.5,9.375 0,3.687 -3.4,6.875 -9.3,6.875 l -0.7,-1.547 c 4.3,0 5.4,-2.938 5.4,-5.125 0,-4.391 -4.3,-9.125 -10.4,-9.125 h -7.2 l -0.3,-1.094 h 9.4 c 4.8,0 5.7,-3.687 5.7,-5.828 0,-4.937 -4.4,-9.766 -10.3,-9.766 h -6.8 c -0.7,0 -0.8,0 -1.1,0.047 -0.5,0.047 -0.6,0.094 -0.6,0.5 0,0.141 0,0.25 0.2,1.141 l 3.5,13.906 0.3,1.094 3.1,12.359 c 0.4,1.735 0.5,1.891 2.7,1.891 h 6.4 l 0.7,1.547 h -16.8 c -0.9,0 -1.4,0 -1.4,-1 0,-0.547 0.4,-0.547 1.4,-0.547 0.1,0 1,0 1.9,-0.094 0.9,-0.109 1.3,-0.156 1.3,-0.797 0,-0.203 0,-0.359 -0.2,-0.953 z"
           inkscape:connector-curvature="0"
           style="fill:#000000;stroke-width:0" /><path
           id="path5064"
           d="m 1084.1,-55.102 0.1,10e-4 0.2,10e-4 0.1,0.005 0.1,0.004 0.1,0.005 0.1,0.006 0,0.008 0.1,0.01 0.1,0.012 0,0.014 0.1,0.017 0.1,0.019 0,0.021 0.1,0.025 0,0.028 0.1,0.03 0.1,0.035 0,0.038 0.1,0.041 0,0.046 0,0.05 0.1,0.026 0,0.028 0,0.029 0,0.029 0,0.031 0,0.033 0,0.033 0.1,0.035 0,0.036 0,0.037 0,0.039 0,0.04 0,0.041 0,0.042 0,0.044 0,0.046 c 0,1 -1,1 -1.6,1 h -29.9 c -0.7,0 -1.6,0 -1.6,-1 0,-0.985 0.9,-0.985 1.7,-0.985 z"
           inkscape:connector-curvature="0"
           style="fill:#000000;stroke-width:0" /><path
           id="path5066"
           d="m 1084.2,-64.773 0,0 0.1,0 0.1,0.002 0.2,0.004 0,0.004 0.1,0.005 0.1,0.007 0,0.008 0.1,0.01 0.1,0.012 0,0.015 0.1,0.016 0.1,0.02 0,0.022 0.1,0.025 0.1,0.028 0,0.031 0.1,0.035 0,0.038 0.1,0.043 0,0.046 0,0.025 0,0.025 0.1,0.027 0,0.028 0,0.03 0,0.03 0,0.032 0,0.032 0,0.034 0.1,0.036 0,0.036 0,0.038 0,0.039 0,0.041 0,0.041 0,0.044 0,0.044 0,0.047 c 0,1 -1,1 -1.7,1 h -29.7 c -0.8,0 -1.7,0 -1.7,-1 0,-1 0.9,-1 1.6,-1 z"
           inkscape:connector-curvature="0"
           style="fill:#000000;stroke-width:0" /><polygon
           id="polygon5068"
           points="1135.7,-30.957 1135.7,-29.41 1117.8,-29.41 1117.8,-30.957 "
           style="fill:#000000;stroke-width:0" /><path
           id="path5070"
           d="m 1110.4,-67.508 0,-0.178 -0.1,-0.17 0,-0.161 -0.1,-0.152 0,-0.144 -0.1,-0.136 0,-0.128 -0.1,-0.121 0,-0.113 -0.1,-0.106 0,-0.099 -0.1,-0.092 -0.1,-0.085 -0.1,-0.079 -0.1,-0.073 -0.1,-0.067 -0.1,-0.061 -0.1,-0.056 -0.1,-0.051 -0.2,-0.045 -0.1,-0.041 -0.1,-0.018 -0.1,-0.017 -0.1,-0.017 -0.1,-0.015 -0.1,-0.014 -0.1,-0.013 -0.1,-0.012 -0.1,-0.011 -0.2,-0.01 -0.1,-0.01 -0.1,-0.008 -0.1,-0.008 -0.2,-0.006 -0.1,-0.006 -0.2,-0.005 -0.1,-0.004 -0.2,-0.004 -0.1,-0.003 -0.2,-0.002 -0.2,-10e-4 -0.1,-0.001 -0.2,-0.001 c -0.9,0 -1.4,0 -1.4,-1 0,-0.546 0.5,-0.546 1.4,-0.546 h 17.8 c 7.8,0 13.7,5.875 13.7,10.765 0,3.578 -2.9,6.469 -7.7,7.016 5.2,0.953 10.4,4.64 10.4,9.375 0,3.687 -3.3,6.875 -9.3,6.875 l -0.7,-1.547 c 4.4,0 5.5,-2.938 5.5,-5.125 0,-4.391 -4.3,-9.125 -10.4,-9.125 h -7.3 l -0.3,-1.094 h 9.5 c 4.7,0 5.7,-3.687 5.7,-5.828 0,-4.937 -4.5,-9.766 -10.3,-9.766 h -6.8 c -0.7,0 -0.8,0 -1.1,0.047 -0.5,0.047 -0.6,0.094 -0.6,0.5 0,0.141 0,0.25 0.2,1.141 l 3.4,13.906 0.3,1.094 3.1,12.359 c 0.5,1.735 0.6,1.891 2.7,1.891 h 6.4 l 0.7,1.547 h -16.7 c -0.9,0 -1.4,0 -1.4,-1 0,-0.547 0.4,-0.547 1.4,-0.547 0,0 1,0 1.8,-0.094 0.9,-0.109 1.4,-0.156 1.4,-0.797 0,-0.203 -0.1,-0.359 -0.2,-0.953 z"
           inkscape:connector-curvature="0"
           style="fill:#000000;stroke-width:0" /><path
           id="path5072"
           d="m 1190.8,-55.102 0.1,10e-4 0.2,10e-4 0.1,0.005 0.1,0.004 0.1,0.005 0,0.006 0.1,0.008 0.1,0.01 0,0.012 0.1,0.014 0.1,0.017 0,0.019 0.1,0.021 0.1,0.025 0,0.028 0.1,0.03 0,0.035 0.1,0.038 0,0.041 0.1,0.046 0,0.05 0,0.026 0.1,0.028 0,0.029 0,0.029 0,0.031 0,0.033 0,0.033 0,0.035 0,0.036 0.1,0.037 0,0.039 0,0.04 0,0.041 0,0.042 0,0.044 0,0.046 c 0,1 -1,1 -1.7,1 H 1161 c -0.7,0 -1.6,0 -1.6,-1 0,-0.985 0.9,-0.985 1.6,-0.985 z"
           inkscape:connector-curvature="0"
           style="fill:#000000;stroke-width:0" /><path
           id="path5074"
           d="m 1190.8,-64.773 0.1,0 0.1,0 0.1,0.002 0.1,0.004 0.1,0.004 0.1,0.005 0.1,0.007 0,0.008 0.1,0.01 0.1,0.012 0,0.015 0.1,0.016 0.1,0.02 0,0.022 0.1,0.025 0,0.028 0.1,0.031 0,0.035 0.1,0.038 0,0.043 0.1,0.046 0,0.025 0,0.025 0,0.027 0.1,0.028 0,0.03 0,0.03 0,0.032 0,0.032 0,0.034 0,0.036 0,0.036 0.1,0.038 0,0.039 0,0.041 0,0.041 0,0.044 0,0.044 0,0.047 c 0,1 -1,1 -1.7,1 H 1161 c -0.7,0 -1.6,0 -1.6,-1 0,-1 0.9,-1 1.6,-1 z"
           inkscape:connector-curvature="0"
           style="fill:#000000;stroke-width:0" /><path
           id="path5076"
           d="m 1227.8,254.29 0,0 0.1,0 0.1,0 0,0 0.1,0 0.1,0.01 0.1,0 0.1,0 0,0 0.1,0.01 0.1,0 0,0.01 0.1,0.01 0,0.01 0.1,0.01 0,0.02 0.1,0.01 0,0.02 0,0.02 0.1,0.02 0,0.02 0,0.03 0,0.03 0.1,0.03 0,0.04 0,0.04 0,0.04 0,0.05 0,0.04 0,0.06 0,0.05 0,0.06 0.1,0.07 c 0,34.92 4.1,63.92 21.5,88.28 0.4,0.45 0.4,0.54 0.4,0.64 0,0.5 -0.4,0.5 -1.2,0.5 -0.8,0 -0.9,0 -1,-0.1 -0.2,-0.15 -6.5,-7.42 -11.5,-17.43 -6.6,-13.16 -10.7,-28.25 -12.6,-46.39 -0.1,-1.54 -1.2,-11.91 -1.2,-23.71 v -1.95 c 0.1,-0.55 0.4,-0.55 1.4,-0.55 z"
           inkscape:connector-curvature="0"
           style="fill:#000000;stroke-width:0" /><path
           id="path5078"
           d="m 1229.2,254.04 -0.1,0.05 0,0.06 0,0.06 0,0.05 0,0.06 0,0.05 0,0.05 0,0.05 0,0.04 0,0.05 0,0.04 0,0.04 0,0.04 0,0.04 0,0.04 0,0.03 0,0.04 0,0.03 0,0.03 0,0.03 0,0.06 0,0.05 -0.1,0.05 0,0.04 0,0.04 0,0.03 -0.1,0.03 0,0.03 -0.1,0.03 0,0.02 -0.1,0.01 0,0.01 0,0.01 -0.1,0.01 0,0 0,0.01 -0.1,0 0,0.01 0,0 -0.1,0 0,0.01 -0.1,0 0,0 0,0 -0.1,0 0,0.01 -0.1,0 0,0 -0.1,0 -0.1,0 0,0 -0.1,0 0,0 h -2.8 c -1.3,0 -1.4,-0.05 -1.4,-1.34 v -28.21 c 0,-1.29 0.1,-1.34 1.4,-1.34 h 2.8 c 1.3,0 1.4,0.05 1.4,1.34 z"
           inkscape:connector-curvature="0"
           style="fill:#000000;stroke-width:0" /><path
           id="path5080"
           d="m 1229.2,224.16 -0.1,0.06 0,0.05 0,0.06 0,0.05 0,0.06 0,0.05 0,0.05 0,0.05 0,0.04 0,0.05 0,0.04 0,0.04 0,0.04 0,0.04 0,0.04 0,0.03 0,0.04 0,0.03 0,0.03 0,0.03 0,0.06 0,0.05 -0.1,0.05 0,0.04 0,0.04 0,0.03 -0.1,0.04 0,0.02 -0.1,0.03 0,0.02 -0.1,0.01 0,0.01 0,0.01 -0.1,0.01 0,0 0,0.01 -0.1,0 0,0.01 0,0 -0.1,0 0,0.01 -0.1,0 0,0 0,0 -0.1,0.01 0,0 -0.1,0 0,0 -0.1,0 -0.1,0 0,0 -0.1,0 0,0 h -2.8 c -1.3,0 -1.4,-0.05 -1.4,-1.34 v -28.21 c 0,-1.29 0.1,-1.34 1.4,-1.34 h 2.8 c 1.3,0 1.4,0.05 1.4,1.34 z"
           inkscape:connector-curvature="0"
           style="fill:#000000;stroke-width:0" /><path
           id="path5082"
           d="m 1229.2,194.16 -0.1,0.06 0,0.05 0,0.06 0,0.05 0,0.06 0,0.05 0,0.05 0,0.05 0,0.04 0,0.05 0,0.04 0,0.04 0,0.04 0,0.04 0,0.04 0,0.03 0,0.04 0,0.03 0,0.03 0,0.03 0,0.06 0,0.05 -0.1,0.05 0,0.04 0,0.04 0,0.03 -0.1,0.04 0,0.02 -0.1,0.03 0,0.02 -0.1,0.01 0,0.01 0,0.01 -0.1,0.01 0,0 0,0.01 -0.1,0 0,0.01 0,0 -0.1,0 0,0.01 -0.1,0 0,0 0,0 -0.1,0.01 0,0 -0.1,0 0,0 -0.1,0 -0.1,0 0,0 -0.1,0 0,0 h -2.8 c -1.3,0 -1.4,-0.05 -1.4,-1.34 v -28.21 c 0,-1.29 0.1,-1.34 1.4,-1.34 h 2.8 c 1.3,0 1.4,0.05 1.4,1.34 z"
           inkscape:connector-curvature="0"
           style="fill:#000000;stroke-width:0" /><path
           id="path5084"
           d="m 1229.2,164.28 -0.1,0.06 0,0.05 0,0.06 0,0.06 0,0.05 0,0.05 0,0.05 0,0.05 0,0.04 0,0.05 0,0.04 0,0.04 0,0.04 0,0.04 0,0.04 0,0.03 0,0.04 0,0.03 0,0.03 0,0.03 0,0.06 0,0.05 -0.1,0.05 0,0.04 0,0.04 0,0.04 -0.1,0.03 0,0.02 -0.1,0.03 0,0.02 -0.1,0.02 0,0 0,0.01 -0.1,0.01 0,0 0,0.01 -0.1,0 0,0.01 0,0 -0.1,0.01 0,0 -0.1,0 0,0 0,0 -0.1,0.01 0,0 -0.1,0 0,0 -0.1,0 -0.1,0 0,0 -0.1,0 0,0 h -2.8 c -1.3,0 -1.4,-0.05 -1.4,-1.34 v -28.21 c 0,-1.29 0.1,-1.34 1.4,-1.34 h 2.8 c 1.3,0 1.4,0.05 1.4,1.34 z"
           inkscape:connector-curvature="0"
           style="fill:#000000;stroke-width:0" /><path
           id="path5086"
           d="m 1229.2,134.4 -0.1,0.05 0,0.06 0,0.06 0,0.05 0,0.06 0,0.05 0,0.05 0,0.04 0,0.05 0,0.05 0,0.04 0,0.04 0,0.04 0,0.04 0,0.04 0,0.03 0,0.04 0,0.03 0,0.03 0,0.03 0,0.06 0,0.05 -0.1,0.05 0,0.04 0,0.04 0,0.03 -0.1,0.03 0,0.03 -0.1,0.02 0,0.02 -0.1,0.02 0,0.01 0,0.01 -0.1,0 0,0.01 0,0.01 -0.1,0 0,0 0,0.01 -0.1,0 0,0.01 -0.1,0 0,0 0,0 -0.1,0 0,0 -0.1,0.01 0,0 -0.1,0 -0.1,0 0,0 -0.1,0 0,0 h -2.8 c -1.3,0 -1.4,-0.05 -1.4,-1.34 v -28.21 c 0,-1.3 0.1,-1.34 1.4,-1.34 h 2.8 c 1.3,0 1.4,0.04 1.4,1.34 z"
           inkscape:connector-curvature="0"
           style="fill:#000000;stroke-width:0" /><path
           id="path5088"
           d="m 1229.2,104.52 -0.1,0.06 0,0.05 0,0.06 0,0.05 0,0.06 0,0.05 0,0.05 0,0.05 0,0.04 0,0.05 0,0.04 0,0.04 0,0.04 0,0.04 0,0.04 0,0.03 0,0.04 0,0.03 0,0.03 0,0.03 0,0.06 0,0.05 -0.1,0.05 0,0.04 0,0.04 0,0.03 -0.1,0.03 0,0.03 -0.1,0.03 0,0.02 -0.1,0.01 0,0.01 0,0.01 -0.1,0.01 0,0 0,0.01 -0.1,0 0,0.01 0,0 -0.1,0 0,0.01 -0.1,0 0,0 0,0 -0.1,0 0,0.01 -0.1,0 0,0 -0.1,0 -0.1,0 0,0 -0.1,0 0,0 h -2.8 c -1.3,0 -1.4,-0.05 -1.4,-1.34 V 76.312 c 0,-1.296 0.1,-1.343 1.4,-1.343 h 2.8 c 1.3,0 1.4,0.047 1.4,1.343 z"
           inkscape:connector-curvature="0"
           style="fill:#000000;stroke-width:0" /><path
           id="path5090"
           d="m 1229.2,74.637 -0.1,0.06 0,0.058 0,0.056 0,0.055 0,0.052 0,0.051 0,0.05 0,0.048 0,0.046 0,0.045 0,0.043 0,0.041 0,0.04 0,0.039 0,0.037 0,0.036 0,0.034 0,0.033 0,0.032 0,0.03 0,0.057 0,0.052 -0.1,0.047 0,0.043 0,0.038 0,0.035 -0.1,0.031 0,0.027 -0.1,0.024 0,0.02 -0.1,0.018 0,0.008 0,0.007 -0.1,0.007 0,0.006 0,0.005 -0.1,0.005 0,0.004 0,0.004 -0.1,0.004 0,0.003 -0.1,0.002 0,0.002 0,0.002 -0.1,0.002 0,0.001 -0.1,10e-4 0,0.001 -0.1,0.001 -0.1,0 0,0 -0.1,0 0,0 h -2.8 c -1.3,0 -1.4,-0.046 -1.4,-1.343 V 46.434 c 0,-1.297 0.1,-1.344 1.4,-1.344 h 2.8 c 1.3,0 1.4,0.047 1.4,1.344 z"
           inkscape:connector-curvature="0"
           style="fill:#000000;stroke-width:0" /><path
           id="path5092"
           d="m 1229.2,44.758 -0.1,0.06 0,0.058 0,0.056 0,0.055 0,0.052 0,0.052 0,0.049 0,0.048 0,0.046 0,0.045 0,0.043 0,0.041 0,0.04 0,0.039 0,0.037 0,0.036 0,0.034 0,0.033 0,0.032 0,0.03 0,0.057 0,0.052 -0.1,0.047 0,0.043 0,0.039 0,0.034 -0.1,0.031 0,0.027 -0.1,0.024 0,0.02 -0.1,0.018 0,0.008 0,0.007 -0.1,0.007 0,0.006 0,0.005 -0.1,0.005 0,0.004 0,0.004 -0.1,0.004 0,0.003 -0.1,0.002 0,0.003 0,10e-4 -0.1,0.002 0,10e-4 -0.1,10e-4 0,0.001 -0.1,10e-4 -0.1,0 0,0 -0.1,10e-4 0,0 h -2.8 c -1.3,0 -1.4,-0.047 -1.4,-1.344 V 16.555 c 0,-1.297 0.1,-1.344 1.4,-1.344 h 2.8 c 1.3,0 1.4,0.047 1.4,1.344 z"
           inkscape:connector-curvature="0"
           style="fill:#000000;stroke-width:0" /><path
           id="path5094"
           d="m 1229.2,14.875 -0.1,0.06 0,0.058 0,0.056 0,0.055 0,0.053 0,0.051 0,0.049 0,0.048 0,0.046 0,0.045 0,0.043 0,0.042 0,0.04 0,0.038 0,0.037 0,0.036 0,0.034 0,0.033 0,0.032 0,0.03 0,0.057 0,0.052 -0.1,0.047 0,0.043 0,0.039 0,0.034 -0.1,0.031 0,0.027 -0.1,0.024 0,0.021 -0.1,0.017 0,0.008 0,0.007 -0.1,0.007 0,0.006 0,0.005 -0.1,0.005 0,0.005 0,0.003 -0.1,0.004 0,0.003 -0.1,0.003 0,0.002 0,0.002 -0.1,10e-4 0,0.002 -0.1,10e-4 0,0 -0.1,0.001 -0.1,0 0,0.001 -0.1,0 0,0 h -2.8 c -1.3,0 -1.4,-0.047 -1.4,-1.344 v -28.203 c 0,-1.297 0.1,-1.344 1.4,-1.344 h 2.8 c 1.3,0 1.4,0.047 1.4,1.344 z"
           inkscape:connector-curvature="0"
           style="fill:#000000;stroke-width:0" /><path
           id="path5096"
           d="m 1229.2,-15.004 -0.1,0.06 0,0.058 0,0.056 0,0.055 0,0.053 0,0.051 0,0.049 0,0.048 0,0.046 0,0.045 0,0.043 0,0.042 0,0.04 0,0.038 0,0.037 0,0.036 0,0.035 0,0.032 0,0.032 0,0.03 0,0.057 0,0.052 -0.1,0.047 0,0.043 0,0.039 0,0.034 -0.1,0.031 0,0.027 -0.1,0.024 0,0.021 -0.1,0.017 0,0.008 0,0.007 -0.1,0.007 0,0.006 0,0.005 -0.1,0.005 0,0.005 0,0.003 -0.1,0.004 0,0.003 -0.1,0.003 0,0.002 0,0.002 -0.1,0.001 0,0.002 -0.1,10e-4 0,0 -0.1,0.001 -0.1,0 0,10e-4 -0.1,0 0,0 h -2.8 c -1.3,0 -1.4,-0.047 -1.4,-1.344 v -28.203 c 0,-1.297 0.1,-1.344 1.4,-1.344 h 2.8 c 1.3,0 1.4,0.047 1.4,1.344 z"
           inkscape:connector-curvature="0"
           style="fill:#000000;stroke-width:0" /><path
           id="path5098"
           d="m 1229.2,-44.883 -0.1,0.06 0,0.058 0,0.056 0,0.055 0,0.053 0,0.051 0,0.049 0,0.048 0,0.047 0,0.044 0,0.043 0,0.042 0,0.04 0,0.038 0,0.038 0,0.035 0,0.035 0,0.033 0,0.031 0,0.031 0,0.056 0,0.052 -0.1,0.048 0,0.042 0,0.039 0,0.034 -0.1,0.031 0,0.027 -0.1,0.024 0,0.021 -0.1,0.017 0,0.008 0,0.007 -0.1,0.007 0,0.006 0,0.005 -0.1,0.005 0,0.005 0,0.004 -0.1,0.003 0,0.003 -0.1,0.003 0,0.002 0,0.002 -0.1,0.001 0,0.002 -0.1,0.001 0,0 -0.1,10e-4 -0.1,0 0,10e-4 -0.1,0 0,0 h -2.8 c -1.3,0 -1.4,-0.047 -1.4,-1.344 v -28.203 c 0,-1.297 0.1,-1.344 1.4,-1.344 h 2.8 c 1.3,0 1.4,0.047 1.4,1.344 z"
           inkscape:connector-curvature="0"
           style="fill:#000000;stroke-width:0" /><path
           id="path5100"
           d="m 1229.2,-74.766 -0.1,0.06 0,0.058 0,0.057 0,0.054 0,0.053 0,0.051 0,0.05 0,0.047 0,0.047 0,0.044 0,0.043 0,0.042 0,0.04 0,0.039 0,0.037 0,0.035 0,0.035 0,0.033 0,0.031 0,0.031 0,0.057 0,0.051 -0.1,0.048 0,0.042 0,0.039 0,0.035 -0.1,0.03 0,0.027 -0.1,0.024 0,0.021 -0.1,0.018 0,0.007 0,0.008 -0.1,0.006 0,0.006 0,0.006 -0.1,0.005 0,0.004 0,0.004 -0.1,0.003 0,0.003 -0.1,0.003 0,0.002 0,0.002 -0.1,0.002 0,0.001 -0.1,10e-4 0,0.001 -0.1,0 -0.1,0.001 0,0 -0.1,0 0,0 h -2.8 c -1.3,0 -1.4,-0.047 -1.4,-1.344 v -28.204 c 0,-1.3 0.1,-1.34 1.4,-1.34 h 2.8 c 1.3,0 1.4,0.04 1.4,1.34 z"
           inkscape:connector-curvature="0"
           style="fill:#000000;stroke-width:0" /><path
           id="path5102"
           d="m 1229.2,-104.64 -0.1,0.05 0,0.06 0,0.06 0,0.05 0,0.06 0,0.05 0,0.05 0,0.05 0,0.04 0,0.05 0,0.04 0,0.04 0,0.04 0,0.04 0,0.04 0,0.03 0,0.04 0,0.03 0,0.03 0,0.03 0,0.06 0,0.05 -0.1,0.05 0,0.04 0,0.04 0,0.03 -0.1,0.03 0,0.03 -0.1,0.03 0,0.02 -0.1,0.01 0,0.01 0,0.01 -0.1,0.01 0,0 0,0.01 -0.1,0 0,0.01 0,0 -0.1,0 0,0.01 -0.1,0 0,0 0,0 -0.1,0 0,0.01 -0.1,0 0,0 -0.1,0 -0.1,0 0,0 -0.1,0 0,0 h -2.8 c -1.3,0 -1.4,-0.05 -1.4,-1.34 v -28.21 c 0,-1.3 0.1,-1.34 1.4,-1.34 h 2.8 c 1.3,0 1.4,0.04 1.4,1.34 z"
           inkscape:connector-curvature="0"
           style="fill:#000000;stroke-width:0" /><path
           id="path5104"
           d="m 1229.2,-134.52 -0.1,0.06 0,0.05 0,0.06 0,0.06 0,0.05 0,0.05 0,0.05 0,0.05 0,0.04 0,0.05 0,0.04 0,0.04 0,0.04 0,0.04 0,0.04 0,0.03 0,0.04 0,0.03 0,0.03 0,0.03 0,0.06 0,0.05 -0.1,0.05 0,0.04 0,0.04 0,0.03 -0.1,0.04 0,0.02 -0.1,0.03 0,0.02 -0.1,0.01 0,0.01 0,0.01 -0.1,0.01 0,0 0,0.01 -0.1,0 0,0.01 0,0 -0.1,0 0,0.01 -0.1,0 0,0 0,0 -0.1,0.01 0,0 -0.1,0 0,0 -0.1,0 -0.1,0 0,0 -0.1,0 0,0 h -2.8 c -1.3,0 -1.4,-0.05 -1.4,-1.34 v -28.21 c 0,-1.29 0.1,-1.34 1.4,-1.34 h 2.8 c 1.3,0 1.4,0.05 1.4,1.34 z"
           inkscape:connector-curvature="0"
           style="fill:#000000;stroke-width:0" /><path
           id="path5106"
           d="m 1229.2,-164.4 -0.1,0.06 0,0.06 0,0.05 0,0.06 0,0.05 0,0.05 0,0.05 0,0.05 0,0.04 0,0.05 0,0.04 0,0.04 0,0.04 0,0.04 0,0.04 0,0.04 0,0.03 0,0.03 0,0.03 0,0.03 0,0.06 0,0.05 -0.1,0.05 0,0.04 0,0.04 0,0.04 -0.1,0.03 0,0.02 -0.1,0.03 0,0.02 -0.1,0.02 0,0 0,0.01 -0.1,0.01 0,0 0,0.01 -0.1,0 0,0.01 0,0 -0.1,0.01 0,0 -0.1,0 0,0 0,0 -0.1,0.01 0,0 -0.1,0 0,0 -0.1,0 -0.1,0 0,0 -0.1,0 0,0 h -2.8 c -1.3,0 -1.4,-0.04 -1.4,-1.34 v -28.2 c 0,-1.3 0.1,-1.35 1.4,-1.35 h 2.8 c 1.3,0 1.4,0.05 1.4,1.35 z"
           inkscape:connector-curvature="0"
           style="fill:#000000;stroke-width:0" /><path
           id="path5108"
           d="m 1229.2,-194.29 -0.1,0.06 0,0.06 0,0.06 0,0.05 0,0.06 0,0.05 0,0.05 0,0.05 0,0.04 0,0.05 0,0.04 0,0.04 0,0.04 0,0.04 0,0.04 0,0.03 0,0.04 0,0.03 0,0.03 0,0.03 0,0.06 0,0.05 -0.1,0.05 0,0.04 0,0.04 0,0.03 -0.1,0.03 0,0.03 -0.1,0.03 0,0.02 -0.1,0.01 0,0.01 0,0.01 -0.1,0.01 0,0 0,0.01 -0.1,0 0,0.01 0,0 -0.1,0 0,0.01 -0.1,0 0,0 0,0 -0.1,0 0,0.01 -0.1,0 0,0 -0.1,0 -0.1,0 0,0 -0.1,0 0,0 h -2.8 c -1.3,0 -1.4,-0.05 -1.4,-1.35 v -28.2 c 0,-1.3 0.1,-1.34 1.4,-1.34 h 2.8 c 1.3,0 1.4,0.04 1.4,1.34 z"
           inkscape:connector-curvature="0"
           style="fill:#000000;stroke-width:0" /><path
           id="path5110"
           d="m 1229.2,-224.29 -0.1,0.06 0,0.06 0,0.06 0,0.05 0,0.06 0,0.05 0,0.05 0,0.05 0,0.04 0,0.05 0,0.04 0,0.04 0,0.04 0,0.04 0,0.04 0,0.03 0,0.04 0,0.03 0,0.03 0,0.03 0,0.06 0,0.05 -0.1,0.05 0,0.04 0,0.04 0,0.03 -0.1,0.03 0,0.03 -0.1,0.03 0,0.02 -0.1,0.01 0,0.01 0,0.01 -0.1,0.01 0,0 0,0.01 -0.1,0 0,0.01 0,0 -0.1,0 0,0.01 -0.1,0 0,0 0,0 -0.1,0 0,0.01 -0.1,0 0,0 -0.1,0 -0.1,0 0,0 -0.1,0 0,0 h -2.8 c -1.3,0 -1.4,-0.05 -1.4,-1.35 v -28.2 c 0,-1.3 0.1,-1.34 1.4,-1.34 h 2.8 c 1.3,0 1.4,0.04 1.4,1.34 z"
           inkscape:connector-curvature="0"
           style="fill:#000000;stroke-width:0" /><path
           id="path5112"
           d="m 1229.2,-254.16 -0.1,0.06 0,0.05 0,0.06 0,0.05 0,0.06 0,0.05 0,0.05 0,0.05 0,0.04 0,0.05 0,0.04 0,0.04 0,0.04 0,0.04 0,0.04 0,0.03 0,0.04 0,0.03 0,0.03 0,0.03 0,0.06 0,0.05 -0.1,0.05 0,0.04 0,0.04 0,0.03 -0.1,0.04 0,0.02 -0.1,0.03 0,0.02 -0.1,0.01 0,0.01 0,0.01 -0.1,0.01 0,0 0,0.01 -0.1,0 0,0.01 0,0 -0.1,0 0,0.01 -0.1,0 0,0 0,0 -0.1,0.01 0,0 -0.1,0 0,0 -0.1,0 -0.1,0 0,0 -0.1,0 0,0 h -2.8 c -1.3,0 -1.4,-0.05 -1.4,-1.34 v -28.21 c 0,-1.29 0.1,-1.34 1.4,-1.34 h 2.8 c 1.3,0 1.4,0.05 1.4,1.34 z"
           inkscape:connector-curvature="0"
           style="fill:#000000;stroke-width:0" /><path
           id="path5114"
           d="m 1229.2,-284.04 -0.1,0.06 0,0.05 0,0.06 0,0.06 0,0.05 0,0.05 0,0.05 0,0.05 0,0.04 0,0.05 0,0.04 0,0.04 0,0.04 0,0.04 0,0.04 0,0.03 0,0.04 0,0.03 0,0.03 0,0.03 0,0.06 0,0.05 -0.1,0.05 0,0.04 0,0.04 0,0.04 -0.1,0.03 0,0.02 -0.1,0.03 0,0.02 -0.1,0.02 0,0 0,0.01 -0.1,0.01 0,0 0,0.01 -0.1,0 0,0.01 0,0 -0.1,0.01 0,0 -0.1,0 0,0 0,0 -0.1,0.01 0,0 -0.1,0 0,0 -0.1,0 -0.1,0 0,0 -0.1,0 0,0 h -2.8 c -1.3,0 -1.4,-0.05 -1.4,-1.34 v -28.21 c 0,-1.29 0.1,-1.34 1.4,-1.34 h 2.8 c 1.3,0 1.4,0.05 1.4,1.34 z"
           inkscape:connector-curvature="0"
           style="fill:#000000;stroke-width:0" /><path
           id="path5116"
           d="m 1229.2,-313.92 -0.1,0.06 0,0.06 0,0.05 0,0.06 0,0.05 0,0.05 0,0.05 0,0.05 0,0.04 0,0.05 0,0.04 0,0.04 0,0.04 0,0.04 0,0.04 0,0.04 0,0.03 0,0.03 0,0.03 0,0.03 0,0.06 0,0.05 -0.1,0.05 0,0.04 0,0.04 0,0.04 -0.1,0.03 0,0.02 -0.1,0.03 0,0.02 -0.1,0.02 0,0 0,0.01 -0.1,0.01 0,0 0,0.01 -0.1,0 0,0.01 0,0 -0.1,0.01 0,0 -0.1,0 0,0 0,0.01 -0.1,0 0,0 -0.1,0 0,0 -0.1,0 -0.1,0 0,0 -0.1,0 0,0 h -2.8 c -1.3,0 -1.4,-0.04 -1.4,-1.34 v -28.2 c 0,-1.3 0.1,-1.35 1.4,-1.35 h 2.8 c 1.3,0 1.4,0.05 1.4,1.35 z"
           inkscape:connector-curvature="0"
           style="fill:#000000;stroke-width:0" /><path
           id="path5118"
           d="m 1229.2,-343.8 -0.1,0.05 0,0.06 0,0.06 0,0.05 0,0.06 0,0.05 0,0.05 0,0.05 0,0.04 0,0.05 0,0.04 0,0.04 0,0.04 0,0.04 0,0.04 0,0.03 0,0.04 0,0.03 0,0.03 0,0.03 0,0.06 0,0.05 -0.1,0.05 0,0.04 0,0.04 0,0.03 -0.1,0.03 0,0.03 -0.1,0.03 0,0.02 -0.1,0.01 0,0.01 0,0.01 -0.1,0.01 0,0 0,0.01 -0.1,0 0,0.01 0,0 -0.1,0 0,0.01 -0.1,0 0,0 0,0 -0.1,0 0,0.01 -0.1,0 0,0 -0.1,0 -0.1,0 0,0 -0.1,0 0,0 h -2.8 c -1.3,0 -1.4,-0.05 -1.4,-1.34 v -28.21 c 0,-1.29 0.1,-1.34 1.4,-1.34 h 2.8 c 1.3,0 1.4,0.05 1.4,1.34 z"
           inkscape:connector-curvature="0"
           style="fill:#000000;stroke-width:0" /><path
           id="path5120"
           d="m 1225,-372.28 -0.1,0 -0.1,0 -0.1,0 0,0 -0.1,0 -0.1,0 -0.1,0 0,-0.01 -0.1,0 -0.1,0 0,-0.01 -0.1,-0.01 0,0 -0.1,-0.01 0,-0.01 -0.1,-0.02 0,-0.01 0,-0.01 -0.1,-0.02 0,-0.02 0,-0.02 0,-0.02 -0.1,-0.03 0,-0.03 0,-0.03 0,-0.03 0,-0.04 0,-0.03 -0.1,-0.04 0,-0.05 0,-0.04 0,-0.05 v -1.94 c 0,-30.44 5.4,-48.28 7,-53.31 3.4,-11.07 8.9,-22.72 17.2,-32.99 0.8,-0.89 1,-1.14 1.2,-1.23 0.1,-0.07 0.1,-0.11 0.9,-0.11 0.8,0 1.2,0 1.2,0.5 0,0.11 0,0.2 -0.3,0.65 -16.6,23.02 -21.6,50.72 -21.6,88.29 0,0.68 -0.3,0.68 -1.4,0.68 z"
           inkscape:connector-curvature="0"
           style="fill:#000000;stroke-width:0" /><path
           id="path5122"
           d="m 1300.6,325.42 0,0.75 -0.1,0.74 0,0.75 0,0.74 -0.1,0.75 0,0.74 -0.1,0.74 -0.1,0.73 -0.1,0.73 -0.1,0.73 -0.2,0.73 -0.2,0.71 -0.2,0.72 -0.3,0.7 -0.2,0.7 -0.2,0.35 -0.1,0.34 c -2.3,4.8 -6.4,5.6 -8.5,5.6 -3,0 -6.6,-1.3 -8.7,-5.94 -1.6,-3.44 -1.8,-7.33 -1.8,-11.31 0,-3.74 0.2,-8.22 2.2,-12 2.2,-4.03 5.8,-5.03 8.3,-5.03 v 1.09 c -2,0 -4.9,1.25 -5.8,6.03 -0.6,2.99 -0.6,7.56 -0.6,10.52 0,3.18 0,6.47 0.4,9.15 1,5.94 4.7,6.38 6,6.38 1.6,0 4.9,-0.89 5.8,-5.83 0.5,-2.78 0.5,-6.58 0.5,-9.7 0,-3.75 0,-7.13 -0.5,-10.32 -0.8,-4.73 -3.6,-6.23 -5.8,-6.23 h 0 v -1.09 c 2.6,0 6.4,1.04 8.6,5.78 1.6,3.44 1.9,7.31 1.9,11.25 z"
           inkscape:connector-curvature="0"
           style="fill:#000000;stroke-width:0" /><path
           id="path5124"
           d="m 1292.7,259.08 0,0.14 0,0.13 0,0.13 0,0.13 -0.1,0.13 0,0.12 0,0.12 -0.1,0.12 0,0.12 -0.1,0.11 -0.1,0.11 0,0.11 -0.1,0.1 -0.1,0.1 -0.1,0.1 -0.1,0.09 0,0.09 -0.1,0.08 -0.1,0.08 -0.1,0.08 -0.2,0.07 -0.1,0.06 -0.1,0.06 -0.1,0.05 -0.1,0.05 -0.1,0.04 -0.2,0.04 -0.1,0.03 -0.1,0.02 -0.1,0.02 -0.2,0.01 -0.1,0 c -1.5,0 -2.7,-1.2 -2.7,-2.64 0,-1.44 1.2,-2.64 2.7,-2.64 1.4,0 2.6,1.2 2.6,2.64 z"
           inkscape:connector-curvature="0"
           style="fill:#000000;stroke-width:0" /><path
           id="path5126"
           d="m 1292.7,239.16 0,0.13 0,0.14 0,0.13 0,0.13 -0.1,0.12 0,0.13 0,0.12 -0.1,0.12 0,0.12 -0.1,0.11 -0.1,0.11 0,0.11 -0.1,0.1 -0.1,0.1 -0.1,0.1 -0.1,0.09 0,0.09 -0.1,0.08 -0.1,0.08 -0.1,0.07 -0.2,0.07 -0.1,0.07 -0.1,0.06 -0.1,0.05 -0.1,0.05 -0.1,0.04 -0.2,0.04 -0.1,0.03 -0.1,0.02 -0.1,0.02 -0.2,0.01 -0.1,0 c -1.5,0 -2.7,-1.2 -2.7,-2.64 0,-1.44 1.2,-2.64 2.7,-2.64 1.4,0 2.6,1.2 2.6,2.64 z"
           inkscape:connector-curvature="0"
           style="fill:#000000;stroke-width:0" /><path
           id="path5128"
           d="m 1292.7,219.24 0,0.14 0,0.13 0,0.13 0,0.13 -0.1,0.13 0,0.12 0,0.12 -0.1,0.12 0,0.12 -0.1,0.11 -0.1,0.11 0,0.11 -0.1,0.1 -0.1,0.1 -0.1,0.1 -0.1,0.09 0,0.09 -0.1,0.08 -0.1,0.08 -0.1,0.08 -0.2,0.07 -0.1,0.06 -0.1,0.06 -0.1,0.05 -0.1,0.05 -0.1,0.04 -0.2,0.04 -0.1,0.03 -0.1,0.02 -0.1,0.02 -0.2,0.01 -0.1,0 c -1.5,0 -2.7,-1.2 -2.7,-2.64 0,-1.44 1.2,-2.64 2.7,-2.64 1.4,0 2.6,1.2 2.6,2.64 z"
           inkscape:connector-curvature="0"
           style="fill:#000000;stroke-width:0" /><path
           id="path5130"
           d="m 1300.6,172.78 0,0.74 -0.1,0.75 0,0.75 0,0.74 -0.1,0.75 0,0.74 -0.1,0.74 -0.1,0.73 -0.1,0.73 -0.1,0.73 -0.2,0.73 -0.2,0.71 -0.2,0.72 -0.3,0.7 -0.2,0.7 -0.2,0.35 -0.1,0.34 c -2.3,4.8 -6.4,5.6 -8.5,5.6 -3,0 -6.6,-1.3 -8.7,-5.94 -1.6,-3.44 -1.8,-7.33 -1.8,-11.31 0,-3.74 0.2,-8.22 2.2,-12 2.2,-4.03 5.8,-5.03 8.3,-5.03 v 1.09 c -2,0 -4.9,1.25 -5.8,6.03 -0.6,2.98 -0.6,7.56 -0.6,10.52 0,3.18 0,6.46 0.4,9.15 1,5.94 4.7,6.38 6,6.38 1.6,0 4.9,-0.89 5.8,-5.83 0.5,-2.78 0.5,-6.58 0.5,-9.7 0,-3.75 0,-7.13 -0.5,-10.32 -0.8,-4.73 -3.6,-6.23 -5.8,-6.23 h 0 v -1.09 c 2.6,0 6.4,1.04 8.6,5.78 1.6,3.43 1.9,7.31 1.9,11.25 z"
           inkscape:connector-curvature="0"
           style="fill:#000000;stroke-width:0" /><path
           id="path5132"
           d="m 1292.3,128.97 0,0.05 0,0.06 0,0.05 0,0.05 0,0.05 0,0.05 0,0.04 0,0.05 0,0.04 0,0.04 0,0.04 0,0.04 0,0.04 0,0.03 0,0.04 0,0.03 0,0.07 -0.1,0.06 0,0.05 0,0.05 0,0.05 0,0.04 0,0.04 -0.1,0.03 0,0.03 0,0.03 -0.1,0.03 0,0.02 0,0.02 -0.1,0.01 0,0 0,0.01 0,0.01 -0.1,0 0,0.01 0,0.01 -0.1,0 0,0 0,0.01 -0.1,0 0,0 0,0.01 -0.1,0 0,0 -0.1,0 0,0 -0.1,0 0,0.01 -0.1,0 0,0 -0.1,0 c -3,-3.19 -7.4,-3.19 -9,-3.19 v -1.55 c 1,0 3.9,0 6.5,1.3 v -25.81 c 0,-1.801 -0.2,-2.395 -4.6,-2.395 h -1.6 v -1.547 c 1.7,0.156 6,0.156 8,0.156 2,0 6.4,0 8.1,-0.156 v 1.547 h -1.6 c -4.5,0 -4.6,0.547 -4.6,2.395 z"
           inkscape:connector-curvature="0"
           style="fill:#000000;stroke-width:0" /><polyline
           id="polyline5134"
           points="1326,79 1328,79 1328,351.28 1326,351.28 "
           style="fill:#000000;fill-rule:nonzero;stroke-width:0" /><path
           id="path5136"
           d="m 1375.3,218.74 0,0.75 0,0.74 0,0.75 0,0.74 -0.1,0.75 -0.1,0.74 0,0.74 -0.1,0.73 -0.1,0.74 -0.2,0.72 -0.1,0.73 -0.2,0.71 -0.2,0.72 -0.3,0.7 -0.3,0.7 -0.1,0.35 -0.2,0.35 c -2.3,4.79 -6.4,5.59 -8.5,5.59 -2.9,0 -6.6,-1.3 -8.6,-5.94 -1.6,-3.44 -1.9,-7.33 -1.9,-11.31 0,-3.74 0.2,-8.22 2.3,-12 2.1,-4.03 5.8,-5.03 8.2,-5.03 v 1.09 c -1.9,0 -4.9,1.25 -5.8,6.03 -0.5,2.99 -0.5,7.57 -0.5,10.52 0,3.19 0,6.47 0.4,9.15 0.9,5.94 4.7,6.38 5.9,6.38 1.6,0 4.9,-0.89 5.9,-5.83 0.5,-2.78 0.5,-6.58 0.5,-9.7 0,-3.75 0,-7.13 -0.6,-10.31 -0.7,-4.74 -3.6,-6.24 -5.8,-6.24 h 0 v -1.09 c 2.7,0 6.5,1.04 8.7,5.78 1.6,3.44 1.8,7.31 1.8,11.25 z"
           inkscape:connector-curvature="0"
           style="fill:#000000;stroke-width:0" /><polyline
           id="polyline5138"
           points="1401,79 1403,79 1403,351.28 1401,351.28 "
           style="fill:#000000;fill-rule:nonzero;stroke-width:0" /><path
           id="path5140"
           d="m 1450.1,218.74 0,0.75 0,0.74 -0.1,0.75 0,0.74 0,0.75 -0.1,0.74 -0.1,0.74 -0.1,0.73 -0.1,0.74 -0.1,0.72 -0.2,0.73 -0.2,0.71 -0.2,0.72 -0.2,0.7 -0.3,0.7 -0.2,0.35 -0.1,0.35 c -2.3,4.79 -6.4,5.59 -8.5,5.59 -3,0 -6.6,-1.3 -8.7,-5.94 -1.6,-3.44 -1.8,-7.33 -1.8,-11.31 0,-3.74 0.2,-8.22 2.2,-12 2.2,-4.03 5.8,-5.03 8.3,-5.03 v 1.09 c -2,0 -4.9,1.25 -5.8,6.03 -0.6,2.99 -0.6,7.57 -0.6,10.52 0,3.19 0,6.47 0.4,9.15 1,5.94 4.7,6.38 6,6.38 1.6,0 4.9,-0.89 5.8,-5.83 0.5,-2.78 0.5,-6.58 0.5,-9.7 0,-3.75 0,-7.13 -0.5,-10.31 -0.8,-4.74 -3.6,-6.24 -5.8,-6.24 h 0 v -1.09 c 2.6,0 6.4,1.04 8.6,5.78 1.6,3.44 1.9,7.31 1.9,11.25 z"
           inkscape:connector-curvature="0"
           style="fill:#000000;stroke-width:0" /><polyline
           id="polyline5142"
           points="1253,77 1477.2,77 1477.2,79.039 1253,79.039 "
           style="fill:#000000;fill-rule:nonzero;stroke-width:0" /><path
           id="path5144"
           d="m 1300.6,-55.461 0,0.747 -0.1,0.747 0,0.747 0,0.745 -0.1,0.743 0,0.742 -0.1,0.739 -0.1,0.735 -0.1,0.732 -0.1,0.728 -0.2,0.723 -0.2,0.718 -0.2,0.713 -0.3,0.706 -0.2,0.699 -0.2,0.347 -0.1,0.345 c -2.3,4.797 -6.4,5.594 -8.5,5.594 -3,0 -6.6,-1.297 -8.7,-5.937 -1.6,-3.438 -1.8,-7.329 -1.8,-11.313 0,-3.734 0.2,-8.219 2.2,-12 2.2,-4.031 5.8,-5.031 8.3,-5.031 v 1.094 c -2,0 -4.9,1.25 -5.8,6.031 -0.6,2.984 -0.6,7.562 -0.6,10.515 0,3.188 0,6.469 0.4,9.157 1,5.937 4.7,6.375 6,6.375 1.6,0 4.9,-0.891 5.8,-5.828 0.5,-2.782 0.5,-6.579 0.5,-9.704 0,-3.75 0,-7.125 -0.5,-10.312 -0.8,-4.734 -3.6,-6.234 -5.8,-6.234 h 0 v -1.094 c 2.6,0 6.4,1.047 8.6,5.781 1.6,3.438 1.9,7.313 1.9,11.25 z"
           inkscape:connector-curvature="0"
           style="fill:#000000;stroke-width:0" /><polyline
           id="polyline5146"
           points="1326,-195 1328,-195 1328,77.281 1326,77.281 "
           style="fill:#000000;fill-rule:nonzero;stroke-width:0" /><path
           id="path5148"
           d="m 1375.3,51.219 0,0.747 0,0.747 0,0.746 0,0.746 -0.1,0.743 -0.1,0.742 0,0.738 -0.1,0.736 -0.1,0.732 -0.2,0.728 -0.1,0.723 -0.2,0.718 -0.2,0.712 -0.3,0.706 -0.3,0.7 -0.1,0.347 -0.2,0.345 c -2.3,4.797 -6.4,5.594 -8.5,5.594 -2.9,0 -6.6,-1.297 -8.6,-5.938 -1.6,-3.437 -1.9,-7.328 -1.9,-11.312 0,-3.735 0.2,-8.219 2.3,-12 2.1,-4.031 5.8,-5.031 8.2,-5.031 v 1.093 c -1.9,0 -4.9,1.25 -5.8,6.031 -0.5,2.985 -0.5,7.563 -0.5,10.516 0,3.188 0,6.469 0.4,9.156 0.9,5.938 4.7,6.375 5.9,6.375 1.6,0 4.9,-0.89 5.9,-5.828 0.5,-2.781 0.5,-6.578 0.5,-9.703 0,-3.75 0,-7.125 -0.6,-10.312 -0.7,-4.735 -3.6,-6.235 -5.8,-6.235 h 0 v -1.093 c 2.7,0 6.5,1.046 8.7,5.781 1.6,3.437 1.8,7.312 1.8,11.25 z"
           inkscape:connector-curvature="0"
           style="fill:#000000;stroke-width:0" /><path
           id="path5150"
           d="m 1367.5,-15.121 0,0.134 0,0.132 -0.1,0.131 0,0.129 0,0.127 0,0.124 -0.1,0.122 0,0.12 -0.1,0.117 0,0.113 -0.1,0.111 -0.1,0.107 0,0.104 -0.1,0.1 -0.1,0.096 -0.1,0.092 -0.1,0.088 -0.1,0.084 -0.1,0.079 -0.1,0.074 -0.1,0.069 -0.1,0.065 -0.1,0.059 -0.1,0.053 -0.2,0.048 -0.1,0.042 -0.1,0.036 -0.1,0.03 -0.2,0.024 -0.1,0.017 -0.1,0.01 -0.2,0.003 c -1.4,0 -2.6,-1.203 -2.6,-2.64 0,-1.438 1.2,-2.641 2.6,-2.641 1.5,0 2.7,1.203 2.7,2.641 z"
           inkscape:connector-curvature="0"
           style="fill:#000000;stroke-width:0" /><path
           id="path5152"
           d="m 1367.5,-35.039 0,0.134 0,0.132 -0.1,0.131 0,0.129 0,0.127 0,0.124 -0.1,0.122 0,0.12 -0.1,0.117 0,0.113 -0.1,0.111 -0.1,0.107 0,0.104 -0.1,0.1 -0.1,0.096 -0.1,0.092 -0.1,0.088 -0.1,0.084 -0.1,0.079 -0.1,0.074 -0.1,0.069 -0.1,0.065 -0.1,0.059 -0.1,0.053 -0.2,0.048 -0.1,0.042 -0.1,0.036 -0.1,0.03 -0.2,0.024 -0.1,0.017 -0.1,0.01 -0.2,0.004 c -1.4,0 -2.6,-1.204 -2.6,-2.641 0,-1.438 1.2,-2.641 2.6,-2.641 1.5,0 2.7,1.203 2.7,2.641 z"
           inkscape:connector-curvature="0"
           style="fill:#000000;stroke-width:0" /><path
           id="path5154"
           d="m 1367.5,-54.961 0,0.134 0,0.133 -0.1,0.13 0,0.129 0,0.127 0,0.125 -0.1,0.122 0,0.119 -0.1,0.117 0,0.114 -0.1,0.11 -0.1,0.107 0,0.104 -0.1,0.1 -0.1,0.096 -0.1,0.092 -0.1,0.088 -0.1,0.084 -0.1,0.079 -0.1,0.074 -0.1,0.07 -0.1,0.064 -0.1,0.059 -0.1,0.053 -0.2,0.048 -0.1,0.042 -0.1,0.036 -0.1,0.03 -0.2,0.024 -0.1,0.017 -0.1,0.01 -0.2,0.004 c -1.4,0 -2.6,-1.203 -2.6,-2.641 0,-1.437 1.2,-2.641 2.6,-2.641 1.5,0 2.7,1.204 2.7,2.641 z"
           inkscape:connector-curvature="0"
           style="fill:#000000;stroke-width:0" /><path
           id="path5156"
           d="m 1375.3,-101.42 0,0.75 0,0.742 0,0.747 0,0.745 -0.1,0.744 -0.1,0.741 0,0.739 -0.1,0.735 -0.1,0.732 -0.2,0.728 -0.1,0.723 -0.2,0.718 -0.2,0.713 -0.3,0.706 -0.3,0.699 -0.1,0.347 -0.2,0.345 c -2.3,4.797 -6.4,5.594 -8.5,5.594 -2.9,0 -6.6,-1.297 -8.6,-5.937 -1.6,-3.438 -1.9,-7.329 -1.9,-11.311 0,-3.74 0.2,-8.22 2.3,-12 2.1,-4.03 5.8,-5.03 8.2,-5.03 v 1.09 c -1.9,0 -4.9,1.25 -5.8,6.03 -0.5,2.99 -0.5,7.56 -0.5,10.52 0,3.185 0,6.466 0.4,9.154 0.9,5.937 4.7,6.375 5.9,6.375 1.6,0 4.9,-0.891 5.9,-5.828 0.5,-2.782 0.5,-6.579 0.5,-9.701 0,-3.75 0,-7.13 -0.6,-10.31 -0.7,-4.74 -3.6,-6.24 -5.8,-6.24 h 0 v -1.09 c 2.7,0 6.5,1.04 8.7,5.78 1.6,3.44 1.8,7.31 1.8,11.25 z"
           inkscape:connector-curvature="0"
           style="fill:#000000;stroke-width:0" /><path
           id="path5158"
           d="m 1367,-145.35 0,0.06 0,0.05 0,0.05 0,0.05 0,0.05 0,0.05 0,0.04 0,0.05 0,0.04 0,0.04 0,0.04 0,0.04 0,0.04 0,0.04 0,0.03 0,0.04 0,0.06 0,0.06 0,0.05 0,0.05 0,0.05 -0.1,0.04 0,0.04 0,0.04 0,0.03 -0.1,0.03 0,0.02 0,0.02 -0.1,0.02 0,0.01 0,0.01 -0.1,0 0,0.01 0,0.01 0,0 -0.1,0.01 0,0 0,0.01 -0.1,0 0,0 0,0.01 -0.1,0 0,0 -0.1,0 0,0.01 -0.1,0 0,0 0,0 -0.1,0 0,0 -0.1,0 c -3.1,-3.19 -7.5,-3.19 -9.1,-3.19 v -1.55 c 1,0 4,0 6.5,1.3 v -25.81 c 0,-1.8 -0.1,-2.39 -4.6,-2.39 h -1.6 v -1.55 c 1.8,0.16 6.1,0.16 8.1,0.16 2,0 6.3,0 8.1,-0.16 v 1.55 h -1.6 c -4.5,0 -4.7,0.54 -4.7,2.39 z"
           inkscape:connector-curvature="0"
           style="fill:#000000;stroke-width:0" /><polyline
           id="polyline5160"
           points="1401,-195 1403,-195 1403,77.281 1401,77.281 "
           style="fill:#000000;fill-rule:nonzero;stroke-width:0" /><path
           id="path5162"
           d="m 1450.1,-55.461 0,0.747 0,0.747 -0.1,0.747 0,0.745 0,0.743 -0.1,0.742 -0.1,0.739 -0.1,0.735 -0.1,0.732 -0.1,0.728 -0.2,0.723 -0.2,0.718 -0.2,0.713 -0.2,0.706 -0.3,0.699 -0.2,0.347 -0.1,0.345 c -2.3,4.797 -6.4,5.594 -8.5,5.594 -3,0 -6.6,-1.297 -8.7,-5.937 -1.6,-3.438 -1.8,-7.329 -1.8,-11.313 0,-3.734 0.2,-8.219 2.2,-12 2.2,-4.031 5.8,-5.031 8.3,-5.031 v 1.094 c -2,0 -4.9,1.25 -5.8,6.031 -0.6,2.984 -0.6,7.562 -0.6,10.515 0,3.188 0,6.469 0.4,9.157 1,5.937 4.7,6.375 6,6.375 1.6,0 4.9,-0.891 5.8,-5.828 0.5,-2.782 0.5,-6.579 0.5,-9.704 0,-3.75 0,-7.125 -0.5,-10.312 -0.8,-4.734 -3.6,-6.234 -5.8,-6.234 h 0 v -1.094 c 2.6,0 6.4,1.047 8.6,5.781 1.6,3.438 1.9,7.313 1.9,11.25 z"
           inkscape:connector-curvature="0"
           style="fill:#000000;stroke-width:0" /><polyline
           id="polyline5164"
           points="1253,-197 1477.2,-197 1477.2,-194.96 1253,-194.96 "
           style="fill:#000000;fill-rule:nonzero;stroke-width:0" /><path
           id="path5166"
           d="m 1300.6,-329.78 0,0.75 -0.1,0.74 0,0.75 0,0.74 -0.1,0.75 0,0.74 -0.1,0.74 -0.1,0.73 -0.1,0.74 -0.1,0.72 -0.2,0.73 -0.2,0.71 -0.2,0.72 -0.3,0.7 -0.2,0.7 -0.2,0.35 -0.1,0.35 c -2.3,4.79 -6.4,5.59 -8.5,5.59 -3,0 -6.6,-1.3 -8.7,-5.94 -1.6,-3.44 -1.8,-7.33 -1.8,-11.31 0,-3.74 0.2,-8.22 2.2,-12 2.2,-4.03 5.8,-5.03 8.3,-5.03 v 1.09 c -2,0 -4.9,1.25 -5.8,6.03 -0.6,2.99 -0.6,7.57 -0.6,10.52 0,3.19 0,6.47 0.4,9.15 1,5.94 4.7,6.38 6,6.38 1.6,0 4.9,-0.89 5.8,-5.83 0.5,-2.78 0.5,-6.58 0.5,-9.7 0,-3.75 0,-7.13 -0.5,-10.31 -0.8,-4.74 -3.6,-6.24 -5.8,-6.24 h 0 v -1.09 c 2.6,0 6.4,1.04 8.6,5.78 1.6,3.44 1.9,7.31 1.9,11.25 z"
           inkscape:connector-curvature="0"
           style="fill:#000000;stroke-width:0" /><polyline
           id="polyline5168"
           points="1326,-469 1328,-469 1328,-196.72 1326,-196.72 "
           style="fill:#000000;fill-rule:nonzero;stroke-width:0" /><path
           id="path5170"
           d="m 1375.3,-329.78 0,0.75 0,0.74 0,0.75 0,0.74 -0.1,0.75 -0.1,0.74 0,0.74 -0.1,0.73 -0.1,0.74 -0.2,0.72 -0.1,0.73 -0.2,0.71 -0.2,0.72 -0.3,0.7 -0.3,0.7 -0.1,0.35 -0.2,0.35 c -2.3,4.79 -6.4,5.59 -8.5,5.59 -2.9,0 -6.6,-1.3 -8.6,-5.94 -1.6,-3.44 -1.9,-7.33 -1.9,-11.31 0,-3.74 0.2,-8.22 2.3,-12 2.1,-4.03 5.8,-5.03 8.2,-5.03 v 1.09 c -1.9,0 -4.9,1.25 -5.8,6.03 -0.5,2.99 -0.5,7.57 -0.5,10.52 0,3.19 0,6.47 0.4,9.15 0.9,5.94 4.7,6.38 5.9,6.38 1.6,0 4.9,-0.89 5.9,-5.83 0.5,-2.78 0.5,-6.58 0.5,-9.7 0,-3.75 0,-7.13 -0.6,-10.31 -0.7,-4.74 -3.6,-6.24 -5.8,-6.24 h 0 v -1.09 c 2.7,0 6.5,1.04 8.7,5.78 1.6,3.44 1.8,7.31 1.8,11.25 z"
           inkscape:connector-curvature="0"
           style="fill:#000000;stroke-width:0" /><polyline
           id="polyline5172"
           points="1401,-469 1403,-469 1403,-196.72 1401,-196.72 "
           style="fill:#000000;fill-rule:nonzero;stroke-width:0" /><path
           id="path5174"
           d="m 1450.1,-222.98 0,0.74 0,0.75 -0.1,0.75 0,0.74 0,0.75 -0.1,0.74 -0.1,0.74 -0.1,0.73 -0.1,0.73 -0.1,0.73 -0.2,0.72 -0.2,0.72 -0.2,0.71 -0.2,0.71 -0.3,0.7 -0.2,0.35 -0.1,0.34 c -2.3,4.8 -6.4,5.6 -8.5,5.6 -3,0 -6.6,-1.3 -8.7,-5.94 -1.6,-3.44 -1.8,-7.33 -1.8,-11.31 0,-3.74 0.2,-8.22 2.2,-12 2.2,-4.04 5.8,-5.04 8.3,-5.04 v 1.1 c -2,0 -4.9,1.25 -5.8,6.03 -0.6,2.98 -0.6,7.56 -0.6,10.51 0,3.19 0,6.47 0.4,9.16 1,5.94 4.7,6.38 6,6.38 1.6,0 4.9,-0.89 5.8,-5.83 0.5,-2.78 0.5,-6.58 0.5,-9.71 0,-3.74 0,-7.12 -0.5,-10.31 -0.8,-4.73 -3.6,-6.23 -5.8,-6.23 h 0 v -1.1 c 2.6,0 6.4,1.05 8.6,5.79 1.6,3.43 1.9,7.31 1.9,11.25 z"
           inkscape:connector-curvature="0"
           style="fill:#000000;stroke-width:0" /><path
           id="path5176"
           d="m 1442.2,-289.44 0,0.14 0,0.13 0,0.13 0,0.13 0,0.13 -0.1,0.12 0,0.12 -0.1,0.12 0,0.12 -0.1,0.11 0,0.11 -0.1,0.11 -0.1,0.1 -0.1,0.1 0,0.1 -0.1,0.09 -0.1,0.09 -0.1,0.08 -0.1,0.08 -0.1,0.08 -0.1,0.07 -0.1,0.06 -0.2,0.06 -0.1,0.05 -0.1,0.05 -0.1,0.04 -0.1,0.04 -0.2,0.03 -0.1,0.02 -0.1,0.02 -0.2,0.01 -0.1,0 c -1.4,0 -2.6,-1.2 -2.6,-2.64 0,-1.44 1.2,-2.64 2.6,-2.64 1.5,0 2.6,1.2 2.6,2.64 z"
           inkscape:connector-curvature="0"
           style="fill:#000000;stroke-width:0" /><path
           id="path5178"
           d="m 1442.2,-309.36 0,0.13 0,0.14 0,0.13 0,0.13 0,0.12 -0.1,0.13 0,0.12 -0.1,0.12 0,0.12 -0.1,0.11 0,0.11 -0.1,0.11 -0.1,0.1 -0.1,0.1 0,0.1 -0.1,0.09 -0.1,0.09 -0.1,0.08 -0.1,0.08 -0.1,0.07 -0.1,0.07 -0.1,0.07 -0.2,0.06 -0.1,0.05 -0.1,0.05 -0.1,0.04 -0.1,0.04 -0.2,0.03 -0.1,0.02 -0.1,0.02 -0.2,0.01 -0.1,0 c -1.4,0 -2.6,-1.2 -2.6,-2.64 0,-1.44 1.2,-2.64 2.6,-2.64 1.5,0 2.6,1.2 2.6,2.64 z"
           inkscape:connector-curvature="0"
           style="fill:#000000;stroke-width:0" /><path
           id="path5180"
           d="m 1442.2,-329.28 0,0.13 0,0.14 0,0.13 0,0.13 0,0.12 -0.1,0.13 0,0.12 -0.1,0.12 0,0.11 -0.1,0.12 0,0.11 -0.1,0.11 -0.1,0.1 -0.1,0.1 0,0.1 -0.1,0.09 -0.1,0.09 -0.1,0.08 -0.1,0.08 -0.1,0.07 -0.1,0.07 -0.1,0.07 -0.2,0.06 -0.1,0.05 -0.1,0.05 -0.1,0.04 -0.1,0.03 -0.2,0.03 -0.1,0.03 -0.1,0.02 -0.2,0.01 -0.1,0 c -1.4,0 -2.6,-1.2 -2.6,-2.64 0,-1.44 1.2,-2.64 2.6,-2.64 1.5,0 2.6,1.2 2.6,2.64 z"
           inkscape:connector-curvature="0"
           style="fill:#000000;stroke-width:0" /><path
           id="path5182"
           d="m 1450.1,-375.74 0,0.75 0,0.74 -0.1,0.75 0,0.74 0,0.75 -0.1,0.74 -0.1,0.74 -0.1,0.73 -0.1,0.73 -0.1,0.73 -0.2,0.73 -0.2,0.71 -0.2,0.72 -0.2,0.7 -0.3,0.7 -0.2,0.35 -0.1,0.34 c -2.3,4.8 -6.4,5.6 -8.5,5.6 -3,0 -6.6,-1.3 -8.7,-5.94 -1.6,-3.44 -1.8,-7.33 -1.8,-11.31 0,-3.74 0.2,-8.22 2.2,-12 2.2,-4.03 5.8,-5.03 8.3,-5.03 v 1.09 c -2,0 -4.9,1.25 -5.8,6.03 -0.6,2.99 -0.6,7.56 -0.6,10.52 0,3.18 0,6.47 0.4,9.15 1,5.94 4.7,6.38 6,6.38 1.6,0 4.9,-0.89 5.8,-5.83 0.5,-2.78 0.5,-6.58 0.5,-9.7 0,-3.75 0,-7.13 -0.5,-10.32 -0.8,-4.73 -3.6,-6.23 -5.8,-6.23 h 0 v -1.09 c 2.6,0 6.4,1.04 8.6,5.78 1.6,3.44 1.9,7.31 1.9,11.25 z"
           inkscape:connector-curvature="0"
           style="fill:#000000;stroke-width:0" /><path
           id="path5184"
           d="m 1441.8,-419.55 0,0.05 0,0.06 0,0.05 0,0.05 0,0.05 0,0.05 0,0.04 0,0.05 0,0.04 0,0.04 0,0.04 0,0.04 0,0.04 0,0.03 0,0.04 0,0.03 0,0.07 0,0.06 0,0.05 -0.1,0.05 0,0.05 0,0.04 0,0.04 0,0.03 -0.1,0.03 0,0.03 0,0.03 -0.1,0.02 0,0.02 0,0.01 -0.1,0 0,0.01 0,0.01 -0.1,0 0,0.01 0,0.01 0,0 -0.1,0 0,0.01 0,0 -0.1,0 0,0.01 -0.1,0 0,0 0,0 -0.1,0 0,0 -0.1,0.01 0,0 -0.1,0 0,0 c -3.1,-3.19 -7.5,-3.19 -9.1,-3.19 v -1.55 c 1,0 3.9,0 6.5,1.3 v -25.81 c 0,-1.8 -0.1,-2.39 -4.6,-2.39 h -1.6 v -1.55 c 1.7,0.15 6.1,0.15 8.1,0.15 2,0 6.3,0 8,-0.15 v 1.55 h -1.6 c -4.4,0 -4.6,0.54 -4.6,2.39 z"
           inkscape:connector-curvature="0"
           style="fill:#000000;stroke-width:0" /><path
           id="path5186"
           d="m 1506,256.79 0,2.82 -0.1,2.74 0,2.67 -0.1,2.6 -0.2,2.52 -0.1,2.44 -0.2,2.38 -0.2,2.29 -0.2,2.23 -0.2,2.15 -0.2,2.07 -0.3,2.01 -0.3,1.92 -0.2,1.86 -0.3,1.77 -0.3,1.71 -0.3,1.63 -0.3,1.55 -0.3,1.48 -0.3,1.41 -0.3,1.33 -0.3,1.26 -0.2,1.18 -0.3,1.11 -0.3,1.03 -0.2,0.96 -0.3,0.89 -0.2,0.8 -0.2,0.74 -0.2,0.66 -0.2,0.58 -0.2,0.51 c -3.3,11.06 -8.9,22.72 -17.2,32.98 -0.8,0.91 -1,1.16 -1.1,1.25 -0.1,0.05 -0.2,0.1 -1,0.1 -0.7,0 -1.1,0 -1.1,-0.5 0,-0.1 0,-0.19 0.6,-1.1 17.3,-24.2 21.2,-54.09 21.3,-87.82 0,-0.71 0.3,-0.71 1.4,-0.71 h 2.7 c 1.1,0 1.4,0 1.4,0.55 z"
           inkscape:connector-curvature="0"
           style="fill:#000000;stroke-width:0" /><path
           id="path5188"
           d="m 1506,254.04 0,0.05 0,0.06 0,0.06 0,0.05 0,0.06 0,0.05 0,0.05 0,0.05 0,0.04 0,0.05 0,0.04 0,0.04 0,0.04 0,0.04 0,0.04 0,0.03 0,0.04 0,0.03 0,0.03 0,0.03 -0.1,0.06 0,0.05 0,0.05 0,0.04 -0.1,0.04 0,0.03 0,0.03 -0.1,0.03 0,0.03 -0.1,0.02 0,0.01 0,0.01 -0.1,0.01 0,0.01 0,0 -0.1,0.01 0,0 0,0.01 -0.1,0 0,0 -0.1,0.01 0,0 0,0 -0.1,0 0,0 -0.1,0.01 0,0 -0.1,0 0,0 -0.1,0 -0.1,0 0,0 -0.1,0 h -2.7 c -1.4,0 -1.4,-0.05 -1.4,-1.34 v -28.21 c 0,-1.29 0,-1.34 1.4,-1.34 h 2.7 c 1.4,0 1.4,0.05 1.4,1.34 z"
           inkscape:connector-curvature="0"
           style="fill:#000000;stroke-width:0" /><path
           id="path5190"
           d="m 1506,224.16 0,0.06 0,0.05 0,0.06 0,0.05 0,0.06 0,0.05 0,0.05 0,0.05 0,0.04 0,0.05 0,0.04 0,0.04 0,0.04 0,0.04 0,0.04 0,0.03 0,0.04 0,0.03 0,0.03 0,0.03 -0.1,0.06 0,0.05 0,0.05 0,0.04 -0.1,0.04 0,0.03 0,0.04 -0.1,0.02 0,0.03 -0.1,0.02 0,0.01 0,0.01 -0.1,0.01 0,0.01 0,0 -0.1,0.01 0,0 0,0.01 -0.1,0 0,0 -0.1,0.01 0,0 0,0 -0.1,0 0,0.01 -0.1,0 0,0 -0.1,0 0,0 -0.1,0 -0.1,0 0,0 -0.1,0 h -2.7 c -1.4,0 -1.4,-0.05 -1.4,-1.34 v -28.21 c 0,-1.29 0,-1.34 1.4,-1.34 h 2.7 c 1.4,0 1.4,0.05 1.4,1.34 z"
           inkscape:connector-curvature="0"
           style="fill:#000000;stroke-width:0" /><path
           id="path5192"
           d="m 1506,194.16 0,0.06 0,0.05 0,0.06 0,0.05 0,0.06 0,0.05 0,0.05 0,0.05 0,0.04 0,0.05 0,0.04 0,0.04 0,0.04 0,0.04 0,0.04 0,0.03 0,0.04 0,0.03 0,0.03 0,0.03 -0.1,0.06 0,0.05 0,0.05 0,0.04 -0.1,0.04 0,0.03 0,0.04 -0.1,0.02 0,0.03 -0.1,0.02 0,0.01 0,0.01 -0.1,0.01 0,0.01 0,0 -0.1,0.01 0,0 0,0.01 -0.1,0 0,0 -0.1,0.01 0,0 0,0 -0.1,0 0,0.01 -0.1,0 0,0 -0.1,0 0,0 -0.1,0 -0.1,0 0,0 -0.1,0 h -2.7 c -1.4,0 -1.4,-0.05 -1.4,-1.34 v -28.21 c 0,-1.29 0,-1.34 1.4,-1.34 h 2.7 c 1.4,0 1.4,0.05 1.4,1.34 z"
           inkscape:connector-curvature="0"
           style="fill:#000000;stroke-width:0" /><path
           id="path5194"
           d="m 1506,164.28 0,0.06 0,0.05 0,0.06 0,0.06 0,0.05 0,0.05 0,0.05 0,0.05 0,0.04 0,0.05 0,0.04 0,0.04 0,0.04 0,0.04 0,0.04 0,0.03 0,0.04 0,0.03 0,0.03 0,0.03 -0.1,0.06 0,0.05 0,0.05 0,0.04 -0.1,0.04 0,0.04 0,0.03 -0.1,0.02 0,0.03 -0.1,0.02 0,0.02 0,0 -0.1,0.01 0,0.01 0,0 -0.1,0.01 0,0 0,0.01 -0.1,0 0,0.01 -0.1,0 0,0 0,0 -0.1,0 0,0.01 -0.1,0 0,0 -0.1,0 0,0 -0.1,0 -0.1,0 0,0 -0.1,0 h -2.7 c -1.4,0 -1.4,-0.05 -1.4,-1.34 v -28.21 c 0,-1.29 0,-1.34 1.4,-1.34 h 2.7 c 1.4,0 1.4,0.05 1.4,1.34 z"
           inkscape:connector-curvature="0"
           style="fill:#000000;stroke-width:0" /><path
           id="path5196"
           d="m 1506,134.4 0,0.05 0,0.06 0,0.06 0,0.05 0,0.06 0,0.05 0,0.05 0,0.04 0,0.05 0,0.05 0,0.04 0,0.04 0,0.04 0,0.04 0,0.04 0,0.03 0,0.04 0,0.03 0,0.03 0,0.03 -0.1,0.06 0,0.05 0,0.05 0,0.04 -0.1,0.04 0,0.03 0,0.03 -0.1,0.03 0,0.02 -0.1,0.02 0,0.02 0,0.01 -0.1,0.01 0,0 0,0.01 -0.1,0.01 0,0 0,0 -0.1,0.01 0,0 -0.1,0.01 0,0 0,0 -0.1,0 0,0 -0.1,0 0,0.01 -0.1,0 0,0 -0.1,0 -0.1,0 0,0 -0.1,0 h -2.7 c -1.4,0 -1.4,-0.05 -1.4,-1.34 v -28.21 c 0,-1.3 0,-1.34 1.4,-1.34 h 2.7 c 1.4,0 1.4,0.04 1.4,1.34 z"
           inkscape:connector-curvature="0"
           style="fill:#000000;stroke-width:0" /><path
           id="path5198"
           d="m 1506,104.52 0,0.06 0,0.05 0,0.06 0,0.05 0,0.06 0,0.05 0,0.05 0,0.05 0,0.04 0,0.05 0,0.04 0,0.04 0,0.04 0,0.04 0,0.04 0,0.03 0,0.04 0,0.03 0,0.03 0,0.03 -0.1,0.06 0,0.05 0,0.05 0,0.04 -0.1,0.04 0,0.03 0,0.03 -0.1,0.03 0,0.03 -0.1,0.02 0,0.01 0,0.01 -0.1,0.01 0,0.01 0,0 -0.1,0.01 0,0 0,0.01 -0.1,0 0,0 -0.1,0.01 0,0 0,0 -0.1,0 0,0 -0.1,0.01 0,0 -0.1,0 0,0 -0.1,0 -0.1,0 0,0 -0.1,0 h -2.7 c -1.4,0 -1.4,-0.05 -1.4,-1.34 V 76.312 c 0,-1.296 0,-1.343 1.4,-1.343 h 2.7 c 1.4,0 1.4,0.047 1.4,1.343 z"
           inkscape:connector-curvature="0"
           style="fill:#000000;stroke-width:0" /><path
           id="path5200"
           d="m 1506,74.637 0,0.06 0,0.058 0,0.056 0,0.055 0,0.052 0,0.051 0,0.05 0,0.048 0,0.046 0,0.045 0,0.043 0,0.041 0,0.04 0,0.039 0,0.037 0,0.036 0,0.034 0,0.033 0,0.032 0,0.03 -0.1,0.057 0,0.052 0,0.047 0,0.043 -0.1,0.038 0,0.035 0,0.031 -0.1,0.027 0,0.024 -0.1,0.02 0,0.018 0,0.008 -0.1,0.007 0,0.007 0,0.006 -0.1,0.005 0,0.005 0,0.004 -0.1,0.004 0,0.004 -0.1,0.003 0,0.002 0,0.002 -0.1,0.002 0,0.002 -0.1,0.001 0,10e-4 -0.1,0.001 0,0.001 -0.1,0 -0.1,0 0,0 -0.1,0 h -2.7 c -1.4,0 -1.4,-0.046 -1.4,-1.343 V 46.434 c 0,-1.297 0,-1.344 1.4,-1.344 h 2.7 c 1.4,0 1.4,0.047 1.4,1.344 z"
           inkscape:connector-curvature="0"
           style="fill:#000000;stroke-width:0" /><path
           id="path5202"
           d="m 1506,44.758 0,0.06 0,0.058 0,0.056 0,0.055 0,0.052 0,0.052 0,0.049 0,0.048 0,0.046 0,0.045 0,0.043 0,0.041 0,0.04 0,0.039 0,0.037 0,0.036 0,0.034 0,0.033 0,0.032 0,0.03 -0.1,0.057 0,0.052 0,0.047 0,0.043 -0.1,0.039 0,0.034 0,0.031 -0.1,0.027 0,0.024 -0.1,0.02 0,0.018 0,0.008 -0.1,0.007 0,0.007 0,0.006 -0.1,0.005 0,0.005 0,0.004 -0.1,0.004 0,0.004 -0.1,0.003 0,0.002 0,0.003 -0.1,10e-4 0,0.002 -0.1,10e-4 0,10e-4 -0.1,0.001 0,10e-4 -0.1,0 -0.1,0 0,10e-4 -0.1,0 h -2.7 c -1.4,0 -1.4,-0.047 -1.4,-1.344 V 16.555 c 0,-1.297 0,-1.344 1.4,-1.344 h 2.7 c 1.4,0 1.4,0.047 1.4,1.344 z"
           inkscape:connector-curvature="0"
           style="fill:#000000;stroke-width:0" /><path
           id="path5204"
           d="m 1506,14.875 0,0.06 0,0.058 0,0.056 0,0.055 0,0.053 0,0.051 0,0.049 0,0.048 0,0.046 0,0.045 0,0.043 0,0.042 0,0.04 0,0.038 0,0.037 0,0.036 0,0.034 0,0.033 0,0.032 0,0.03 -0.1,0.057 0,0.052 0,0.047 0,0.043 -0.1,0.039 0,0.034 0,0.031 -0.1,0.027 0,0.024 -0.1,0.021 0,0.017 0,0.008 -0.1,0.007 0,0.007 0,0.006 -0.1,0.005 0,0.005 0,0.005 -0.1,0.003 0,0.004 -0.1,0.003 0,0.003 0,0.002 -0.1,0.002 0,10e-4 -0.1,0.002 0,10e-4 -0.1,0 0,0.001 -0.1,0 -0.1,0.001 0,0 -0.1,0 h -2.7 c -1.4,0 -1.4,-0.047 -1.4,-1.344 v -28.203 c 0,-1.297 0,-1.344 1.4,-1.344 h 2.7 c 1.4,0 1.4,0.047 1.4,1.344 z"
           inkscape:connector-curvature="0"
           style="fill:#000000;stroke-width:0" /><path
           id="path5206"
           d="m 1506,-15.004 0,0.06 0,0.058 0,0.056 0,0.055 0,0.053 0,0.051 0,0.049 0,0.048 0,0.046 0,0.045 0,0.043 0,0.042 0,0.04 0,0.038 0,0.037 0,0.036 0,0.035 0,0.032 0,0.032 0,0.03 -0.1,0.057 0,0.052 0,0.047 0,0.043 -0.1,0.039 0,0.034 0,0.031 -0.1,0.027 0,0.024 -0.1,0.021 0,0.017 0,0.008 -0.1,0.007 0,0.007 0,0.006 -0.1,0.005 0,0.005 0,0.005 -0.1,0.003 0,0.004 -0.1,0.003 0,0.003 0,0.002 -0.1,0.002 0,0.001 -0.1,0.002 0,10e-4 -0.1,0 0,0.001 -0.1,0 -0.1,10e-4 0,0 -0.1,0 h -2.7 c -1.4,0 -1.4,-0.047 -1.4,-1.344 v -28.203 c 0,-1.297 0,-1.344 1.4,-1.344 h 2.7 c 1.4,0 1.4,0.047 1.4,1.344 z"
           inkscape:connector-curvature="0"
           style="fill:#000000;stroke-width:0" /><path
           id="path5208"
           d="m 1506,-44.883 0,0.06 0,0.058 0,0.056 0,0.055 0,0.053 0,0.051 0,0.049 0,0.048 0,0.047 0,0.044 0,0.043 0,0.042 0,0.04 0,0.038 0,0.038 0,0.035 0,0.035 0,0.033 0,0.031 0,0.031 -0.1,0.056 0,0.052 0,0.048 0,0.042 -0.1,0.039 0,0.034 0,0.031 -0.1,0.027 0,0.024 -0.1,0.021 0,0.017 0,0.008 -0.1,0.007 0,0.007 0,0.006 -0.1,0.005 0,0.005 0,0.005 -0.1,0.004 0,0.003 -0.1,0.003 0,0.003 0,0.002 -0.1,0.002 0,0.001 -0.1,0.002 0,0.001 -0.1,0 0,10e-4 -0.1,0 -0.1,10e-4 0,0 -0.1,0 h -2.7 c -1.4,0 -1.4,-0.047 -1.4,-1.344 v -28.203 c 0,-1.297 0,-1.344 1.4,-1.344 h 2.7 c 1.4,0 1.4,0.047 1.4,1.344 z"
           inkscape:connector-curvature="0"
           style="fill:#000000;stroke-width:0" /><path
           id="path5210"
           d="m 1506,-74.766 0,0.06 0,0.058 0,0.057 0,0.054 0,0.053 0,0.051 0,0.05 0,0.047 0,0.047 0,0.044 0,0.043 0,0.042 0,0.04 0,0.039 0,0.037 0,0.035 0,0.035 0,0.033 0,0.031 0,0.031 -0.1,0.057 0,0.051 0,0.048 0,0.042 -0.1,0.039 0,0.035 0,0.03 -0.1,0.027 0,0.024 -0.1,0.021 0,0.018 0,0.007 -0.1,0.008 0,0.006 0,0.006 -0.1,0.006 0,0.005 0,0.004 -0.1,0.004 0,0.003 -0.1,0.003 0,0.003 0,0.002 -0.1,0.002 0,0.002 -0.1,0.001 0,10e-4 -0.1,0.001 0,0 -0.1,0.001 -0.1,0 0,0 -0.1,0 h -2.7 c -1.4,0 -1.4,-0.047 -1.4,-1.344 v -28.204 c 0,-1.3 0,-1.34 1.4,-1.34 h 2.7 c 1.4,0 1.4,0.04 1.4,1.34 z"
           inkscape:connector-curvature="0"
           style="fill:#000000;stroke-width:0" /><path
           id="path5212"
           d="m 1506,-104.64 0,0.05 0,0.06 0,0.06 0,0.05 0,0.06 0,0.05 0,0.05 0,0.05 0,0.04 0,0.05 0,0.04 0,0.04 0,0.04 0,0.04 0,0.04 0,0.03 0,0.04 0,0.03 0,0.03 0,0.03 -0.1,0.06 0,0.05 0,0.05 0,0.04 -0.1,0.04 0,0.03 0,0.03 -0.1,0.03 0,0.03 -0.1,0.02 0,0.01 0,0.01 -0.1,0.01 0,0.01 0,0 -0.1,0.01 0,0 0,0.01 -0.1,0 0,0 -0.1,0.01 0,0 0,0 -0.1,0 0,0 -0.1,0.01 0,0 -0.1,0 0,0 -0.1,0 -0.1,0 0,0 -0.1,0 h -2.7 c -1.4,0 -1.4,-0.05 -1.4,-1.34 v -28.21 c 0,-1.3 0,-1.34 1.4,-1.34 h 2.7 c 1.4,0 1.4,0.04 1.4,1.34 z"
           inkscape:connector-curvature="0"
           style="fill:#000000;stroke-width:0" /><path
           id="path5214"
           d="m 1506,-134.52 0,0.06 0,0.05 0,0.06 0,0.06 0,0.05 0,0.05 0,0.05 0,0.05 0,0.04 0,0.05 0,0.04 0,0.04 0,0.04 0,0.04 0,0.04 0,0.03 0,0.04 0,0.03 0,0.03 0,0.03 -0.1,0.06 0,0.05 0,0.05 0,0.04 -0.1,0.04 0,0.03 0,0.04 -0.1,0.02 0,0.03 -0.1,0.02 0,0.01 0,0.01 -0.1,0.01 0,0.01 0,0 -0.1,0.01 0,0 0,0.01 -0.1,0 0,0 -0.1,0.01 0,0 0,0 -0.1,0 0,0.01 -0.1,0 0,0 -0.1,0 0,0 -0.1,0 -0.1,0 0,0 -0.1,0 h -2.7 c -1.4,0 -1.4,-0.05 -1.4,-1.34 v -28.21 c 0,-1.29 0,-1.34 1.4,-1.34 h 2.7 c 1.4,0 1.4,0.05 1.4,1.34 z"
           inkscape:connector-curvature="0"
           style="fill:#000000;stroke-width:0" /><path
           id="path5216"
           d="m 1506,-164.4 0,0.06 0,0.06 0,0.05 0,0.06 0,0.05 0,0.05 0,0.05 0,0.05 0,0.04 0,0.05 0,0.04 0,0.04 0,0.04 0,0.04 0,0.04 0,0.04 0,0.03 0,0.03 0,0.03 0,0.03 -0.1,0.06 0,0.05 0,0.05 0,0.04 -0.1,0.04 0,0.04 0,0.03 -0.1,0.02 0,0.03 -0.1,0.02 0,0.02 0,0 -0.1,0.01 0,0.01 0,0 -0.1,0.01 0,0 0,0.01 -0.1,0 0,0.01 -0.1,0 0,0 0,0 -0.1,0 0,0.01 -0.1,0 0,0 -0.1,0 0,0 -0.1,0 -0.1,0 0,0 -0.1,0 h -2.7 c -1.4,0 -1.4,-0.04 -1.4,-1.34 v -28.2 c 0,-1.3 0,-1.35 1.4,-1.35 h 2.7 c 1.4,0 1.4,0.05 1.4,1.35 z"
           inkscape:connector-curvature="0"
           style="fill:#000000;stroke-width:0" /><path
           id="path5218"
           d="m 1506,-194.29 0,0.06 0,0.06 0,0.06 0,0.05 0,0.06 0,0.05 0,0.05 0,0.05 0,0.04 0,0.05 0,0.04 0,0.04 0,0.04 0,0.04 0,0.04 0,0.03 0,0.04 0,0.03 0,0.03 0,0.03 -0.1,0.06 0,0.05 0,0.05 0,0.04 -0.1,0.04 0,0.03 0,0.03 -0.1,0.03 0,0.03 -0.1,0.02 0,0.01 0,0.01 -0.1,0.01 0,0.01 0,0 -0.1,0.01 0,0 0,0.01 -0.1,0 0,0 -0.1,0.01 0,0 0,0 -0.1,0 0,0 -0.1,0.01 0,0 -0.1,0 0,0 -0.1,0 -0.1,0 0,0 -0.1,0 h -2.7 c -1.4,0 -1.4,-0.05 -1.4,-1.35 v -28.2 c 0,-1.3 0,-1.34 1.4,-1.34 h 2.7 c 1.4,0 1.4,0.04 1.4,1.34 z"
           inkscape:connector-curvature="0"
           style="fill:#000000;stroke-width:0" /><path
           id="path5220"
           d="m 1506,-224.29 0,0.06 0,0.06 0,0.06 0,0.05 0,0.06 0,0.05 0,0.05 0,0.05 0,0.04 0,0.05 0,0.04 0,0.04 0,0.04 0,0.04 0,0.04 0,0.03 0,0.04 0,0.03 0,0.03 0,0.03 -0.1,0.06 0,0.05 0,0.05 0,0.04 -0.1,0.04 0,0.03 0,0.03 -0.1,0.03 0,0.03 -0.1,0.02 0,0.01 0,0.01 -0.1,0.01 0,0.01 0,0 -0.1,0.01 0,0 0,0.01 -0.1,0 0,0 -0.1,0.01 0,0 0,0 -0.1,0 0,0 -0.1,0.01 0,0 -0.1,0 0,0 -0.1,0 -0.1,0 0,0 -0.1,0 h -2.7 c -1.4,0 -1.4,-0.05 -1.4,-1.35 v -28.2 c 0,-1.3 0,-1.34 1.4,-1.34 h 2.7 c 1.4,0 1.4,0.04 1.4,1.34 z"
           inkscape:connector-curvature="0"
           style="fill:#000000;stroke-width:0" /><path
           id="path5222"
           d="m 1506,-254.16 0,0.06 0,0.05 0,0.06 0,0.05 0,0.06 0,0.05 0,0.05 0,0.05 0,0.04 0,0.05 0,0.04 0,0.04 0,0.04 0,0.04 0,0.04 0,0.03 0,0.04 0,0.03 0,0.03 0,0.03 -0.1,0.06 0,0.05 0,0.05 0,0.04 -0.1,0.04 0,0.03 0,0.04 -0.1,0.02 0,0.03 -0.1,0.02 0,0.01 0,0.01 -0.1,0.01 0,0.01 0,0 -0.1,0.01 0,0 0,0.01 -0.1,0 0,0 -0.1,0.01 0,0 0,0 -0.1,0 0,0.01 -0.1,0 0,0 -0.1,0 0,0 -0.1,0 -0.1,0 0,0 -0.1,0 h -2.7 c -1.4,0 -1.4,-0.05 -1.4,-1.34 v -28.21 c 0,-1.29 0,-1.34 1.4,-1.34 h 2.7 c 1.4,0 1.4,0.05 1.4,1.34 z"
           inkscape:connector-curvature="0"
           style="fill:#000000;stroke-width:0" /><path
           id="path5224"
           d="m 1506,-284.04 0,0.06 0,0.05 0,0.06 0,0.06 0,0.05 0,0.05 0,0.05 0,0.05 0,0.04 0,0.05 0,0.04 0,0.04 0,0.04 0,0.04 0,0.04 0,0.03 0,0.04 0,0.03 0,0.03 0,0.03 -0.1,0.06 0,0.05 0,0.05 0,0.04 -0.1,0.04 0,0.04 0,0.03 -0.1,0.02 0,0.03 -0.1,0.02 0,0.02 0,0 -0.1,0.01 0,0.01 0,0 -0.1,0.01 0,0 0,0.01 -0.1,0 0,0.01 -0.1,0 0,0 0,0 -0.1,0 0,0.01 -0.1,0 0,0 -0.1,0 0,0 -0.1,0 -0.1,0 0,0 -0.1,0 h -2.7 c -1.4,0 -1.4,-0.05 -1.4,-1.34 v -28.21 c 0,-1.29 0,-1.34 1.4,-1.34 h 2.7 c 1.4,0 1.4,0.05 1.4,1.34 z"
           inkscape:connector-curvature="0"
           style="fill:#000000;stroke-width:0" /><path
           id="path5226"
           d="m 1506,-313.92 0,0.06 0,0.06 0,0.05 0,0.06 0,0.05 0,0.05 0,0.05 0,0.05 0,0.04 0,0.05 0,0.04 0,0.04 0,0.04 0,0.04 0,0.04 0,0.04 0,0.03 0,0.03 0,0.03 0,0.03 -0.1,0.06 0,0.05 0,0.05 0,0.04 -0.1,0.04 0,0.04 0,0.03 -0.1,0.02 0,0.03 -0.1,0.02 0,0.02 0,0 -0.1,0.01 0,0.01 0,0 -0.1,0.01 0,0 0,0.01 -0.1,0 0,0.01 -0.1,0 0,0 0,0 -0.1,0.01 0,0 -0.1,0 0,0 -0.1,0 0,0 -0.1,0 -0.1,0 0,0 -0.1,0 h -2.7 c -1.4,0 -1.4,-0.04 -1.4,-1.34 v -28.2 c 0,-1.3 0,-1.35 1.4,-1.35 h 2.7 c 1.4,0 1.4,0.05 1.4,1.35 z"
           inkscape:connector-curvature="0"
           style="fill:#000000;stroke-width:0" /><path
           id="path5228"
           d="m 1506,-343.8 0,0.05 0,0.06 0,0.06 0,0.05 0,0.06 0,0.05 0,0.05 0,0.05 0,0.04 0,0.05 0,0.04 0,0.04 0,0.04 0,0.04 0,0.04 0,0.03 0,0.04 0,0.03 0,0.03 0,0.03 -0.1,0.06 0,0.05 0,0.05 0,0.04 -0.1,0.04 0,0.03 0,0.03 -0.1,0.03 0,0.03 -0.1,0.02 0,0.01 0,0.01 -0.1,0.01 0,0.01 0,0 -0.1,0.01 0,0 0,0.01 -0.1,0 0,0 -0.1,0.01 0,0 0,0 -0.1,0 0,0 -0.1,0.01 0,0 -0.1,0 0,0 -0.1,0 -0.1,0 0,0 -0.1,0 h -2.7 c -1.4,0 -1.4,-0.05 -1.4,-1.34 v -28.21 c 0,-1.29 0,-1.34 1.4,-1.34 h 2.7 c 1.4,0 1.4,0.05 1.4,1.34 z"
           inkscape:connector-curvature="0"
           style="fill:#000000;stroke-width:0" /><path
           id="path5230"
           d="m 1506,-372.82 0,0.05 0,0.04 0,0.05 0,0.04 0,0.03 0,0.04 -0.1,0.03 0,0.03 0,0.03 0,0.03 -0.1,0.02 0,0.02 0,0.02 0,0.02 -0.1,0.01 0,0.01 -0.1,0.02 0,0.01 0,0.01 -0.1,0 0,0.01 -0.1,0.01 -0.1,0 0,0 -0.1,0.01 -0.1,0 0,0 -0.1,0 -0.1,0 -0.1,0 -0.1,0 -0.1,0 h -2.7 c -1.1,0 -1.4,0 -1.4,-0.68 0,-5.15 -0.1,-17 -1.4,-29.4 -2.7,-25.76 -9.3,-43.59 -20.2,-58.89 -0.3,-0.45 -0.3,-0.54 -0.3,-0.65 0,-0.5 0.4,-0.5 1.1,-0.5 0.8,0 0.9,0 1,0.11 0.2,0.14 6.5,7.42 11.6,17.43 6.5,13.15 10.7,28.25 12.5,46.38 0.2,1.55 1.2,11.91 1.2,23.72 z"
           inkscape:connector-curvature="0"
           style="fill:#000000;stroke-width:0" /></g>    </g>
    <g
       id="g5416"
       transform="translate(-67.734591,96.162441)">
      <g
         id="g5418"
         transform="matrix(1.0629921,0,0,-1.0629921,-186.02362,789.27165)"
         xml:space="preserve"
         stroke-miterlimit="10.433"
         font-style="normal"
         font-variant="normal"
         font-weight="normal"
         font-stretch="normal"
         font-size-adjust="none"
         letter-spacing="normal"
         word-spacing="normal"
         style="font-style:normal;font-variant:normal;font-weight:normal;font-stretch:normal;letter-spacing:normal;word-spacing:normal;text-anchor:start;fill:none;stroke:#000000;stroke-linecap:butt;stroke-linejoin:miter;stroke-miterlimit:10.43299961;stroke-opacity:1;stroke-dasharray:none;stroke-dashoffset:0"><path
           d="m 467.22,418.61 0.02,0.58 0.04,0.56 0.06,0.55 0.09,0.53 0.12,0.52 0.13,0.5 0.16,0.49 0.17,0.47 0.19,0.45 0.2,0.44 0.22,0.43 0.23,0.41 0.24,0.39 0.25,0.38 0.26,0.37 0.26,0.35 0.27,0.34 0.27,0.32 0.28,0.3 0.28,0.3 0.27,0.27 0.28,0.27 0.27,0.25 0.26,0.24 0.26,0.22 0.25,0.21 0.24,0.19 0.23,0.18 0.22,0.17 0.2,0.16 0.19,0.14 0.17,0.12 c 1.34,1 2.39,2.8 2.39,4.88 0,2.89 -1.98,6.73 -9.4,6.73 -5.4,0 -8.47,-3.39 -8.47,-6.62 0,-1.7 1.14,-2.39 2.28,-2.39 1.4,0 2.29,1 2.29,2.28 0,2.25 -2.09,2.25 -2.79,2.25 1.54,2.64 4.44,3.39 6.53,3.39 5.44,0 5.44,-3.39 5.44,-5.33 0,-2.95 -0.8,-3.84 -1.71,-4.73 -3.28,-3.6 -4.37,-8.17 -4.37,-11.22 v -2.24 c 0,-0.9 0,-1.2 0.59,-1.2 0.64,0 0.64,0.45 0.64,1.35 z"
           id="path5420"
           inkscape:connector-curvature="0"
           style="fill:#000000;stroke-width:0" /><path
           d="m 469.22,408.84 0,0.13 -0.01,0.14 -0.02,0.13 -0.02,0.13 -0.03,0.12 -0.04,0.13 -0.04,0.12 -0.05,0.12 -0.05,0.12 -0.06,0.11 -0.06,0.11 -0.07,0.11 -0.08,0.1 -0.08,0.1 -0.08,0.1 -0.09,0.09 -0.09,0.09 -0.1,0.08 -0.1,0.08 -0.1,0.07 -0.11,0.07 -0.11,0.07 -0.11,0.06 -0.12,0.05 -0.12,0.05 -0.12,0.04 -0.12,0.04 -0.13,0.03 -0.13,0.02 -0.13,0.02 -0.13,0.01 -0.14,0 c -1.45,0 -2.64,-1.2 -2.64,-2.64 0,-1.44 1.19,-2.64 2.64,-2.64 1.44,0 2.64,1.2 2.64,2.64 z"
           id="path5422"
           inkscape:connector-curvature="0"
           style="fill:#000000;stroke-width:0" /></g>    </g>
    <g
       id="g5616"
       transform="matrix(1,0,0,3.4822368,322.85714,-1003.0683)">
      <g
         word-spacing="normal"
         letter-spacing="normal"
         font-size-adjust="none"
         font-stretch="normal"
         font-weight="normal"
         font-variant="normal"
         font-style="normal"
         stroke-miterlimit="10.433"
         xml:space="preserve"
         transform="matrix(1.0629921,0,0,-1.0629921,-186.02362,789.27165)"
         id="g5618"
         style="font-style:normal;font-variant:normal;font-weight:normal;font-stretch:normal;letter-spacing:normal;word-spacing:normal;text-anchor:start;fill:none;stroke:#000000;stroke-linecap:butt;stroke-linejoin:miter;stroke-miterlimit:10.43299961;stroke-opacity:1;stroke-dasharray:none;stroke-dashoffset:0"><path
           id="path5620"
           d="m 466.29,400.37 -0.01,-0.19 -0.01,-0.2 -0.02,-0.2 -0.03,-0.21 -0.04,-0.21 -0.05,-0.21 -0.06,-0.22 -0.07,-0.22 -0.09,-0.22 -0.09,-0.22 -0.11,-0.22 -0.12,-0.22 -0.14,-0.21 -0.15,-0.22 -0.16,-0.21 -0.18,-0.21 -0.2,-0.2 -0.21,-0.19 -0.23,-0.19 -0.25,-0.19 -0.26,-0.17 -0.29,-0.17 -0.3,-0.15 -0.32,-0.15 -0.35,-0.14 -0.36,-0.12 -0.38,-0.12 -0.41,-0.1 -0.21,-0.04 -0.22,-0.04 -0.22,-0.04 -0.23,-0.03 -0.23,-0.03 -0.24,-0.03 -0.25,-0.02 -0.25,-0.02 c -0.25,-0.05 -0.44,-0.25 -0.44,-0.55 0,-0.54 0.55,-0.54 0.99,-0.54 4.84,0 9.47,2.43 9.51,6.21 v 11.36 c 0,1.96 0,3.55 2,5.19 1.75,1.45 3.64,1.55 4.74,1.6 0.25,0.04 0.45,0.25 0.45,0.54 0,0.5 -0.31,0.5 -0.8,0.55 -3.29,0.2 -5.68,2 -6.23,4.44 -0.16,0.54 -0.16,0.64 -0.16,2.43 v 9.88 c 0,2.08 0,3.69 -2.39,5.58 -1.98,1.54 -5.42,2.03 -7.12,2.03 -0.44,0 -0.99,0 -0.99,-0.55 0,-0.5 0.3,-0.5 0.8,-0.55 3.13,-0.18 5.58,-1.79 6.22,-4.32 0.16,-0.46 0.16,-0.55 0.16,-2.35 v -10.47 c 0,-2.28 0.39,-3.12 1.98,-4.73 1.05,-1.03 2.5,-1.53 3.89,-1.94 -4.08,-1.14 -5.87,-3.44 -5.87,-6.33 z"
           inkscape:connector-curvature="0"
           style="fill:#000000;stroke-width:0" /></g>    </g>
    <g
       id="g5820"
       transform="translate(373.98836,-144.2785)">
      <g
         id="g5822"
         transform="matrix(1.0629921,0,0,-1.0629921,-186.02362,789.27165)"
         xml:space="preserve"
         stroke-miterlimit="10.433"
         font-style="normal"
         font-variant="normal"
         font-weight="normal"
         font-stretch="normal"
         font-size-adjust="none"
         letter-spacing="normal"
         word-spacing="normal"
         style="font-style:normal;font-variant:normal;font-weight:normal;font-stretch:normal;letter-spacing:normal;word-spacing:normal;text-anchor:start;fill:none;stroke:#000000;stroke-linecap:butt;stroke-linejoin:miter;stroke-miterlimit:10.43299961;stroke-opacity:1;stroke-dasharray:none;stroke-dashoffset:0"><path
           d="m 469.82,440.23 0,0 0,0.01 0,0 0,0.01 -0.01,0.02 0,0.01 0,0.02 0,0.02 0,0.02 -0.01,0.02 0,0.02 -0.01,0.02 -0.01,0.02 -0.01,0.03 -0.01,0.02 -0.01,0.03 -0.01,0.02 -0.02,0.03 -0.02,0.02 -0.02,0.02 -0.02,0.03 -0.01,0.01 -0.01,0.01 -0.02,0.01 -0.01,0.01 -0.02,0.01 -0.01,0.01 -0.02,0.01 -0.01,0.01 -0.02,0.01 -0.02,0.01 -0.02,0 -0.02,0.01 -0.02,0.01 -0.02,0 -0.02,0.01 -0.02,0.01 -0.03,0 -0.02,0 -0.03,0.01 -0.02,0 -0.03,0 -0.03,0.01 -0.02,0 -0.03,0 c -1.16,0 -4.79,-0.41 -6.08,-0.5 -0.41,-0.05 -0.96,-0.1 -0.96,-1 0,-0.6 0.46,-0.6 1.21,-0.6 2.39,0 2.48,-0.34 2.48,-0.84 l -0.15,-1 -7.22,-28.7 c -0.21,-0.69 -0.21,-0.8 -0.21,-1.1 0,-1.14 1,-1.39 1.46,-1.39 0.64,0 1.39,0.46 1.68,1.05 0.25,0.45 2.5,9.66 2.8,10.91 1.69,-0.15 5.78,-0.94 5.78,-4.24 0,-0.34 0,-0.55 -0.15,-1.05 -0.1,-0.59 -0.21,-1.18 -0.21,-1.73 0,-2.95 2,-4.94 4.6,-4.94 1.48,0 2.83,0.8 3.93,2.64 1.24,2.19 1.79,4.94 1.79,5.03 0,0.5 -0.44,0.5 -0.6,0.5 -0.5,0 -0.54,-0.2 -0.7,-0.9 -0.99,-3.63 -2.14,-6.17 -4.33,-6.17 -0.94,0 -1.59,0.54 -1.59,2.34 0,0.84 0.2,1.98 0.4,2.78 0.19,0.86 0.19,1.05 0.19,1.55 0,3.25 -3.14,4.69 -7.37,5.23 1.54,0.91 3.14,2.5 4.29,3.69 2.39,2.64 4.67,4.78 7.13,4.78 0.29,0 0.34,0 0.44,-0.05 0.6,-0.09 0.65,-0.09 1.04,-0.39 0.11,-0.06 0.11,-0.11 0.21,-0.2 -2.4,-0.16 -2.85,-2.09 -2.85,-2.69 0,-0.79 0.55,-1.75 1.89,-1.75 1.3,0 2.75,1.1 2.75,3.03 0,1.5 -1.15,3.14 -3.39,3.14 -1.39,0 -3.69,-0.39 -7.28,-4.37 -1.69,-1.89 -3.62,-3.89 -5.52,-4.64 z"
           id="path5824"
           inkscape:connector-curvature="0"
           style="fill:#000000;stroke-width:0" /><path
           d="m 493.11,420.92 0,0.04 0,0.04 0,0.05 0,0.04 0,0.03 0,0.04 0,0.04 0,0.03 0,0.04 0,0.03 -0.01,0.03 0,0.03 0,0.03 0,0.03 -0.01,0.03 0,0.02 -0.01,0.03 0,0.02 -0.01,0.03 0,0.02 -0.01,0.04 -0.02,0.04 -0.02,0.03 -0.01,0.03 -0.03,0.03 -0.02,0.03 -0.03,0.02 -0.03,0.02 -0.03,0.02 -0.04,0.01 -0.04,0.01 -0.04,0.02 -0.03,0 -0.02,0 -0.03,0.01 -0.02,0 -0.03,0.01 -0.03,0 -0.03,0 -0.03,0 -0.03,0 -0.04,0.01 -0.03,0 -0.04,0 -0.03,0 -0.04,0 -0.04,0 -0.04,0 -0.04,0 -0.04,0 -0.05,0 -0.04,0 c -2.24,-2.2 -5.39,-2.23 -6.83,-2.23 v -1.25 c 0.84,0 3.14,0 5.05,0.97 v -17.77 c 0,-1.16 0,-1.61 -3.49,-1.61 h -1.31 v -1.25 c 0.62,0.03 4.9,0.14 6.2,0.14 1.08,0 5.47,-0.11 6.24,-0.14 v 1.25 h -1.33 c -3.49,0 -3.49,0.45 -3.49,1.61 z"
           id="path5826"
           inkscape:connector-curvature="0"
           style="fill:#000000;stroke-width:0" /></g>    </g>
    <g
       transform="matrix(1,0,0,3.4822368,326.89775,-443.44379)"
       id="g6148">
      <g
         style="font-style:normal;font-variant:normal;font-weight:normal;font-stretch:normal;letter-spacing:normal;word-spacing:normal;text-anchor:start;fill:none;stroke:#000000;stroke-linecap:butt;stroke-linejoin:miter;stroke-miterlimit:10.43299961;stroke-opacity:1;stroke-dasharray:none;stroke-dashoffset:0"
         id="g6150"
         transform="matrix(1.0629921,0,0,-1.0629921,-186.02362,789.27165)"
         xml:space="preserve"
         stroke-miterlimit="10.433"
         font-style="normal"
         font-variant="normal"
         font-weight="normal"
         font-stretch="normal"
         font-size-adjust="none"
         letter-spacing="normal"
         word-spacing="normal"><path
           style="fill:#000000;stroke-width:0"
           inkscape:connector-curvature="0"
           d="m 466.29,400.37 -0.01,-0.19 -0.01,-0.2 -0.02,-0.2 -0.03,-0.21 -0.04,-0.21 -0.05,-0.21 -0.06,-0.22 -0.07,-0.22 -0.09,-0.22 -0.09,-0.22 -0.11,-0.22 -0.12,-0.22 -0.14,-0.21 -0.15,-0.22 -0.16,-0.21 -0.18,-0.21 -0.2,-0.2 -0.21,-0.19 -0.23,-0.19 -0.25,-0.19 -0.26,-0.17 -0.29,-0.17 -0.3,-0.15 -0.32,-0.15 -0.35,-0.14 -0.36,-0.12 -0.38,-0.12 -0.41,-0.1 -0.21,-0.04 -0.22,-0.04 -0.22,-0.04 -0.23,-0.03 -0.23,-0.03 -0.24,-0.03 -0.25,-0.02 -0.25,-0.02 c -0.25,-0.05 -0.44,-0.25 -0.44,-0.55 0,-0.54 0.55,-0.54 0.99,-0.54 4.84,0 9.47,2.43 9.51,6.21 v 11.36 c 0,1.96 0,3.55 2,5.19 1.75,1.45 3.64,1.55 4.74,1.6 0.25,0.04 0.45,0.25 0.45,0.54 0,0.5 -0.31,0.5 -0.8,0.55 -3.29,0.2 -5.68,2 -6.23,4.44 -0.16,0.54 -0.16,0.64 -0.16,2.43 v 9.88 c 0,2.08 0,3.69 -2.39,5.58 -1.98,1.54 -5.42,2.03 -7.12,2.03 -0.44,0 -0.99,0 -0.99,-0.55 0,-0.5 0.3,-0.5 0.8,-0.55 3.13,-0.18 5.58,-1.79 6.22,-4.32 0.16,-0.46 0.16,-0.55 0.16,-2.35 v -10.47 c 0,-2.28 0.39,-3.12 1.98,-4.73 1.05,-1.03 2.5,-1.53 3.89,-1.94 -4.08,-1.14 -5.87,-3.44 -5.87,-6.33 z"
           id="path6152" /></g>    </g>
    <g
       transform="translate(378.02897,415.34601)"
       id="g6154">
      <g
         style="font-style:normal;font-variant:normal;font-weight:normal;font-stretch:normal;letter-spacing:normal;word-spacing:normal;text-anchor:start;fill:none;stroke:#000000;stroke-linecap:butt;stroke-linejoin:miter;stroke-miterlimit:10.43299961;stroke-opacity:1;stroke-dasharray:none;stroke-dashoffset:0"
         word-spacing="normal"
         letter-spacing="normal"
         font-size-adjust="none"
         font-stretch="normal"
         font-weight="normal"
         font-variant="normal"
         font-style="normal"
         stroke-miterlimit="10.433"
         xml:space="preserve"
         transform="matrix(1.0629921,0,0,-1.0629921,-186.02362,789.27165)"
         id="g6156"><path
           style="fill:#000000;stroke-width:0"
           inkscape:connector-curvature="0"
           id="path6158"
           d="m 469.82,440.23 0,0 0,0.01 0,0 0,0.01 -0.01,0.02 0,0.01 0,0.02 0,0.02 0,0.02 -0.01,0.02 0,0.02 -0.01,0.02 -0.01,0.02 -0.01,0.03 -0.01,0.02 -0.01,0.03 -0.01,0.02 -0.02,0.03 -0.02,0.02 -0.02,0.02 -0.02,0.03 -0.01,0.01 -0.01,0.01 -0.02,0.01 -0.01,0.01 -0.02,0.01 -0.01,0.01 -0.02,0.01 -0.01,0.01 -0.02,0.01 -0.02,0.01 -0.02,0 -0.02,0.01 -0.02,0.01 -0.02,0 -0.02,0.01 -0.02,0.01 -0.03,0 -0.02,0 -0.03,0.01 -0.02,0 -0.03,0 -0.03,0.01 -0.02,0 -0.03,0 c -1.16,0 -4.79,-0.41 -6.08,-0.5 -0.41,-0.05 -0.96,-0.1 -0.96,-1 0,-0.6 0.46,-0.6 1.21,-0.6 2.39,0 2.48,-0.34 2.48,-0.84 l -0.15,-1 -7.22,-28.7 c -0.21,-0.69 -0.21,-0.8 -0.21,-1.1 0,-1.14 1,-1.39 1.46,-1.39 0.64,0 1.39,0.46 1.68,1.05 0.25,0.45 2.5,9.66 2.8,10.91 1.69,-0.15 5.78,-0.94 5.78,-4.24 0,-0.34 0,-0.55 -0.15,-1.05 -0.1,-0.59 -0.21,-1.18 -0.21,-1.73 0,-2.95 2,-4.94 4.6,-4.94 1.48,0 2.83,0.8 3.93,2.64 1.24,2.19 1.79,4.94 1.79,5.03 0,0.5 -0.44,0.5 -0.6,0.5 -0.5,0 -0.54,-0.2 -0.7,-0.9 -0.99,-3.63 -2.14,-6.17 -4.33,-6.17 -0.94,0 -1.59,0.54 -1.59,2.34 0,0.84 0.2,1.98 0.4,2.78 0.19,0.86 0.19,1.05 0.19,1.55 0,3.25 -3.14,4.69 -7.37,5.23 1.54,0.91 3.14,2.5 4.29,3.69 2.39,2.64 4.67,4.78 7.13,4.78 0.29,0 0.34,0 0.44,-0.05 0.6,-0.09 0.65,-0.09 1.04,-0.39 0.11,-0.06 0.11,-0.11 0.21,-0.2 -2.4,-0.16 -2.85,-2.09 -2.85,-2.69 0,-0.79 0.55,-1.75 1.89,-1.75 1.3,0 2.75,1.1 2.75,3.03 0,1.5 -1.15,3.14 -3.39,3.14 -1.39,0 -3.69,-0.39 -7.28,-4.37 -1.69,-1.89 -3.62,-3.89 -5.52,-4.64 z" /><path
           style="fill:#000000;stroke-width:0"
           inkscape:connector-curvature="0"
           id="path6160"
           d="m 493.11,420.92 0,0.04 0,0.04 0,0.05 0,0.04 0,0.03 0,0.04 0,0.04 0,0.03 0,0.04 0,0.03 -0.01,0.03 0,0.03 0,0.03 0,0.03 -0.01,0.03 0,0.02 -0.01,0.03 0,0.02 -0.01,0.03 0,0.02 -0.01,0.04 -0.02,0.04 -0.02,0.03 -0.01,0.03 -0.03,0.03 -0.02,0.03 -0.03,0.02 -0.03,0.02 -0.03,0.02 -0.04,0.01 -0.04,0.01 -0.04,0.02 -0.03,0 -0.02,0 -0.03,0.01 -0.02,0 -0.03,0.01 -0.03,0 -0.03,0 -0.03,0 -0.03,0 -0.04,0.01 -0.03,0 -0.04,0 -0.03,0 -0.04,0 -0.04,0 -0.04,0 -0.04,0 -0.04,0 -0.05,0 -0.04,0 c -2.24,-2.2 -5.39,-2.23 -6.83,-2.23 v -1.25 c 0.84,0 3.14,0 5.05,0.97 v -17.77 c 0,-1.16 0,-1.61 -3.49,-1.61 h -1.31 v -1.25 c 0.62,0.03 4.9,0.14 6.2,0.14 1.08,0 5.47,-0.11 6.24,-0.14 v 1.25 h -1.33 c -3.49,0 -3.49,0.45 -3.49,1.61 z" /></g>    </g>
  </g>
</svg>
