<?xml version="1.0" encoding="UTF-8" standalone="no"?>
<!-- Created with Inkscape (http://www.inkscape.org/) -->

<svg
   xmlns:dc="http://purl.org/dc/elements/1.1/"
   xmlns:cc="http://creativecommons.org/ns#"
   xmlns:rdf="http://www.w3.org/1999/02/22-rdf-syntax-ns#"
   xmlns:svg="http://www.w3.org/2000/svg"
   xmlns="http://www.w3.org/2000/svg"
   xmlns:sodipodi="http://sodipodi.sourceforge.net/DTD/sodipodi-0.dtd"
   xmlns:inkscape="http://www.inkscape.org/namespaces/inkscape"
   width="483.37161"
   height="563.59839"
   id="svg4332"
   version="1.1"
   inkscape:version="0.48.5 r10040"
   sodipodi:docname="Tmatrix.svg">
  <sodipodi:namedview
     id="base"
     pagecolor="#ffffff"
     bordercolor="#666666"
     borderopacity="1.0"
     inkscape:pageopacity="0.0"
     inkscape:pageshadow="2"
     inkscape:zoom="0.49497475"
     inkscape:cx="205.11113"
     inkscape:cy="311.68171"
     inkscape:document-units="px"
     inkscape:current-layer="layer1"
     showgrid="false"
     inkscape:window-width="1035"
     inkscape:window-height="604"
     inkscape:window-x="20"
     inkscape:window-y="20"
     inkscape:window-maximized="0"
     fit-margin-top="0"
     fit-margin-left="0"
     fit-margin-right="0"
     fit-margin-bottom="0" />
  <defs
     id="defs4334" />
  <metadata
     id="metadata4337">
    <rdf:RDF>
      <cc:Work
         rdf:about="">
        <dc:format>image/svg+xml</dc:format>
        <dc:type
           rdf:resource="http://purl.org/dc/dcmitype/StillImage" />
        <dc:title></dc:title>
      </cc:Work>
    </rdf:RDF>
  </metadata>
  <g
     inkscape:label="Ebene 1"
     inkscape:groupmode="layer"
     id="layer1"
     transform="translate(-18.63496,-115.99134)">
    <g
       transform="translate(-922.85714,-300)"
       id="g4345">
      <g
         style="font-style:normal;font-variant:normal;font-weight:normal;font-stretch:normal;letter-spacing:normal;word-spacing:normal;text-anchor:start;fill:none;stroke:#000000;stroke-linecap:butt;stroke-linejoin:miter;stroke-miterlimit:10.43299961;stroke-opacity:1;stroke-dasharray:none;stroke-dashoffset:0"
         id="content"
         transform="matrix(1.0629921,0,0,-1.0629921,-186.02362,789.27165)"
         xml:space="preserve"
         stroke-miterlimit="10.433"
         font-style="normal"
         font-variant="normal"
         font-weight="normal"
         font-stretch="normal"
         font-size-adjust="none"
         letter-spacing="normal"
         word-spacing="normal"><path
           style="fill:#000000;stroke-width:0"
           inkscape:connector-curvature="0"
           d="m 1080.8,103.91 0,0.07 0,0.06 0,0.12 0.1,0.12 0,0.11 0,0.11 0,0.09 0.1,0.1 0,0.09 0,0.08 0.1,0.08 0,0.07 0,0.07 0,0.06 0.1,0.06 0,0.06 0,0.05 0.1,0.05 0,0.04 0,0.05 0.1,0.03 0,0.04 0,0.03 0.1,0.03 0,0.03 0.1,0.02 0,0.03 0,0.02 0.1,0.02 0,0.01 0.1,0.02 0,0.01 0.1,0.02 c 0.5,0.11 2.1,0.11 3.1,0.11 5.1,0 7.3,-0.21 7.3,-4.1 0,-0.73 -0.2,-2.684 -0.4,-3.981 0,-0.187 -0.1,-0.797 -0.1,-0.937 0,-0.297 0.1,-0.657 0.6,-0.657 0.5,0 0.6,0.407 0.7,1.157 l 1.3,8.658 c 0.1,0.2 0.2,0.7 0.2,0.86 0,0.54 -0.5,0.54 -1.4,0.54 h -27.6 c -1.2,0 -1.3,-0.06 -1.6,-1 l -3,-8.762 c -0.1,-0.109 -0.3,-0.796 -0.3,-0.906 0,-0.297 0.2,-0.547 0.6,-0.547 0.5,0 0.5,0.25 0.8,1.047 2.7,7.718 4,8.628 11.4,8.628 h 1.9 c 1.4,0 1.4,-0.21 1.4,-0.6 0,-0.31 -0.1,-0.9 -0.2,-1.04 l -6.7,-26.613 c -0.4,-1.844 -0.6,-2.39 -5.9,-2.39 -1.8,0 -2.1,0 -2.1,-0.954 0,-0.593 0.6,-0.593 0.9,-0.593 1.3,0 2.7,0.093 4.1,0.093 1.3,0 2.8,0.063 4.2,0.063 1.4,0 2.8,-0.063 4.1,-0.063 1.5,0 3,-0.093 4.4,-0.093 0.5,0 1.1,0 1.1,1 0,0.547 -0.4,0.547 -1.7,0.547 -1.3,0 -1.9,0 -3.2,0.093 -1.5,0.157 -1.9,0.297 -1.9,1.094 0,0.063 0,0.313 0.2,1.047 z"
           id="path4348" /><path
           style="fill:#000000;stroke-width:0"
           inkscape:connector-curvature="0"
           d="m 1143.5,89.977 0.2,0 0.1,0.002 0.1,0.004 0.1,0.004 0.1,0.005 0.1,0.006 0,0.009 0.1,0.01 0.1,0.012 0,0.014 0.1,0.016 0.1,0.019 0,0.022 0.1,0.024 0.1,0.028 0,0.031 0.1,0.034 0,0.038 0.1,0.041 0,0.046 0,0.05 0.1,0.026 0,0.028 0,0.029 0,0.03 0,0.031 0,0.032 0,0.033 0.1,0.035 0,0.036 0,0.037 0,0.039 0,0.04 0,0.041 0,0.042 0,0.044 0,0.046 c 0,1 -1,1 -1.6,1 h -29.9 c -0.7,0 -1.6,0 -1.6,-1 0,-0.984 0.9,-0.984 1.7,-0.984 z"
           id="path4350" /><path
           style="fill:#000000;stroke-width:0"
           inkscape:connector-curvature="0"
           d="m 1143.6,80.305 0,0 0.1,0 0.1,0.002 0.2,0.004 0,0.004 0.1,0.005 0.1,0.007 0,0.008 0.1,0.01 0.1,0.012 0,0.015 0.1,0.016 0.1,0.02 0,0.022 0.1,0.025 0.1,0.028 0,0.031 0.1,0.035 0,0.038 0.1,0.043 0,0.046 0,0.025 0,0.026 0.1,0.026 0,0.029 0,0.029 0,0.03 0,0.032 0,0.032 0,0.034 0.1,0.036 0,0.036 0,0.038 0,0.039 0,0.041 0,0.042 0,0.043 0,0.045 0,0.046 c 0,1 -1,1 -1.7,1 h -29.7 c -0.8,0 -1.7,0 -1.7,-1 0,-1 0.9,-1 1.6,-1 z"
           id="path4352" /><path
           style="fill:#000000;stroke-width:0"
           inkscape:connector-curvature="0"
           d="m 1180.5,249.97 0.1,0 0.1,0 0.1,0 0.1,0 0,0.01 0.1,0 0.1,0 0.1,0 0,0.01 0.1,0 0,0.01 0.1,0.01 0.1,0.01 0,0.01 0,0.02 0.1,0.01 0,0.02 0.1,0.02 0,0.02 0,0.02 0,0.03 0.1,0.03 0,0.03 0,0.04 0,0.04 0,0.04 0,0.05 0.1,0.04 0,0.06 0,0.05 0,0.06 0,0.07 c 0.1,34.92 4.1,63.92 21.5,88.28 0.4,0.45 0.4,0.54 0.4,0.64 0,0.5 -0.4,0.5 -1.2,0.5 -0.8,0 -0.8,0 -0.9,-0.1 -0.3,-0.15 -6.6,-7.42 -11.6,-17.43 -6.6,-13.16 -10.7,-28.25 -12.6,-46.39 -0.1,-1.54 -1.2,-11.91 -1.2,-23.71 v -1.95 c 0.1,-0.55 0.4,-0.55 1.4,-0.55 z"
           id="path4354" /><path
           style="fill:#000000;stroke-width:0"
           inkscape:connector-curvature="0"
           d="m 1181.9,249.71 0,0.06 0,0.06 0,0.06 0,0.05 0,0.06 0,0.05 0,0.05 0,0.05 0,0.04 0,0.05 0,0.04 0,0.04 0,0.04 -0.1,0.04 0,0.04 0,0.03 0,0.04 0,0.03 0,0.03 0,0.03 0,0.06 0,0.05 0,0.05 -0.1,0.04 0,0.04 0,0.03 -0.1,0.03 0,0.03 0,0.03 -0.1,0.02 0,0.01 -0.1,0.01 0,0.01 0,0.01 -0.1,0 0,0.01 0,0 -0.1,0.01 0,0 -0.1,0 0,0.01 0,0 -0.1,0 0,0 -0.1,0 0,0.01 -0.1,0 0,0 -0.1,0 0,0 -0.1,0 -0.1,0 0,0 h -2.8 c -1.3,0 -1.4,-0.05 -1.4,-1.35 v -28.2 c 0,-1.3 0.1,-1.34 1.4,-1.34 h 2.8 c 1.3,0 1.4,0.04 1.4,1.34 z"
           id="path4356" /><path
           style="fill:#000000;stroke-width:0"
           inkscape:connector-curvature="0"
           d="m 1181.9,219.84 0,0.06 0,0.05 0,0.06 0,0.05 0,0.06 0,0.05 0,0.05 0,0.05 0,0.04 0,0.05 0,0.04 0,0.04 0,0.04 -0.1,0.04 0,0.04 0,0.03 0,0.04 0,0.03 0,0.03 0,0.03 0,0.06 0,0.05 0,0.05 -0.1,0.04 0,0.04 0,0.03 -0.1,0.04 0,0.02 0,0.03 -0.1,0.02 0,0.01 -0.1,0.01 0,0.01 0,0.01 -0.1,0 0,0.01 0,0 -0.1,0.01 0,0 -0.1,0 0,0.01 0,0 -0.1,0 0,0 -0.1,0.01 0,0 -0.1,0 0,0 -0.1,0 0,0 -0.1,0 -0.1,0 0,0 h -2.8 c -1.3,0 -1.4,-0.05 -1.4,-1.34 v -28.21 c 0,-1.29 0.1,-1.34 1.4,-1.34 h 2.8 c 1.3,0 1.4,0.05 1.4,1.34 z"
           id="path4358" /><path
           style="fill:#000000;stroke-width:0"
           inkscape:connector-curvature="0"
           d="m 1181.9,189.96 0,0.06 0,0.05 0,0.06 0,0.06 0,0.05 0,0.05 0,0.05 0,0.05 0,0.04 0,0.05 0,0.04 0,0.04 0,0.04 -0.1,0.04 0,0.04 0,0.03 0,0.04 0,0.03 0,0.03 0,0.03 0,0.06 0,0.05 0,0.05 -0.1,0.04 0,0.04 0,0.04 -0.1,0.03 0,0.02 0,0.03 -0.1,0.02 0,0.02 -0.1,0 0,0.01 0,0.01 -0.1,0 0,0.01 0,0 -0.1,0.01 0,0 -0.1,0.01 0,0 0,0 -0.1,0 0,0 -0.1,0.01 0,0 -0.1,0 0,0 -0.1,0 0,0 -0.1,0 -0.1,0 0,0 h -2.8 c -1.3,0 -1.4,-0.05 -1.4,-1.34 v -28.21 c 0,-1.29 0.1,-1.34 1.4,-1.34 h 2.8 c 1.3,0 1.4,0.05 1.4,1.34 z"
           id="path4360" /><path
           style="fill:#000000;stroke-width:0"
           inkscape:connector-curvature="0"
           d="m 1181.9,160.08 0,0.06 0,0.06 0,0.05 0,0.06 0,0.05 0,0.05 0,0.05 0,0.05 0,0.04 0,0.05 0,0.04 0,0.04 0,0.04 -0.1,0.04 0,0.04 0,0.04 0,0.03 0,0.03 0,0.03 0,0.03 0,0.06 0,0.05 0,0.05 -0.1,0.04 0,0.04 0,0.04 -0.1,0.03 0,0.02 0,0.03 -0.1,0.02 0,0.02 -0.1,0 0,0.01 0,0.01 -0.1,0 0,0.01 0,0 -0.1,0.01 0,0 -0.1,0.01 0,0 0,0 -0.1,0 0,0.01 -0.1,0 0,0 -0.1,0 0,0 -0.1,0 0,0 -0.1,0 -0.1,0 0,0 h -2.8 c -1.3,0 -1.4,-0.04 -1.4,-1.34 v -28.2 c 0,-1.3 0.1,-1.35 1.4,-1.35 h 2.8 c 1.3,0 1.4,0.05 1.4,1.35 z"
           id="path4362" /><path
           style="fill:#000000;stroke-width:0"
           inkscape:connector-curvature="0"
           d="m 1181.9,130.2 0,0.05 0,0.06 0,0.06 0,0.05 0,0.06 0,0.05 0,0.05 0,0.05 0,0.04 0,0.05 0,0.04 0,0.04 0,0.04 -0.1,0.04 0,0.04 0,0.03 0,0.04 0,0.03 0,0.03 0,0.03 0,0.06 0,0.05 0,0.05 -0.1,0.04 0,0.04 0,0.03 -0.1,0.03 0,0.03 0,0.03 -0.1,0.02 0,0.01 -0.1,0.01 0,0.01 0,0.01 -0.1,0 0,0.01 0,0 -0.1,0.01 0,0 -0.1,0 0,0.01 0,0 -0.1,0 0,0 -0.1,0 0,0.01 -0.1,0 0,0 -0.1,0 0,0 -0.1,0 -0.1,0 0,0 h -2.8 c -1.3,0 -1.4,-0.05 -1.4,-1.34 v -28.21 c 0,-1.3 0.1,-1.34 1.4,-1.34 h 2.8 c 1.3,0 1.4,0.04 1.4,1.34 z"
           id="path4364" /><path
           style="fill:#000000;stroke-width:0"
           inkscape:connector-curvature="0"
           d="m 1181.9,100.19 0,0.06 0,0.06 0,0.06 0,0.05 0,0.06 0,0.05 0,0.05 0,0.05 0,0.04 0,0.05 0,0.04 0,0.04 0,0.04 -0.1,0.04 0,0.04 0,0.03 0,0.04 0,0.03 0,0.03 0,0.03 0,0.06 0,0.05 0,0.05 -0.1,0.04 0,0.04 0,0.03 -0.1,0.03 0,0.03 0,0.03 -0.1,0.02 0,0.01 -0.1,0.01 0,0.01 0,0.01 -0.1,0 0,0.01 0,0 -0.1,0.01 0,0 -0.1,0 0,0.01 0,0 -0.1,0 0,0 -0.1,0 0,0.01 -0.1,0 0,0 -0.1,0 0,0 -0.1,0 -0.1,0 0,0 h -2.8 c -1.3,0 -1.4,-0.05 -1.4,-1.35 V 71.992 c 0,-1.297 0.1,-1.344 1.4,-1.344 h 2.8 c 1.3,0 1.4,0.047 1.4,1.344 z"
           id="path4366" /><path
           style="fill:#000000;stroke-width:0"
           inkscape:connector-curvature="0"
           d="m 1181.9,70.316 0,0.06 0,0.058 0,0.057 0,0.054 0,0.053 0,0.051 0,0.05 0,0.047 0,0.047 0,0.044 0,0.043 0,0.042 0,0.04 -0.1,0.039 0,0.037 0,0.035 0,0.035 0,0.033 0,0.031 0,0.031 0,0.057 0,0.052 0,0.047 -0.1,0.043 0,0.038 0,0.035 -0.1,0.03 0,0.028 0,0.023 -0.1,0.021 0,0.018 -0.1,0.008 0,0.007 0,0.006 -0.1,0.006 0,0.006 0,0.005 -0.1,0.004 0,0.004 -0.1,0.003 0,0.003 0,0.003 -0.1,0.002 0,0.002 -0.1,0.002 0,10e-4 -0.1,0.001 0,0.001 -0.1,0 0,10e-4 -0.1,0 -0.1,0 0,0 h -2.8 c -1.3,0 -1.4,-0.047 -1.4,-1.344 V 42.113 c 0,-1.297 0.1,-1.343 1.4,-1.343 h 2.8 c 1.3,0 1.4,0.046 1.4,1.343 z"
           id="path4368" /><path
           style="fill:#000000;stroke-width:0"
           inkscape:connector-curvature="0"
           d="m 1181.9,40.438 0,0.059 0,0.058 0,0.057 0,0.054 0,0.053 0,0.051 0,0.05 0,0.048 0,0.046 0,0.044 0,0.044 0,0.041 0,0.04 -0.1,0.039 0,0.037 0,0.036 0,0.034 0,0.033 0,0.032 0,0.03 0,0.057 0,0.052 0,0.047 -0.1,0.043 0,0.038 0,0.035 -0.1,0.03 0,0.028 0,0.023 -0.1,0.021 0,0.018 -0.1,0.008 0,0.007 0,0.006 -0.1,0.006 0,0.006 0,0.005 -0.1,0.004 0,0.004 -0.1,0.003 0,0.003 0,0.003 -0.1,0.002 0,0.002 -0.1,0.002 0,10e-4 -0.1,0.001 0,10e-4 -0.1,0 0,10e-4 -0.1,0 -0.1,0 0,0 h -2.8 c -1.3,0 -1.4,-0.047 -1.4,-1.343 V 12.234 c 0,-1.296 0.1,-1.343 1.4,-1.343 h 2.8 c 1.3,0 1.4,0.047 1.4,1.343 z"
           id="path4370" /><path
           style="fill:#000000;stroke-width:0"
           inkscape:connector-curvature="0"
           d="m 1181.9,10.555 0,0.06 0,0.058 0,0.056 0,0.055 0,0.052 0,0.051 0,0.05 0,0.048 0,0.046 0,0.045 0,0.043 0,0.041 0,0.04 -0.1,0.039 0,0.037 0,0.036 0,0.034 0,0.033 0,0.032 0,0.03 0,0.057 0,0.052 0,0.047 -0.1,0.043 0,0.038 0,0.035 -0.1,0.031 0,0.027 0,0.024 -0.1,0.02 0,0.018 -0.1,0.008 0,0.007 0,0.007 -0.1,0.006 0,0.005 0,0.005 -0.1,0.004 0,0.004 -0.1,0.004 0,0.003 0,0.002 -0.1,0.002 0,0.002 -0.1,0.002 0,10e-4 -0.1,0.001 0,10e-4 -0.1,10e-4 0,0 -0.1,0 -0.1,0 0,0 h -2.8 c -1.3,0 -1.4,-0.046 -1.4,-1.343 v -28.203 c 0,-1.297 0.1,-1.344 1.4,-1.344 h 2.8 c 1.3,0 1.4,0.047 1.4,1.344 z"
           id="path4372" /><path
           style="fill:#000000;stroke-width:0"
           inkscape:connector-curvature="0"
           d="m 1181.9,-19.324 0,0.06 0,0.058 0,0.056 0,0.055 0,0.052 0,0.052 0,0.049 0,0.048 0,0.046 0,0.045 0,0.043 0,0.041 0,0.04 -0.1,0.039 0,0.037 0,0.036 0,0.034 0,0.033 0,0.032 0,0.03 0,0.057 0,0.052 0,0.047 -0.1,0.043 0,0.038 0,0.035 -0.1,0.031 0,0.027 0,0.024 -0.1,0.02 0,0.018 -0.1,0.008 0,0.007 0,0.007 -0.1,0.006 0,0.005 0,0.005 -0.1,0.004 0,0.004 -0.1,0.004 0,0.003 0,0.002 -0.1,0.002 0,0.002 -0.1,0.002 0,10e-4 -0.1,0.001 0,0.001 -0.1,10e-4 0,0 -0.1,0 -0.1,0 0,0.001 h -2.8 c -1.3,0 -1.4,-0.047 -1.4,-1.344 v -28.203 c 0,-1.297 0.1,-1.344 1.4,-1.344 h 2.8 c 1.3,0 1.4,0.047 1.4,1.344 z"
           id="path4374" /><path
           style="fill:#000000;stroke-width:0"
           inkscape:connector-curvature="0"
           d="m 1181.9,-49.203 0,0.06 0,0.058 0,0.056 0,0.055 0,0.053 0,0.051 0,0.049 0,0.048 0,0.046 0,0.045 0,0.043 0,0.041 0,0.041 -0.1,0.038 0,0.037 0,0.036 0,0.034 0,0.033 0,0.032 0,0.03 0,0.057 0,0.052 0,0.047 -0.1,0.043 0,0.039 0,0.034 -0.1,0.031 0,0.027 0,0.024 -0.1,0.02 0,0.018 -0.1,0.008 0,0.007 0,0.007 -0.1,0.006 0,0.005 0,0.005 -0.1,0.004 0,0.004 -0.1,0.004 0,0.003 0,0.002 -0.1,0.003 0,10e-4 -0.1,0.002 0,10e-4 -0.1,10e-4 0,0.001 -0.1,10e-4 0,0 -0.1,0 -0.1,10e-4 0,0 h -2.8 c -1.3,0 -1.4,-0.047 -1.4,-1.344 v -28.203 c 0,-1.297 0.1,-1.344 1.4,-1.344 h 2.8 c 1.3,0 1.4,0.047 1.4,1.344 z"
           id="path4376" /><path
           style="fill:#000000;stroke-width:0"
           inkscape:connector-curvature="0"
           d="m 1177.7,-77.797 -0.1,0 -0.1,0 0,0 -0.1,-0.001 -0.1,-0.001 -0.1,-0.002 -0.1,-0.002 0,-0.002 -0.1,-0.004 0,-0.005 -0.1,-0.005 -0.1,-0.007 0,-0.008 -0.1,-0.009 0,-0.01 0,-0.012 -0.1,-0.014 0,-0.015 0,-0.017 -0.1,-0.019 0,-0.021 0,-0.024 0,-0.025 -0.1,-0.028 0,-0.03 0,-0.032 0,-0.035 0,-0.038 0,-0.041 0,-0.044 -0.1,-0.046 0,-0.05 v -1.937 c 0,-30.439 5.5,-48.279 7,-53.309 3.4,-11.07 8.9,-22.72 17.3,-32.99 0.7,-0.89 0.9,-1.14 1.1,-1.23 0.1,-0.07 0.1,-0.11 0.9,-0.11 0.8,0 1.2,0 1.2,0.5 0,0.11 0,0.2 -0.3,0.65 -16.6,23.02 -21.6,50.72 -21.6,88.286 0,0.687 -0.3,0.687 -1.4,0.687 z"
           id="path4378" /><path
           style="fill:#000000;stroke-width:0"
           inkscape:connector-curvature="0"
           d="m 1265.6,329.4 h 4.7 c 1,0 1.5,0 1.5,1 0,0.55 -0.5,0.55 -1.4,0.55 h -4.4 c 1.8,7.08 2,8.08 2,8.37 0,0.85 -0.6,1.35 -1.4,1.35 -0.2,0 -1.6,-0.05 -2,-1.8 l -1.9,-7.92 h -4.7 c -1,0 -1.5,0 -1.5,-0.94 0,-0.61 0.4,-0.61 1.4,-0.61 h 4.3 c -3.5,-14.14 -3.7,-14.98 -3.7,-15.89 0,-2.69 1.8,-4.58 4.5,-4.58 5.1,0 8,7.27 8,7.68 0,0.5 -0.4,0.5 -0.6,0.5 -0.5,0 -0.5,-0.16 -0.8,-0.71 -2.1,-5.17 -4.8,-6.37 -6.4,-6.37 -1.1,0 -1.6,0.65 -1.6,2.29 0,1.19 0.1,1.55 0.3,2.39 z"
           id="path4380" /><path
           style="fill:#000000;stroke-width:0"
           inkscape:connector-curvature="0"
           d="m 1290.3,348.68 0,0.05 0,0.04 0,0.05 0,0.04 0,0.04 0,0.04 0,0.04 0,0.04 0.1,0.07 0,0.07 0,0.07 0,0.05 0,0.06 0.1,0.05 0,0.05 0,0.05 0,0.04 0,0.03 0.1,0.04 0,0.03 0,0.03 0.1,0.03 0,0.02 0,0.02 0.1,0.02 0,0.02 0,0.01 0.1,0.02 0,0.01 0.1,0.01 0,0.01 0.1,0.01 0,0.01 0.1,0 0.1,0.01 0,0.01 c 0.2,0.03 1.4,0.03 2.1,0.03 2.2,0 3.1,0 3.9,-0.28 1.6,-0.49 1.7,-1.5 1.7,-2.75 0,-0.55 0,-1 -0.3,-2.82 l 0,-0.39 c 0,-0.34 0.2,-0.51 0.5,-0.51 0.6,0 0.6,0.31 0.7,0.86 l 0.9,6.65 c 0,0.5 -0.4,0.5 -1,0.5 h -21.4 c -0.9,0 -1,0 -1.2,-0.73 l -2.2,-6.17 c 0,-0.14 -0.2,-0.46 -0.2,-0.63 0,-0.14 0.1,-0.48 0.6,-0.48 0.5,0 0.5,0.17 0.8,0.83 2,5.57 3.1,5.92 8.4,5.92 h 1.5 c 1,0 1.1,-0.03 1.1,-0.35 0,-0.03 0,-0.2 -0.2,-0.73 l -4.6,-18.33 c -0.3,-1.28 -0.4,-1.64 -4.1,-1.64 -1.2,0 -1.5,0 -1.5,-0.76 0,-0.1 0,-0.49 0.6,-0.49 0.9,0 2,0.11 2.9,0.11 1,0 2.1,0.03 3,0.03 1,0 2.2,0 3.2,-0.03 0.9,-0.05 2,-0.11 2.9,-0.11 0.3,0 0.8,0 0.8,0.77 0,0.48 -0.3,0.48 -1.4,0.48 -0.7,0 -1.4,0.05 -2,0.08 -1.2,0.09 -1.3,0.23 -1.3,0.66 0,0.25 0,0.31 0.2,0.79 z"
           id="path4382" /><path
           style="fill:#000000;stroke-width:0"
           inkscape:connector-curvature="0"
           d="m 1285,319.28 0,0.04 0,0.04 0,0.05 0,0.04 0,0.03 0,0.04 0,0.04 0,0.03 0,0.04 0,0.03 0,0.03 0,0.03 0,0.03 0,0.03 0,0.03 0,0.02 0,0.03 0,0.02 0,0.03 -0.1,0.02 0,0.04 0,0.04 0,0.03 0,0.03 0,0.03 -0.1,0.03 0,0.02 0,0.02 -0.1,0.02 0,0.01 0,0.01 -0.1,0.02 0,0 0,0 0,0.01 -0.1,0 0,0.01 0,0 -0.1,0 0,0 0,0 -0.1,0.01 0,0 0,0 -0.1,0 0,0 0,0 -0.1,0 0,0 -0.1,0 0,0 -0.1,0 c -2.2,-2.2 -5.3,-2.23 -6.8,-2.23 v -1.25 c 0.9,0 3.2,0 5.1,0.97 v -17.77 c 0,-1.16 0,-1.61 -3.5,-1.61 h -1.3 v -1.25 c 0.6,0.03 4.9,0.14 6.2,0.14 1.1,0 5.4,-0.11 6.2,-0.14 v 1.25 h -1.3 c -3.5,0 -3.5,0.45 -3.5,1.61 z"
           id="path4384" /><path
           style="fill:#000000;stroke-width:0"
           inkscape:connector-curvature="0"
           d="m 1300.5,297.68 0,-0.36 0,-0.37 -0.1,-0.38 0,-0.38 0,-0.19 -0.1,-0.2 0,-0.2 -0.1,-0.19 0,-0.2 -0.1,-0.2 0,-0.2 -0.1,-0.2 -0.1,-0.2 -0.1,-0.21 0,-0.2 -0.1,-0.21 -0.1,-0.2 -0.2,-0.21 -0.1,-0.2 -0.1,-0.21 -0.2,-0.21 -0.1,-0.2 -0.2,-0.21 -0.1,-0.21 -0.2,-0.21 -0.2,-0.21 -0.2,-0.2 -0.2,-0.21 c -0.2,-0.14 -0.3,-0.25 -0.3,-0.42 0,-0.25 0.3,-0.49 0.5,-0.49 0.5,0 3.4,2.78 3.4,6.92 0,2.18 -0.8,3.8 -2.4,3.8 -1.2,0 -2,-0.91 -2,-1.98 0,-1.11 0.8,-2.02 2,-2.02 0.9,0 1.4,0.56 1.5,0.56 z"
           id="path4386" /><path
           style="fill:#000000;stroke-width:0"
           inkscape:connector-curvature="0"
           d="m 1316.7,319.28 0,0.04 0,0.04 0,0.05 0,0.04 0,0.03 0,0.04 0,0.04 0,0.03 0,0.04 0,0.03 0,0.03 0,0.03 0,0.03 0,0.03 -0.1,0.03 0,0.02 0,0.03 0,0.02 0,0.05 0,0.04 0,0.04 0,0.03 0,0.03 -0.1,0.03 0,0.03 0,0.02 0,0.02 -0.1,0.02 0,0.01 -0.1,0.01 0,0.02 0,0 0,0 -0.1,0.01 0,0 0,0.01 -0.1,0 0,0 0,0 0,0 -0.1,0.01 0,0 -0.1,0 0,0 0,0 -0.1,0 0,0 0,0 -0.1,0 0,0 -0.1,0 c -2.2,-2.2 -5.4,-2.23 -6.8,-2.23 v -1.25 c 0.8,0 3.1,0 5,0.97 v -17.77 c 0,-1.16 0,-1.61 -3.4,-1.61 h -1.4 v -1.25 c 0.7,0.03 4.9,0.14 6.2,0.14 1.1,0 5.5,-0.11 6.3,-0.14 v 1.25 h -1.3 c -3.5,0 -3.5,0.45 -3.5,1.61 z"
           id="path4388" /><path
           style="fill:#000000;stroke-width:0"
           inkscape:connector-curvature="0"
           d="m 1294,257.88 0,0.13 0,0.14 0,0.13 0,0.13 0,0.12 -0.1,0.13 0,0.12 -0.1,0.12 0,0.11 -0.1,0.12 0,0.11 -0.1,0.11 -0.1,0.1 -0.1,0.1 0,0.1 -0.1,0.09 -0.1,0.09 -0.1,0.08 -0.1,0.08 -0.1,0.07 -0.1,0.07 -0.1,0.07 -0.2,0.06 -0.1,0.05 -0.1,0.05 -0.1,0.04 -0.1,0.04 -0.2,0.03 -0.1,0.02 -0.1,0.02 -0.2,0.01 -0.1,0 c -1.4,0 -2.6,-1.2 -2.6,-2.64 0,-1.44 1.2,-2.64 2.6,-2.64 1.5,0 2.6,1.2 2.6,2.64 z"
           id="path4390" /><path
           style="fill:#000000;stroke-width:0"
           inkscape:connector-curvature="0"
           d="m 1294,237.96 0,0.14 0,0.13 0,0.13 0,0.13 0,0.12 -0.1,0.13 0,0.12 -0.1,0.12 0,0.12 -0.1,0.11 0,0.11 -0.1,0.11 -0.1,0.1 -0.1,0.1 0,0.1 -0.1,0.09 -0.1,0.09 -0.1,0.08 -0.1,0.08 -0.1,0.08 -0.1,0.06 -0.1,0.07 -0.2,0.06 -0.1,0.05 -0.1,0.05 -0.1,0.04 -0.1,0.04 -0.2,0.03 -0.1,0.02 -0.1,0.02 -0.2,0.01 -0.1,0 c -1.4,0 -2.6,-1.2 -2.6,-2.64 0,-1.44 1.2,-2.64 2.6,-2.64 1.5,0 2.6,1.2 2.6,2.64 z"
           id="path4392" /><path
           style="fill:#000000;stroke-width:0"
           inkscape:connector-curvature="0"
           d="m 1294,217.92 0,0.14 0,0.13 0,0.13 0,0.13 0,0.12 -0.1,0.13 0,0.12 -0.1,0.12 0,0.12 -0.1,0.11 0,0.11 -0.1,0.11 -0.1,0.1 -0.1,0.1 0,0.1 -0.1,0.09 -0.1,0.09 -0.1,0.08 -0.1,0.08 -0.1,0.08 -0.1,0.07 -0.1,0.06 -0.2,0.06 -0.1,0.05 -0.1,0.05 -0.1,0.04 -0.1,0.04 -0.2,0.03 -0.1,0.02 -0.1,0.02 -0.2,0.01 -0.1,0 c -1.4,0 -2.6,-1.2 -2.6,-2.64 0,-1.44 1.2,-2.64 2.6,-2.64 1.5,0 2.6,1.2 2.6,2.64 z"
           id="path4394" /><path
           style="fill:#000000;stroke-width:0"
           inkscape:connector-curvature="0"
           d="m 1255.3,175.44 h 4.6 c 1,0 1.5,0 1.5,1 0,0.55 -0.5,0.55 -1.3,0.55 h -4.4 c 1.7,7.08 2,8.08 2,8.37 0,0.85 -0.6,1.35 -1.4,1.35 -0.2,0 -1.6,-0.05 -2,-1.8 l -2,-7.92 h -4.7 c -1,0 -1.5,0 -1.5,-0.94 0,-0.61 0.5,-0.61 1.5,-0.61 h 4.3 c -3.6,-14.14 -3.8,-14.98 -3.8,-15.89 0,-2.69 1.9,-4.58 4.6,-4.58 5.1,0 7.9,7.27 7.9,7.68 0,0.5 -0.4,0.5 -0.5,0.5 -0.5,0 -0.5,-0.16 -0.8,-0.71 -2.1,-5.17 -4.8,-6.37 -6.5,-6.37 -1,0 -1.5,0.65 -1.5,2.29 0,1.19 0.1,1.55 0.3,2.39 z"
           id="path4396" /><path
           style="fill:#000000;stroke-width:0"
           inkscape:connector-curvature="0"
           d="m 1279.9,194.6 0.1,0.04 0,0.05 0,0.04 0,0.05 0,0.04 0,0.04 0,0.04 0,0.04 0,0.07 0.1,0.07 0,0.06 0,0.06 0,0.06 0,0.05 0.1,0.05 0,0.04 0,0.04 0,0.04 0.1,0.04 0,0.03 0,0.03 0,0.02 0.1,0.03 0,0.02 0,0.02 0.1,0.02 0,0.01 0.1,0.02 0,0.01 0.1,0.01 0,0.01 0.1,0.01 0,0.01 0.1,0 0,0.01 0.1,0.01 c 0.2,0.03 1.4,0.03 2.1,0.03 2.1,0 3,0 3.9,-0.28 1.6,-0.49 1.6,-1.5 1.6,-2.75 0,-0.55 0,-1 -0.2,-2.82 l -0.1,-0.39 c 0,-0.34 0.3,-0.51 0.6,-0.51 0.5,0 0.6,0.31 0.7,0.86 l 0.9,6.65 c 0,0.5 -0.4,0.5 -1,0.5 h -21.4 c -0.9,0 -1,0 -1.2,-0.73 l -2.2,-6.17 c -0.1,-0.14 -0.2,-0.46 -0.2,-0.63 0,-0.14 0.1,-0.48 0.6,-0.48 0.5,0 0.5,0.17 0.7,0.83 2,5.57 3.2,5.92 8.5,5.92 h 1.5 c 1,0 1,-0.03 1,-0.35 0,-0.03 0,-0.2 -0.1,-0.73 l -4.6,-18.33 c -0.3,-1.28 -0.4,-1.64 -4.1,-1.64 -1.2,0 -1.6,0 -1.6,-0.77 0,-0.09 0.1,-0.48 0.7,-0.48 0.9,0 2,0.11 2.9,0.11 1,0 2.1,0.03 3,0.03 1,0 2.2,0 3.2,-0.03 0.9,-0.05 2,-0.11 2.9,-0.11 0.3,0 0.8,0 0.8,0.77 0,0.48 -0.3,0.48 -1.4,0.48 -0.7,0 -1.4,0.05 -2.1,0.08 -1.1,0.09 -1.2,0.23 -1.2,0.65 0,0.25 0,0.32 0.1,0.8 z"
           id="path4398" /><path
           style="fill:#000000;stroke-width:0"
           inkscape:connector-curvature="0"
           d="m 1274.7,163.52 0,0.04 0,0.04 0,0.04 0,0.04 0,0.04 0,0.04 0,0.04 0,0.03 0,0.04 0,0.03 0,0.03 0,0.03 0,0.03 0,0.03 -0.1,0.03 0,0.02 0,0.03 0,0.02 0,0.02 0,0.03 0,0.04 0,0.04 0,0.03 0,0.03 -0.1,0.03 0,0.03 0,0.02 0,0.02 -0.1,0.01 0,0.02 -0.1,0.01 0,0.01 0,0.01 0,0 -0.1,0.01 0,0 0,0 0,0.01 -0.1,0 0,0 0,0 -0.1,0 0,0.01 0,0 -0.1,0 0,0 -0.1,0 0,0 0,0 -0.1,0 0,0 -0.1,0 c -2.2,-2.2 -5.4,-2.23 -6.8,-2.23 v -1.25 c 0.8,0 3.1,0 5,0.96 v -17.76 c 0,-1.16 0,-1.61 -3.4,-1.61 h -1.3 v -1.25 c 0.6,0.03 4.8,0.14 6.1,0.14 1.1,0 5.5,-0.11 6.3,-0.14 v 1.25 h -1.3 c -3.5,0 -3.5,0.45 -3.5,1.61 z"
           id="path4400" /><path
           style="fill:#000000;stroke-width:0"
           inkscape:connector-curvature="0"
           d="m 1290.2,141.92 0,-0.36 -0.1,-0.37 0,-0.38 0,-0.38 -0.1,-0.2 0,-0.19 0,-0.2 -0.1,-0.19 0,-0.2 -0.1,-0.2 0,-0.2 -0.1,-0.2 -0.1,-0.21 -0.1,-0.2 -0.1,-0.2 -0.1,-0.21 -0.1,-0.2 -0.1,-0.21 -0.1,-0.2 -0.1,-0.21 -0.2,-0.21 -0.1,-0.21 -0.2,-0.2 -0.2,-0.21 -0.1,-0.21 -0.2,-0.21 -0.2,-0.2 -0.3,-0.21 c -0.1,-0.14 -0.2,-0.25 -0.2,-0.43 0,-0.24 0.3,-0.48 0.5,-0.48 0.5,0 3.4,2.78 3.4,6.92 0,2.17 -0.8,3.8 -2.4,3.8 -1.2,0 -2,-0.91 -2,-1.98 0,-1.11 0.8,-2.02 2,-2.02 0.9,0 1.4,0.56 1.5,0.56 z"
           id="path4402" /><path
           style="fill:#000000;stroke-width:0"
           inkscape:connector-curvature="0"
           d="m 1305.6,164.5 0,0 0,0.01 0,0 0,0.01 0,0 0,0.01 0,0 0,0.01 0,0.01 0,0 0,0.02 0,0.02 0,0.02 0,0.02 0,0.02 0,0.02 0,0.02 0,0.03 0,0.02 0.1,0.05 0,0.04 0,0.02 0,0.03 0,0.02 0,0.02 0,0.02 0,0.02 0,0.01 0,0.02 0,0.01 0,0 0,0.01 0,0.01 0,0 0,0.01 0,0 0,0.01 0,0 0,0 0,0.01 0,0 c 0,0.18 -0.1,0.5 -0.5,0.5 -0.7,0 -3.6,-0.28 -4.5,-0.36 -0.3,-0.03 -0.8,-0.07 -0.8,-0.8 0,-0.48 0.5,-0.48 0.9,-0.48 1.7,0 1.7,-0.25 1.7,-0.53 0,-0.24 -0.1,-0.46 -0.1,-0.77 l -4.9,-19.72 c -0.2,-0.62 -0.2,-0.69 -0.2,-0.77 0,-0.51 0.4,-1.1 1.2,-1.1 0.9,0 1.4,0.68 1.6,1.45 0,0.14 1.5,6.28 1.7,6.76 2.4,-0.25 4.4,-1.04 4.4,-2.85 0,-0.18 0,-0.35 0,-0.69 -0.2,-0.53 -0.2,-0.71 -0.2,-1.1 0,-2.47 2.1,-3.57 3.7,-3.57 3.4,0 4.5,5.29 4.5,5.32 0,0.46 -0.5,0.46 -0.6,0.46 -0.5,0 -0.5,-0.18 -0.7,-0.85 -0.4,-1.5 -1.4,-3.97 -3.1,-3.97 -0.9,0 -1.2,0.88 -1.2,1.82 0,0.59 0,0.65 0.2,1.56 0.1,0.11 0.2,0.7 0.2,1.09 0,3.1 -4.2,3.58 -5.7,3.69 1.1,0.63 2.3,1.78 2.9,2.3 1.8,1.67 3.6,3.31 5.5,3.31 0.4,0 0.9,-0.11 1.2,-0.45 -1.5,-0.25 -1.8,-1.42 -1.8,-1.96 0,-0.76 0.5,-1.28 1.3,-1.28 1,0 2,0.77 2,2.22 0,1.16 -0.8,2.44 -2.6,2.44 -2,0 -3.8,-1.42 -5.6,-3.06 -1.5,-1.39 -2.6,-2.47 -4.1,-3.07 z"
           id="path4404" /><path
           style="fill:#000000;stroke-width:0"
           inkscape:connector-curvature="0"
           d="m 1325.7,152.29 0,0.03 0,0.03 0,0.04 0,0.03 0,0.03 0,0.03 0,0.03 0,0.02 0,0.03 0,0.02 0,0.03 0,0.02 0,0.03 0,0.02 0,0.02 0,0.02 0,0.02 0,0.02 0,0.01 0,0.02 0,0.03 0,0.03 -0.1,0.03 0,0.02 0,0.02 0,0.02 0,0.02 -0.1,0.01 0,0.01 0,0.02 -0.1,0 0,0.01 0,0.01 -0.1,0 0,0 0,0.01 0,0 -0.1,0 0,0 0,0 0,0 -0.1,0 0,0 0,0 -0.1,0 0,0 0,0 -0.1,0 0,0 0,0.01 -0.1,0 c -1.7,-1.6 -4.5,-1.6 -5,-1.6 h -0.4 v -1.09 h 0.4 c 0.6,0 2.2,0.06 3.6,0.69 v -12.46 c 0,-0.76 0,-1.04 -2.6,-1.04 h -1.3 v -1.1 c 1.4,0.1 3.6,0.1 5.1,0.1 1.4,0 3.6,0 5,-0.1 v 1.1 h -1.2 c -2.7,0 -2.7,0.28 -2.7,1.04 z"
           id="path4406" /><polyline
           style="fill:#000000;fill-rule:nonzero;stroke-width:0"
           points="1206,133 1377.8,133 1377.8,135.04 1206,135.04 "
           id="polyline4408" /><path
           style="fill:#000000;stroke-width:0"
           inkscape:connector-curvature="0"
           d="m 1294,100.08 0,0.14 0,0.13 0,0.13 0,0.13 0,0.13 -0.1,0.12 0,0.12 -0.1,0.12 0,0.12 -0.1,0.11 0,0.11 -0.1,0.11 -0.1,0.1 -0.1,0.1 0,0.1 -0.1,0.09 -0.1,0.09 -0.1,0.08 -0.1,0.08 -0.1,0.08 -0.1,0.07 -0.1,0.06 -0.2,0.06 -0.1,0.05 -0.1,0.05 -0.1,0.04 -0.1,0.04 -0.2,0.03 -0.1,0.02 -0.1,0.02 -0.2,0.01 -0.1,0 c -1.4,0 -2.6,-1.2 -2.6,-2.64 0,-1.435 1.2,-2.639 2.6,-2.639 1.5,0 2.6,1.204 2.6,2.639 z"
           id="path4410" /><path
           style="fill:#000000;stroke-width:0"
           inkscape:connector-curvature="0"
           d="m 1294,80.16 0,0.134 0,0.133 0,0.131 0,0.128 0,0.127 -0.1,0.125 0,0.122 -0.1,0.119 0,0.117 -0.1,0.114 0,0.11 -0.1,0.107 -0.1,0.104 -0.1,0.1 0,0.096 -0.1,0.093 -0.1,0.088 -0.1,0.083 -0.1,0.079 -0.1,0.074 -0.1,0.07 -0.1,0.064 -0.2,0.059 -0.1,0.053 -0.1,0.048 -0.1,0.042 -0.1,0.036 -0.2,0.03 -0.1,0.024 -0.1,0.017 -0.2,0.01 -0.1,0.004 c -1.4,0 -2.6,-1.203 -2.6,-2.641 0,-1.437 1.2,-2.64 2.6,-2.64 1.5,0 2.6,1.203 2.6,2.64 z"
           id="path4412" /><path
           style="fill:#000000;stroke-width:0"
           inkscape:connector-curvature="0"
           d="m 1294,60.242 0,0.134 0,0.133 0,0.131 0,0.128 0,0.127 -0.1,0.125 0,0.122 -0.1,0.119 0,0.117 -0.1,0.114 0,0.11 -0.1,0.107 -0.1,0.104 -0.1,0.1 0,0.096 -0.1,0.093 -0.1,0.088 -0.1,0.083 -0.1,0.079 -0.1,0.074 -0.1,0.07 -0.1,0.064 -0.2,0.059 -0.1,0.053 -0.1,0.048 -0.1,0.042 -0.1,0.036 -0.2,0.03 -0.1,0.024 -0.1,0.017 -0.2,0.01 -0.1,0.004 c -1.4,0 -2.6,-1.203 -2.6,-2.641 0,-1.437 1.2,-2.64 2.6,-2.64 1.5,0 2.6,1.203 2.6,2.64 z"
           id="path4414" /><polyline
           style="fill:#000000;fill-rule:nonzero;stroke-width:0"
           points="1206,38 1377.8,38 1377.8,40.039 1206,40.039 "
           id="polyline4416" /><path
           style="fill:#000000;stroke-width:0"
           inkscape:connector-curvature="0"
           d="m 1257.9,15.723 h 4.7 c 1,0 1.5,0 1.5,1 0,0.547 -0.5,0.547 -1.4,0.547 h -4.4 c 1.8,7.078 2,8.078 2,8.375 0,0.843 -0.5,1.343 -1.4,1.343 -0.1,0 -1.5,-0.047 -2,-1.797 L 1255,17.27 h -4.7 c -1,0 -1.5,0 -1.5,-0.938 0,-0.609 0.4,-0.609 1.4,-0.609 h 4.4 c -3.6,-14.141 -3.8,-14.98472 -3.8,-15.89097 0,-2.68753 1.9,-4.57813 4.6,-4.57813 5,0 7.9,7.2656 7.9,7.6719 0,0.5 -0.4,0.5 -0.6,0.5 -0.5,0 -0.5,-0.1563 -0.8,-0.7031 -2.1,-5.1719 -4.7,-6.375 -6.4,-6.375 -1.1,0 -1.6,0.6562 -1.6,2.2968 0,1.18753 0.1,1.54691 0.3,2.3907 z"
           id="path4418" /><path
           style="fill:#000000;stroke-width:0"
           inkscape:connector-curvature="0"
           d="m 1282.6,35 0,0.047 0,0.046 0,0.044 0,0.043 0,0.042 0,0.04 0.1,0.04 0,0.038 0,0.073 0,0.068 0,0.064 0,0.06 0.1,0.056 0,0.052 0,0.048 0,0.045 0,0.041 0.1,0.038 0,0.034 0,0.032 0,0.029 0.1,0.027 0,0.023 0,0.022 0.1,0.02 0,0.017 0.1,0.016 0,0.013 0,0.013 0.1,0.011 0,0.009 0.1,0.009 0.1,0.008 0,0.007 0.1,0.006 0.1,0.007 c 0.1,0.031 1.4,0.031 2.1,0.031 2.1,0 3,0 3.8,-0.281 1.6,-0.485 1.7,-1.5 1.7,-2.75 0,-0.547 0,-1 -0.2,-2.813 l -0.1,-0.391 c 0,-0.343 0.2,-0.515 0.6,-0.515 0.5,0 0.6,0.312 0.6,0.859 l 1,6.656 c 0,0.5 -0.4,0.5 -1.1,0.5 h -21.4 c -0.9,0 -0.9,0 -1.2,-0.734 l -2.2,-6.172 c 0,-0.14 -0.2,-0.453 -0.2,-0.625 0,-0.141 0.1,-0.484 0.6,-0.484 0.5,0 0.5,0.172 0.8,0.828 2,5.578 3.1,5.922 8.4,5.922 h 1.5 c 1,0 1.1,-0.031 1.1,-0.344 0,-0.031 0,-0.203 -0.2,-0.734 l -4.6,-18.329 c -0.3,-1.281 -0.4,-1.64 -4,-1.64 -1.3,0 -1.6,0 -1.6,-0.766 0,-0.094 0.1,-0.484 0.6,-0.484 1,0 2,0.109 3,0.109 1,0 2,0.031 3,0.031 1,0 2.1,0 3.1,-0.031 1,-0.047 2,-0.109 2.9,-0.109 0.3,0 0.9,0 0.9,0.766 0,0.484 -0.4,0.484 -1.5,0.484 -0.7,0 -1.3,0.047 -2,0.078 -1.2,0.094 -1.3,0.234 -1.3,0.656 0,0.25 0,0.313 0.2,0.797 z"
           id="path4420" /><path
           style="fill:#000000;stroke-width:0"
           inkscape:connector-curvature="0"
           d="m 1280.8,-13.731 0,-0.067 -0.1,-0.07 0,-0.072 0,-0.074 0,-0.076 0,-0.077 -0.1,-0.158 0,-0.161 -0.1,-0.161 0,-0.159 0,-0.078 0,-0.077 -0.1,-0.075 0,-0.074 0,-0.071 0,-0.069 0,-0.067 0,-0.063 -0.1,-0.06 0,-0.057 0,-0.053 0,-0.049 0,-0.045 0,-0.04 0,-0.035 0,-0.03 0,-0.025 0,-0.019 c 0,-0.766 0.6,-1.109 1.1,-1.109 0.7,0 1.2,0.453 1.4,0.765 0.2,0.313 0.5,1.422 0.6,2.156 0.2,0.657 0.6,2.266 0.8,3.141 0.2,0.766 0.4,1.5314 0.6,2.3283 0.4,1.5 0.4,1.5625 1.1,2.6562 1.1,1.7032 2.9,3.6875 5.5,3.6875 2,0 2.1,-1.6093 2.1,-2.4375 0,-2.0937 -1.5,-5.9535 -2.1,-7.4215 -0.3,-0.985 -0.5,-1.297 -0.5,-1.891 0,-1.844 1.6,-2.984 3.3,-2.984 3.5,0 5.1,4.796 5.1,5.328 0,0.453 -0.5,0.453 -0.6,0.453 -0.5,0 -0.5,-0.203 -0.6,-0.594 -0.9,-2.781 -2.3,-4.219 -3.7,-4.219 -0.8,0 -0.9,0.485 -0.9,1.219 0,0.797 0.2,1.25 0.8,2.828 0.4,1.078 1.8,4.7659 1.8,6.719 0,0.5625 0,2.0313 -1.3,3.0313 -0.6,0.4531 -1.6,0.9375 -3.2,0.9375 -3.1,0 -5,-2.0469 -6.2,-3.5156 -0.2,2.9687 -2.7,3.5156 -4.5,3.5156 -2.9,0 -4.8,-1.7656 -5.9,-3.1563 -0.2,2.3907 -2.3,3.1563 -3.7,3.1563 -1.5,0 -2.3,-1.0781 -2.8,-1.875 -0.7,-1.2813 -1.2,-3.2813 -1.2,-3.4531 0,-0.4532 0.5,-0.4532 0.6,-0.4532 0.5,0 0.5,0.1094 0.7,1.0469 0.6,2.0625 1.2,3.7656 2.6,3.7656 0.9,0 1.1,-0.7656 1.1,-1.7031 0,-0.6719 -0.3,-1.9531 -0.5,-2.8906 -0.3,-0.9531 -0.6,-2.375 -0.8,-3.1406 l -1.1,-4.4687 c -0.1,-0.438 -0.3,-1.313 -0.3,-1.422 0,-0.766 0.6,-1.109 1.1,-1.109 0.7,0 1.2,0.453 1.4,0.765 0.2,0.313 0.5,1.422 0.6,2.156 0.2,0.657 0.6,2.266 0.8,3.141 0.2,0.766 0.4,1.5314 0.6,2.3283 0.3,1.4375 0.4,1.7031 1.4,3.1406 1,1.3906 2.7,3.2031 5.3,3.2031 2,0 2,-1.7812 2,-2.4375 0,-0.875 -0.1,-1.3281 -0.6,-3.2812 z"
           id="path4422" /><path
           style="fill:#000000;stroke-width:0"
           inkscape:connector-curvature="0"
           d="m 1308.4,-15.996 0,-0.364 0,-0.371 0,-0.377 -0.1,-0.383 0,-0.194 -0.1,-0.194 0,-0.196 0,-0.198 -0.1,-0.198 0,-0.2 -0.1,-0.2 -0.1,-0.201 -0.1,-0.202 0,-0.203 -0.1,-0.204 -0.1,-0.205 -0.1,-0.205 -0.1,-0.205 -0.2,-0.207 -0.1,-0.206 -0.1,-0.207 -0.2,-0.208 -0.2,-0.207 -0.1,-0.208 -0.2,-0.208 -0.2,-0.208 -0.2,-0.208 -0.2,-0.208 c -0.2,-0.141 -0.3,-0.25 -0.3,-0.422 0,-0.25 0.3,-0.484 0.5,-0.484 0.5,0 3.5,2.781 3.5,6.922 0,2.171 -0.9,3.796 -2.5,3.796 -1.1,0 -2,-0.906 -2,-1.984 0,-1.109 0.8,-2.016 2.1,-2.016 0.8,0 1.3,0.563 1.4,0.563 z"
           id="path4424" /><path
           style="fill:#000000;stroke-width:0"
           inkscape:connector-curvature="0"
           d="m 1324.6,5.5977 0,0.044 0,0.0426 0,0.0414 0,0.0401 0,0.0388 0,0.0376 0,0.0363 0,0.0351 0,0.0339 0,0.0328 0,0.0316 0,0.0305 0,0.0294 0,0.0283 0,0.0273 0,0.0262 0,0.0251 0,0.0242 0,0.0232 -0.1,0.0222 0,0.0416 0,0.0381 0,0.0346 0,0.0313 0,0.0281 -0.1,0.0253 0,0.0224 0,0.0198 -0.1,0.0173 0,0.0151 0,0.0129 -0.1,0.0109 0,0.0048 0,0.0043 -0.1,0.0039 0,0.0036 0,0.0031 0,0.0028 -0.1,0.0025 0,0.0022 0,0.0018 -0.1,0.0016 0,0.0014 0,0.0011 -0.1,9e-4 0,8e-4 0,5e-4 -0.1,4e-4 0,3e-4 -0.1,2e-4 0,10e-5 -0.1,0 c -2.2,-2.2031 -5.3,-2.2343 -6.8,-2.2343 v -1.25 c 0.9,0 3.2,0 5.1,0.9687 V -13.699 c 0,-1.157 0,-1.61 -3.5,-1.61 h -1.3 v -1.25 c 0.6,0.032 4.9,0.141 6.2,0.141 1,0 5.4,-0.109 6.2,-0.141 v 1.25 h -1.3 c -3.5,0 -3.5,0.453 -3.5,1.61 z"
           id="path4426" /><path
           style="fill:#000000;stroke-width:0"
           inkscape:connector-curvature="0"
           d="m 1294,-55.801 0,0.134 0,0.133 0,0.131 0,0.128 0,0.127 -0.1,0.125 0,0.122 -0.1,0.119 0,0.117 -0.1,0.114 0,0.11 -0.1,0.107 -0.1,0.104 -0.1,0.1 0,0.096 -0.1,0.093 -0.1,0.088 -0.1,0.083 -0.1,0.079 -0.1,0.074 -0.1,0.07 -0.1,0.064 -0.2,0.059 -0.1,0.053 -0.1,0.048 -0.1,0.042 -0.1,0.036 -0.2,0.03 -0.1,0.024 -0.1,0.017 -0.2,0.01 -0.1,0.004 c -1.4,0 -2.6,-1.203 -2.6,-2.641 0,-1.437 1.2,-2.64 2.6,-2.64 1.5,0 2.6,1.203 2.6,2.64 z"
           id="path4428" /><path
           style="fill:#000000;stroke-width:0"
           inkscape:connector-curvature="0"
           d="m 1294,-75.84 0,0.134 0,0.133 0,0.131 0,0.128 0,0.127 -0.1,0.125 0,0.122 -0.1,0.119 0,0.117 -0.1,0.114 0,0.11 -0.1,0.107 -0.1,0.104 -0.1,0.1 0,0.096 -0.1,0.093 -0.1,0.088 -0.1,0.083 -0.1,0.079 -0.1,0.074 -0.1,0.07 -0.1,0.064 -0.2,0.059 -0.1,0.053 -0.1,0.048 -0.1,0.042 -0.1,0.036 -0.2,0.03 -0.1,0.024 -0.1,0.017 -0.2,0.01 -0.1,0.004 c -1.4,0 -2.6,-1.203 -2.6,-2.641 0,-1.437 1.2,-2.64 2.6,-2.64 1.5,0 2.6,1.203 2.6,2.64 z"
           id="path4430" /><path
           style="fill:#000000;stroke-width:0"
           inkscape:connector-curvature="0"
           d="m 1294,-95.758 0,0.134 0,0.133 0,0.131 0,0.128 0,0.127 -0.1,0.125 0,0.122 -0.1,0.119 0,0.117 -0.1,0.114 0,0.11 -0.1,0.107 -0.1,0.104 -0.1,0.1 0,0.096 -0.1,0.093 -0.1,0.088 -0.1,0.083 -0.1,0.079 -0.1,0.074 -0.1,0.07 -0.1,0.064 -0.2,0.059 -0.1,0.053 -0.1,0.048 -0.1,0.042 -0.1,0.036 -0.2,0.03 -0.1,0.024 -0.1,0.017 -0.2,0.01 -0.1,0.004 c -1.4,0 -2.6,-1.203 -2.6,-2.641 0,-1.437 1.2,-2.64 2.6,-2.64 1.5,0 2.6,1.203 2.6,2.64 z"
           id="path4432" /><path
           style="fill:#000000;stroke-width:0"
           inkscape:connector-curvature="0"
           d="m 1240.6,-138.24 h 4.7 c 1,0 1.5,0 1.5,1 0,0.55 -0.5,0.55 -1.4,0.55 h -4.4 c 1.8,7.08 2.1,8.08 2.1,8.37 0,0.85 -0.6,1.35 -1.5,1.35 -0.1,0 -1.5,-0.05 -2,-1.8 l -1.9,-7.92 h -4.7 c -1,0 -1.5,0 -1.5,-0.94 0,-0.61 0.4,-0.61 1.4,-0.61 h 4.4 c -3.6,-14.14 -3.8,-14.98 -3.8,-15.89 0,-2.69 1.9,-4.58 4.6,-4.58 5.1,0 7.9,7.27 7.9,7.67 0,0.5 -0.4,0.5 -0.6,0.5 -0.5,0 -0.5,-0.15 -0.7,-0.7 -2.2,-5.17 -4.8,-6.37 -6.5,-6.37 -1.1,0 -1.6,0.65 -1.6,2.29 0,1.19 0.1,1.55 0.3,2.39 z"
           id="path4434" /><path
           style="fill:#000000;stroke-width:0"
           inkscape:connector-curvature="0"
           d="m 1265.3,-119.08 0,0.04 0,0.05 0,0.04 0,0.05 0.1,0.04 0,0.04 0,0.04 0,0.04 0,0.07 0,0.07 0,0.06 0.1,0.06 0,0.06 0,0.05 0,0.05 0,0.04 0.1,0.04 0,0.04 0,0.04 0,0.03 0.1,0.03 0,0.02 0,0.03 0.1,0.02 0,0.02 0,0.02 0.1,0.01 0,0.02 0.1,0.01 0,0.01 0.1,0.01 0,0.01 0.1,0.01 0,0 0.1,0.01 0.1,0.01 c 0.2,0.03 1.4,0.03 2.1,0.03 2.1,0 3,0 3.9,-0.28 1.5,-0.49 1.6,-1.5 1.6,-2.75 0,-0.55 0,-1 -0.2,-2.82 l -0.1,-0.39 c 0,-0.34 0.2,-0.51 0.6,-0.51 0.5,0 0.6,0.31 0.6,0.86 l 1,6.65 c 0,0.5 -0.4,0.5 -1.1,0.5 h -21.4 c -0.8,0 -0.9,0 -1.2,-0.73 l -2.2,-6.17 c 0,-0.14 -0.1,-0.46 -0.1,-0.63 0,-0.14 0,-0.48 0.5,-0.48 0.5,0 0.6,0.17 0.8,0.82 2,5.58 3.2,5.93 8.5,5.93 h 1.4 c 1.1,0 1.1,-0.03 1.1,-0.35 0,-0.03 0,-0.2 -0.1,-0.73 l -4.7,-18.33 c -0.3,-1.28 -0.4,-1.64 -4,-1.64 -1.3,0 -1.6,0 -1.6,-0.77 0,-0.09 0.1,-0.48 0.6,-0.48 1,0 2,0.11 3,0.11 1,0 2,0.03 3,0.03 1,0 2.2,0 3.1,-0.03 1,-0.05 2,-0.11 2.9,-0.11 0.3,0 0.9,0 0.9,0.76 0,0.49 -0.4,0.49 -1.5,0.49 -0.6,0 -1.3,0.05 -2,0.08 -1.2,0.09 -1.2,0.23 -1.2,0.65 0,0.25 0,0.32 0.1,0.8 z"
           id="path4436" /><path
           style="fill:#000000;stroke-width:0"
           inkscape:connector-curvature="0"
           d="m 1263.5,-169.49 0,-0.07 -0.1,-0.07 0,-0.07 0,-0.08 0,-0.07 0,-0.08 -0.1,-0.16 0,-0.16 0,-0.16 -0.1,-0.16 0,-0.08 0,-0.07 0,-0.08 -0.1,-0.07 0,-0.07 0,-0.07 0,-0.07 0,-0.06 0,-0.06 0,-0.06 -0.1,-0.05 0,-0.05 0,-0.05 0,-0.04 0,-0.03 0,-0.03 0,-0.03 0,-0.01 c 0,-0.77 0.6,-1.11 1.2,-1.11 0.6,0 1.2,0.45 1.3,0.76 0.2,0.31 0.5,1.42 0.7,2.16 0.1,0.65 0.5,2.26 0.7,3.14 0.2,0.76 0.4,1.53 0.6,2.33 0.4,1.5 0.4,1.56 1.1,2.65 1.1,1.71 2.9,3.69 5.6,3.69 1.9,0 2,-1.61 2,-2.44 0,-2.09 -1.5,-5.95 -2,-7.42 -0.4,-0.98 -0.5,-1.3 -0.5,-1.89 0,-1.84 1.5,-2.98 3.3,-2.98 3.4,0 5,4.79 5,5.32 0,0.46 -0.5,0.46 -0.6,0.46 -0.5,0 -0.5,-0.21 -0.6,-0.6 -0.8,-2.78 -2.3,-4.22 -3.7,-4.22 -0.8,0 -0.9,0.49 -0.9,1.22 0,0.8 0.2,1.25 0.8,2.83 0.4,1.08 1.8,4.77 1.8,6.72 0,0.56 0,2.03 -1.2,3.03 -0.6,0.45 -1.7,0.94 -3.3,0.94 -3.1,0 -5,-2.05 -6.1,-3.52 -0.3,2.97 -2.8,3.52 -4.6,3.52 -2.9,0 -4.8,-1.77 -5.9,-3.16 -0.2,2.39 -2.3,3.16 -3.7,3.16 -1.5,0 -2.3,-1.08 -2.8,-1.88 -0.7,-1.28 -1.2,-3.28 -1.2,-3.45 0,-0.45 0.5,-0.45 0.6,-0.45 0.5,0 0.5,0.11 0.8,1.04 0.5,2.07 1.2,3.77 2.5,3.77 0.9,0 1.2,-0.77 1.2,-1.7 0,-0.67 -0.4,-1.96 -0.6,-2.89 -0.3,-0.96 -0.6,-2.38 -0.8,-3.14 l -1.1,-4.47 c -0.1,-0.44 -0.3,-1.32 -0.3,-1.42 0,-0.77 0.6,-1.11 1.1,-1.11 0.7,0 1.2,0.45 1.4,0.76 0.2,0.31 0.5,1.42 0.6,2.16 0.2,0.65 0.6,2.26 0.8,3.14 0.2,0.76 0.4,1.53 0.6,2.33 0.4,1.43 0.4,1.7 1.4,3.14 1,1.39 2.7,3.2 5.3,3.2 2,0 2,-1.78 2,-2.44 0,-0.87 -0.1,-1.33 -0.6,-3.28 z"
           id="path4438" /><path
           style="fill:#000000;stroke-width:0"
           inkscape:connector-curvature="0"
           d="m 1291.1,-171.76 0,-0.36 0,-0.37 0,-0.38 -0.1,-0.38 0,-0.2 0,-0.19 -0.1,-0.2 0,-0.19 -0.1,-0.2 0,-0.2 -0.1,-0.2 -0.1,-0.2 0,-0.21 -0.1,-0.2 -0.1,-0.2 -0.1,-0.21 -0.1,-0.2 -0.1,-0.21 -0.1,-0.2 -0.2,-0.21 -0.1,-0.21 -0.2,-0.21 -0.1,-0.2 -0.2,-0.21 -0.2,-0.21 -0.2,-0.21 -0.2,-0.2 -0.2,-0.21 c -0.1,-0.14 -0.2,-0.25 -0.2,-0.42 0,-0.25 0.2,-0.49 0.4,-0.49 0.5,0 3.5,2.78 3.5,6.92 0,2.17 -0.9,3.8 -2.4,3.8 -1.2,0 -2,-0.91 -2,-1.98 0,-1.11 0.8,-2.02 2,-2.02 0.8,0 1.4,0.56 1.4,0.56 z"
           id="path4440" /><path
           style="fill:#000000;stroke-width:0"
           inkscape:connector-curvature="0"
           d="m 1306.5,-149.18 0,0 0,0.01 0,0 0,0.01 0,0 0.1,0.01 0,0 0,0.01 0,0.01 0,0.01 0,0.01 0,0.02 0,0.02 0,0.02 0,0.02 0,0.02 0,0.02 0,0.03 0,0.02 0,0.05 0,0.04 0,0.02 0,0.03 0,0.02 0.1,0.02 0,0.02 0,0.02 0,0.01 0,0.02 0,0.01 0,0 0,0.01 0,0.01 0,0 0,0.01 0,0 0,0.01 0,0 0,0 0,0.01 0,0 c 0,0.18 -0.2,0.5 -0.6,0.5 -0.7,0 -3.6,-0.28 -4.4,-0.36 -0.3,-0.03 -0.8,-0.06 -0.8,-0.8 0,-0.48 0.5,-0.48 0.9,-0.48 1.7,0 1.7,-0.25 1.7,-0.53 0,-0.24 -0.1,-0.46 -0.2,-0.77 l -4.9,-19.72 c -0.2,-0.62 -0.2,-0.69 -0.2,-0.76 0,-0.52 0.5,-1.11 1.2,-1.11 1,0 1.4,0.68 1.6,1.45 0.1,0.14 1.6,6.28 1.8,6.76 2.4,-0.25 4.4,-1.04 4.4,-2.85 0,-0.18 0,-0.35 -0.1,-0.69 -0.1,-0.53 -0.1,-0.71 -0.1,-1.1 0,-2.46 2,-3.57 3.7,-3.57 3.4,0 4.4,5.29 4.4,5.32 0,0.46 -0.4,0.46 -0.5,0.46 -0.5,0 -0.6,-0.17 -0.7,-0.85 -0.5,-1.5 -1.4,-3.97 -3.1,-3.97 -0.9,0 -1.2,0.88 -1.2,1.82 0,0.59 0,0.65 0.2,1.56 0,0.11 0.2,0.7 0.2,1.09 0,3.1 -4.2,3.58 -5.7,3.69 1,0.63 2.3,1.78 2.9,2.3 1.8,1.67 3.5,3.31 5.5,3.31 0.4,0 0.8,-0.11 1.1,-0.45 -1.5,-0.25 -1.8,-1.42 -1.8,-1.96 0,-0.76 0.6,-1.28 1.4,-1.28 1,0 2,0.77 2,2.22 0,1.16 -0.8,2.44 -2.7,2.44 -2,0 -3.8,-1.42 -5.6,-3.06 -1.4,-1.39 -2.6,-2.47 -4,-3.07 z"
           id="path4442" /><path
           style="fill:#000000;stroke-width:0"
           inkscape:connector-curvature="0"
           d="m 1330.2,-175.07 0,-0.05 0,-0.05 -0.1,-0.05 0,-0.06 0,-0.06 0,-0.05 0,-0.12 -0.1,-0.12 0,-0.12 0,-0.12 0,-0.12 0,-0.06 -0.1,-0.05 0,-0.06 0,-0.05 0,-0.05 0,-0.05 0,-0.05 0,-0.04 0,-0.04 0,-0.04 0,-0.04 -0.1,-0.03 0,-0.03 0,-0.02 0,-0.03 0,-0.02 c 0,-0.54 0.5,-0.87 1,-0.87 0.3,0 0.9,0.2 1.2,0.83 0,0.12 0.3,1.29 0.4,1.94 0.9,3.37 0.9,3.42 0.9,3.51 0.4,0.67 2.1,4.16 5.2,4.16 1.2,0 1.7,-0.67 1.7,-1.78 0,-1.43 -1,-3.99 -1.6,-5.41 -0.1,-0.3 -0.2,-0.63 -0.2,-1.05 0,-1.29 1.2,-2.2 2.7,-2.2 2.7,0 4,3.25 4,3.87 0,0.35 -0.4,0.35 -0.5,0.35 -0.4,0 -0.5,-0.1 -0.6,-0.58 -0.5,-1.48 -1.6,-2.78 -2.8,-2.78 -0.6,0 -0.8,0.39 -0.8,0.94 0,0.53 0.1,0.78 0.4,1.32 0.4,1 1.5,3.83 1.5,5.21 0,1.84 -1.3,2.97 -3.7,2.97 -2.3,0 -3.9,-1.43 -4.9,-2.75 -0.2,2.54 -2.7,2.75 -3.7,2.75 -2.5,0 -3.8,-1.53 -4.7,-2.47 -0.1,2.19 -2.4,2.47 -3.1,2.47 -2.4,0 -3.2,-3.82 -3.2,-3.86 0,-0.36 0.4,-0.36 0.6,-0.36 0.4,0 0.4,0.15 0.5,0.48 0.4,1.44 1,2.88 2,2.88 0.9,0 1,-0.8 1,-1.32 0,-0.34 -0.2,-1.29 -0.3,-1.93 -0.2,-0.67 -0.5,-1.71 -0.6,-2.25 l -0.6,-2.22 c -0.1,-0.63 -0.4,-1.72 -0.4,-1.85 0,-0.54 0.4,-0.87 0.9,-0.87 0.4,0 0.9,0.2 1.2,0.83 0,0.12 0.3,1.29 0.5,1.94 0.1,0.4 0.4,1.46 0.4,1.71 0.2,0.57 0.3,1.11 0.4,1.68 0.1,0.11 1,1.92 2.2,3 0.4,0.34 1.4,1.28 3.1,1.28 1.2,0 1.7,-0.72 1.7,-1.78 0,-0.55 -0.2,-1.55 -0.4,-2.33 z"
           id="path4444" /><path
           style="fill:#000000;stroke-width:0"
           inkscape:connector-curvature="0"
           d="m 1406.3,252.47 0,2.82 -0.1,2.74 0,2.67 -0.1,2.6 -0.2,2.52 -0.1,2.44 -0.2,2.38 -0.2,2.29 -0.2,2.23 -0.2,2.15 -0.3,2.07 -0.2,2.01 -0.3,1.92 -0.3,1.86 -0.2,1.77 -0.3,1.71 -0.3,1.63 -0.3,1.55 -0.3,1.48 -0.3,1.41 -0.3,1.33 -0.3,1.26 -0.3,1.18 -0.2,1.11 -0.3,1.03 -0.3,0.96 -0.2,0.88 -0.2,0.81 -0.3,0.74 -0.1,0.66 -0.2,0.58 -0.2,0.51 c -3.4,11.06 -8.9,22.72 -17.2,32.98 -0.8,0.91 -1,1.16 -1.2,1.25 -0.1,0.05 -0.1,0.1 -0.9,0.1 -0.8,0 -1.2,0 -1.2,-0.5 0,-0.1 0,-0.19 0.7,-1.1 17.3,-24.2 21.2,-54.09 21.3,-87.82 0,-0.71 0.3,-0.71 1.3,-0.71 h 2.8 c 1,0 1.3,0 1.4,0.55 z"
           id="path4446" /><path
           style="fill:#000000;stroke-width:0"
           inkscape:connector-curvature="0"
           d="m 1406.3,249.71 0,0.06 0,0.06 0,0.06 0,0.05 0,0.06 0,0.05 0,0.05 0,0.05 0,0.04 0,0.05 0,0.04 0,0.04 0,0.04 0,0.04 0,0.04 0,0.03 0,0.04 0,0.03 -0.1,0.03 0,0.03 0,0.06 0,0.05 0,0.05 0,0.04 -0.1,0.04 0,0.03 0,0.03 -0.1,0.03 0,0.03 -0.1,0.02 0,0.01 -0.1,0.01 0,0.01 0,0.01 -0.1,0 0,0.01 0,0 -0.1,0.01 0,0 0,0 -0.1,0.01 0,0 -0.1,0 0,0 -0.1,0 0,0.01 -0.1,0 0,0 -0.1,0 0,0 -0.1,0 0,0 -0.1,0 h -2.8 c -1.3,0 -1.3,-0.05 -1.3,-1.35 v -28.2 c 0,-1.3 0,-1.34 1.3,-1.34 h 2.8 c 1.3,0 1.4,0.04 1.4,1.34 z"
           id="path4448" /><path
           style="fill:#000000;stroke-width:0"
           inkscape:connector-curvature="0"
           d="m 1406.3,219.84 0,0.06 0,0.05 0,0.06 0,0.05 0,0.06 0,0.05 0,0.05 0,0.05 0,0.04 0,0.05 0,0.04 0,0.04 0,0.04 0,0.04 0,0.04 0,0.03 0,0.04 0,0.03 -0.1,0.03 0,0.03 0,0.06 0,0.05 0,0.05 0,0.04 -0.1,0.04 0,0.03 0,0.04 -0.1,0.02 0,0.03 -0.1,0.02 0,0.01 -0.1,0.01 0,0.01 0,0.01 -0.1,0 0,0.01 0,0 -0.1,0.01 0,0 0,0 -0.1,0.01 0,0 -0.1,0 0,0 -0.1,0.01 0,0 -0.1,0 0,0 -0.1,0 0,0 -0.1,0 0,0 -0.1,0 h -2.8 c -1.3,0 -1.3,-0.05 -1.3,-1.34 v -28.21 c 0,-1.29 0,-1.34 1.3,-1.34 h 2.8 c 1.3,0 1.4,0.05 1.4,1.34 z"
           id="path4450" /><path
           style="fill:#000000;stroke-width:0"
           inkscape:connector-curvature="0"
           d="m 1406.3,189.96 0,0.06 0,0.05 0,0.06 0,0.06 0,0.05 0,0.05 0,0.05 0,0.05 0,0.04 0,0.05 0,0.04 0,0.04 0,0.04 0,0.04 0,0.04 0,0.03 0,0.04 0,0.03 -0.1,0.03 0,0.03 0,0.06 0,0.05 0,0.05 0,0.04 -0.1,0.04 0,0.04 0,0.03 -0.1,0.02 0,0.03 -0.1,0.02 0,0.02 -0.1,0 0,0.01 0,0.01 -0.1,0 0,0.01 0,0 -0.1,0.01 0,0 0,0.01 -0.1,0 0,0 -0.1,0 0,0 -0.1,0.01 0,0 -0.1,0 0,0 -0.1,0 0,0 -0.1,0 0,0 -0.1,0 h -2.8 c -1.3,0 -1.3,-0.05 -1.3,-1.34 v -28.21 c 0,-1.29 0,-1.34 1.3,-1.34 h 2.8 c 1.3,0 1.4,0.05 1.4,1.34 z"
           id="path4452" /><path
           style="fill:#000000;stroke-width:0"
           inkscape:connector-curvature="0"
           d="m 1406.3,160.08 0,0.06 0,0.06 0,0.05 0,0.06 0,0.05 0,0.05 0,0.05 0,0.05 0,0.04 0,0.05 0,0.04 0,0.04 0,0.04 0,0.04 0,0.04 0,0.04 0,0.03 0,0.03 -0.1,0.03 0,0.03 0,0.06 0,0.05 0,0.05 0,0.04 -0.1,0.04 0,0.04 0,0.03 -0.1,0.02 0,0.03 -0.1,0.02 0,0.02 -0.1,0 0,0.01 0,0.01 -0.1,0 0,0.01 0,0 -0.1,0.01 0,0 0,0.01 -0.1,0 0,0 -0.1,0 0,0.01 -0.1,0 0,0 -0.1,0 0,0 -0.1,0 0,0 -0.1,0 0,0 -0.1,0 h -2.8 c -1.3,0 -1.3,-0.04 -1.3,-1.34 v -28.2 c 0,-1.3 0,-1.35 1.3,-1.35 h 2.8 c 1.3,0 1.4,0.05 1.4,1.35 z"
           id="path4454" /><path
           style="fill:#000000;stroke-width:0"
           inkscape:connector-curvature="0"
           d="m 1406.3,130.2 0,0.05 0,0.06 0,0.06 0,0.05 0,0.06 0,0.05 0,0.05 0,0.05 0,0.04 0,0.05 0,0.04 0,0.04 0,0.04 0,0.04 0,0.04 0,0.03 0,0.04 0,0.03 -0.1,0.03 0,0.03 0,0.06 0,0.05 0,0.05 0,0.04 -0.1,0.04 0,0.03 0,0.03 -0.1,0.03 0,0.03 -0.1,0.02 0,0.01 -0.1,0.01 0,0.01 0,0.01 -0.1,0 0,0.01 0,0 -0.1,0.01 0,0 0,0 -0.1,0.01 0,0 -0.1,0 0,0 -0.1,0 0,0.01 -0.1,0 0,0 -0.1,0 0,0 -0.1,0 0,0 -0.1,0 h -2.8 c -1.3,0 -1.3,-0.05 -1.3,-1.34 v -28.21 c 0,-1.3 0,-1.34 1.3,-1.34 h 2.8 c 1.3,0 1.4,0.04 1.4,1.34 z"
           id="path4456" /><path
           style="fill:#000000;stroke-width:0"
           inkscape:connector-curvature="0"
           d="m 1406.3,100.19 0,0.06 0,0.06 0,0.06 0,0.05 0,0.06 0,0.05 0,0.05 0,0.05 0,0.04 0,0.05 0,0.04 0,0.04 0,0.04 0,0.04 0,0.04 0,0.03 0,0.04 0,0.03 -0.1,0.03 0,0.03 0,0.06 0,0.05 0,0.05 0,0.04 -0.1,0.04 0,0.03 0,0.03 -0.1,0.03 0,0.03 -0.1,0.02 0,0.01 -0.1,0.01 0,0.01 0,0.01 -0.1,0 0,0.01 0,0 -0.1,0.01 0,0 0,0 -0.1,0.01 0,0 -0.1,0 0,0 -0.1,0 0,0.01 -0.1,0 0,0 -0.1,0 0,0 -0.1,0 0,0 -0.1,0 h -2.8 c -1.3,0 -1.3,-0.05 -1.3,-1.35 V 71.992 c 0,-1.297 0,-1.344 1.3,-1.344 h 2.8 c 1.3,0 1.4,0.047 1.4,1.344 z"
           id="path4458" /><path
           style="fill:#000000;stroke-width:0"
           inkscape:connector-curvature="0"
           d="m 1406.3,70.316 0,0.06 0,0.058 0,0.057 0,0.054 0,0.053 0,0.051 0,0.05 0,0.047 0,0.047 0,0.044 0,0.043 0,0.042 0,0.04 0,0.039 0,0.037 0,0.035 0,0.035 0,0.033 -0.1,0.031 0,0.031 0,0.057 0,0.052 0,0.047 0,0.043 -0.1,0.038 0,0.035 0,0.03 -0.1,0.028 0,0.023 -0.1,0.021 0,0.018 -0.1,0.008 0,0.007 0,0.006 -0.1,0.006 0,0.006 0,0.005 -0.1,0.004 0,0.004 0,0.003 -0.1,0.003 0,0.003 -0.1,0.002 0,0.002 -0.1,0.002 0,10e-4 -0.1,0.001 0,0.001 -0.1,0 0,10e-4 -0.1,0 0,0 -0.1,0 h -2.8 c -1.3,0 -1.3,-0.047 -1.3,-1.344 V 42.113 c 0,-1.297 0,-1.343 1.3,-1.343 h 2.8 c 1.3,0 1.4,0.046 1.4,1.343 z"
           id="path4460" /><path
           style="fill:#000000;stroke-width:0"
           inkscape:connector-curvature="0"
           d="m 1406.3,40.438 0,0.059 0,0.058 0,0.057 0,0.054 0,0.053 0,0.051 0,0.05 0,0.048 0,0.046 0,0.044 0,0.044 0,0.041 0,0.04 0,0.039 0,0.037 0,0.036 0,0.034 0,0.033 -0.1,0.032 0,0.03 0,0.057 0,0.052 0,0.047 0,0.043 -0.1,0.038 0,0.035 0,0.03 -0.1,0.028 0,0.023 -0.1,0.021 0,0.018 -0.1,0.008 0,0.007 0,0.006 -0.1,0.006 0,0.006 0,0.005 -0.1,0.004 0,0.004 0,0.003 -0.1,0.003 0,0.003 -0.1,0.002 0,0.002 -0.1,0.002 0,10e-4 -0.1,0.001 0,10e-4 -0.1,0 0,10e-4 -0.1,0 0,0 -0.1,0 h -2.8 c -1.3,0 -1.3,-0.047 -1.3,-1.343 V 12.234 c 0,-1.296 0,-1.343 1.3,-1.343 h 2.8 c 1.3,0 1.4,0.047 1.4,1.343 z"
           id="path4462" /><path
           style="fill:#000000;stroke-width:0"
           inkscape:connector-curvature="0"
           d="m 1406.3,10.555 0,0.06 0,0.058 0,0.056 0,0.055 0,0.052 0,0.051 0,0.05 0,0.048 0,0.046 0,0.045 0,0.043 0,0.041 0,0.04 0,0.039 0,0.037 0,0.036 0,0.034 0,0.033 -0.1,0.032 0,0.03 0,0.057 0,0.052 0,0.047 0,0.043 -0.1,0.038 0,0.035 0,0.031 -0.1,0.027 0,0.024 -0.1,0.02 0,0.018 -0.1,0.008 0,0.007 0,0.007 -0.1,0.006 0,0.005 0,0.005 -0.1,0.004 0,0.004 0,0.004 -0.1,0.003 0,0.002 -0.1,0.002 0,0.002 -0.1,0.002 0,10e-4 -0.1,0.001 0,10e-4 -0.1,10e-4 0,0 -0.1,0 0,0 -0.1,0 h -2.8 c -1.3,0 -1.3,-0.046 -1.3,-1.343 v -28.203 c 0,-1.297 0,-1.344 1.3,-1.344 h 2.8 c 1.3,0 1.4,0.047 1.4,1.344 z"
           id="path4464" /><path
           style="fill:#000000;stroke-width:0"
           inkscape:connector-curvature="0"
           d="m 1406.3,-19.324 0,0.06 0,0.058 0,0.056 0,0.055 0,0.052 0,0.052 0,0.049 0,0.048 0,0.046 0,0.045 0,0.043 0,0.041 0,0.04 0,0.039 0,0.037 0,0.036 0,0.034 0,0.033 -0.1,0.032 0,0.03 0,0.057 0,0.052 0,0.047 0,0.043 -0.1,0.038 0,0.035 0,0.031 -0.1,0.027 0,0.024 -0.1,0.02 0,0.018 -0.1,0.008 0,0.007 0,0.007 -0.1,0.006 0,0.005 0,0.005 -0.1,0.004 0,0.004 0,0.004 -0.1,0.003 0,0.002 -0.1,0.002 0,0.002 -0.1,0.002 0,10e-4 -0.1,0.001 0,0.001 -0.1,10e-4 0,0 -0.1,0 0,0 -0.1,0.001 h -2.8 c -1.3,0 -1.3,-0.047 -1.3,-1.344 v -28.203 c 0,-1.297 0,-1.344 1.3,-1.344 h 2.8 c 1.3,0 1.4,0.047 1.4,1.344 z"
           id="path4466" /><path
           style="fill:#000000;stroke-width:0"
           inkscape:connector-curvature="0"
           d="m 1406.3,-49.203 0,0.06 0,0.058 0,0.056 0,0.055 0,0.053 0,0.051 0,0.049 0,0.048 0,0.046 0,0.045 0,0.043 0,0.041 0,0.041 0,0.038 0,0.037 0,0.036 0,0.034 0,0.033 -0.1,0.032 0,0.03 0,0.057 0,0.052 0,0.047 0,0.043 -0.1,0.039 0,0.034 0,0.031 -0.1,0.027 0,0.024 -0.1,0.02 0,0.018 -0.1,0.008 0,0.007 0,0.007 -0.1,0.006 0,0.005 0,0.005 -0.1,0.004 0,0.004 0,0.004 -0.1,0.003 0,0.002 -0.1,0.003 0,10e-4 -0.1,0.002 0,10e-4 -0.1,10e-4 0,0.001 -0.1,10e-4 0,0 -0.1,0 0,10e-4 -0.1,0 h -2.8 c -1.3,0 -1.3,-0.047 -1.3,-1.344 v -28.203 c 0,-1.297 0,-1.344 1.3,-1.344 h 2.8 c 1.3,0 1.4,0.047 1.4,1.344 z"
           id="path4468" /><path
           style="fill:#000000;stroke-width:0"
           inkscape:connector-curvature="0"
           d="m 1406.3,-78.344 0,0.05 0,0.046 0,0.044 0,0.041 -0.1,0.038 0,0.035 0,0.032 0,0.03 0,0.028 0,0.025 -0.1,0.024 0,0.021 0,0.019 -0.1,0.017 0,0.015 0,0.014 -0.1,0.012 0,0.01 -0.1,0.009 0,0.008 -0.1,0.007 0,0.005 -0.1,0.005 -0.1,0.004 0,0.002 -0.1,0.002 -0.1,0.002 -0.1,0.001 0,0.001 -0.1,0 -0.1,0 -0.1,0 h -2.8 c -1,0 -1.3,0 -1.3,-0.687 0,-5.141 -0.1,-17 -1.4,-29.396 -2.7,-25.76 -9.3,-43.59 -20.2,-58.89 -0.4,-0.45 -0.4,-0.54 -0.4,-0.65 0,-0.5 0.4,-0.5 1.2,-0.5 0.8,0 0.9,0 1,0.11 0.2,0.14 6.5,7.42 11.5,17.43 6.6,13.15 10.7,28.26 12.6,46.38 0.1,1.55 1.2,11.906 1.2,23.719 z"
           id="path4470" /></g>    </g>
    <g
       id="g4608"
       transform="matrix(0.94628083,0,0,3.651888,120.72463,-1021.5391)">
      <g
         word-spacing="normal"
         letter-spacing="normal"
         font-size-adjust="none"
         font-stretch="normal"
         font-weight="normal"
         font-variant="normal"
         font-style="normal"
         stroke-miterlimit="10.433"
         xml:space="preserve"
         transform="matrix(1.0629921,0,0,-1.0629921,-186.02362,789.27165)"
         id="g4610"
         style="font-style:normal;font-variant:normal;font-weight:normal;font-stretch:normal;letter-spacing:normal;word-spacing:normal;text-anchor:start;fill:none;stroke:#000000;stroke-linecap:butt;stroke-linejoin:miter;stroke-miterlimit:10.43299961;stroke-opacity:1;stroke-dasharray:none;stroke-dashoffset:0"><path
           id="path4612"
           d="m 466.29,400.37 -0.01,-0.19 -0.01,-0.2 -0.02,-0.2 -0.03,-0.21 -0.04,-0.21 -0.05,-0.21 -0.06,-0.22 -0.07,-0.22 -0.09,-0.22 -0.09,-0.22 -0.11,-0.22 -0.12,-0.22 -0.14,-0.21 -0.15,-0.22 -0.16,-0.21 -0.18,-0.21 -0.2,-0.2 -0.21,-0.19 -0.23,-0.19 -0.25,-0.19 -0.26,-0.17 -0.29,-0.17 -0.3,-0.15 -0.32,-0.15 -0.35,-0.14 -0.36,-0.12 -0.38,-0.12 -0.41,-0.1 -0.21,-0.04 -0.22,-0.04 -0.22,-0.04 -0.23,-0.03 -0.23,-0.03 -0.24,-0.03 -0.25,-0.02 -0.25,-0.02 c -0.25,-0.05 -0.44,-0.25 -0.44,-0.55 0,-0.54 0.55,-0.54 0.99,-0.54 4.84,0 9.47,2.43 9.51,6.21 v 11.36 c 0,1.96 0,3.55 2,5.19 1.75,1.45 3.64,1.55 4.74,1.6 0.25,0.04 0.45,0.25 0.45,0.54 0,0.5 -0.31,0.5 -0.8,0.55 -3.29,0.2 -5.68,2 -6.23,4.44 -0.16,0.54 -0.16,0.64 -0.16,2.43 v 9.88 c 0,2.08 0,3.69 -2.39,5.58 -1.98,1.54 -5.42,2.03 -7.12,2.03 -0.44,0 -0.99,0 -0.99,-0.55 0,-0.5 0.3,-0.5 0.8,-0.55 3.13,-0.18 5.58,-1.79 6.22,-4.32 0.16,-0.46 0.16,-0.55 0.16,-2.35 v -10.47 c 0,-2.28 0.39,-3.12 1.98,-4.73 1.05,-1.03 2.5,-1.53 3.89,-1.94 -4.08,-1.14 -5.87,-3.44 -5.87,-6.33 z"
           inkscape:connector-curvature="0"
           style="fill:#000000;stroke-width:0" /></g>    </g>
    <g
       id="g4756"
       transform="translate(143.2233,-104.30313)">
      <g
         id="g4758"
         transform="matrix(1.0629921,0,0,-1.0629921,-186.02362,789.27165)"
         xml:space="preserve"
         stroke-miterlimit="10.433"
         font-style="normal"
         font-variant="normal"
         font-weight="normal"
         font-stretch="normal"
         font-size-adjust="none"
         letter-spacing="normal"
         word-spacing="normal"
         style="font-style:normal;font-variant:normal;font-weight:normal;font-stretch:normal;letter-spacing:normal;word-spacing:normal;text-anchor:start;fill:none;stroke:#000000;stroke-linecap:butt;stroke-linejoin:miter;stroke-miterlimit:10.43299961;stroke-opacity:1;stroke-dasharray:none;stroke-dashoffset:0"><path
           d="m 469.82,440.23 0,0 0,0.01 0,0 0,0.01 -0.01,0.02 0,0.01 0,0.02 0,0.02 0,0.02 -0.01,0.02 0,0.02 -0.01,0.02 -0.01,0.02 -0.01,0.03 -0.01,0.02 -0.01,0.03 -0.01,0.02 -0.02,0.03 -0.02,0.02 -0.02,0.02 -0.02,0.03 -0.01,0.01 -0.01,0.01 -0.02,0.01 -0.01,0.01 -0.02,0.01 -0.01,0.01 -0.02,0.01 -0.01,0.01 -0.02,0.01 -0.02,0.01 -0.02,0 -0.02,0.01 -0.02,0.01 -0.02,0 -0.02,0.01 -0.02,0.01 -0.03,0 -0.02,0 -0.03,0.01 -0.02,0 -0.03,0 -0.03,0.01 -0.02,0 -0.03,0 c -1.16,0 -4.79,-0.41 -6.08,-0.5 -0.41,-0.05 -0.96,-0.1 -0.96,-1 0,-0.6 0.46,-0.6 1.21,-0.6 2.39,0 2.48,-0.34 2.48,-0.84 l -0.15,-1 -7.22,-28.7 c -0.21,-0.69 -0.21,-0.8 -0.21,-1.1 0,-1.14 1,-1.39 1.46,-1.39 0.64,0 1.39,0.46 1.68,1.05 0.25,0.45 2.5,9.66 2.8,10.91 1.69,-0.15 5.78,-0.94 5.78,-4.24 0,-0.34 0,-0.55 -0.15,-1.05 -0.1,-0.59 -0.21,-1.18 -0.21,-1.73 0,-2.95 2,-4.94 4.6,-4.94 1.48,0 2.83,0.8 3.93,2.64 1.24,2.19 1.79,4.94 1.79,5.03 0,0.5 -0.44,0.5 -0.6,0.5 -0.5,0 -0.54,-0.2 -0.7,-0.9 -0.99,-3.63 -2.14,-6.17 -4.33,-6.17 -0.94,0 -1.59,0.54 -1.59,2.34 0,0.84 0.2,1.98 0.4,2.78 0.19,0.86 0.19,1.05 0.19,1.55 0,3.25 -3.14,4.69 -7.37,5.23 1.54,0.91 3.14,2.5 4.29,3.69 2.39,2.64 4.67,4.78 7.13,4.78 0.29,0 0.34,0 0.44,-0.05 0.6,-0.09 0.65,-0.09 1.04,-0.39 0.11,-0.06 0.11,-0.11 0.21,-0.2 -2.4,-0.16 -2.85,-2.09 -2.85,-2.69 0,-0.79 0.55,-1.75 1.89,-1.75 1.3,0 2.75,1.1 2.75,3.03 0,1.5 -1.15,3.14 -3.39,3.14 -1.39,0 -3.69,-0.39 -7.28,-4.37 -1.69,-1.89 -3.62,-3.89 -5.52,-4.64 z"
           id="path4760"
           inkscape:connector-curvature="0"
           style="fill:#000000;stroke-width:0" /><path
           d="m 493.11,420.92 0,0.04 0,0.04 0,0.05 0,0.04 0,0.03 0,0.04 0,0.04 0,0.03 0,0.04 0,0.03 -0.01,0.03 0,0.03 0,0.03 0,0.03 -0.01,0.03 0,0.02 -0.01,0.03 0,0.02 -0.01,0.03 0,0.02 -0.01,0.04 -0.02,0.04 -0.02,0.03 -0.01,0.03 -0.03,0.03 -0.02,0.03 -0.03,0.02 -0.03,0.02 -0.03,0.02 -0.04,0.01 -0.04,0.01 -0.04,0.02 -0.03,0 -0.02,0 -0.03,0.01 -0.02,0 -0.03,0.01 -0.03,0 -0.03,0 -0.03,0 -0.03,0 -0.04,0.01 -0.03,0 -0.04,0 -0.03,0 -0.04,0 -0.04,0 -0.04,0 -0.04,0 -0.04,0 -0.05,0 -0.04,0 c -2.24,-2.2 -5.39,-2.23 -6.83,-2.23 v -1.25 c 0.84,0 3.14,0 5.05,0.97 v -17.77 c 0,-1.16 0,-1.61 -3.49,-1.61 h -1.31 v -1.25 c 0.62,0.03 4.9,0.14 6.2,0.14 1.08,0 5.47,-0.11 6.24,-0.14 v 1.25 h -1.33 c -3.49,0 -3.49,0.45 -3.49,1.61 z"
           id="path4762"
           inkscape:connector-curvature="0"
           style="fill:#000000;stroke-width:0" /></g>    </g>
    <g
       id="g4914"
       transform="translate(140.51484,206.09575)">
      <g
         word-spacing="normal"
         letter-spacing="normal"
         font-size-adjust="none"
         font-stretch="normal"
         font-weight="normal"
         font-variant="normal"
         font-style="normal"
         stroke-miterlimit="10.433"
         xml:space="preserve"
         transform="matrix(1.0629921,0,0,-1.0629921,-186.02362,789.27165)"
         id="g4916"
         style="font-style:normal;font-variant:normal;font-weight:normal;font-stretch:normal;letter-spacing:normal;word-spacing:normal;text-anchor:start;fill:none;stroke:#000000;stroke-linecap:butt;stroke-linejoin:miter;stroke-miterlimit:10.43299961;stroke-opacity:1;stroke-dasharray:none;stroke-dashoffset:0"><path
           id="path4918"
           d="m 469.82,440.23 0,0 0,0.01 0,0 0,0.01 -0.01,0.02 0,0.01 0,0.02 0,0.02 0,0.02 -0.01,0.02 0,0.02 -0.01,0.02 -0.01,0.02 -0.01,0.03 -0.01,0.02 -0.01,0.03 -0.01,0.02 -0.02,0.03 -0.02,0.02 -0.02,0.02 -0.02,0.03 -0.01,0.01 -0.01,0.01 -0.02,0.01 -0.01,0.01 -0.02,0.01 -0.01,0.01 -0.02,0.01 -0.01,0.01 -0.02,0.01 -0.02,0.01 -0.02,0 -0.02,0.01 -0.02,0.01 -0.02,0 -0.02,0.01 -0.02,0.01 -0.03,0 -0.02,0 -0.03,0.01 -0.02,0 -0.03,0 -0.03,0.01 -0.02,0 -0.03,0 c -1.16,0 -4.79,-0.41 -6.08,-0.5 -0.41,-0.05 -0.96,-0.1 -0.96,-1 0,-0.6 0.46,-0.6 1.21,-0.6 2.39,0 2.48,-0.34 2.48,-0.84 l -0.15,-1 -7.22,-28.7 c -0.21,-0.69 -0.21,-0.8 -0.21,-1.1 0,-1.14 1,-1.39 1.46,-1.39 0.64,0 1.39,0.46 1.68,1.05 0.25,0.45 2.5,9.66 2.8,10.91 1.69,-0.15 5.78,-0.94 5.78,-4.24 0,-0.34 0,-0.55 -0.15,-1.05 -0.1,-0.59 -0.21,-1.18 -0.21,-1.73 0,-2.95 2,-4.94 4.6,-4.94 1.48,0 2.83,0.8 3.93,2.64 1.24,2.19 1.79,4.94 1.79,5.03 0,0.5 -0.44,0.5 -0.6,0.5 -0.5,0 -0.54,-0.2 -0.7,-0.9 -0.99,-3.63 -2.14,-6.17 -4.33,-6.17 -0.94,0 -1.59,0.54 -1.59,2.34 0,0.84 0.2,1.98 0.4,2.78 0.19,0.86 0.19,1.05 0.19,1.55 0,3.25 -3.14,4.69 -7.37,5.23 1.54,0.91 3.14,2.5 4.29,3.69 2.39,2.64 4.67,4.78 7.13,4.78 0.29,0 0.34,0 0.44,-0.05 0.6,-0.09 0.65,-0.09 1.04,-0.39 0.11,-0.06 0.11,-0.11 0.21,-0.2 -2.4,-0.16 -2.85,-2.09 -2.85,-2.69 0,-0.79 0.55,-1.75 1.89,-1.75 1.3,0 2.75,1.1 2.75,3.03 0,1.5 -1.15,3.14 -3.39,3.14 -1.39,0 -3.69,-0.39 -7.28,-4.37 -1.69,-1.89 -3.62,-3.89 -5.52,-4.64 z"
           inkscape:connector-curvature="0"
           style="fill:#000000;stroke-width:0" /><path
           id="path4920"
           d="m 496.57,401.59 -0.02,-0.07 -0.02,-0.07 -0.02,-0.07 -0.01,-0.07 -0.02,-0.08 -0.02,-0.08 -0.04,-0.15 -0.04,-0.17 -0.04,-0.16 -0.04,-0.16 -0.02,-0.07 -0.02,-0.08 -0.02,-0.08 -0.02,-0.07 -0.01,-0.07 -0.02,-0.07 -0.02,-0.07 -0.01,-0.06 -0.01,-0.06 -0.02,-0.06 -0.01,-0.05 -0.01,-0.05 -0.01,-0.04 0,-0.04 -0.01,-0.04 0,-0.03 -0.01,-0.02 0,-0.02 c 0,-0.77 0.63,-1.11 1.17,-1.11 0.64,0 1.19,0.45 1.36,0.76 0.19,0.32 0.46,1.43 0.64,2.16 0.18,0.66 0.55,2.27 0.77,3.14 0.2,0.77 0.41,1.53 0.59,2.33 0.38,1.5 0.38,1.56 1.08,2.65 1.11,1.71 2.86,3.69 5.56,3.69 1.96,0 2.07,-1.61 2.07,-2.44 0,-2.09 -1.5,-5.95 -2.07,-7.42 -0.37,-0.98 -0.51,-1.29 -0.51,-1.89 0,-1.84 1.53,-2.98 3.31,-2.98 3.48,0 5.02,4.79 5.02,5.33 0,0.45 -0.46,0.45 -0.57,0.45 -0.48,0 -0.51,-0.2 -0.65,-0.59 -0.8,-2.79 -2.3,-4.22 -3.69,-4.22 -0.73,0 -0.87,0.48 -0.87,1.22 0,0.79 0.17,1.25 0.79,2.82 0.42,1.08 1.85,4.77 1.85,6.72 0,0.56 0,2.03 -1.29,3.03 -0.59,0.46 -1.6,0.94 -3.25,0.94 -3.12,0 -5.04,-2.05 -6.15,-3.51 -0.28,2.96 -2.77,3.51 -4.53,3.51 -2.89,0 -4.85,-1.76 -5.89,-3.16 -0.25,2.4 -2.3,3.16 -3.74,3.16 -1.5,0 -2.29,-1.08 -2.75,-1.87 -0.76,-1.29 -1.25,-3.29 -1.25,-3.46 0,-0.45 0.49,-0.45 0.6,-0.45 0.48,0 0.51,0.11 0.76,1.05 0.52,2.06 1.19,3.76 2.55,3.76 0.9,0 1.14,-0.76 1.14,-1.7 0,-0.67 -0.31,-1.95 -0.56,-2.89 -0.24,-0.95 -0.58,-2.38 -0.77,-3.14 l -1.11,-4.47 c -0.14,-0.44 -0.34,-1.31 -0.34,-1.42 0,-0.77 0.62,-1.11 1.19,-1.11 0.62,0 1.17,0.45 1.35,0.76 0.18,0.32 0.46,1.43 0.63,2.16 0.17,0.66 0.55,2.27 0.77,3.14 0.2,0.77 0.42,1.53 0.59,2.33 0.37,1.44 0.45,1.7 1.45,3.14 0.99,1.39 2.63,3.2 5.24,3.2 2.01,0 2.04,-1.78 2.04,-2.44 0,-0.87 -0.09,-1.32 -0.59,-3.28 z"
           inkscape:connector-curvature="0"
           style="fill:#000000;stroke-width:0" /></g>    </g>
    <g
       transform="matrix(0.94628083,0,0,3.651888,118.70432,-702.3309)"
       id="g5000">
      <g
         style="font-style:normal;font-variant:normal;font-weight:normal;font-stretch:normal;letter-spacing:normal;word-spacing:normal;text-anchor:start;fill:none;stroke:#000000;stroke-linecap:butt;stroke-linejoin:miter;stroke-miterlimit:10.43299961;stroke-opacity:1;stroke-dasharray:none;stroke-dashoffset:0"
         id="g5002"
         transform="matrix(1.0629921,0,0,-1.0629921,-186.02362,789.27165)"
         xml:space="preserve"
         stroke-miterlimit="10.433"
         font-style="normal"
         font-variant="normal"
         font-weight="normal"
         font-stretch="normal"
         font-size-adjust="none"
         letter-spacing="normal"
         word-spacing="normal"><path
           style="fill:#000000;stroke-width:0"
           inkscape:connector-curvature="0"
           d="m 466.29,400.37 -0.01,-0.19 -0.01,-0.2 -0.02,-0.2 -0.03,-0.21 -0.04,-0.21 -0.05,-0.21 -0.06,-0.22 -0.07,-0.22 -0.09,-0.22 -0.09,-0.22 -0.11,-0.22 -0.12,-0.22 -0.14,-0.21 -0.15,-0.22 -0.16,-0.21 -0.18,-0.21 -0.2,-0.2 -0.21,-0.19 -0.23,-0.19 -0.25,-0.19 -0.26,-0.17 -0.29,-0.17 -0.3,-0.15 -0.32,-0.15 -0.35,-0.14 -0.36,-0.12 -0.38,-0.12 -0.41,-0.1 -0.21,-0.04 -0.22,-0.04 -0.22,-0.04 -0.23,-0.03 -0.23,-0.03 -0.24,-0.03 -0.25,-0.02 -0.25,-0.02 c -0.25,-0.05 -0.44,-0.25 -0.44,-0.55 0,-0.54 0.55,-0.54 0.99,-0.54 4.84,0 9.47,2.43 9.51,6.21 v 11.36 c 0,1.96 0,3.55 2,5.19 1.75,1.45 3.64,1.55 4.74,1.6 0.25,0.04 0.45,0.25 0.45,0.54 0,0.5 -0.31,0.5 -0.8,0.55 -3.29,0.2 -5.68,2 -6.23,4.44 -0.16,0.54 -0.16,0.64 -0.16,2.43 v 9.88 c 0,2.08 0,3.69 -2.39,5.58 -1.98,1.54 -5.42,2.03 -7.12,2.03 -0.44,0 -0.99,0 -0.99,-0.55 0,-0.5 0.3,-0.5 0.8,-0.55 3.13,-0.18 5.58,-1.79 6.22,-4.32 0.16,-0.46 0.16,-0.55 0.16,-2.35 v -10.47 c 0,-2.28 0.39,-3.12 1.98,-4.73 1.05,-1.03 2.5,-1.53 3.89,-1.94 -4.08,-1.14 -5.87,-3.44 -5.87,-6.33 z"
           id="path5004" /></g>    </g>
  </g>
</svg>
