<?xml version="1.0" encoding="UTF-8" standalone="no"?>
<!-- Created with Inkscape (http://www.inkscape.org/) -->

<svg
   xmlns:dc="http://purl.org/dc/elements/1.1/"
   xmlns:cc="http://creativecommons.org/ns#"
   xmlns:rdf="http://www.w3.org/1999/02/22-rdf-syntax-ns#"
   xmlns:svg="http://www.w3.org/2000/svg"
   xmlns="http://www.w3.org/2000/svg"
   xmlns:sodipodi="http://sodipodi.sourceforge.net/DTD/sodipodi-0.dtd"
   xmlns:inkscape="http://www.inkscape.org/namespaces/inkscape"
   width="1369.0535"
   height="321.84814"
   id="svg2"
   version="1.1"
   inkscape:version="0.48.5 r10040"
   sodipodi:docname="Neues Dokument 1">
  <sodipodi:namedview
     id="base"
     pagecolor="#ffffff"
     bordercolor="#666666"
     borderopacity="1.0"
     inkscape:pageopacity="0.0"
     inkscape:pageshadow="2"
     inkscape:zoom="0.49497475"
     inkscape:cx="505.7486"
     inkscape:cy="329.21824"
     inkscape:document-units="px"
     inkscape:current-layer="layer1"
     showgrid="false"
     inkscape:window-width="1280"
     inkscape:window-height="712"
     inkscape:window-x="0"
     inkscape:window-y="0"
     inkscape:window-maximized="1"
     fit-margin-top="0"
     fit-margin-left="0"
     fit-margin-right="0"
     fit-margin-bottom="0" />
  <defs
     id="defs4" />
  <metadata
     id="metadata7">
    <rdf:RDF>
      <cc:Work
         rdf:about="">
        <dc:format>image/svg+xml</dc:format>
        <dc:type
           rdf:resource="http://purl.org/dc/dcmitype/StillImage" />
        <dc:title></dc:title>
      </cc:Work>
    </rdf:RDF>
  </metadata>
  <g
     id="layer1"
     inkscape:groupmode="layer"
     inkscape:label="Ebene 1"
     transform="translate(18.324548,-158.67997)">
    <g
       id="g2990"
       transform="translate(-319.10879,-152.46846)">
      <g
         word-spacing="normal"
         letter-spacing="normal"
         font-size-adjust="none"
         font-stretch="normal"
         font-weight="normal"
         font-variant="normal"
         font-style="normal"
         stroke-miterlimit="10.433"
         xml:space="preserve"
         transform="matrix(1.0629921,0,0,-1.0629921,-186.02362,789.27165)"
         id="content"
         style="font-style:normal;font-variant:normal;font-weight:normal;font-stretch:normal;letter-spacing:normal;word-spacing:normal;text-anchor:start;fill:none;stroke:#000000;stroke-linecap:butt;stroke-linejoin:miter;stroke-miterlimit:10.43299961;stroke-opacity:1;stroke-dasharray:none;stroke-dashoffset:0"><polygon
           id="polygon2993"
           points="486,324.56 479.38,331.34 472.7,324.56 473.59,323.67 479.38,328.75 485.11,323.67 "
           style="fill:#000000;stroke-width:0" /><path
           id="path2995"
           d="m 477.35,284.46 0.72,0.29 0.72,0.33 0.71,0.36 0.71,0.39 0.7,0.42 0.69,0.45 0.68,0.48 0.68,0.51 0.65,0.54 0.65,0.56 0.63,0.59 0.61,0.61 0.6,0.64 0.57,0.66 0.56,0.68 0.54,0.7 0.51,0.72 0.49,0.73 0.46,0.76 0.44,0.77 0.41,0.79 0.38,0.8 0.35,0.82 0.32,0.83 0.29,0.84 0.25,0.86 0.21,0.86 0.18,0.87 0.15,0.88 0.1,0.89 0.06,0.89 0.02,0.9 c 0,8.03 -5.28,13.41 -12.71,13.41 l -0.3,-1.25 c 4.98,0 8.62,-3.88 8.62,-10.57 0,-4.98 -2.54,-16.64 -10.9,-21.31 -0.25,1.73 -0.75,5.38 -4.39,5.38 v -1.1 c 2.09,0 3.04,-1.2 3.04,-4.23 0,-0.75 -0.06,-0.8 -0.56,-1 -1.28,-0.55 -2.78,-0.89 -4.17,-0.89 h 0 c -0.7,0 -2.3,0 -2.3,2.14 0,1.98 1.89,3.98 3.99,3.98 v 1.1 c -2.64,0 -5.08,-2.5 -5.08,-5.08 0,-1 0.3,-1.55 0.3,-1.6 h 0 c -3.89,1.53 -5.58,5.43 -5.58,9.91 0,3.44 1.29,10.52 5.08,15.89 3.64,5.09 8.32,7.38 11.95,7.38 l 0.3,1.25 c -10.75,0 -21.72,-11.32 -21.72,-22.93 0,-8.26 5.58,-13.29 12.76,-13.29 1.24,0 2.94,0.2 4.88,0.75 -0.21,-3.1 -0.21,-3.19 -0.21,-3.85 0,-1.59 0,-5.48 4.15,-5.48 5.92,0 8.31,9.12 8.31,9.67 0,0.34 -0.35,0.5 -0.55,0.5 -0.39,0 -0.5,-0.25 -0.59,-0.55 -1.19,-3.54 -4.08,-4.78 -5.83,-4.78 -2.3,0 -3.05,1.35 -3.53,5.13 z"
           inkscape:connector-curvature="0"
           style="fill:#000000;stroke-width:0" /><path
           id="path2997"
           d="m 509.89,289.81 -0.08,-0.02 -0.08,-0.02 -0.08,-0.03 -0.08,-0.03 -0.07,-0.03 -0.08,-0.03 -0.07,-0.04 -0.07,-0.04 -0.06,-0.04 -0.07,-0.05 -0.06,-0.04 -0.06,-0.05 -0.06,-0.05 -0.05,-0.05 -0.05,-0.05 -0.05,-0.06 -0.05,-0.05 -0.04,-0.06 -0.04,-0.06 -0.04,-0.06 -0.03,-0.06 -0.04,-0.06 -0.03,-0.06 -0.02,-0.07 -0.03,-0.06 -0.02,-0.06 -0.01,-0.07 -0.02,-0.06 -0.01,-0.07 -0.01,-0.06 0,-0.07 0,-0.06 c 0,-0.81 0.7,-1.13 1.15,-1.13 0.35,0 1.67,0.22 1.67,1.99 0,2.26 -2.5,3.03 -4.62,3.03 -5.44,0 -6.42,-4 -6.42,-5.08 0,-1.3 0.73,-2.12 1.22,-2.55 0.9,-0.7 1.53,-0.83 3.93,-1.25 0.74,-0.14 2.97,-0.56 2.97,-2.29 0,-0.6 -0.39,-1.93 -1.84,-2.8 -1.36,-0.77 -3.08,-0.77 -3.49,-0.77 -1.4,0 -3.39,0.32 -4.18,1.47 1.15,0.14 1.92,1 1.92,1.99 0,0.87 -0.63,1.28 -1.36,1.28 -1.02,0 -2.03,-0.8 -2.03,-2.33 0,-2.09 2.23,-3.37 5.61,-3.37 6.42,0 7.61,4.39 7.61,5.74 0,3.21 -3.53,3.83 -4.82,4.08 -0.31,0.07 -1.18,0.21 -1.39,0.27 -1.29,0.25 -1.92,0.98 -1.92,1.75 0,0.8 0.63,1.73 1.39,2.23 0.94,0.6 2.16,0.66 2.75,0.66 0.74,0 2.55,-0.11 3.31,-1.3 z"
           inkscape:connector-curvature="0"
           style="fill:#000000;stroke-width:0" /><path
           id="path2999"
           d="m 564.27,300.46 0.14,0 0.15,0 0.14,0 0.07,0.01 0.08,0 0.07,0.01 0.07,0.01 0.07,0.01 0.07,0.01 0.07,0.01 0.06,0.02 0.07,0.02 0.06,0.02 0.06,0.02 0.06,0.03 0.06,0.03 0.05,0.04 0.05,0.04 0.05,0.04 0.04,0.04 0.04,0.05 0.02,0.03 0.02,0.03 0.01,0.02 0.02,0.03 0.01,0.04 0.02,0.03 0.01,0.03 0.01,0.04 0.01,0.03 0.01,0.04 0,0.04 0.01,0.04 0,0.04 0.01,0.04 0,0.05 0,0.04 c 0,1 -0.95,1 -1.64,1 h -29.84 c -0.71,0 -1.64,0 -1.64,-1 0,-0.98 0.93,-0.98 1.68,-0.98 z"
           inkscape:connector-curvature="0"
           style="fill:#000000;stroke-width:0" /><path
           id="path3001"
           d="m 564.32,290.79 0.07,0 0.06,0 0.14,0 0.14,0 0.07,0.01 0.07,0 0.07,0.01 0.07,0.01 0.06,0.01 0.07,0.01 0.07,0.01 0.06,0.02 0.07,0.02 0.06,0.02 0.06,0.02 0.06,0.03 0.05,0.03 0.05,0.04 0.05,0.04 0.05,0.04 0.04,0.05 0.02,0.02 0.02,0.03 0.02,0.02 0.02,0.03 0.01,0.03 0.02,0.03 0.01,0.03 0.02,0.04 0.01,0.03 0.01,0.03 0.01,0.04 0.01,0.04 0,0.04 0.01,0.04 0,0.04 0.01,0.04 0,0.05 0,0.05 c 0,1 -0.95,1 -1.69,1 h -29.75 c -0.75,0 -1.68,0 -1.68,-1 0,-1 0.93,-1 1.64,-1 z"
           inkscape:connector-curvature="0"
           style="fill:#000000;stroke-width:0" /><path
           id="path3003"
           d="m 641.68,296.05 0.1,0 0.1,0 0.09,0 0.08,0 0.09,0 0.07,0.01 0.08,0 0.07,0 0.06,0.01 0.07,0 0.06,0.01 0.05,0.01 0.05,0.01 0.05,0.01 0.04,0.01 0.04,0.02 0.04,0.02 0.04,0.02 0.03,0.02 0.03,0.02 0.02,0.03 0.03,0.03 0.02,0.03 0.02,0.04 0.01,0.04 0.02,0.04 0.01,0.04 0.01,0.05 0,0.05 0.01,0.06 0,0.06 0,0.06 c 0.09,34.93 4.13,63.93 21.56,88.29 0.36,0.45 0.36,0.54 0.36,0.64 0,0.5 -0.36,0.5 -1.15,0.5 -0.8,0 -0.89,0 -0.99,-0.1 -0.2,-0.15 -6.53,-7.42 -11.56,-17.44 -6.58,-13.15 -10.72,-28.25 -12.56,-46.39 -0.14,-1.53 -1.19,-11.9 -1.19,-23.7 v -1.95 c 0.05,-0.55 0.34,-0.55 1.39,-0.55 z"
           inkscape:connector-curvature="0"
           style="fill:#000000;stroke-width:0" /><path
           id="path3005"
           d="m 638.93,297.09 -0.1,0 -0.09,0 -0.09,0 -0.08,-0.01 -0.08,0 -0.07,0 -0.07,0 -0.07,0 -0.07,-0.01 -0.06,0 -0.05,-0.01 -0.06,0 -0.05,-0.01 -0.05,-0.01 -0.04,-0.01 -0.04,-0.01 -0.04,-0.02 -0.03,-0.01 -0.04,-0.02 -0.03,-0.02 -0.02,-0.02 -0.03,-0.02 -0.02,-0.03 -0.02,-0.02 -0.02,-0.03 -0.01,-0.04 -0.02,-0.03 -0.01,-0.04 -0.01,-0.04 -0.01,-0.04 -0.01,-0.05 0,-0.05 v -1.94 c 0,-30.44 5.42,-48.28 6.97,-53.31 3.39,-11.06 8.92,-22.72 17.25,-32.99 0.73,-0.89 0.94,-1.14 1.14,-1.23 0.09,-0.06 0.14,-0.11 0.94,-0.11 0.79,0 1.15,0 1.15,0.5 0,0.11 0,0.2 -0.29,0.66 -16.6,23.01 -21.58,50.72 -21.63,88.28 0,0.69 -0.3,0.69 -1.39,0.69 z"
           inkscape:connector-curvature="0"
           style="fill:#000000;stroke-width:0" /><path
           id="path3007"
           d="m 686.91,448.15 0,0 0,0.01 0,0.01 0,0.01 -0.01,0.01 0,0.01 0,0.02 0,0.02 0,0.02 -0.01,0.02 0,0.02 -0.01,0.02 -0.01,0.03 -0.01,0.02 -0.01,0.02 -0.01,0.03 -0.01,0.02 -0.02,0.03 -0.02,0.02 -0.02,0.03 -0.02,0.02 -0.01,0.01 -0.01,0.01 -0.02,0.01 -0.01,0.01 -0.02,0.01 -0.01,0.01 -0.02,0.01 -0.01,0.01 -0.02,0.01 -0.02,0.01 -0.02,0.01 -0.02,0 -0.02,0.01 -0.02,0.01 -0.02,0 -0.02,0.01 -0.03,0 -0.02,0.01 -0.03,0 -0.02,0 -0.03,0.01 -0.03,0 -0.02,0 -0.03,0 c -1.16,0 -4.79,-0.41 -6.08,-0.5 -0.41,-0.05 -0.96,-0.09 -0.96,-1 0,-0.59 0.46,-0.59 1.21,-0.59 2.39,0 2.48,-0.35 2.48,-0.85 0,-0.36 -0.45,-2.05 -0.7,-3.09 l -4.08,-16.24 c -0.59,-2.5 -0.8,-3.29 -0.8,-5.03 0,-4.73 2.64,-7.83 6.33,-7.83 v 1.1 c -1.7,0 -3.34,1.34 -3.34,5.03 0,0.95 0,1.89 0.79,5.03 l 1.1,4.59 c 0.3,1.1 0.3,1.19 0.75,1.74 2.44,3.23 4.69,3.98 5.98,3.98 1.8,0 3.14,-1.48 3.14,-4.68 0,-2.94 -1.65,-8.66 -2.54,-10.57 -1.64,-3.33 -3.94,-5.12 -5.88,-5.12 v -1.1 c 5.88,0 12,7.43 12,14.6 0,4.53 -2.64,7.97 -6.62,7.97 -2.28,0 -4.33,-1.44 -5.83,-2.99 z"
           inkscape:connector-curvature="0"
           style="fill:#000000;stroke-width:0" /><path
           id="path3009"
           d="m 713.95,413.02 h -1.18 c -0.1,-0.76 -0.46,-2.82 -0.91,-3.17 -0.27,-0.2 -2.95,-0.2 -3.44,-0.2 H 702 c 3.66,3.23 4.88,4.2 6.97,5.84 2.58,2.06 4.98,4.22 4.98,7.53 0,4.22 -3.68,6.8 -8.15,6.8 -4.32,0 -7.25,-3.03 -7.25,-6.23 0,-1.79 1.5,-1.96 1.86,-1.96 0.82,0 1.84,0.6 1.84,1.85 0,0.62 -0.25,1.84 -2.06,1.84 1.08,2.47 3.45,3.23 5.09,3.23 3.49,0 5.3,-2.7 5.3,-5.53 0,-3.03 -2.16,-5.43 -3.28,-6.68 l -8.39,-8.3 c -0.36,-0.31 -0.36,-0.39 -0.36,-1.36 h 14.36 z"
           inkscape:connector-curvature="0"
           style="fill:#000000;stroke-width:0" /><path
           id="path3011"
           d="m 780.39,448.15 0,0 0,0.01 0,0.01 0,0.01 0,0.01 -0.01,0.01 0,0.02 0,0.02 0,0.02 -0.01,0.02 0,0.02 -0.01,0.02 -0.01,0.03 -0.01,0.02 -0.01,0.02 -0.01,0.03 -0.01,0.02 -0.02,0.03 -0.02,0.02 -0.02,0.03 -0.02,0.02 -0.01,0.01 -0.01,0.01 -0.02,0.01 -0.01,0.01 -0.02,0.01 -0.01,0.01 -0.02,0.01 -0.01,0.01 -0.02,0.01 -0.02,0.01 -0.02,0.01 -0.02,0 -0.02,0.01 -0.02,0.01 -0.02,0 -0.02,0.01 -0.03,0 -0.02,0.01 -0.03,0 -0.02,0 -0.03,0.01 -0.03,0 -0.02,0 -0.03,0 c -1.16,0 -4.78,-0.41 -6.08,-0.5 -0.41,-0.05 -0.95,-0.09 -0.95,-1 0,-0.59 0.45,-0.59 1.2,-0.59 2.39,0 2.48,-0.35 2.48,-0.85 0,-0.36 -0.45,-2.05 -0.7,-3.09 l -4.08,-16.24 c -0.59,-2.5 -0.8,-3.29 -0.8,-5.03 0,-4.73 2.65,-7.83 6.33,-7.83 v 1.1 c -1.7,0 -3.34,1.34 -3.34,5.03 0,0.95 0,1.89 0.79,5.03 l 1.1,4.59 c 0.3,1.1 0.3,1.19 0.75,1.74 2.44,3.23 4.69,3.98 5.98,3.98 1.8,0 3.14,-1.48 3.14,-4.68 0,-2.94 -1.65,-8.66 -2.54,-10.57 -1.64,-3.33 -3.94,-5.12 -5.88,-5.12 v -1.1 c 5.88,0 12,7.43 12,14.6 0,4.53 -2.64,7.97 -6.62,7.97 -2.28,0 -4.33,-1.44 -5.83,-2.99 z"
           inkscape:connector-curvature="0"
           style="fill:#000000;stroke-width:0" /><path
           id="path3013"
           d="m 801.51,428.84 0,0.04 0,0.04 0,0.04 0,0.04 0,0.04 0,0.04 0,0.04 0,0.03 0,0.04 -0.01,0.03 0,0.03 0,0.03 0,0.03 -0.01,0.03 0,0.03 0,0.02 -0.01,0.03 0,0.02 -0.01,0.02 0,0.03 -0.02,0.04 -0.01,0.04 -0.02,0.03 -0.02,0.03 -0.02,0.03 -0.02,0.03 -0.03,0.02 -0.03,0.02 -0.03,0.01 -0.04,0.02 -0.04,0.01 -0.05,0.01 -0.02,0.01 -0.02,0 -0.03,0.01 -0.03,0 -0.02,0 -0.03,0.01 -0.03,0 -0.03,0 -0.03,0 -0.04,0 -0.03,0.01 -0.04,0 -0.03,0 -0.04,0 -0.04,0 -0.04,0 -0.04,0 -0.05,0 -0.04,0 -0.04,0 c -2.24,-2.2 -5.4,-2.23 -6.83,-2.23 v -1.25 c 0.84,0 3.14,0 5.04,0.96 v -17.76 c 0,-1.16 0,-1.61 -3.48,-1.61 h -1.31 v -1.25 c 0.62,0.03 4.9,0.14 6.2,0.14 1.08,0 5.47,-0.11 6.23,-0.14 v 1.25 H 805 c -3.49,0 -3.49,0.45 -3.49,1.61 z"
           inkscape:connector-curvature="0"
           style="fill:#000000;stroke-width:0" /><path
           id="path3015"
           d="m 880.24,419.86 -0.19,-0.31 -0.18,-0.29 -0.19,-0.28 -0.19,-0.26 -0.18,-0.25 -0.19,-0.23 -0.18,-0.22 -0.19,-0.21 -0.19,-0.2 -0.18,-0.18 -0.19,-0.17 -0.19,-0.16 -0.19,-0.15 -0.18,-0.14 -0.19,-0.13 -0.19,-0.12 -0.19,-0.11 -0.19,-0.1 -0.19,-0.09 -0.19,-0.09 -0.19,-0.07 -0.2,-0.07 -0.19,-0.06 -0.19,-0.06 -0.2,-0.05 -0.2,-0.04 -0.19,-0.04 -0.2,-0.03 -0.41,-0.05 -0.4,-0.03 c -0.61,-0.05 -1.05,-0.05 -1.05,-1 0,-0.3 0.25,-0.55 0.64,-0.55 1.34,0 2.89,0.16 4.28,0.16 1.64,0 3.39,-0.16 4.99,-0.16 0.29,0 0.95,0 0.95,0.95 0,0.55 -0.45,0.6 -0.8,0.6 -1.15,0.09 -2.34,0.5 -2.34,1.73 0,0.61 0.3,1.16 0.69,1.85 l 3.79,6.39 h 12.5 l -0.14,1.53 h -11.42 l 9.83,16.45 1.59,-16.45 0.14,-1.53 c 0.11,-1.05 0.8,-7.83 0.8,-8.33 0,-1.5 -2.59,-1.64 -3.58,-1.64 -0.7,0 -1.2,0 -1.2,-1 0,-0.55 0.59,-0.55 0.7,-0.55 2.03,0 4.19,0.16 6.22,0.16 1.25,0 4.39,-0.16 5.64,-0.16 0.3,0 0.89,0 0.89,1 0,0.55 -0.5,0.55 -1.14,0.55 -3.09,0 -3.09,0.34 -3.25,1.79 l -3.03,31.13 c -0.11,1 -0.11,1.2 -0.95,1.2 -0.8,0 -0.99,-0.34 -1.3,-0.84 z"
           inkscape:connector-curvature="0"
           style="fill:#000000;stroke-width:0" /><path
           id="path3017"
           d="m 920.54,448.15 0,0 0,0.01 0,0.01 0,0.01 0,0.01 0,0.01 0,0.02 0,0.02 -0.01,0.02 0,0.02 -0.01,0.02 0,0.02 -0.01,0.03 -0.01,0.02 -0.01,0.02 -0.01,0.03 -0.02,0.02 -0.01,0.03 -0.02,0.02 -0.02,0.03 -0.02,0.02 -0.02,0.01 -0.01,0.01 -0.01,0.01 -0.02,0.01 -0.01,0.01 -0.01,0.01 -0.02,0.01 -0.02,0.01 -0.01,0.01 -0.02,0.01 -0.02,0.01 -0.02,0 -0.02,0.01 -0.02,0.01 -0.02,0 -0.03,0.01 -0.02,0 -0.02,0.01 -0.03,0 -0.03,0 -0.02,0.01 -0.03,0 -0.03,0 -0.03,0 c -1.15,0 -4.78,-0.41 -6.08,-0.5 -0.4,-0.05 -0.95,-0.09 -0.95,-1 0,-0.59 0.45,-0.59 1.2,-0.59 2.4,0 2.49,-0.35 2.49,-0.85 0,-0.36 -0.46,-2.05 -0.71,-3.09 l -4.07,-16.24 c -0.6,-2.5 -0.8,-3.29 -0.8,-5.03 0,-4.73 2.64,-7.83 6.33,-7.83 v 1.1 c -1.71,0 -3.34,1.34 -3.34,5.03 0,0.95 0,1.89 0.79,5.03 l 1.09,4.59 c 0.3,1.1 0.3,1.19 0.75,1.74 2.44,3.23 4.69,3.98 5.99,3.98 1.8,0 3.14,-1.48 3.14,-4.68 0,-2.94 -1.66,-8.66 -2.55,-10.57 -1.64,-3.33 -3.93,-5.12 -5.87,-5.12 v -1.1 c 5.87,0 12,7.43 12,14.6 0,4.53 -2.64,7.97 -6.63,7.97 -2.28,0 -4.33,-1.44 -5.83,-2.99 z"
           inkscape:connector-curvature="0"
           style="fill:#000000;stroke-width:0" /><path
           id="path3019"
           d="m 947.59,413.02 h -1.18 c -0.1,-0.76 -0.46,-2.82 -0.91,-3.17 -0.27,-0.2 -2.95,-0.2 -3.44,-0.2 h -6.42 c 3.66,3.23 4.88,4.2 6.97,5.84 2.58,2.06 4.98,4.22 4.98,7.53 0,4.22 -3.68,6.8 -8.15,6.8 -4.32,0 -7.25,-3.03 -7.25,-6.23 0,-1.79 1.5,-1.96 1.86,-1.96 0.83,0 1.84,0.6 1.84,1.85 0,0.62 -0.25,1.84 -2.06,1.84 1.08,2.47 3.45,3.23 5.09,3.23 3.49,0 5.3,-2.7 5.3,-5.53 0,-3.03 -2.16,-5.43 -3.28,-6.68 l -8.39,-8.3 c -0.36,-0.31 -0.36,-0.39 -0.36,-1.36 h 14.36 z"
           inkscape:connector-curvature="0"
           style="fill:#000000;stroke-width:0" /><path
           id="path3021"
           d="m 707.28,360.34 0,0.74 -0.01,0.75 -0.02,0.75 -0.04,0.74 -0.04,0.75 -0.06,0.74 -0.08,0.74 -0.09,0.73 -0.12,0.73 -0.14,0.73 -0.16,0.72 -0.19,0.72 -0.21,0.71 -0.25,0.71 -0.28,0.7 -0.15,0.35 -0.16,0.34 c -2.28,4.8 -6.37,5.6 -8.47,5.6 -2.98,0 -6.62,-1.3 -8.67,-5.94 -1.59,-3.44 -1.84,-7.33 -1.84,-11.31 0,-3.74 0.2,-8.22 2.25,-12 2.14,-4.04 5.78,-5.04 8.22,-5.04 v 1.1 c -1.94,0 -4.89,1.25 -5.79,6.03 -0.54,2.98 -0.54,7.56 -0.54,10.52 0,3.18 0,6.46 0.4,9.15 0.94,5.94 4.68,6.38 5.93,6.38 1.64,0 4.93,-0.89 5.87,-5.83 0.5,-2.78 0.5,-6.58 0.5,-9.7 0,-3.75 0,-7.13 -0.55,-10.32 -0.75,-4.73 -3.59,-6.23 -5.82,-6.23 h 0 v -1.1 c 2.68,0 6.46,1.05 8.67,5.79 1.59,3.43 1.84,7.31 1.84,11.25 z"
           inkscape:connector-curvature="0"
           style="fill:#000000;stroke-width:0" /><path
           id="path3023"
           d="m 792.48,376.29 0,0.05 0,0.06 0,0.05 0,0.05 0,0.05 0,0.05 0,0.04 -0.01,0.05 0,0.04 0,0.04 0,0.04 0,0.04 0,0.04 0,0.03 -0.01,0.04 0,0.03 -0.01,0.07 -0.01,0.06 -0.01,0.05 -0.01,0.05 -0.02,0.05 -0.02,0.04 -0.02,0.04 -0.03,0.03 -0.02,0.03 -0.04,0.03 -0.03,0.03 -0.04,0.02 -0.05,0.02 -0.02,0.01 -0.02,0 -0.03,0.01 -0.03,0.01 -0.02,0 -0.03,0.01 -0.04,0.01 -0.03,0 -0.03,0 -0.04,0.01 -0.03,0 -0.04,0 -0.04,0.01 -0.04,0 -0.04,0 -0.04,0 -0.05,0 -0.04,0 -0.05,0.01 -0.05,0 -0.05,0 -0.05,0 c -3.1,-3.19 -7.47,-3.19 -9.07,-3.19 v -1.55 c 1,0 3.94,0 6.52,1.3 v -25.81 c 0,-1.8 -0.14,-2.39 -4.63,-2.39 h -1.59 v -1.55 c 1.75,0.15 6.08,0.15 8.06,0.15 2,0 6.33,0 8.08,-0.15 v 1.55 h -1.59 c -4.49,0 -4.64,0.54 -4.64,2.39 z"
           inkscape:connector-curvature="0"
           style="fill:#000000;stroke-width:0" /><path
           id="path3025"
           d="m 876.72,376.29 0,0.05 -0.01,0.06 0,0.05 0,0.05 0,0.05 0,0.05 0,0.04 0,0.05 0,0.04 0,0.04 0,0.04 0,0.04 0,0.04 -0.01,0.03 0,0.04 0,0.03 -0.01,0.07 -0.01,0.06 -0.01,0.05 -0.02,0.05 -0.01,0.05 -0.02,0.04 -0.02,0.04 -0.03,0.03 -0.03,0.03 -0.03,0.03 -0.03,0.03 -0.04,0.02 -0.05,0.02 -0.02,0.01 -0.03,0 -0.02,0.01 -0.03,0.01 -0.03,0 -0.03,0.01 -0.03,0.01 -0.03,0 -0.03,0 -0.04,0.01 -0.03,0 -0.04,0 -0.04,0.01 -0.04,0 -0.04,0 -0.04,0 -0.05,0 -0.05,0 -0.04,0.01 -0.05,0 -0.05,0 -0.06,0 c -3.09,-3.19 -7.47,-3.19 -9.06,-3.19 v -1.55 c 1,0 3.94,0 6.52,1.3 v -25.81 c 0,-1.8 -0.14,-2.39 -4.63,-2.39 h -1.59 v -1.55 c 1.75,0.15 6.08,0.15 8.06,0.15 2,0 6.33,0 8.08,-0.15 v 1.55 h -1.6 c -4.48,0 -4.63,0.54 -4.63,2.39 z"
           inkscape:connector-curvature="0"
           style="fill:#000000;stroke-width:0" /><path
           id="path3027"
           d="m 951.35,376.29 0,0.05 0,0.06 0,0.05 0,0.05 0,0.05 0,0.05 0,0.04 0,0.05 0,0.04 0,0.04 0,0.04 -0.01,0.04 0,0.04 0,0.03 0,0.04 -0.01,0.03 0,0.07 -0.01,0.06 -0.01,0.05 -0.02,0.05 -0.01,0.05 -0.02,0.04 -0.03,0.04 -0.02,0.03 -0.03,0.03 -0.03,0.03 -0.04,0.03 -0.04,0.02 -0.04,0.02 -0.02,0.01 -0.03,0 -0.02,0.01 -0.03,0.01 -0.03,0 -0.03,0.01 -0.03,0.01 -0.03,0 -0.04,0 -0.03,0.01 -0.04,0 -0.03,0 -0.04,0.01 -0.04,0 -0.04,0 -0.05,0 -0.04,0 -0.05,0 -0.05,0.01 -0.05,0 -0.05,0 -0.05,0 c -3.09,-3.19 -7.47,-3.19 -9.06,-3.19 v -1.55 c 1,0 3.94,0 6.51,1.3 v -25.81 c 0,-1.8 -0.14,-2.39 -4.62,-2.39 h -1.59 v -1.55 c 1.75,0.15 6.07,0.15 8.06,0.15 2,0 6.33,0 8.08,-0.15 v 1.55 h -1.6 c -4.48,0 -4.64,0.54 -4.64,2.39 z"
           inkscape:connector-curvature="0"
           style="fill:#000000;stroke-width:0" /><path
           id="path3029"
           d="m 1038.6,376.29 0,0.05 0,0.06 0,0.05 0,0.05 0,0.05 0,0.05 0,0.04 0,0.05 0,0.04 0,0.04 0,0.04 0,0.04 0,0.04 0,0.03 0,0.04 0,0.03 0,0.07 0,0.06 -0.1,0.05 0,0.05 0,0.05 0,0.04 0,0.04 -0.1,0.03 0,0.03 0,0.03 0,0.03 -0.1,0.02 0,0.02 -0.1,0.01 0,0 0,0.01 0,0.01 -0.1,0 0,0.01 0,0.01 -0.1,0 0,0 0,0.01 -0.1,0 0,0 0,0.01 -0.1,0 0,0 -0.1,0 0,0 0,0 -0.1,0.01 0,0 -0.1,0 -0.1,0 c -3,-3.19 -7.4,-3.19 -9,-3.19 v -1.55 c 1,0 3.9,0 6.5,1.3 v -25.81 c 0,-1.8 -0.1,-2.39 -4.6,-2.39 h -1.6 v -1.55 c 1.7,0.15 6.1,0.15 8.1,0.15 2,0 6.3,0 8,-0.15 v 1.55 h -1.6 c -4.4,0 -4.6,0.54 -4.6,2.39 z"
           inkscape:connector-curvature="0"
           style="fill:#000000;stroke-width:0" /><path
           id="path3031"
           d="m 1113.2,376.29 0,0.05 0,0.06 0,0.05 0,0.05 0,0.05 0,0.05 0,0.04 0,0.05 0,0.04 0,0.04 0,0.04 0,0.04 0,0.04 0,0.03 0,0.04 0,0.03 0,0.07 0,0.06 0,0.05 0,0.05 0,0.05 -0.1,0.04 0,0.04 0,0.03 0,0.03 -0.1,0.03 0,0.03 0,0.02 -0.1,0.02 0,0.01 0,0 -0.1,0.01 0,0.01 0,0 -0.1,0.01 0,0.01 0,0 0,0 -0.1,0.01 0,0 -0.1,0 0,0.01 0,0 -0.1,0 0,0 -0.1,0 0,0 -0.1,0.01 0,0 -0.1,0 0,0 c -3.1,-3.19 -7.5,-3.19 -9.1,-3.19 v -1.55 c 1,0 4,0 6.5,1.3 v -25.81 c 0,-1.8 -0.1,-2.39 -4.6,-2.39 h -1.6 v -1.55 c 1.8,0.15 6.1,0.15 8.1,0.15 2,0 6.3,0 8.1,-0.15 v 1.55 h -1.6 c -4.5,0 -4.7,0.54 -4.7,2.39 z"
           inkscape:connector-curvature="0"
           style="fill:#000000;stroke-width:0" /><path
           id="path3033"
           d="m 699,316.53 0,0.06 0,0.05 0,0.05 0,0.05 0,0.05 0,0.05 0,0.04 0,0.05 0,0.04 0,0.04 -0.01,0.04 0,0.04 0,0.04 0,0.04 0,0.03 -0.01,0.03 -0.01,0.07 0,0.06 -0.02,0.05 -0.01,0.05 -0.02,0.05 -0.02,0.04 -0.02,0.04 -0.02,0.03 -0.03,0.04 -0.03,0.02 -0.04,0.03 -0.04,0.02 -0.04,0.02 -0.03,0.01 -0.02,0.01 -0.03,0 -0.02,0.01 -0.03,0.01 -0.03,0 -0.03,0.01 -0.03,0 -0.04,0.01 -0.03,0 -0.04,0 -0.04,0.01 -0.03,0 -0.04,0 -0.05,0 -0.04,0 -0.04,0.01 -0.05,0 -0.05,0 -0.05,0 -0.05,0 -0.05,0 c -3.09,-3.19 -7.47,-3.19 -9.06,-3.19 v -1.55 c 1,0 3.93,0 6.51,1.3 v -25.81 c 0,-1.8 -0.14,-2.39 -4.62,-2.39 h -1.6 v -1.55 c 1.75,0.16 6.08,0.16 8.07,0.16 2,0 6.32,0 8.07,-0.16 v 1.55 h -1.59 c -4.48,0 -4.64,0.54 -4.64,2.39 z"
           inkscape:connector-curvature="0"
           style="fill:#000000;stroke-width:0" /><path
           id="path3035"
           d="m 784.16,288.48 5.29,5.13 c 7.76,6.87 10.76,9.56 10.76,14.55 0,5.68 -4.48,9.67 -10.56,9.67 -5.64,0 -9.33,-4.6 -9.33,-9.03 0,-2.78 2.5,-2.78 2.64,-2.78 0.86,0 2.59,0.59 2.59,2.64 0,1.29 -0.89,2.59 -2.64,2.59 -0.39,0 -0.5,0 -0.64,-0.05 1.14,3.24 3.83,5.08 6.72,5.08 4.53,0 6.69,-4.05 6.69,-8.12 0,-3.99 -2.5,-7.93 -5.23,-11.02 l -9.57,-10.66 c -0.56,-0.54 -0.56,-0.64 -0.56,-1.84 h 18.48 l 1.41,8.67 h -1.25 c -0.25,-1.5 -0.59,-3.69 -1.09,-4.43 -0.36,-0.4 -3.64,-0.4 -4.74,-0.4 z"
           inkscape:connector-curvature="0"
           style="fill:#000000;stroke-width:0" /><path
           id="path3037"
           d="m 884.45,294.66 -0.01,0.55 -0.04,0.54 -0.06,0.54 -0.08,0.53 -0.1,0.53 -0.12,0.51 -0.15,0.51 -0.16,0.49 -0.19,0.48 -0.2,0.47 -0.23,0.46 -0.24,0.44 -0.26,0.43 -0.28,0.41 -0.29,0.4 -0.31,0.38 -0.33,0.36 -0.34,0.35 -0.35,0.33 -0.37,0.3 -0.39,0.29 -0.39,0.27 -0.41,0.24 -0.42,0.22 -0.44,0.2 -0.44,0.17 -0.46,0.15 -0.46,0.13 -0.47,0.09 -0.49,0.08 -0.49,0.04 -0.5,0.01 c -2.39,0 -4.53,-0.79 -6.33,-2.53 v 9.7 c 1,-0.29 2.64,-0.64 4.24,-0.64 6.12,0 9.61,4.53 9.61,5.19 0,0.3 -0.15,0.55 -0.5,0.55 -0.05,0 -0.15,0 -0.4,-0.16 -1,-0.45 -3.43,-1.44 -6.78,-1.44 -1.98,0 -4.28,0.35 -6.62,1.39 -0.39,0.15 -0.5,0.15 -0.6,0.15 -0.5,0 -0.5,-0.39 -0.5,-1.19 v -14.75 c 0,-0.89 0,-1.3 0.71,-1.3 0.34,0 0.44,0.16 0.64,0.45 0.55,0.8 2.39,3.49 6.42,3.49 2.6,0 3.85,-2.3 4.23,-3.19 0.82,-1.84 0.91,-3.78 0.91,-6.28 0,-1.73 0,-4.73 -1.2,-6.83 -1.19,-1.94 -3.03,-3.23 -5.33,-3.23 -3.64,0 -6.47,2.64 -7.33,5.58 0.16,-0.05 0.32,-0.1 0.86,-0.1 1.64,0 2.49,1.25 2.49,2.44 0,1.2 -0.85,2.44 -2.49,2.44 -0.7,0 -2.45,-0.35 -2.45,-2.64 0,-4.28 3.44,-9.11 9.03,-9.11 5.76,0 10.86,4.78 10.86,11.11 z"
           inkscape:connector-curvature="0"
           style="fill:#000000;stroke-width:0" /><path
           id="path3039"
           d="m 951.35,292.86 v -4.33 c 0,-1.8 -0.09,-2.34 -3.78,-2.34 h -1.05 v -1.55 c 2.05,0.16 4.64,0.16 6.74,0.16 2.09,0 4.73,0 6.76,-0.16 v 1.55 h -1.04 c -3.69,0 -3.78,0.54 -3.78,2.34 v 4.33 h 4.98 v 1.55 h -4.98 v 22.67 c 0,1 0,1.3 -0.8,1.3 -0.45,0 -0.6,0 -1,-0.61 l -15.3,-23.36 h 1.41 l 12.15,18.57 v -18.57 h -12.15 -1.41 v -1.55 z"
           inkscape:connector-curvature="0"
           style="fill:#000000;stroke-width:0" /><path
           id="path3041"
           d="m 1026.1,316.53 0,0.06 0,0.05 0,0.05 0,0.05 0,0.05 0,0.05 0,0.04 0,0.05 0,0.04 0,0.04 0,0.04 0,0.04 0,0.04 0,0.04 0,0.03 0,0.03 0,0.07 0,0.06 0,0.05 -0.1,0.05 0,0.05 0,0.04 0,0.04 0,0.03 -0.1,0.04 0,0.02 0,0.03 -0.1,0.02 0,0.02 0,0.01 -0.1,0.01 0,0 0,0.01 0,0.01 -0.1,0 0,0.01 0,0 -0.1,0.01 0,0 0,0 -0.1,0.01 0,0 -0.1,0 0,0 0,0 -0.1,0.01 0,0 -0.1,0 0,0 -0.1,0 0,0 c -3.1,-3.19 -7.5,-3.19 -9.1,-3.19 v -1.55 c 1,0 3.9,0 6.5,1.3 v -25.81 c 0,-1.8 -0.1,-2.39 -4.6,-2.39 h -1.6 v -1.55 c 1.8,0.16 6.1,0.16 8.1,0.16 2,0 6.3,0 8,-0.16 v 1.55 h -1.5 c -4.5,0 -4.7,0.54 -4.7,2.39 z"
           inkscape:connector-curvature="0"
           style="fill:#000000;stroke-width:0" /><path
           id="path3043"
           d="m 1059.3,300.58 0,0.75 0,0.74 0,0.75 0,0.74 -0.1,0.75 0,0.74 -0.1,0.74 -0.1,0.73 -0.1,0.74 -0.1,0.72 -0.2,0.73 -0.2,0.71 -0.2,0.72 -0.3,0.7 -0.2,0.7 -0.2,0.35 -0.2,0.34 c -2.2,4.8 -6.3,5.6 -8.4,5.6 -3,0 -6.7,-1.3 -8.7,-5.94 -1.6,-3.44 -1.8,-7.33 -1.8,-11.31 0,-3.74 0.2,-8.22 2.2,-12 2.2,-4.03 5.8,-5.03 8.2,-5.03 v 1.09 c -1.9,0 -4.9,1.25 -5.7,6.03 -0.6,2.99 -0.6,7.56 -0.6,10.52 0,3.19 0,6.47 0.4,9.15 0.9,5.94 4.7,6.38 5.9,6.38 1.7,0 5,-0.89 5.9,-5.83 0.5,-2.78 0.5,-6.58 0.5,-9.7 0,-3.75 0,-7.13 -0.5,-10.31 -0.8,-4.74 -3.6,-6.24 -5.9,-6.24 h 0 v -1.09 c 2.7,0 6.5,1.04 8.7,5.78 1.6,3.44 1.8,7.31 1.8,11.25 z"
           inkscape:connector-curvature="0"
           style="fill:#000000;stroke-width:0" /><path
           id="path3045"
           d="m 1117.4,288.48 5.3,5.13 c 7.7,6.87 10.7,9.56 10.7,14.55 0,5.68 -4.5,9.67 -10.5,9.67 -5.7,0 -9.3,-4.6 -9.3,-9.03 0,-2.78 2.5,-2.78 2.6,-2.78 0.9,0 2.6,0.59 2.6,2.64 0,1.29 -0.9,2.59 -2.7,2.59 -0.3,0 -0.5,0 -0.6,-0.05 1.1,3.24 3.8,5.08 6.7,5.08 4.6,0 6.7,-4.05 6.7,-8.12 0,-3.99 -2.5,-7.93 -5.2,-11.02 l -9.6,-10.66 c -0.5,-0.54 -0.5,-0.64 -0.5,-1.84 h 18.4 l 1.4,8.67 h -1.2 c -0.3,-1.5 -0.6,-3.69 -1.1,-4.43 -0.4,-0.4 -3.7,-0.4 -4.7,-0.4 z"
           inkscape:connector-curvature="0"
           style="fill:#000000;stroke-width:0" /><path
           id="path3047"
           d="m 699,256.77 0,0.05 0,0.06 0,0.05 0,0.05 0,0.05 0,0.05 0,0.04 0,0.05 0,0.04 0,0.04 -0.01,0.04 0,0.04 0,0.04 0,0.03 0,0.04 -0.01,0.03 -0.01,0.07 0,0.06 -0.02,0.05 -0.01,0.05 -0.02,0.05 -0.02,0.04 -0.02,0.04 -0.02,0.03 -0.03,0.03 -0.03,0.03 -0.04,0.03 -0.04,0.02 -0.04,0.02 -0.03,0.01 -0.02,0 -0.03,0.01 -0.02,0.01 -0.03,0 -0.03,0.01 -0.03,0.01 -0.03,0 -0.04,0 -0.03,0.01 -0.04,0 -0.04,0 -0.03,0.01 -0.04,0 -0.05,0 -0.04,0 -0.04,0 -0.05,0 -0.05,0.01 -0.05,0 -0.05,0 -0.05,0 c -3.09,-3.19 -7.47,-3.19 -9.06,-3.19 v -1.55 c 1,0 3.93,0 6.51,1.3 v -25.81 c 0,-1.8 -0.14,-2.39 -4.62,-2.39 h -1.6 v -1.55 c 1.75,0.16 6.08,0.16 8.07,0.16 2,0 6.32,0 8.07,-0.16 v 1.55 h -1.59 c -4.48,0 -4.64,0.54 -4.64,2.39 z"
           inkscape:connector-curvature="0"
           style="fill:#000000;stroke-width:0" /><path
           id="path3049"
           d="m 800.76,240.82 -0.01,0.74 -0.01,0.75 -0.02,0.75 -0.03,0.74 -0.04,0.75 -0.06,0.74 -0.08,0.74 -0.1,0.73 -0.11,0.73 -0.14,0.73 -0.16,0.72 -0.19,0.72 -0.22,0.72 -0.24,0.7 -0.28,0.7 -0.15,0.35 -0.16,0.34 c -2.28,4.8 -6.38,5.6 -8.47,5.6 -2.99,0 -6.63,-1.3 -8.67,-5.94 -1.6,-3.44 -1.85,-7.33 -1.85,-11.31 0,-3.74 0.21,-8.22 2.25,-12 2.14,-4.03 5.78,-5.03 8.22,-5.03 v 1.09 c -1.94,0 -4.89,1.25 -5.78,6.03 -0.55,2.99 -0.55,7.56 -0.55,10.52 0,3.18 0,6.47 0.41,9.15 0.94,5.94 4.67,6.38 5.92,6.38 1.64,0 4.94,-0.89 5.88,-5.83 0.5,-2.78 0.5,-6.58 0.5,-9.7 0,-3.75 0,-7.13 -0.55,-10.32 -0.75,-4.73 -3.59,-6.23 -5.83,-6.23 h 0 v -1.09 c 2.69,0 6.47,1.04 8.67,5.78 1.6,3.43 1.85,7.31 1.85,11.25 z"
           inkscape:connector-curvature="0"
           style="fill:#000000;stroke-width:0" /><path
           id="path3051"
           d="m 885,240.82 -0.01,0.74 -0.01,0.75 -0.02,0.75 -0.03,0.74 -0.05,0.75 -0.06,0.74 -0.07,0.74 -0.1,0.73 -0.11,0.73 -0.14,0.73 -0.16,0.72 -0.19,0.72 -0.22,0.72 -0.25,0.7 -0.27,0.7 -0.15,0.35 -0.16,0.34 c -2.28,4.8 -6.38,5.6 -8.47,5.6 -2.99,0 -6.63,-1.3 -8.68,-5.94 -1.59,-3.44 -1.84,-7.33 -1.84,-11.31 0,-3.74 0.21,-8.22 2.25,-12 2.14,-4.03 5.78,-5.03 8.22,-5.03 v 1.09 c -1.94,0 -4.89,1.25 -5.78,6.03 -0.55,2.99 -0.55,7.56 -0.55,10.52 0,3.18 0,6.47 0.41,9.15 0.94,5.94 4.67,6.38 5.92,6.38 1.64,0 4.94,-0.89 5.87,-5.83 0.5,-2.78 0.5,-6.58 0.5,-9.7 0,-3.75 0,-7.13 -0.54,-10.32 -0.75,-4.73 -3.59,-6.23 -5.83,-6.23 h 0 v -1.09 c 2.69,0 6.47,1.04 8.67,5.78 1.6,3.43 1.85,7.31 1.85,11.25 z"
           inkscape:connector-curvature="0"
           style="fill:#000000;stroke-width:0" /><path
           id="path3053"
           d="m 959.63,240.82 0,0.74 -0.01,0.75 -0.02,0.75 -0.03,0.74 -0.05,0.75 -0.06,0.74 -0.08,0.74 -0.09,0.73 -0.12,0.73 -0.14,0.73 -0.16,0.72 -0.19,0.72 -0.21,0.72 -0.25,0.7 -0.28,0.7 -0.15,0.35 -0.16,0.34 c -2.28,4.8 -6.37,5.6 -8.47,5.6 -2.98,0 -6.62,-1.3 -8.67,-5.94 -1.59,-3.44 -1.84,-7.33 -1.84,-11.31 0,-3.74 0.2,-8.22 2.25,-12 2.14,-4.03 5.78,-5.03 8.22,-5.03 v 1.09 c -1.94,0 -4.89,1.25 -5.78,6.03 -0.55,2.99 -0.55,7.56 -0.55,10.52 0,3.18 0,6.47 0.41,9.15 0.93,5.94 4.67,6.38 5.92,6.38 1.64,0 4.93,-0.89 5.87,-5.83 0.5,-2.78 0.5,-6.58 0.5,-9.7 0,-3.75 0,-7.13 -0.54,-10.32 -0.75,-4.73 -3.6,-6.23 -5.83,-6.23 h 0 v -1.09 c 2.68,0 6.47,1.04 8.67,5.78 1.59,3.43 1.84,7.31 1.84,11.25 z"
           inkscape:connector-curvature="0"
           style="fill:#000000;stroke-width:0" /><path
           id="path3055"
           d="m 1046.9,240.82 0,0.74 0,0.75 -0.1,0.75 0,0.74 0,0.75 -0.1,0.74 -0.1,0.74 -0.1,0.73 -0.1,0.73 -0.1,0.73 -0.2,0.72 -0.2,0.72 -0.2,0.72 -0.2,0.7 -0.3,0.7 -0.2,0.35 -0.1,0.34 c -2.3,4.8 -6.4,5.6 -8.5,5.6 -3,0 -6.6,-1.3 -8.7,-5.94 -1.6,-3.44 -1.8,-7.33 -1.8,-11.31 0,-3.74 0.2,-8.22 2.2,-12 2.2,-4.03 5.8,-5.03 8.3,-5.03 v 1.09 c -2,0 -4.9,1.25 -5.8,6.03 -0.6,2.99 -0.6,7.56 -0.6,10.52 0,3.18 0,6.47 0.4,9.15 1,5.94 4.7,6.38 6,6.38 1.6,0 4.9,-0.89 5.8,-5.83 0.5,-2.78 0.5,-6.58 0.5,-9.7 0,-3.75 0,-7.13 -0.5,-10.32 -0.8,-4.73 -3.6,-6.23 -5.8,-6.23 h 0 v -1.09 c 2.6,0 6.4,1.04 8.6,5.78 1.6,3.43 1.9,7.31 1.9,11.25 z"
           inkscape:connector-curvature="0"
           style="fill:#000000;stroke-width:0" /><path
           id="path3057"
           d="m 1121.5,240.82 0,0.74 0,0.75 0,0.75 -0.1,0.74 0,0.75 -0.1,0.74 0,0.74 -0.1,0.73 -0.1,0.73 -0.2,0.73 -0.2,0.72 -0.1,0.72 -0.3,0.72 -0.2,0.7 -0.3,0.7 -0.1,0.35 -0.2,0.34 c -2.3,4.8 -6.4,5.6 -8.5,5.6 -2.9,0 -6.6,-1.3 -8.6,-5.94 -1.6,-3.44 -1.9,-7.33 -1.9,-11.31 0,-3.74 0.2,-8.22 2.3,-12 2.1,-4.03 5.8,-5.03 8.2,-5.03 v 1.09 c -1.9,0 -4.9,1.25 -5.8,6.03 -0.5,2.99 -0.5,7.56 -0.5,10.52 0,3.18 0,6.47 0.4,9.15 0.9,5.94 4.6,6.38 5.9,6.38 1.6,0 4.9,-0.89 5.9,-5.83 0.5,-2.78 0.5,-6.58 0.5,-9.7 0,-3.75 0,-7.13 -0.6,-10.32 -0.7,-4.73 -3.6,-6.23 -5.8,-6.23 h 0 v -1.09 c 2.7,0 6.5,1.04 8.7,5.78 1.6,3.43 1.8,7.31 1.8,11.25 z"
           inkscape:connector-curvature="0"
           style="fill:#000000;stroke-width:0" /><path
           id="path3059"
           d="m 1223.2,298.55 0,2.82 -0.1,2.74 -0.1,2.67 -0.1,2.59 -0.1,2.52 -0.1,2.45 -0.2,2.37 -0.2,2.3 -0.2,2.23 -0.2,2.15 -0.3,2.07 -0.2,2 -0.3,1.93 -0.3,1.85 -0.3,1.78 -0.2,1.71 -0.3,1.63 -0.3,1.55 -0.3,1.48 -0.3,1.41 -0.3,1.33 -0.3,1.26 -0.3,1.18 -0.3,1.11 -0.2,1.03 -0.3,0.96 -0.2,0.88 -0.3,0.81 -0.2,0.74 -0.2,0.65 -0.1,0.59 -0.2,0.51 c -3.4,11.06 -8.9,22.72 -17.3,32.98 -0.7,0.91 -0.9,1.16 -1.1,1.25 -0.1,0.05 -0.1,0.1 -0.9,0.1 -0.8,0 -1.2,0 -1.2,-0.5 0,-0.1 0,-0.19 0.7,-1.1 17.3,-24.2 21.2,-54.09 21.2,-87.83 0,-0.7 0.3,-0.7 1.4,-0.7 h 2.8 c 1,0 1.3,0 1.4,0.55 z"
           inkscape:connector-curvature="0"
           style="fill:#000000;stroke-width:0" /><path
           id="path3061"
           d="m 1223.2,296.54 0,0.05 0,0.05 -0.1,0.04 0,0.04 0,0.04 0,0.03 0,0.04 0,0.03 0,0.02 -0.1,0.03 0,0.02 0,0.02 0,0.02 -0.1,0.02 0,0.01 -0.1,0.02 0,0.01 0,0.01 -0.1,0.01 0,0.01 -0.1,0 0,0.01 -0.1,0 -0.1,0.01 0,0 -0.1,0 -0.1,0 -0.1,0 0,0.01 -0.1,0 -0.1,0 -0.1,0 h -2.8 c -1.1,0 -1.4,0 -1.4,-0.69 0,-5.14 0,-17 -1.3,-29.39 -2.7,-25.77 -9.3,-43.6 -20.2,-58.89 -0.4,-0.46 -0.4,-0.55 -0.4,-0.66 0,-0.5 0.4,-0.5 1.2,-0.5 0.8,0 0.9,0 1,0.11 0.2,0.14 6.5,7.42 11.5,17.44 6.6,13.14 10.7,28.25 12.6,46.37 0.1,1.55 1.2,11.91 1.2,23.72 z"
           inkscape:connector-curvature="0"
           style="fill:#000000;stroke-width:0" /></g>    </g>
    <path
       style="fill:none;stroke:#000000;stroke-width:1px;stroke-linecap:butt;stroke-linejoin:miter;stroke-opacity:1"
       d="m 379.81736,230.09801 0,177.78685"
       id="path3103"
       inkscape:connector-curvature="0" />
    <path
       inkscape:connector-curvature="0"
       id="path3105"
       d="m 549.81736,230.09801 0,177.78685"
       style="fill:none;stroke:#000000;stroke-width:1px;stroke-linecap:butt;stroke-linejoin:miter;stroke-opacity:1" />
    <g
       transform="translate(-261.62951,112.12693)"
       id="g3151">
      <g
         style="font-style:normal;font-variant:normal;font-weight:normal;font-stretch:normal;letter-spacing:normal;word-spacing:normal;text-anchor:start;fill:none;stroke:#000000;stroke-linecap:butt;stroke-linejoin:miter;stroke-miterlimit:10.43299961;stroke-opacity:1;stroke-dasharray:none;stroke-dashoffset:0"
         id="g3153"
         transform="matrix(1.0629921,0,0,-1.0629921,-186.02362,789.27165)"
         xml:space="preserve"
         stroke-miterlimit="10.433"
         font-style="normal"
         font-variant="normal"
         font-weight="normal"
         font-stretch="normal"
         font-size-adjust="none"
         letter-spacing="normal"
         word-spacing="normal"><path
           style="fill:#000000;stroke-width:0"
           inkscape:connector-curvature="0"
           d="m 477.19,423.14 0.45,0.12 0.44,0.12 0.44,0.14 0.43,0.15 0.42,0.16 0.42,0.17 0.4,0.18 0.4,0.19 0.39,0.19 0.37,0.21 0.37,0.22 0.35,0.22 0.34,0.23 0.33,0.24 0.32,0.25 0.3,0.26 0.29,0.27 0.27,0.27 0.26,0.28 0.24,0.29 0.23,0.29 0.21,0.31 0.19,0.3 0.18,0.32 0.15,0.32 0.14,0.33 0.12,0.33 0.09,0.35 0.08,0.34 0.06,0.35 0.03,0.36 0.01,0.36 c 0,4.78 -5.67,8.97 -13,8.97 h -15.64 v -1.55 h 1.19 c 3.84,0 3.93,-0.54 3.93,-2.34 v -26.25 c 0,-1.8 -0.09,-2.34 -3.93,-2.34 h -1.19 v -1.55 c 1.78,0.16 5.33,0.16 7.27,0.16 1.93,0 5.48,0 7.28,-0.16 v 1.55 h -1.21 c -3.82,0 -3.93,0.54 -3.93,2.34 v 12.59 1.11 12.89 c 0,1.16 0,1.75 1.09,1.91 0.5,0.09 1.95,0.09 2.95,0.09 4.47,0 10.07,-0.2 10.07,-7.42 0,-3.44 -1.21,-7.47 -8.58,-7.47 h -5.53 v -1.11 h 5.73 c 0.8,0 2.89,0 4.63,-1.68 1.9,-1.8 1.9,-3.35 1.9,-6.68 0,-3.25 0,-5.23 2.03,-7.12 2.05,-1.8 4.78,-2.09 6.28,-2.09 3.89,0 4.74,4.07 4.74,5.48 0,0.3 0,0.84 -0.64,0.84 -0.55,0 -0.55,-0.45 -0.61,-0.79 -0.3,-3.55 -2.03,-4.44 -3.28,-4.44 -2.44,0 -2.85,2.55 -3.55,7.17 l -0.64,3.99 c -0.89,3.18 -3.34,4.84 -6.08,5.78 z"
           id="path3155" /><path
           style="fill:#000000;stroke-width:0"
           inkscape:connector-curvature="0"
           d="m 508.83,409.98 0.02,-0.19 0.03,-0.18 0.04,-0.19 0.04,-0.18 0.05,-0.19 0.06,-0.18 0.06,-0.18 0.07,-0.18 0.07,-0.18 0.08,-0.17 0.09,-0.18 0.09,-0.16 0.1,-0.16 0.11,-0.16 0.12,-0.16 0.11,-0.14 0.13,-0.14 0.13,-0.14 0.14,-0.13 0.15,-0.12 0.15,-0.12 0.15,-0.1 0.17,-0.1 0.16,-0.09 0.18,-0.08 0.18,-0.07 0.19,-0.06 0.19,-0.05 0.2,-0.04 0.21,-0.03 0.21,-0.02 0.21,-0.01 c 1.03,0 4.08,0.71 4.08,4.74 v 2.78 h -1.25 v -2.78 c 0,-2.89 -1.23,-3.19 -1.8,-3.19 -1.64,0 -1.84,2.23 -1.84,2.48 v 9.97 c 0,2.1 0,4.03 -1.78,5.88 -1.95,1.93 -4.44,2.73 -6.83,2.73 -4.09,0 -7.53,-2.33 -7.53,-5.62 0,-1.49 1,-2.35 2.3,-2.35 1.39,0 2.29,1 2.29,2.3 0,0.59 -0.25,2.23 -2.54,2.3 1.34,1.73 3.78,2.28 5.37,2.28 2.45,0 5.28,-1.94 5.28,-6.38 v -1.84 -1.05 -4.98 c 0,-4.74 -3.58,-6.42 -5.83,-6.42 -2.43,0 -4.48,1.75 -4.48,4.23 0,2.73 2.09,6.88 10.31,7.17 h 0 v 1.05 c -2.53,-0.14 -6.01,-0.3 -9.15,-1.8 -3.74,-1.69 -4.99,-4.28 -4.99,-6.47 0,-4.03 4.83,-5.28 7.97,-5.28 3.3,0 5.58,1.99 6.53,4.33 z"
           id="path3157" /><path
           style="fill:#000000;stroke-width:0"
           inkscape:connector-curvature="0"
           d="m 522.68,423.34 v -13.36 c 0,-2.23 -0.55,-2.23 -3.89,-2.23 v -1.55 c 1.75,0.05 4.28,0.16 5.62,0.16 1.3,0 3.89,-0.11 5.58,-0.16 v 1.55 c -3.33,0 -3.87,0 -3.87,2.23 v 9.17 c 0,5.19 3.53,7.97 6.72,7.97 3.14,0 3.68,-2.69 3.68,-5.53 v -11.61 c 0,-2.23 -0.54,-2.23 -3.89,-2.23 v -1.55 c 1.75,0.05 4.3,0.16 5.64,0.16 1.3,0 3.88,-0.11 5.58,-0.16 v 1.55 c -2.59,0 -3.84,0 -3.89,1.5 v 9.51 c 0,4.28 0,5.83 -1.55,7.61 -0.68,0.86 -2.34,1.84 -5.21,1.84 -3.65,0 -5.99,-2.14 -7.38,-5.21 v 5.21 l -7.03,-0.54 v -1.55 c 3.48,0 3.89,-0.34 3.89,-2.78 z"
           id="path3159" /><path
           style="fill:#000000;stroke-width:0"
           inkscape:connector-curvature="0"
           d="m 550.2,412.82 0,0.03 0,0.02 0,0.03 0,0.04 0,0.04 0,0.05 0,0.05 0.01,0.06 0,0.05 0.01,0.07 0.01,0.06 0.01,0.07 0.01,0.07 0.02,0.08 0.01,0.08 0.02,0.08 0.02,0.08 0.03,0.08 0.02,0.09 0.03,0.09 0.03,0.09 0.04,0.09 0.04,0.09 0.04,0.1 0.05,0.09 0.05,0.1 0.05,0.09 0.06,0.1 0.06,0.09 0.07,0.1 0.07,0.09 0.08,0.1 c 1.95,-1.39 3.98,-1.55 4.94,-1.55 v 1.14 c -4.35,0 -4.35,4.99 -4.35,6.14 0,1.35 0.07,2.94 0.8,4.17 0.41,0.61 1.55,2 3.55,2 4.32,0 4.32,-4.98 4.32,-6.12 0,-1.34 -0.04,-2.94 -0.79,-4.19 -0.39,-0.59 -1.55,-2 -3.53,-2 h 0 v -1.14 c 4.62,0 8.06,3.44 8.06,7.28 0,1.85 -0.8,3.69 -2.03,4.83 1.78,1.69 3.58,1.94 4.48,1.94 0.1,0 0.35,0 0.5,-0.05 -0.56,-0.2 -0.79,-0.75 -0.79,-1.34 0,-0.85 0.64,-1.44 1.43,-1.44 0.5,0 1.44,0.34 1.44,1.48 0,0.85 -0.59,2.44 -2.53,2.44 -1,0 -3.19,-0.3 -5.28,-2.33 -2.1,1.64 -4.19,1.78 -5.28,1.78 -4.64,0 -8.08,-3.43 -8.08,-7.26 0,-2.19 1.09,-4.09 2.34,-5.14 -0.64,-0.74 -1.54,-2.39 -1.54,-4.13 0,-1.54 0.65,-3.43 2.2,-4.43 -3,-0.85 -4.6,-2.99 -4.6,-4.99 0,-3.58 4.94,-6.33 11.02,-6.33 l 0.05,1.14 c -5.03,0 -8.47,2.55 -8.47,5.19 0,2.3 1.89,4.14 4.09,4.28 h 2.94 c 4.28,0 9.86,0 9.86,-4.28 0,-2.69 -3.53,-5.19 -8.42,-5.19 h 0 l -0.05,-1.14 c 5.88,0 11.06,2.55 11.06,6.43 0,1.75 -0.7,4.29 -3.23,5.68 -2.64,1.39 -5.53,1.39 -8.58,1.39 -1.25,0 -3.39,0 -3.73,0.05 -1.6,0.2 -2.64,1.75 -2.64,3.34 z"
           id="path3161" /><path
           style="fill:#000000;stroke-width:0"
           inkscape:connector-curvature="0"
           d="m 620.55,422.5 0.14,0 0.14,0 0.15,0 0.07,0.01 0.07,0 0.07,0.01 0.07,0.01 0.07,0.01 0.07,0.01 0.07,0.01 0.07,0.02 0.06,0.02 0.07,0.02 0.06,0.02 0.05,0.03 0.06,0.03 0.05,0.04 0.05,0.03 0.05,0.05 0.04,0.04 0.04,0.05 0.02,0.03 0.02,0.03 0.02,0.02 0.01,0.03 0.02,0.03 0.01,0.04 0.01,0.03 0.01,0.04 0.01,0.03 0.01,0.04 0.01,0.04 0,0.04 0.01,0.04 0,0.04 0,0.04 0,0.05 c 0,1 -0.95,1 -1.64,1 h -29.84 c -0.7,0 -1.64,0 -1.64,-1 0,-0.98 0.94,-0.98 1.69,-0.98 z"
           id="path3163" /><path
           style="fill:#000000;stroke-width:0"
           inkscape:connector-curvature="0"
           d="m 620.59,412.82 0.07,0 0.07,0 0.13,0.01 0.14,0 0.07,0 0.07,0.01 0.07,0.01 0.07,0 0.07,0.01 0.06,0.02 0.07,0.01 0.07,0.02 0.06,0.02 0.06,0.02 0.06,0.02 0.06,0.03 0.05,0.03 0.06,0.04 0.05,0.04 0.04,0.04 0.04,0.05 0.03,0.02 0.01,0.03 0.02,0.02 0.02,0.03 0.02,0.03 0.01,0.03 0.02,0.03 0.01,0.03 0.01,0.04 0.01,0.03 0.01,0.04 0.01,0.04 0.01,0.04 0,0.04 0.01,0.04 0,0.04 0,0.05 0,0.04 c 0,1 -0.95,1 -1.68,1 H 590.8 c -0.75,0 -1.69,0 -1.69,-1 0,-1 0.94,-1 1.64,-1 z"
           id="path3165" /><path
           style="fill:#000000;stroke-width:0"
           inkscape:connector-curvature="0"
           d="m 656.27,438.09 0,0.05 0,0.06 0,0.05 0,0.05 0,0.05 0,0.05 0,0.04 0,0.05 0,0.04 0,0.04 -0.01,0.04 0,0.04 0,0.04 0,0.03 0,0.04 -0.01,0.03 -0.01,0.07 0,0.06 -0.02,0.05 -0.01,0.05 -0.02,0.05 -0.02,0.04 -0.02,0.04 -0.02,0.03 -0.03,0.03 -0.03,0.03 -0.04,0.03 -0.04,0.02 -0.04,0.02 -0.03,0.01 -0.02,0.01 -0.03,0 -0.02,0.01 -0.03,0.01 -0.03,0 -0.03,0.01 -0.03,0 -0.04,0.01 -0.03,0 -0.04,0 -0.04,0.01 -0.03,0 -0.04,0 -0.05,0 -0.04,0 -0.04,0 -0.05,0.01 -0.05,0 -0.05,0 -0.05,0 -0.05,0 c -3.1,-3.19 -7.47,-3.19 -9.06,-3.19 v -1.55 c 1,0 3.93,0 6.51,1.3 v -25.81 c 0,-1.8 -0.14,-2.39 -4.62,-2.39 h -1.6 v -1.55 c 1.75,0.16 6.08,0.16 8.07,0.16 2,0 6.32,0 8.07,-0.16 v 1.55 h -1.59 c -4.48,0 -4.64,0.54 -4.64,2.39 z"
           id="path3167" /><path
           style="fill:#000000;stroke-width:0"
           inkscape:connector-curvature="0"
           d="m 722.72,410.04 5.28,5.13 c 7.76,6.87 10.76,9.56 10.76,14.54 0,5.69 -4.48,9.68 -10.56,9.68 -5.64,0 -9.33,-4.6 -9.33,-9.03 0,-2.79 2.5,-2.79 2.64,-2.79 0.86,0 2.59,0.6 2.59,2.64 0,1.3 -0.88,2.6 -2.63,2.6 -0.4,0 -0.5,0 -0.65,-0.05 1.15,3.24 3.83,5.08 6.72,5.08 4.53,0 6.69,-4.05 6.69,-8.13 0,-3.98 -2.5,-7.92 -5.23,-11.01 l -9.57,-10.66 c -0.56,-0.54 -0.56,-0.64 -0.56,-1.84 h 18.48 l 1.41,8.67 h -1.25 c -0.25,-1.5 -0.59,-3.69 -1.09,-4.44 -0.36,-0.39 -3.64,-0.39 -4.74,-0.39 z"
           id="path3169" /><path
           style="fill:#000000;stroke-width:0"
           inkscape:connector-curvature="0"
           d="m 805.6,423.73 0.38,0.13 0.37,0.15 0.36,0.15 0.36,0.17 0.35,0.18 0.34,0.19 0.33,0.2 0.32,0.22 0.31,0.22 0.3,0.23 0.29,0.24 0.28,0.25 0.28,0.26 0.26,0.27 0.24,0.27 0.24,0.29 0.23,0.29 0.21,0.3 0.2,0.3 0.19,0.32 0.17,0.32 0.16,0.32 0.15,0.33 0.13,0.34 0.12,0.34 0.1,0.34 0.09,0.35 0.07,0.36 0.06,0.36 0.04,0.36 0.03,0.36 0.01,0.37 c 0,4.08 -4.39,6.88 -9.17,6.88 -5.04,0 -8.82,-3 -8.82,-6.78 0,-1.65 1.1,-2.6 2.55,-2.6 1.53,0 2.53,1.1 2.53,2.55 0,2.48 -2.34,2.48 -3.08,2.48 1.53,2.44 4.83,3.1 6.63,3.1 2.03,0 4.78,-1.1 4.78,-5.58 0,-0.61 -0.11,-3.49 -1.41,-5.69 -1.48,-2.39 -3.18,-2.53 -4.42,-2.59 -0.41,-0.05 -1.59,-0.14 -1.95,-0.14 -0.39,-0.05 -0.75,-0.1 -0.75,-0.6 0,-0.54 0.36,-0.54 1.2,-0.54 h 2.19 c 4.09,0 5.93,-3.39 5.93,-8.29 0,-6.76 -3.43,-8.21 -5.63,-8.21 -2.15,0 -5.88,0.84 -7.62,3.78 1.74,-0.24 3.29,0.86 3.29,2.75 0,1.79 -1.35,2.78 -2.8,2.78 -1.19,0 -2.78,-0.69 -2.78,-2.89 0,-4.53 4.62,-7.81 10.06,-7.81 6.08,0 10.61,4.53 10.61,9.6 0,4.1 -3.14,7.97 -8.31,9.02 z"
           id="path3171" /></g>    </g>
    <g
       id="g3281"
       transform="translate(643.46717,-25.253814)">
      <g
         word-spacing="normal"
         letter-spacing="normal"
         font-size-adjust="none"
         font-stretch="normal"
         font-weight="normal"
         font-variant="normal"
         font-style="normal"
         stroke-miterlimit="10.433"
         xml:space="preserve"
         transform="matrix(1.0629921,0,0,-1.0629921,-186.02362,789.27165)"
         id="g3283"
         style="font-style:normal;font-variant:normal;font-weight:normal;font-stretch:normal;letter-spacing:normal;word-spacing:normal;text-anchor:start;fill:none;stroke:#000000;stroke-linecap:butt;stroke-linejoin:miter;stroke-miterlimit:10.43299961;stroke-opacity:1;stroke-dasharray:none;stroke-dashoffset:0"><path
           id="path3285"
           d="m 477.35,406.5 0.72,0.29 0.72,0.33 0.71,0.35 0.71,0.4 0.7,0.42 0.69,0.45 0.68,0.48 0.68,0.51 0.65,0.54 0.65,0.56 0.63,0.59 0.61,0.61 0.6,0.64 0.57,0.66 0.56,0.68 0.54,0.7 0.51,0.72 0.49,0.73 0.46,0.76 0.44,0.77 0.41,0.79 0.38,0.8 0.35,0.82 0.32,0.83 0.29,0.84 0.25,0.85 0.21,0.87 0.18,0.87 0.15,0.88 0.1,0.89 0.06,0.89 0.02,0.9 c 0,8.03 -5.28,13.4 -12.71,13.4 l -0.3,-1.25 c 4.98,0 8.62,-3.87 8.62,-10.56 0,-4.98 -2.54,-16.64 -10.9,-21.31 -0.25,1.73 -0.75,5.37 -4.39,5.37 v -1.09 c 2.09,0 3.04,-1.2 3.04,-4.23 0,-0.75 -0.06,-0.8 -0.56,-1 -1.28,-0.55 -2.78,-0.89 -4.17,-0.89 h 0 c -0.7,0 -2.3,0 -2.3,2.14 0,1.98 1.89,3.98 3.99,3.98 v 1.09 c -2.64,0 -5.08,-2.5 -5.08,-5.07 0,-1 0.3,-1.55 0.3,-1.6 h 0 c -3.89,1.53 -5.58,5.42 -5.58,9.91 0,3.44 1.29,10.51 5.08,15.89 3.64,5.09 8.32,7.37 11.95,7.37 l 0.3,1.25 c -10.75,0 -21.72,-11.31 -21.72,-22.92 0,-8.26 5.58,-13.29 12.76,-13.29 1.24,0 2.94,0.2 4.88,0.75 -0.21,-3.1 -0.21,-3.19 -0.21,-3.85 0,-1.59 0,-5.48 4.15,-5.48 5.92,0 8.31,9.12 8.31,9.67 0,0.34 -0.35,0.5 -0.55,0.5 -0.39,0 -0.5,-0.25 -0.59,-0.55 -1.19,-3.54 -4.08,-4.78 -5.83,-4.78 -2.3,0 -3.05,1.34 -3.53,5.13 z"
           inkscape:connector-curvature="0"
           style="fill:#000000;stroke-width:0" /><path
           id="path3287"
           d="m 502.05,402.95 -0.11,-0.18 -0.12,-0.16 -0.11,-0.17 -0.11,-0.15 -0.12,-0.16 -0.11,-0.14 -0.11,-0.14 -0.12,-0.14 -0.12,-0.13 -0.11,-0.12 -0.12,-0.12 -0.12,-0.11 -0.12,-0.11 -0.12,-0.11 -0.13,-0.09 -0.13,-0.1 -0.13,-0.08 -0.13,-0.09 -0.14,-0.07 -0.14,-0.08 -0.14,-0.06 -0.14,-0.07 -0.15,-0.05 -0.16,-0.06 -0.15,-0.04 -0.16,-0.05 -0.17,-0.04 -0.17,-0.03 -0.17,-0.03 -0.18,-0.02 -0.19,-0.02 -0.19,-0.02 c -0.34,-0.03 -0.8,-0.03 -0.8,-0.73 0,-0.38 0.32,-0.52 0.49,-0.52 0.9,0 2.06,0.14 3,0.14 1.11,0 2.54,-0.14 3.59,-0.14 0.17,0 0.69,0 0.69,0.77 0,0.45 -0.45,0.48 -0.58,0.48 -0.28,0.05 -1.55,0.11 -1.55,1.05 0,0.42 0.36,1.01 0.54,1.33 l 2.78,4.31 h 9.96 l -0.17,1.26 h -8.95 l 7.31,11.4 1.64,-11.4 0.17,-1.26 0.85,-5.78 c -0.14,-0.35 -0.36,-0.91 -2.41,-0.91 -0.42,0 -0.9,0 -0.9,-0.76 0,-0.14 0.09,-0.49 0.54,-0.49 1.02,0 3.49,0.14 4.5,0.14 0.63,0 1.42,-0.03 2.07,-0.03 0.62,-0.05 1.35,-0.11 1.98,-0.11 0.45,0 0.69,0.28 0.69,0.74 0,0.51 -0.41,0.51 -0.97,0.51 -2.02,0 -2.1,0.28 -2.2,1.13 l -3.07,21.5 c -0.11,0.72 -0.17,0.97 -0.83,0.97 -0.67,0 -0.87,-0.32 -1.18,-0.8 z"
           inkscape:connector-curvature="0"
           style="fill:#000000;stroke-width:0" /><path
           id="path3289"
           d="m 575.43,422.5 0.14,0 0.15,0 0.14,0 0.07,0.01 0.08,0 0.07,0.01 0.07,0.01 0.07,0.01 0.07,0.01 0.07,0.01 0.06,0.02 0.07,0.02 0.06,0.02 0.06,0.02 0.06,0.03 0.06,0.03 0.05,0.04 0.05,0.03 0.05,0.05 0.04,0.04 0.04,0.05 0.02,0.03 0.02,0.03 0.01,0.02 0.02,0.03 0.01,0.03 0.02,0.04 0.01,0.03 0.01,0.04 0.01,0.03 0.01,0.04 0,0.04 0.01,0.04 0,0.04 0.01,0.04 0,0.04 0,0.05 c 0,1 -0.95,1 -1.64,1 h -29.84 c -0.71,0 -1.64,0 -1.64,-1 0,-0.98 0.93,-0.98 1.68,-0.98 z"
           inkscape:connector-curvature="0"
           style="fill:#000000;stroke-width:0" /><path
           id="path3291"
           d="m 575.48,412.82 0.07,0 0.06,0 0.14,0.01 0.14,0 0.07,0 0.07,0.01 0.07,0.01 0.07,0 0.06,0.01 0.07,0.02 0.07,0.01 0.06,0.02 0.07,0.02 0.06,0.02 0.06,0.02 0.06,0.03 0.05,0.03 0.05,0.04 0.05,0.04 0.05,0.04 0.04,0.05 0.02,0.02 0.02,0.03 0.02,0.02 0.02,0.03 0.01,0.03 0.02,0.03 0.01,0.03 0.02,0.03 0.01,0.04 0.01,0.03 0.01,0.04 0.01,0.04 0,0.04 0.01,0.04 0,0.04 0.01,0.04 0,0.05 0,0.04 c 0,1 -0.95,1 -1.69,1 h -29.75 c -0.75,0 -1.68,0 -1.68,-1 0,-1 0.93,-1 1.64,-1 z"
           inkscape:connector-curvature="0"
           style="fill:#000000;stroke-width:0" /><path
           id="path3293"
           d="m 610.24,394.25 0,0.02 0,0.03 0,0.01 0,0.02 -0.01,0.01 0,0.02 -0.01,0.01 0,0.02 -0.01,0.02 -0.01,0.02 -0.01,0.02 -0.02,0.03 -0.01,0.02 -0.02,0.03 -0.02,0.03 -0.03,0.03 -0.02,0.03 -0.03,0.04 -0.02,0.02 -0.02,0.02 -0.01,0.02 -0.02,0.02 -0.02,0.02 -0.02,0.03 -0.02,0.02 -0.02,0.02 -0.03,0.03 -0.02,0.02 -0.03,0.03 -0.02,0.03 -0.03,0.03 -0.02,0.03 -0.03,0.03 -0.03,0.03 -0.03,0.03 -0.04,0.03 -0.03,0.04 -0.03,0.03 -0.04,0.04 -0.04,0.03 -0.03,0.04 -0.04,0.04 c -6.22,6.28 -7.81,15.69 -7.81,23.31 0,8.67 1.89,17.35 8.01,23.56 0.64,0.61 0.64,0.71 0.64,0.86 0,0.35 -0.19,0.49 -0.48,0.49 -0.5,0 -4.99,-3.38 -7.92,-9.7 -2.55,-5.49 -3.14,-11.02 -3.14,-15.21 0,-3.89 0.54,-9.9 3.28,-15.54 2.98,-6.13 7.28,-9.36 7.78,-9.36 0.29,0 0.48,0.14 0.48,0.5 z"
           inkscape:connector-curvature="0"
           style="fill:#000000;stroke-width:0" /><path
           id="path3295"
           d="m 624.98,440.23 0,0 0,0.01 0,0 0,0.01 0,0.02 0,0.01 0,0.02 -0.01,0.02 0,0.02 0,0.02 -0.01,0.02 -0.01,0.02 0,0.02 -0.01,0.03 -0.01,0.02 -0.02,0.03 -0.01,0.02 -0.02,0.03 -0.01,0.02 -0.02,0.02 -0.03,0.03 -0.01,0.01 -0.01,0.01 -0.01,0.01 -0.02,0.01 -0.01,0.01 -0.02,0.01 -0.01,0.01 -0.02,0.01 -0.02,0.01 -0.02,0.01 -0.01,0 -0.02,0.01 -0.02,0.01 -0.02,0 -0.03,0.01 -0.02,0.01 -0.02,0 -0.03,0 -0.02,0.01 -0.03,0 -0.02,0 -0.03,0.01 -0.03,0 -0.03,0 c -1.16,0 -4.78,-0.41 -6.08,-0.5 -0.41,-0.05 -0.95,-0.1 -0.95,-1 0,-0.6 0.45,-0.6 1.2,-0.6 2.39,0 2.49,-0.34 2.49,-0.84 0,-0.36 -0.46,-2.05 -0.71,-3.09 l -4.07,-16.24 c -0.6,-2.5 -0.8,-3.3 -0.8,-5.03 0,-4.73 2.64,-7.83 6.33,-7.83 v 1.1 c -1.71,0 -3.35,1.34 -3.35,5.03 0,0.95 0,1.89 0.8,5.03 l 1.09,4.59 c 0.3,1.1 0.3,1.19 0.75,1.74 2.44,3.23 4.69,3.98 5.99,3.98 1.79,0 3.14,-1.48 3.14,-4.69 0,-2.93 -1.66,-8.65 -2.55,-10.56 -1.64,-3.33 -3.94,-5.12 -5.87,-5.12 v -1.1 c 5.87,0 12,7.42 12,14.6 0,4.53 -2.65,7.96 -6.63,7.96 -2.28,0 -4.33,-1.43 -5.83,-2.98 z"
           inkscape:connector-curvature="0"
           style="fill:#000000;stroke-width:0" /><path
           id="path3297"
           d="m 646.11,420.92 0,0.04 0,0.04 0,0.05 0,0.04 0,0.03 0,0.04 0,0.04 0,0.03 0,0.04 0,0.03 -0.01,0.03 0,0.03 0,0.03 0,0.03 -0.01,0.03 0,0.02 -0.01,0.03 0,0.02 -0.01,0.03 0,0.02 -0.01,0.04 -0.02,0.04 -0.02,0.03 -0.01,0.03 -0.03,0.03 -0.02,0.03 -0.03,0.02 -0.03,0.02 -0.03,0.02 -0.04,0.01 -0.04,0.01 -0.04,0.02 -0.03,0 -0.02,0 -0.03,0.01 -0.02,0 -0.03,0.01 -0.03,0 -0.03,0 -0.03,0 -0.03,0 -0.04,0.01 -0.03,0 -0.04,0 -0.03,0 -0.04,0 -0.04,0 -0.04,0 -0.04,0 -0.04,0 -0.05,0 -0.04,0 c -2.24,-2.2 -5.39,-2.23 -6.83,-2.23 v -1.25 c 0.84,0 3.14,0 5.04,0.97 v -17.77 c 0,-1.16 0,-1.61 -3.48,-1.61 h -1.31 v -1.25 c 0.62,0.03 4.91,0.14 6.2,0.14 1.08,0 5.47,-0.11 6.24,-0.14 v 1.25 h -1.33 c -3.49,0 -3.49,0.45 -3.49,1.61 z"
           inkscape:connector-curvature="0"
           style="fill:#000000;stroke-width:0" /><path
           id="path3299"
           d="m 666.99,406.25 -0.01,0.3 -0.01,0.3 -0.01,0.29 -0.03,0.28 -0.03,0.27 -0.04,0.26 -0.04,0.26 -0.06,0.24 -0.05,0.24 -0.07,0.23 -0.07,0.22 -0.08,0.21 -0.08,0.2 -0.09,0.19 -0.09,0.19 -0.1,0.17 -0.11,0.16 -0.11,0.16 -0.12,0.14 -0.12,0.13 -0.13,0.13 -0.13,0.11 -0.14,0.1 -0.15,0.1 -0.15,0.08 -0.15,0.07 -0.16,0.06 -0.16,0.05 -0.17,0.04 -0.17,0.03 -0.18,0.01 -0.18,0.01 c -1.64,0 -2.64,-1.25 -2.64,-2.64 0,-1.34 1,-2.64 2.64,-2.64 0.6,0 1.25,0.2 1.75,0.64 0.14,0.11 0.2,0.16 0.25,0.16 0.05,0 0.1,-0.05 0.1,-0.75 0,-3.69 -1.74,-6.68 -3.4,-8.32 -0.54,-0.54 -0.54,-0.65 -0.54,-0.79 0,-0.36 0.25,-0.55 0.5,-0.55 0.54,0 4.53,3.83 4.53,9.66 z"
           inkscape:connector-curvature="0"
           style="fill:#000000;stroke-width:0" /><path
           id="path3301"
           d="m 690.86,440.23 0,0 0,0.01 0,0 0,0.01 0,0.02 0,0.01 0,0.02 0,0.02 -0.01,0.02 0,0.02 -0.01,0.02 0,0.02 -0.01,0.02 -0.01,0.03 -0.01,0.02 -0.01,0.03 -0.02,0.02 -0.01,0.03 -0.02,0.02 -0.02,0.02 -0.02,0.03 -0.02,0.01 -0.01,0.01 -0.01,0.01 -0.01,0.01 -0.02,0.01 -0.01,0.01 -0.02,0.01 -0.02,0.01 -0.01,0.01 -0.02,0.01 -0.02,0 -0.02,0.01 -0.02,0.01 -0.02,0 -0.02,0.01 -0.03,0.01 -0.02,0 -0.02,0 -0.03,0.01 -0.02,0 -0.03,0 -0.03,0.01 -0.03,0 -0.03,0 c -1.15,0 -4.78,-0.41 -6.07,-0.5 -0.41,-0.05 -0.96,-0.1 -0.96,-1 0,-0.6 0.46,-0.6 1.21,-0.6 2.38,0 2.48,-0.34 2.48,-0.84 0,-0.36 -0.45,-2.05 -0.7,-3.09 l -4.08,-16.24 c -0.6,-2.5 -0.8,-3.3 -0.8,-5.03 0,-4.73 2.64,-7.83 6.33,-7.83 v 1.1 c -1.7,0 -3.35,1.34 -3.35,5.03 0,0.95 0,1.89 0.8,5.03 l 1.1,4.59 c 0.29,1.1 0.29,1.19 0.75,1.74 2.43,3.23 4.68,3.98 5.98,3.98 1.8,0 3.14,-1.48 3.14,-4.69 0,-2.93 -1.65,-8.65 -2.55,-10.56 -1.64,-3.33 -3.93,-5.12 -5.87,-5.12 v -1.1 c 5.87,0 12,7.42 12,14.6 0,4.53 -2.64,7.96 -6.63,7.96 -2.28,0 -4.32,-1.43 -5.82,-2.98 z"
           inkscape:connector-curvature="0"
           style="fill:#000000;stroke-width:0" /><path
           id="path3303"
           d="m 717.91,405.11 h -1.18 c -0.1,-0.77 -0.46,-2.83 -0.91,-3.18 -0.27,-0.2 -2.95,-0.2 -3.44,-0.2 h -6.42 c 3.66,3.23 4.88,4.2 6.97,5.84 2.58,2.07 4.98,4.22 4.98,7.54 0,4.21 -3.68,6.79 -8.15,6.79 -4.31,0 -7.25,-3.03 -7.25,-6.23 0,-1.78 1.5,-1.96 1.86,-1.96 0.83,0 1.84,0.6 1.84,1.85 0,0.62 -0.25,1.84 -2.06,1.84 1.08,2.47 3.45,3.24 5.09,3.24 3.49,0 5.3,-2.71 5.3,-5.53 0,-3.04 -2.16,-5.44 -3.28,-6.69 l -8.39,-8.3 c -0.36,-0.31 -0.36,-0.39 -0.36,-1.36 h 14.36 z"
           inkscape:connector-curvature="0"
           style="fill:#000000;stroke-width:0" /><path
           id="path3305"
           d="m 732.87,406.25 0,0.3 -0.01,0.3 -0.02,0.29 -0.03,0.28 -0.03,0.27 -0.04,0.26 -0.04,0.26 -0.05,0.24 -0.06,0.24 -0.06,0.23 -0.08,0.22 -0.07,0.21 -0.09,0.2 -0.08,0.19 -0.1,0.19 -0.1,0.17 -0.11,0.16 -0.11,0.16 -0.12,0.14 -0.12,0.13 -0.13,0.13 -0.13,0.11 -0.14,0.1 -0.14,0.1 -0.15,0.08 -0.16,0.07 -0.16,0.06 -0.16,0.05 -0.17,0.04 -0.17,0.03 -0.18,0.01 -0.18,0.01 c -1.64,0 -2.64,-1.25 -2.64,-2.64 0,-1.34 1,-2.64 2.64,-2.64 0.6,0 1.25,0.2 1.75,0.64 0.14,0.11 0.21,0.16 0.25,0.16 0.05,0 0.1,-0.05 0.1,-0.75 0,-3.69 -1.74,-6.68 -3.39,-8.32 -0.55,-0.54 -0.55,-0.65 -0.55,-0.79 0,-0.36 0.25,-0.55 0.5,-0.55 0.55,0 4.53,3.83 4.53,9.66 z"
           inkscape:connector-curvature="0"
           style="fill:#000000;stroke-width:0" /><path
           id="path3307"
           d="m 753.76,411.93 -0.19,-0.3 -0.19,-0.29 -0.18,-0.28 -0.19,-0.26 -0.19,-0.25 -0.18,-0.23 -0.19,-0.22 -0.19,-0.21 -0.18,-0.2 -0.19,-0.18 -0.19,-0.17 -0.18,-0.16 -0.19,-0.15 -0.19,-0.14 -0.19,-0.13 -0.18,-0.12 -0.19,-0.11 -0.19,-0.1 -0.19,-0.09 -0.2,-0.09 -0.19,-0.07 -0.19,-0.07 -0.19,-0.07 -0.2,-0.05 -0.19,-0.05 -0.2,-0.04 -0.2,-0.04 -0.2,-0.03 -0.4,-0.05 -0.41,-0.03 c -0.61,-0.05 -1.04,-0.05 -1.04,-1 0,-0.3 0.25,-0.55 0.64,-0.55 1.34,0 2.89,0.16 4.28,0.16 1.64,0 3.39,-0.16 4.98,-0.16 0.3,0 0.96,0 0.96,0.95 0,0.55 -0.46,0.6 -0.8,0.6 -1.16,0.09 -2.35,0.5 -2.35,1.73 0,0.61 0.3,1.16 0.69,1.84 l 3.8,6.39 h 12.5 l -0.14,1.54 h -11.42 l 9.82,16.45 1.6,-16.45 0.14,-1.54 c 0.11,-1.04 0.8,-7.82 0.8,-8.32 0,-1.5 -2.6,-1.64 -3.58,-1.64 -0.71,0 -1.21,0 -1.21,-1 0,-0.55 0.6,-0.55 0.71,-0.55 2.03,0 4.19,0.16 6.22,0.16 1.25,0 4.39,-0.16 5.64,-0.16 0.29,0 0.89,0 0.89,1 0,0.55 -0.5,0.55 -1.14,0.55 -3.1,0 -3.1,0.34 -3.25,1.79 l -3.03,31.13 c -0.11,1 -0.11,1.2 -0.96,1.2 -0.79,0 -0.98,-0.34 -1.29,-0.84 z"
           inkscape:connector-curvature="0"
           style="fill:#000000;stroke-width:0" /><path
           id="path3309"
           d="m 794.06,440.23 0,0 0,0.01 0,0 0,0.01 0,0.02 0,0.01 -0.01,0.02 0,0.02 0,0.02 -0.01,0.02 0,0.02 -0.01,0.02 0,0.02 -0.01,0.03 -0.01,0.02 -0.02,0.03 -0.01,0.02 -0.02,0.03 -0.02,0.02 -0.02,0.02 -0.02,0.03 -0.01,0.01 -0.01,0.01 -0.02,0.01 -0.01,0.01 -0.01,0.01 -0.02,0.01 -0.01,0.01 -0.02,0.01 -0.02,0.01 -0.02,0.01 -0.02,0 -0.01,0.01 -0.03,0.01 -0.02,0 -0.02,0.01 -0.02,0.01 -0.02,0 -0.03,0 -0.02,0.01 -0.03,0 -0.03,0 -0.02,0.01 -0.03,0 -0.03,0 c -1.16,0 -4.78,-0.41 -6.08,-0.5 -0.41,-0.05 -0.95,-0.1 -0.95,-1 0,-0.6 0.45,-0.6 1.2,-0.6 2.39,0 2.48,-0.34 2.48,-0.84 0,-0.36 -0.45,-2.05 -0.7,-3.09 l -4.08,-16.24 c -0.59,-2.5 -0.79,-3.3 -0.79,-5.03 0,-4.73 2.64,-7.83 6.32,-7.83 v 1.1 c -1.7,0 -3.34,1.34 -3.34,5.03 0,0.95 0,1.89 0.8,5.03 l 1.09,4.59 c 0.3,1.1 0.3,1.19 0.75,1.74 2.44,3.23 4.69,3.98 5.98,3.98 1.8,0 3.15,-1.48 3.15,-4.69 0,-2.93 -1.66,-8.65 -2.55,-10.56 -1.64,-3.33 -3.94,-5.12 -5.88,-5.12 v -1.1 c 5.88,0 12,7.42 12,14.6 0,4.53 -2.64,7.96 -6.62,7.96 -2.28,0 -4.33,-1.43 -5.83,-2.98 z"
           inkscape:connector-curvature="0"
           style="fill:#000000;stroke-width:0" /><path
           id="path3311"
           d="m 821.11,405.11 h -1.18 c -0.1,-0.77 -0.46,-2.83 -0.91,-3.18 -0.27,-0.2 -2.95,-0.2 -3.44,-0.2 h -6.42 c 3.66,3.23 4.87,4.2 6.97,5.84 2.58,2.07 4.98,4.22 4.98,7.54 0,4.21 -3.68,6.79 -8.15,6.79 -4.31,0 -7.25,-3.03 -7.25,-6.23 0,-1.78 1.5,-1.96 1.86,-1.96 0.83,0 1.84,0.6 1.84,1.85 0,0.62 -0.25,1.84 -2.06,1.84 1.08,2.47 3.45,3.24 5.09,3.24 3.49,0 5.3,-2.71 5.3,-5.53 0,-3.04 -2.16,-5.44 -3.28,-6.69 l -8.39,-8.3 c -0.36,-0.31 -0.36,-0.39 -0.36,-1.36 h 14.36 z"
           inkscape:connector-curvature="0"
           style="fill:#000000;stroke-width:0" /><path
           id="path3313"
           d="m 840.35,418.65 0,0.37 0,0.39 -0.01,0.39 -0.02,0.41 -0.04,0.84 -0.06,0.88 -0.08,0.92 -0.11,0.95 -0.13,0.97 -0.16,1.01 -0.2,1.02 -0.23,1.03 -0.27,1.05 -0.3,1.06 -0.35,1.07 -0.39,1.07 -0.22,0.53 -0.22,0.53 -0.24,0.53 -0.25,0.53 c -2.98,6.12 -7.27,9.36 -7.77,9.36 -0.29,0 -0.5,-0.19 -0.5,-0.49 0,-0.15 0,-0.25 0.94,-1.15 4.89,-4.92 7.74,-12.85 7.74,-23.27 0,-8.51 -1.85,-17.28 -8.03,-23.56 -0.65,-0.59 -0.65,-0.7 -0.65,-0.84 0,-0.3 0.21,-0.5 0.5,-0.5 0.5,0 4.97,3.39 7.93,9.71 2.53,5.47 3.12,11 3.12,15.19 z"
           inkscape:connector-curvature="0"
           style="fill:#000000;stroke-width:0" /></g>    </g>
    <g
       transform="translate(646.49763,102.02541)"
       id="g3457">
      <g
         style="font-style:normal;font-variant:normal;font-weight:normal;font-stretch:normal;letter-spacing:normal;word-spacing:normal;text-anchor:start;fill:none;stroke:#000000;stroke-linecap:butt;stroke-linejoin:miter;stroke-miterlimit:10.43299961;stroke-opacity:1;stroke-dasharray:none;stroke-dashoffset:0"
         id="g3459"
         transform="matrix(1.0629921,0,0,-1.0629921,-186.02362,789.27165)"
         xml:space="preserve"
         stroke-miterlimit="10.433"
         font-style="normal"
         font-variant="normal"
         font-weight="normal"
         font-stretch="normal"
         font-size-adjust="none"
         letter-spacing="normal"
         word-spacing="normal"><path
           style="fill:#000000;stroke-width:0"
           inkscape:connector-curvature="0"
           d="m 491.49,422.84 0,0.1 -0.01,0.1 0,0.09 -0.01,0.09 0,0.09 -0.01,0.08 -0.01,0.08 -0.01,0.08 -0.02,0.07 -0.01,0.07 -0.02,0.07 -0.02,0.07 -0.02,0.06 -0.02,0.05 -0.02,0.06 -0.02,0.05 -0.02,0.04 -0.03,0.05 -0.02,0.04 -0.03,0.04 -0.03,0.03 -0.03,0.03 -0.03,0.03 -0.03,0.03 -0.03,0.02 -0.03,0.02 -0.03,0.02 -0.04,0.01 -0.03,0.01 -0.04,0.01 -0.03,0 -0.04,0 c -0.25,0 -0.66,-0.34 -0.7,-1.29 -0.21,-4.78 -3.49,-7.52 -6.99,-7.52 -3.12,0 -5.51,2.14 -7.97,4.28 -2.53,2.3 -5.12,4.58 -8.51,4.58 -5.44,0 -8.38,-5.48 -8.38,-10.02 0,-1.59 0.66,-1.59 0.71,-1.59 0.54,0 0.7,1 0.7,1.16 0.19,5.47 3.94,7.67 6.97,7.67 3.14,0 5.53,-2.14 7.97,-4.3 2.54,-2.28 5.14,-4.58 8.51,-4.58 5.44,0 8.38,5.49 8.38,10.02 z"
           id="path3461" /><path
           style="fill:#000000;stroke-width:0"
           inkscape:connector-curvature="0"
           d="m 524.68,394.25 0,0.02 0,0.03 0,0.01 0,0.02 0,0.01 -0.01,0.02 0,0.01 -0.01,0.02 -0.01,0.02 -0.01,0.02 -0.01,0.02 -0.02,0.03 -0.01,0.02 -0.02,0.03 -0.02,0.03 -0.03,0.03 -0.02,0.03 -0.03,0.04 -0.02,0.02 -0.01,0.02 -0.02,0.02 -0.02,0.02 -0.02,0.02 -0.02,0.03 -0.02,0.02 -0.02,0.02 -0.02,0.03 -0.03,0.02 -0.02,0.03 -0.03,0.03 -0.03,0.03 -0.02,0.03 -0.03,0.03 -0.03,0.03 -0.03,0.03 -0.03,0.03 -0.04,0.04 -0.03,0.03 -0.04,0.04 -0.03,0.03 -0.04,0.04 -0.04,0.04 c -6.22,6.28 -7.81,15.69 -7.81,23.31 0,8.67 1.89,17.35 8.01,23.56 0.64,0.61 0.64,0.71 0.64,0.86 0,0.35 -0.18,0.49 -0.48,0.49 -0.5,0 -4.98,-3.38 -7.92,-9.7 -2.55,-5.49 -3.14,-11.02 -3.14,-15.21 0,-3.89 0.54,-9.9 3.28,-15.54 2.98,-6.13 7.28,-9.36 7.78,-9.36 0.3,0 0.48,0.14 0.48,0.5 z"
           id="path3463" /><path
           style="fill:#000000;stroke-width:0"
           inkscape:connector-curvature="0"
           d="m 542.16,438.09 0,0.05 0,0.06 0,0.05 0,0.05 0,0.05 0,0.05 -0.01,0.04 0,0.05 0,0.04 0,0.04 0,0.04 0,0.04 0,0.04 -0.01,0.03 0,0.04 0,0.03 -0.01,0.07 -0.01,0.06 -0.01,0.05 -0.01,0.05 -0.02,0.05 -0.02,0.04 -0.02,0.04 -0.03,0.03 -0.02,0.03 -0.04,0.03 -0.03,0.03 -0.04,0.02 -0.05,0.02 -0.02,0.01 -0.02,0.01 -0.03,0 -0.03,0.01 -0.03,0.01 -0.02,0 -0.04,0.01 -0.03,0 -0.03,0.01 -0.04,0 -0.03,0 -0.04,0.01 -0.04,0 -0.04,0 -0.04,0 -0.04,0 -0.05,0 -0.04,0.01 -0.05,0 -0.05,0 -0.05,0 -0.05,0 c -3.1,-3.19 -7.47,-3.19 -9.07,-3.19 v -1.55 c 1,0 3.94,0 6.52,1.3 v -25.81 c 0,-1.8 -0.14,-2.39 -4.63,-2.39 h -1.59 v -1.55 c 1.75,0.16 6.08,0.16 8.06,0.16 2,0 6.33,0 8.08,-0.16 v 1.55 h -1.59 c -4.49,0 -4.64,0.54 -4.64,2.39 z"
           id="path3465" /><path
           style="fill:#000000;stroke-width:0"
           inkscape:connector-curvature="0"
           d="m 608.6,410.04 5.28,5.13 c 7.77,6.87 10.77,9.56 10.77,14.54 0,5.69 -4.49,9.68 -10.57,9.68 -5.64,0 -9.33,-4.6 -9.33,-9.03 0,-2.79 2.5,-2.79 2.65,-2.79 0.85,0 2.59,0.6 2.59,2.64 0,1.3 -0.89,2.6 -2.64,2.6 -0.39,0 -0.5,0 -0.64,-0.05 1.14,3.24 3.82,5.08 6.72,5.08 4.53,0 6.68,-4.05 6.68,-8.13 0,-3.98 -2.5,-7.92 -5.23,-11.01 l -9.56,-10.66 c -0.57,-0.54 -0.57,-0.64 -0.57,-1.84 h 18.49 l 1.41,8.67 h -1.25 c -0.25,-1.5 -0.6,-3.69 -1.1,-4.44 -0.36,-0.39 -3.64,-0.39 -4.73,-0.39 z"
           id="path3467" /><path
           style="fill:#000000;stroke-width:0"
           inkscape:connector-curvature="0"
           d="m 641.62,418.65 0,0.37 -0.01,0.39 -0.01,0.39 -0.01,0.41 -0.04,0.84 -0.06,0.88 -0.08,0.92 -0.11,0.95 -0.13,0.97 -0.17,1.01 -0.19,1.02 -0.23,1.03 -0.27,1.05 -0.31,1.06 -0.35,1.07 -0.39,1.07 -0.21,0.53 -0.23,0.53 -0.23,0.53 -0.25,0.53 c -2.99,6.12 -7.27,9.36 -7.77,9.36 -0.3,0 -0.5,-0.19 -0.5,-0.49 0,-0.15 0,-0.25 0.94,-1.15 4.89,-4.92 7.73,-12.85 7.73,-23.27 0,-8.51 -1.84,-17.28 -8.03,-23.56 -0.64,-0.59 -0.64,-0.7 -0.64,-0.84 0,-0.3 0.2,-0.5 0.5,-0.5 0.5,0 4.97,3.39 7.92,9.71 2.53,5.47 3.13,11 3.13,15.19 z"
           id="path3469" /></g>    </g>
    <g
       id="g3627"
       transform="translate(537.14286,-21.428571)">
      <g
         word-spacing="normal"
         letter-spacing="normal"
         font-size-adjust="none"
         font-stretch="normal"
         font-weight="normal"
         font-variant="normal"
         font-style="normal"
         stroke-miterlimit="10.433"
         xml:space="preserve"
         transform="matrix(1.0629921,0,0,-1.0629921,-186.02362,789.27165)"
         id="g3629"
         style="font-style:normal;font-variant:normal;font-weight:normal;font-stretch:normal;letter-spacing:normal;word-spacing:normal;text-anchor:start;fill:none;stroke:#000000;stroke-linecap:butt;stroke-linejoin:miter;stroke-miterlimit:10.43299961;stroke-opacity:1;stroke-dasharray:none;stroke-dashoffset:0"><path
           id="path3631"
           d="m 497.07,417.65 -0.26,-0.19 -0.24,-0.2 -0.24,-0.19 -0.22,-0.2 -0.23,-0.19 -0.21,-0.19 -0.2,-0.19 -0.2,-0.19 -0.19,-0.18 -0.18,-0.18 -0.18,-0.18 -0.17,-0.18 -0.16,-0.17 -0.15,-0.17 -0.15,-0.17 -0.14,-0.16 -0.13,-0.15 -0.13,-0.16 -0.12,-0.15 -0.11,-0.14 -0.11,-0.14 -0.1,-0.13 -0.09,-0.13 -0.09,-0.12 -0.08,-0.11 -0.08,-0.11 -0.07,-0.11 -0.06,-0.09 -0.06,-0.09 -0.05,-0.08 -0.05,-0.07 -0.04,-0.07 c -2.23,-3.44 -2.64,-6.58 -2.64,-6.62 0,-0.6 0.61,-0.6 1,-0.6 0.85,0 0.89,0.1 1.1,1 1.15,4.88 4.09,9.06 9.71,11.36 0.6,0.19 0.75,0.3 0.75,0.64 0,0.35 -0.29,0.5 -0.4,0.55 -2.19,0.84 -8.22,3.34 -10.11,11.72 -0.16,0.59 -0.2,0.73 -1.05,0.73 -0.39,0 -1,0 -1,-0.59 0,-0.1 0.45,-3.24 2.55,-6.58 1,-1.48 2.44,-3.23 4.58,-4.83 h -37.02 c -0.89,0 -1.8,0 -1.8,-1 0,-1 0.91,-1 1.8,-1 z"
           inkscape:connector-curvature="0"
           style="fill:#000000;stroke-width:0" /></g>    </g>
  </g>
</svg>
